<?xml version="1.0" encoding="utf-8"?>
<!-- Generator: Adobe Illustrator 26.0.1, SVG Export Plug-In . SVG Version: 6.00 Build 0)  -->
<svg version="1.1" id="Layer_1" xmlns="http://www.w3.org/2000/svg" xmlns:xlink="http://www.w3.org/1999/xlink" x="0px" y="0px"
	 viewBox="0 0 172.965 229.456" enable-background="new 0 0 172.965 229.456" xml:space="preserve">
<g>
	<g>
		<g>
			<path fill="#9EA2A2" d="M116.255,106.44l0.218-20.503c0-9.597-10.033-11.233-17.449-11.124
				c4.908-1.636,11.015-4.471,15.159-9.052c4.58-4.253,7.852-10.033,7.198-18.322c-0.982-13.959-18.322-20.83-47.113-17.994
				c-0.436,0-0.982,0.109-1.418,0.109C71.432,19.303,69.36,9.27,66.198,0.109l-1.527,1.418c-3.817,11.887-6.107,21.375-7.525,30.1
				c-17.231,2.945-29.227,6.98-29.227,6.98l-1.418,1.418c0,0,13.959-1.309,29.773-1.091c-1.745,17.994,0,35.116,0,67.506
				c-25.628-0.763-48.094,3.599-53.547,10.36C0.982,118.327,0,119.963,0,121.599c0.327,7.852,23.665,15.05,56.273,17.776
				l1.418,44.495l1.418-1.418l2.29-30.1c0-0.545,0.109-0.982,0.218-1.309c0.763,0.109,1.418,0.982,1.418,2.508l1.091,39.697
				l1.527-1.418l2.399-32.281c0-0.763,0.109-1.309,0.218-1.745c0.763,0.109,1.418,1.2,1.309,2.945l1.2,41.442l1.418-1.418
				l1.963-60.199c3.817,0.109,7.634,0.218,11.451,0.218c4.144,0,8.179-0.109,12.214-0.218l1.963,62.817l1.418-1.418l1.636-32.935
				c0-0.654,0.109-1.2,0.218-1.636c0.654,0.109,1.309,1.2,1.309,2.835l1.636,46.022l1.418-1.418l1.636-39.479
				c0-0.545,0.109-1.091,0.218-1.527c0.872,0,1.636,0.982,1.636,2.835l1.418,52.784l1.418-1.527l2.072-88.336
				c27.919-2.399,49.185-8.07,54.529-14.505c1.745-1.527,2.617-2.945,2.617-4.58C172.637,111.565,146.682,104.913,116.255,106.44
				 M56.273,129.996c-22.466-2.181-37.516-6.762-37.516-12.432c0-0.436,0.109-0.872,0.327-1.2
				c5.235-3.708,21.375-5.998,37.516-8.397c0,6.325-0.109,13.196-0.327,20.721V129.996z M101.859,52.784
				c0.872,6.325-0.982,11.124-4.253,14.723c-5.889,5.235-14.941,7.743-22.466,8.834c0.109-11.996,0-24.32-1.091-36.534
				C88.445,41.333,100.878,45.041,101.859,52.784 M97.715,131.305c-3.49,0.109-7.089,0.218-10.797,0.218
				c-4.362,0-8.506-0.109-12.651-0.218l0.218-5.017C74.05,113.31,74.922,97.061,75.14,79.83c10.579,1.309,23.229,4.253,23.011,11.56
				L97.715,131.305z M153.443,121.271c-5.235,4.144-19.085,7.307-37.407,8.943l0.218-22.03c20.939,2.726,38.061,5.78,38.061,10.906
				C154.316,119.745,153.989,120.508,153.443,121.271"/>
			<path fill="#CE1141" d="M173.074,120.181c-0.436-8.616-26.283-15.268-56.71-13.85l0.218-20.503
				c0-12.651-17.449-11.451-23.338-10.688c6.871-1.309,29.773-6.98,28.246-27.81c-0.982-13.959-18.322-20.83-47.113-17.994
				c-0.436,0-0.982,0.109-1.418,0.109C71.541,19.194,69.469,9.161,66.307,0c-4.035,12.433-6.325,22.248-7.634,31.299
				c-17.776,2.945-30.427,7.198-30.427,7.198s13.959-1.309,29.773-1.091c-1.745,18.213,0.109,35.662,0,68.924
				c-30.209-1.091-56.601,4.799-56.273,13.85c0.327,7.852,23.556,15.05,56.273,17.776l1.418,44.495l2.29-30.1
				c0.109-3.708,2.945-3.381,2.945-0.218l1.091,39.697l2.399-32.281c0-4.362,3.054-4.144,2.945-0.218l1.2,41.442l1.963-61.726
				c4.253,0.109,8.506,0.218,12.869,0.218c4.144,0,8.179-0.109,12.214-0.218l1.963,62.817l1.636-32.935
				c0-4.253,2.835-4.035,2.835-0.218l1.636,46.022l1.636-39.806c0.109-3.926,3.272-3.708,3.381,0l1.418,52.784l2.072-89.645v0.218
				C148.972,135.231,173.074,128.033,173.074,120.181 M103.277,51.475c2.29,17.449-15.377,23.12-28.137,24.974
				c0.109-12.433-0.109-25.519-1.309-38.17C88.991,39.697,102.186,43.296,103.277,51.475 M18.649,117.564
				c0-5.235,19.63-8.07,39.261-11.124c0,6.325-0.109,13.196-0.327,20.721l0.109,2.835C34.462,128.142,18.649,123.453,18.649,117.564
				 M74.268,131.196l0.218-5.017c-0.436-13.305,0.436-30.1,0.763-48.094c10.797,1.091,24.538,4.035,24.32,11.669l-0.436,41.442
				c-3.926,0.109-7.961,0.218-12.214,0.218C82.556,131.414,78.412,131.414,74.268,131.196 M116.037,130.214l0.327-23.665
				c21.593,2.726,39.479,5.889,39.479,11.124C155.624,123.453,139.484,128.142,116.037,130.214"/>
		</g>
	</g>
</g>
</svg>
