<?xml version="1.0" encoding="utf-8"?>
<!-- Generator: Adobe Illustrator 26.0.1, SVG Export Plug-In . SVG Version: 6.00 Build 0)  -->
<svg version="1.1" id="Layer_1" xmlns="http://www.w3.org/2000/svg" xmlns:xlink="http://www.w3.org/1999/xlink" x="0px" y="0px"
	 viewBox="0 0 108.2 108.3" enable-background="new 0 0 108.2 108.3" xml:space="preserve">
<g>
	<path fill="#FFFFFF" d="M0.913,54.1c0-29.297,23.792-53.187,53.187-53.187c29.297,0,53.187,23.792,53.187,53.187
		S83.495,107.287,54.1,107.287C24.803,107.287,0.913,83.495,0.913,54.1"/>
	<path d="M54.1,0.1C24.3,0.1,0,24.3,0,54.2s24.2,54.1,54.1,54.1s54.1-24.2,54.1-54.1S83.9,0.1,54.1,0.1 M93.2,24.1
		c6.2,8.1,9.7,17.5,10.2,27.7H83C83.4,41.7,87,32.2,93.2,24.1 M15,24.1c6.2,8.1,9.7,17.5,10.2,27.7H4.8C5.3,41.7,8.9,32.2,15,24.1
		 M15,84.1C8.8,76,5.3,66.6,4.8,56.4h20.4C24.8,66.6,21.2,76.2,15,84.1 M56.5,103.4V89.3h-4.7v14.1c-12.8-0.6-24.7-6.1-33.5-15.5
		c7.2-9,11.3-19.8,11.8-31.3v-4.7c-0.5-11.5-4.6-22.3-11.8-31.3c8.8-9.4,20.7-15,33.5-15.5v14h4.7V4.9C69.3,5.5,81.2,11,90,20.4
		c-7.2,9-11.3,19.8-11.8,31.3v4.7c0.5,11.5,4.6,22.3,11.8,31.3C81.2,97.3,69.3,102.8,56.5,103.4 M93.2,84.1C87,76,83.5,66.6,83,56.4
		h20.4C102.9,66.6,99.3,76.2,93.2,84.1"/>
	<polygon fill="#C8102E" points="42,31.5 42,76.6 66.2,76.6 66.2,70.4 48.5,70.4 48.5,31.5 	"/>
	<path fill="#1D428A" d="M74.3,46.7V28.1c0-2.8-1.2-3.9-3.8-3.9H37.7c-2.7,0-3.8,1.2-3.8,3.9v52.2c0,2.8,1.2,3.9,3.8,3.9h32.8
		c2.8,0,3.8-1.2,3.8-3.9V61.7h-6.5v16.8H40.3V29.8h27.5v16.8L74.3,46.7L74.3,46.7z"/>
	<path fill="#C8102E" d="M66.2,68.7V31.5H50.6l-0.2,37.2h6.2l0.1-11.6h3.2v11.6H66.2z M59.9,50.9h-3.2V37.8h3.2V50.9z"/>
</g>
</svg>
