<?xml version="1.0" encoding="utf-8"?>
<!-- Generator: Adobe Illustrator 26.0.1, SVG Export Plug-In . SVG Version: 6.00 Build 0)  -->
<svg version="1.1" id="Layer_3" xmlns="http://www.w3.org/2000/svg" xmlns:xlink="http://www.w3.org/1999/xlink" x="0px" y="0px"
	 viewBox="0 0 260 272.843" enable-background="new 0 0 260 272.843" xml:space="preserve">
<g>
	<path d="M253.868,88.043c-9.9-11-31.9-19.9-60.1-25.2c0.1-3.2,2.1-4.6,5.6-7.1c1.8-1.3,3.9-2.7,6-4.7c9.1-8.7-1.6-21.9-2-22.5
		l-5.9-7.2l1.4,9.2c1,6.3-1.3,8.5-8.2,13.3c-0.9,0.6-1.6,1.3-2.3,2c0.3-4.2,0.5-8.9-0.9-14.7c-1.4-5.9-4.3-8.2-4.3-8.2l-0.7,8.5
		c0,0.1-0.7,6.7-9.5,14.6c0.8-0.9,1.5-1.7,2.1-2.7c4.3-6.3,3.1-13.4,1.6-21.7l-0.3-1.7c-1.5-8.6,0.8-14,2.3-14.9
		c1.4-1.8,4.3-4.7,4.3-4.7s-1.5-0.7-5.8-0.1c-5.5,0.8-14.8,4.1-14.5,11.6c0.1,3.3,1.2,6.5,2.1,9.2c1,3,2,5.8,1.1,7.2
		c-0.7,1.1-2.7,2.1-5.9,2.6c-13,2.4-22.9,8.4-28,17.1c-1.7,2.9-2.8,5.9-3.4,9.2c-32.2,0.1-62.7,4.1-86.3,11.4
		c-26.5,8.2-41.1,19.4-42.2,32.3c-0.6,6.8,2.5,16.6,19.5,26l-0.1,0.1l4.8,2.3l0,0l2.5,1.2l0,0c7.8,3.5,17,6.5,27.3,9
		c-3.7,2.1-7,4.4-10,7.1c-16.5,13.5-26,33.6-26,55c0,19,7.4,36.9,20.9,50.4c13.5,13.5,31.3,20.9,50.4,20.9c33.7,0,63-23.9,69.7-56.8
		c5.7-17.2,5.1-35.6,4.8-42.6c-0.6-15.8,7.2-24.6,12.1-28.5c22.5-2.8,42.4-7.8,57.2-14.4l0,0l2.4-1.1l0,0l5.1-2.4l-0.1-0.1
		c11.9-6.7,18.6-14.5,19.3-22.8C260.568,98.443,258.468,93.043,253.868,88.043 M230.768,101.843c2,2.2,1.9,3.7,1.9,4.1
		c-0.2,2.6-3.4,5.7-8.8,8.5l0,0c-11.3,5.9-30.8,10.4-53.9,12.8c1-0.7,2.1-1.2,3.3-1.7l0.4-0.2c6.7-2.7,14.2-5.8,14.6-16.8
		c0.1-1.8,0.1-7.1,1.1-9c1.2-2.5,4.4-6.3,7.2-7.3l-4.7-0.9c-0.2,0-0.5,0-0.7,0c1.6-1.1,2.7-2.5,3.5-4
		C213.468,91.343,226.068,96.643,230.768,101.843 M27.568,104.543c0.8-9.1,33.5-21.1,86.5-23c-4.9,3.7-10.7,10.1-12.2,20.5l-0.5,3.9
		c-0.3,2.4-0.8,4.9-1.7,7.3c-2,5.3-7.8,9.8-13.9,13.1c-21.3-2.7-39.1-7.2-49.5-12.8l0,0
		C30.368,110.543,27.268,107.243,27.568,104.543"/>
	<path fill="#98002E" d="M20.868,206.643c1.9,9.4,7.2,20.6,17.9,28.1c3.2,2.3,6.7,4.1,10.4,5.5c-2.3-3.9-5-7.9-7.7-11.9
		c-5.1-7.5-10.4-15.3-13.7-23.6c-3.5-8.6-4.4-17.7-2.9-26.8c-2.7,7.4-4.2,15.4-4.2,23.7
		C20.668,203.343,20.768,204.943,20.868,206.643"/>
	<path fill="#98002E" d="M32.368,202.843c3.2,7.9,8.3,15.4,13.2,22.7c3.8,5.6,7.6,11.1,10.4,16.7c3.1,0.7,6.4,1.2,9.7,1.4
		c-3.4-4.9-6.4-10.4-8.9-16.8c-9.9-24.6-8.5-54.9,3.8-72.5c6.3-9.1,13.9-15.2,23.6-20.5c8.4-4.6,13.6-5.9,19-9.1
		c5.8-3.5,8.9-9.2,5.1-22.2c-1.1-3.8-1.3-6.8-1.1-9.1c-1.3,2.6-2.4,5.5-2.8,9l0,0c-0.6,3.7-0.9,7.7-2.4,11.8
		c-5.1,13.4-30,20.9-33.2,21.9c-9.4,2.9-17,7.2-22.9,12.4C28.868,163.643,25.768,186.343,32.368,202.843"/>
	<path fill="#98002E" d="M135.968,81.443c0.3,0.8,0.4,1.7,0.6,2.5c0.6,4.7-0.8,8.5-6.5,9.4c-5.9,1-7.9-4.2-8.4-8.4
		c0-1.5,0.1-2.6,0.2-3.5c-1,0-2,0-3,0.1c-1.9,1.1-4.4,2.8-6.8,5.2c-1.2,2.5-2.6,6.1-0.4,14.3c3.9,14.5,2.2,23.3-9.4,28.3
		c-14.9,6.4-24.4,10.2-37.1,26.2c-6.1,7.6-9.4,20.3-9.9,33c-0.5,12.4,2,25.6,6.4,36.4c2.9,7.2,6.3,13.5,10.3,18.9
		c4-0.2,8-0.7,12-1.6c-4.4-5.2-7-11.5-7.4-18.6c-1.5-23.6,11.2-33.5,30.7-49.1l8.7-7.3c34.9-29.6,24.7-59.7,28.5-85.5
		C141.668,81.543,138.868,81.543,135.968,81.443"/>
	<path fill="#98002E" d="M149.968,81.943c-1.1,5.1-1.5,10.5-1.9,16c-1.4,22.4-0.7,47.8-29.1,73l-8.6,6.9
		c-19,15.2-29.8,24.7-29.1,45.4c0.2,6.8,3.1,12.8,7.9,17.5c5.3-1.6,10.6-3.8,15.6-6.7c24.7-14,40.2-34.9,46.1-61.8
		c3.8-17,3.7-30.8,3.6-41.9c0-5.6,0.7-16.6,0.7-16.6c0.8-6.9,1.9-16.7,10-29.4c0.3-0.4,0.5-0.8,0.8-1.2
		C160.968,82.643,155.568,82.243,149.968,81.943"/>
	<path fill="#98002E" d="M158.268,153.943L158.268,153.943L158.268,153.943c-0.8,4.1-1,8.6-1.5,13.1c-0.2,1.7-0.5,3.4-0.7,5
		c-0.1,0.5-0.2,0.9-0.3,1.4c-6.2,28.3-22.3,50.3-48.3,65c-4.5,2.5-9,4.6-13.5,6.2c7.6,5,16.5,6.6,22.6,5.7
		c23.3-3.5,34.6-18.7,40.1-34.9c5.6-16.7,5-34.5,4.7-41.8c-0.9-24.6,18.1-33.7,18.1-33.7
		C164.768,139.043,159.868,145.443,158.268,153.943"/>
	<path fill="#98002E" d="M142.768,244.743c-9.5,8-19.8,9.7-24.4,10.4c-9.2,1.4-20-0.8-29.6-8.3c-0.2-0.1-0.3-0.3-0.5-0.4
		c-4.1,1.1-8.2,1.8-12.3,2.2c9.4,10.1,21.8,15.8,38.3,16.9c0.1,0,0.1,0,0.2,0l0,0c11.3-4.4,21.1-11.8,28.6-21.1
		C142.968,244.543,142.868,244.643,142.768,244.743"/>
	<path fill="#98002E" d="M56.068,261.643c0.2-5.2-1.3-10.3-3.7-15.4c-5.7-1.6-11.3-4.1-16.6-7.4c-3-1.8-5.7-4.6-8.2-7.3l0,0
		C33.768,244.343,43.768,254.843,56.068,261.643L56.068,261.643z"/>
	<path fill="#98002E" d="M103.568,268.743c-9.3-2.1-17.2-5.4-24.2-10.7c-3.6-2.7-6.8-5.8-9.8-9.2c-3.8,0-7.5-0.4-11.2-1.1
		c2.1,5.3,3.1,10.7,2.4,16.4l0,0c8.7,4,18.3,6.2,28.5,6.2c4.9,0,9.7-0.5,14.3-1.5C103.668,268.743,103.568,268.743,103.568,268.743"
		/>
	<path fill="#98002E" d="M183.368,100.043c-1.6,5.3-6.9,4.7-8.4,1.8c-2.4-4.6-1.5-8.1,1-10.5s6.6-3.7,10.7-5.5c0,0,0,0,0.1,0
		c-4.6-0.8-9.6-1.5-14.8-2.1c-0.1,0.1-0.1,0.2-0.2,0.2c-0.5,0.5-0.9,1.1-1.4,1.6c-8.3,12.4-9.3,21.7-10.1,28.8l-0.3,2.2
		c-0.5,3.7-0.4,8.4-0.4,13.9c0,0.7,0,1.5,0,2.3c-0.1,1.9-0.1,3.8-0.2,5.6h0.1c0.1-0.8,0.1-1.1,0.1-0.7c2.3-7.5,6.6-12,12.7-14.5
		c6.6-2.7,13-5.1,13.4-14.6c0.1-4,0.4-8,1.3-10c1.7-3.7,4.6-4.7,4.6-4.7C188.368,93.643,184.868,94.943,183.368,100.043"/>
	<path fill="#F9A01B" d="M191.268,62.343c0.5-6.4,6.5-7.6,12.4-13.1c7.5-7.1-2.3-19-2.3-19c1.2,8-2.5,11-9.2,15.8
		c-2.1,1.5-3.7,3.6-3.9,6.3c-0.2,3-0.4,6.2-1.1,9.4C188.568,61.843,189.968,62.043,191.268,62.343"/>
	<path fill="none" stroke="#F9A01B" stroke-width="0.174" d="M191.268,62.343c0.5-6.4,6.5-7.6,12.4-13.1c7.5-7.1-2.3-19-2.3-19
		c1.2,8-2.5,11-9.2,15.8c-2.1,1.5-3.7,3.6-3.9,6.3c-0.2,3-0.4,6.2-1.1,9.4C188.568,61.843,189.968,62.043,191.268,62.343z"/>
	<path fill="#F9A01B" d="M170.668,51.243c-1.8,1.3-3.5,2.7-5.1,4.1c-1.1,1.1-2.2,2.1-3.2,3.2c6.6,0.6,13,1.3,19.2,2.2
		c3.9-7.2,5.8-15.3,3.5-29.2C184.968,31.543,184.468,40.943,170.668,51.243"/>
	<path fill="none" stroke="#F9A01B" stroke-width="0.174" d="M170.668,51.243c-1.8,1.3-3.5,2.7-5.1,4.1c-1.1,1.1-2.2,2.1-3.2,3.2
		c6.6,0.6,13,1.3,19.2,2.2c3.9-7.2,5.8-15.3,3.5-29.2C184.968,31.543,184.468,40.943,170.668,51.243z"/>
	<path fill="#F9A01B" d="M133.768,57.143c7.5,0.1,14.9,0.4,22.2,0.9c0.2-0.2,0.5-0.5,0.7-0.7c4.8-5.2,12.3-9.6,16.3-15.4
		s2.4-12.9,0.9-21.6c-2.6-14.9,3.7-17.6,3.7-17.6s-12.6,1.7-12.3,9c0.3,9.8,10.4,18.9-4.8,21.7c-16.6,3-27,12-29.2,23.8
		C132.168,57.143,132.968,57.143,133.768,57.143"/>
	<path fill="none" stroke="#F9A01B" stroke-width="0.174" d="M133.768,57.143c7.5,0.1,14.9,0.4,22.2,0.9c0.2-0.2,0.5-0.5,0.7-0.7
		c4.8-5.2,12.3-9.6,16.3-15.4s2.4-12.9,0.9-21.6c-2.6-14.9,3.7-17.6,3.7-17.6s-12.6,1.7-12.3,9c0.3,9.8,10.4,18.9-4.8,21.7
		c-16.6,3-27,12-29.2,23.8C132.168,57.143,132.968,57.143,133.768,57.143z"/>
	<path fill="#FFFFFF" d="M133.768,61.043c-69.7-0.7-127.8,17.3-129.8,40.1c-0.8,9.1,7.4,17.6,22,24.6c9,4.3,20.4,8,33.7,11
		c2.7-1.2,5.4-2.2,8.3-3.1c2.3-0.7,6.6-2.1,11.3-4.1c-19.5-2.8-35.3-7.2-45-12.5c-7.2-3.9-11-8.2-10.6-12.8
		c1.4-15.4,50.1-27.3,108.9-26.7c58.8,0.6,105.4,13.5,104,28.8c-0.4,4.2-4.3,8.1-10.9,11.6c-12.3,6.5-34,11.4-60.3,13.7
		c-0.9,1.2-1.7,2.6-2.4,4.2c12-4.5,25.8,2.2,25.8,2.2s0.9,0.4,1.6,0.8c17.5-3.1,32.5-7.6,43.8-12.9c13.3-6.3,21.4-14,22.1-22.2
		C258.168,80.843,203.368,61.743,133.768,61.043"/>
</g>
<g id="Layer_2_00000099625353731237639010000014945919299063774110_">
</g>
</svg>
