<?xml version="1.0" encoding="utf-8"?>
<!-- Generator: Adobe Illustrator 26.0.1, SVG Export Plug-In . SVG Version: 6.00 Build 0)  -->
<svg version="1.1" id="Layer_2_1_" xmlns="http://www.w3.org/2000/svg" xmlns:xlink="http://www.w3.org/1999/xlink" x="0px" y="0px"
	 viewBox="0 0 280 319.4" enable-background="new 0 0 280 319.4" xml:space="preserve">
<g id="Layer_2_2_">
	<path fill="#FFFFFF" d="M280,0l-40.1,40.3L206.3,6.9l-33.6,33.4L139.1,6.7l-33.4,33.4L72.3,6.7L38.9,40.3L0,0.8v178.1
		c0,77.5,62.2,140.5,139.6,140.5S280,256.4,280,178.9V0z"/>
	<path fill="#63717A" d="M12.5,203.3c3.3,16.8,9.9,32.5,19.5,47c5.9-10.3,17.5-22.8,40.4-28.3c-1.7-5.9-3.3-12.1-4.6-18.6
		L12.5,203.3L12.5,203.3z"/>
	<path fill="#63717A" d="M41.1,262.3c24.7,29,60.4,45.6,97.8,45.9c-3.6-1.8-6.9-3.8-10.4-6c-15.9-10.3-37.8-30.3-51.9-67.4
		C54.5,239.7,45,252.3,41.1,262.3"/>
	<path fill="#63717A" d="M90.5,233c10.1,25.2,25.2,44.6,45,57.6c13.1,8.6,25.8,12.4,34,14.3c20.8-4.7,40.2-14.8,56.3-29
		c-12.6-1.4-25.8-8.6-39.3-16.3c-21.5-12-48.1-26.9-84.1-26.9C98.5,232.5,94.5,232.6,90.5,233"/>
	<path fill="#592D81" d="M144.5,137.7H98.3v55.1h19.2v-44.3H132v44.3h18.3v-47.3C150.3,141.4,147.7,137.7,144.5,137.7"/>
	<path fill="#592D81" d="M158.3,137.7V185c0,4.2,2.6,7.8,5.7,7.8h30.3h16v-33.6h-18.4v22.5h-14.4v-33.6h32.9v-10.6L158.3,137.7
		L158.3,137.7z"/>
	<polygon fill="#592D81" points="47,137.7 36.6,160.1 30.6,160.1 30.6,137.7 11.4,137.7 11.4,192.9 30.6,192.9 30.6,170.7 
		36.6,170.7 47,192.9 66.2,192.9 52.8,165.5 66.2,137.7 	"/>
	<rect x="71.2" y="137.7" fill="#592D81" width="19.8" height="55.1"/>
	<path fill="#592D81" d="M268.6,152.7v-14.9h-50.8V163c0,4.2,2.6,7.6,5.7,7.6h25.9v12h-31.7V193h50.8v-25.3c0-3.9-2.2-7.6-5-7.6
		h-26.7v-11.6h13.4v4.2L268.6,152.7L268.6,152.7z"/>
	<polygon fill="#592D81" points="214.5,81.9 198.4,81.9 231.7,48.4 206.4,23 172.8,56.5 139.3,23 80.6,81.9 64.3,81.9 97.8,48.3 
		72.5,23 39.1,56.5 11.4,29 11.4,83.9 11.4,127.7 268.6,127.7 268.6,85.2 268.6,27.8 	"/>
	<path fill="#FFFFFF" d="M67.6,117.1c0,1.4,1.1,2.6,2.6,2.6h14.3v-3.8H72.7v-12.5h11.8v-3.9h-17v17.6L67.6,117.1L67.6,117.1z"/>
	<path fill="#FFFFFF" d="M44,99.4v20.3h5.2v-5.3h6.6v5.3H61v-17.8c0-1.5-1.2-2.6-2.9-2.6h-14v0.1H44z M55.7,110.5h-6.6v-7.3h6.6
		V110.5z"/>
	<path fill="#FFFFFF" d="M256.3,99.4h-11.9c-1.4,0-2.6,1.1-2.6,2.6v15.1c0,1.4,1.1,2.6,2.6,2.6h11.9c1.4,0,2.6-1.2,2.6-2.6V102
		C259.1,100.5,257.9,99.4,256.3,99.4 M253.8,115.7h-6.5v-12.5h6.5V115.7z"/>
	<path fill="#FFFFFF" d="M20.4,108.9c0,1.4,1.1,2.6,2.6,2.6h9.2v4.4H20.4v3.9h17v-9.6c0-1.3-0.9-2.5-2.4-2.6h-0.1h-9.4v-4.4h11.8
		v-3.9H20.4V108.9z"/>
	<path fill="#FFFFFF" d="M128.7,99.4h-14.4v20.3h5.2v-5.3h6.6v5.3h5.2v-17.8C131.4,100.5,130.1,99.4,128.7,99.4 M126,110.5h-6.6
		v-7.3h6.6V110.5z"/>
	<polygon fill="#FFFFFF" points="219,103.2 225,103.2 225,119.7 230.1,119.7 230.1,103.2 236,103.2 236,99.4 219,99.4 	"/>
	<path fill="#FFFFFF" d="M164.5,99.4h-26.2v20.3h5.2v-16.4h6.5v16.4h5.3v-16.4h6.5v16.4h5.2v-17.8C167,100.5,165.9,99.4,164.5,99.4"
		/>
	<path fill="#FFFFFF" d="M211.1,99.4h-14.5v20.3h5.2v-16.4h6.6v16.4h5.2v-17.8C213.7,100.5,212.6,99.4,211.1,99.4"/>
	<path fill="#FFFFFF" d="M174.2,117.1c0,1.4,1.1,2.6,2.6,2.6h14.4v-3.8h-11.8v-4.4h11.8v-3.9h-11.8v-4.5h11.8v-3.8h-17V117.1z"/>
	<path fill="#FFFFFF" d="M104.9,112.2h2.8v-10.4c0-1.5-1.2-2.6-2.9-2.6H90.6v20.3h5.2v-7.4h3.8l3.2,7.4h5L104.9,112.2z M102.6,108.3
		H96v-5.2h6.6V108.3z"/>
	<path fill="#63717A" d="M99.4,218.9c27.3-0.5,54.6,6.4,89.1,26c25.6,14.5,36.8,18.9,44.5,17.1c7-1.7,13.7-6,25.2-30.3
		c4.4-9.4,7.6-20.3,9-28.4H81.4c1.3,5.7,2.6,11.3,4.3,16.3C90.1,219.2,94.9,218.9,99.4,218.9"/>
</g>
</svg>
