<?xml version="1.0" encoding="utf-8"?>
<!-- Generator: Adobe Illustrator 26.0.1, SVG Export Plug-In . SVG Version: 6.00 Build 0)  -->
<svg version="1.1" id="Layer_1" xmlns="http://www.w3.org/2000/svg" xmlns:xlink="http://www.w3.org/1999/xlink" x="0px" y="0px"
	 viewBox="0 0 374.5 162.2" enable-background="new 0 0 374.5 162.2" xml:space="preserve">
<g>
	<path fill="#FFFFFF" d="M261.6,142.8h-22.7l30.9-70.9h22.9C276,109.9,266.7,131,261.6,142.8 M187.1,136.9l-19.7-65.1h48.3
		C201.4,104.3,192.5,124.4,187.1,136.9 M118.2,116.1l5.2-12l3.6,12H118.2z M316.1,142.8l38.8-89H174.7L167.2,71L162,53.8h-36.1
		c0,0-23.8,54.3-30.6,69.9c0.6-3.1,1-6.4,1-9.7c0-0.4,0-0.9,0-1.3c2.7-6.1,23.7-54.3,28-64.1h99L244.5,0H127.1L88.6,88.2
		C80.1,74.8,65.1,66,48.1,66C21.5,66,0,87.5,0,114.1s21.5,48.1,48.1,48.1c16.2,0,30.4-8,39.2-20.2l-8.2,18.9h19.7l11.6-26.6h22.2
		l8,26.6H348l7.9-18.1H316.1z"/>
	<path fill="#0D2240" d="M2.9,116.2c0.6,11.9,5.7,22.5,13.7,30.3c8.5-7.5,14.1-18.3,14.7-30.3L2.9,116.2L2.9,116.2z"/>
	<path fill="#FFA400" d="M35.2,116.2c-0.6,13.1-6.5,24.8-15.6,33c7.3,5.9,16.4,9.6,26.5,10.1v-43H35.2V116.2z"/>
	<path fill="#0D2240" d="M2.9,112.2h28.4c-0.5-12.2-6.1-23.1-14.7-30.6C8.5,89.4,3.4,100.2,2.9,112.2"/>
	<path fill="#FFA400" d="M19.6,78.9c9.2,8.3,15.1,20.1,15.6,33.3H46V68.8C36,69.3,26.9,73,19.6,78.9"/>
	<path fill="#0D2240" d="M93.1,116.2H64.8c0.6,12.1,6.2,22.8,14.7,30.3C87.4,138.7,92.6,128.1,93.1,116.2"/>
	<path fill="#2B5134" d="M60.8,116.2H50v43c10-0.4,19.2-4.1,26.5-10.1C67.3,140.9,61.4,129.2,60.8,116.2"/>
	<path fill="#2B5134" d="M76.5,78.9C69.2,73,60.1,69.3,50,68.8v43.4h10.8C61.3,99,67.3,87.2,76.5,78.9"/>
	<path fill="#0D2240" d="M128.9,2.8L88.8,94.7c-2.3-4.9-5.5-9.4-9.4-13.1c-8.6,7.6-14.2,18.4-14.7,30.6h28.4l29-66.5h84.8l18.7-42.9
		H128.9z"/>
	<polygon fill="#2B5134" points="221.2,45.7 239.9,2.8 231.9,2.8 213.2,45.7 	"/>
	<path fill="#0D2240" d="M113.8,119c3.3-7.6,6.8-15.5,10.1-23.1l7,23.1H113.8z M142.6,158h33.7L145.9,56.7h-18.2L83.2,158h13.5
		c0,0,5-11.4,11.7-26.6h26.2L142.6,158z"/>
	<polygon fill="#2B5134" points="179.4,147.8 184.1,137.1 159.7,56.7 151.7,56.7 	"/>
	<path fill="#0D2240" d="M297.3,145.6l39-88.9h-56.7L274.2,69h22.9c-11.8,27-39,88.9-39,88.9h88l5.4-12.3L297.3,145.6L297.3,145.6z"
		/>
	<polygon fill="#2B5134" points="237,139.9 273.3,56.7 265.3,56.7 229,139.9 	"/>
	<polygon fill="#2B5134" points="314.2,139.9 350.5,56.7 342.5,56.7 306.2,139.9 	"/>
	<path fill="#0D2240" d="M259.2,56.7h-82.7L171.1,69H220c-11.8,27-39,88.9-39,88.9h71.3l5.4-12.3h-37.4L259.2,56.7z"/>
	<g>
		<path fill="#0D2240" d="M255,39.1h-10.5l16-36.3h-7.8l-16.6,37.5c-1.3,2.9,0,5.3,3,5.3h15.3c2.9,0,6.4-2.4,7.7-5.3l16.6-37.5h-7.6
			L255,39.1z"/>
	</g>
	<polygon fill="#0D2240" points="312.7,2.8 285.7,2.8 282.8,9.4 293.3,9.4 277.3,45.7 285,45.7 301,9.4 309.8,9.4 	"/>
	<path fill="#0D2240" d="M332.2,2.8h-7.6l-29.1,42.9h7.3l4.3-6.5h10.3l-1.5,6.5h7.7L332.2,2.8z M323.5,13.5L319,32.3h-7.5
		L323.5,13.5z"/>
	<polygon fill="#0D2240" points="366.8,2.8 358.8,20.9 348.4,20.9 356.4,2.8 348.6,2.8 329.7,45.7 337.4,45.7 345.4,27.5 
		355.9,27.5 347.9,45.7 355.6,45.7 374.5,2.8 	"/>
</g>
</svg>
