<?xml version="1.0" encoding="utf-8"?>
<!-- Generator: Adobe Illustrator 26.0.1, SVG Export Plug-In . SVG Version: 6.00 Build 0)  -->
<svg version="1.1" id="Layer_1" xmlns="http://www.w3.org/2000/svg" xmlns:xlink="http://www.w3.org/1999/xlink" x="0px" y="0px"
	 viewBox="0 0 142 31" style="enable-background:new 0 0 142 31;" xml:space="preserve">
<style type="text/css">
	.st0{fill:#FFE418;}
	.st1{fill:#0C6C4E;}
</style>
<g>
	<g>
		<path class="st0" d="M78.3,24.5c2.6,0,4-0.9,4-2.7c0-1.8-1.4-2.8-4.2-2.8c-1,0-2.2,0.1-3.6,0.3v-6.1c1.1,0.1,2.1,0.2,3.1,0.2
			c2.8,0,4.2-0.8,4.2-2.8c0-1.9-1.3-2.8-4-2.8c-1.7,0-3.9,0.5-6.6,1.3V2.7c2.4-0.9,5.3-1.2,8.7-1.2c7.4,0,11.7,3.3,11.7,8.4
			c0,3.1-2,5.4-5.5,6.2c3.9,0.8,5.9,3,5.9,6.4c0,5.3-4.3,8.4-12.6,8.4c-2.8,0-5.5-0.4-8.3-1.1v-6.6C73.9,24,76.3,24.5,78.3,24.5
			L78.3,24.5z M109.2,11.9c5.8,0,9.7,3.7,9.7,9c0,5.8-4.4,9.8-11.4,9.8c-8.2,0-13.5-5.3-13.5-13.9C94,7,99.6,1.5,109.7,1.5
			c2.2,0,4.5,0.3,6.9,0.8v6.4c-2.1-0.7-4.3-1-6.5-1c-4.5,0-6.5,1.9-6.6,6C105,12.4,106.8,11.9,109.2,11.9L109.2,11.9z M110,20.7
			c0-2.3-1.3-3.8-3.2-3.8s-3.1,1.4-3.1,3.8c0,2.3,1.3,3.8,3.1,3.8C108.8,24.5,110,23,110,20.7z M121.8,2.2h19.1v6.7h-10.2v4.2
			c0.8,0,1.4-0.1,1.6-0.1c6.3,0,9.7,3.3,9.7,8.8c0,5.7-4.2,9-12.2,9c-2.8,0-5.6-0.4-8.4-1.1v-6.3c2.2,0.6,4,0.9,5.6,0.9
			c3.3,0,5-1.1,5-3.2c0-2.3-1.8-3.5-5.5-3.5c-1.6,0-3.1,0.3-4.7,0.7V2.2L121.8,2.2z"/>
		<path class="st1" d="M0,0h9.7v11.8C11,9.9,12.9,9,15.5,9c5.6,0,8.8,4,8.8,11.1c0,6.8-3.2,10.9-8.6,10.9c-3.3,0-5.5-1.2-6.7-3.9
			v3.6H0V0z M9.4,19.9c0,3.1,0.7,4.6,2.4,4.6c1.7,0,2.4-1.5,2.4-4.6c0-3.1-0.7-4.6-2.4-4.6S9.4,16.8,9.4,19.9z M49,21.9H35.6
			c0.2,2.3,2,3.4,5.2,3.4c2.3,0,4.6-0.4,6.9-1.3v5.4c-2.2,0.9-5.3,1.4-8.9,1.4c-8.2,0-12.7-4-12.7-11.1c0-6.9,4.4-11.1,11.6-11.1
			c8.1,0,11.2,3.8,11.2,12L49,21.9z M40.6,17.9v-0.6c0-2.4-0.9-3.7-2.5-3.7c-1.7,0-2.5,1.4-2.5,3.8v0.6H40.6z M68.1,9.1v6.2h-4.5v5
			c0,2.6,0.4,3.8,2.3,3.8c0.5,0,1.2-0.1,2.1-0.3v6c-2.1,0.6-4.2,0.9-6.4,0.9c-2.7,0-4.8-0.9-6-2.4c-1.6-2-1.6-4.6-1.6-8v-5.1h-3.4
			V9.1h3.4V4.5l9.7-3.1v7.8H68.1z"/>
	</g>
</g>
</svg>
