<?xml version="1.0" encoding="utf-8"?>
<!-- Generator: Adobe Illustrator 24.2.1, SVG Export Plug-In . SVG Version: 6.00 Build 0)  -->
<svg version="1.1" id="Design" xmlns="http://www.w3.org/2000/svg" xmlns:xlink="http://www.w3.org/1999/xlink" x="0px" y="0px"
	 viewBox="0 0 512 109.5" enable-background="new 0 0 512 109.5" xml:space="preserve">
<path id="_x3C_black-box_x3E__1_" fill="#000810" d="M489.4,93.6c8.1-11.5,12.3-25.1,12.3-39.1c0-13.9-4.2-27.4-12.2-38.9
	c-4.2-6.2-9.7-10.2-16.9-10.2H279.9c4.8,1.4,8.8,4.9,12,9.7c8,11.7,12.2,25.3,12.2,39.4c0,14.2-4.3,27.9-12.3,39.6
	c-3.3,5-7.3,8.6-12.3,9.9h193.2C479.7,104.1,485.2,100,489.4,93.6z"/>
<path id="_x3C_white-box_x3E__1_" fill="#FFFFFF" d="M22.7,15.8c-8.1,11.6-12.4,25.1-12.4,39.1c0,14.1,4.3,27.7,12.5,39.3
	c3.4,6.2,9.8,9.8,16.9,9.8h239.7c5-1.4,9-5,12.3-9.9c8.1-11.7,12.3-25.4,12.3-39.6c0-14.1-4.2-27.7-12.2-39.4
	c-3.2-4.8-7.1-8.3-12-9.7h-240C32.6,5.5,26.1,9.4,22.7,15.8z"/>
<path id="_x3C_bet_x3E__1_" fill="#000810" d="M35.9,15.4h47.4c3.4,0,6.6,0.4,9.7,1.3s5.8,2.2,8.2,3.9c2.4,1.7,4.2,3.9,5.7,6.5
	c1.4,2.6,2.1,5.6,2.1,9.1c0,2.8-0.3,5.2-1,7.3s-1.5,3.8-2.5,5.2c-0.8,1.2-1.8,2.1-2.8,2.9c-0.2,0.2-1.4-0.9,0.3,0.1
	c1.7,1,3.1,2.4,4.4,4s2.3,3.5,3,5.7c0.8,2.2,1.1,4.5,1.1,6.9c0,3.7-0.7,7-2.1,10s-3.3,5.4-5.6,7.5c-2.4,2-5.1,3.6-8.2,4.6
	c-3.1,1.1-6.4,1.6-9.8,1.6H35.9V15.4z M83.1,47.5c3.1,0,5.6-0.1,7.3-1.9c1.8-1.8,2.6-3.4,2.6-5.9c0-2.6-0.9-4.2-2.6-6
	c-1.8-1.8-4.2-1.9-7.3-1.9H52.9v15.6h30.2V47.5z M84.3,75.7c3.4,0,5.8,0,7.3-1.6s2.2-3.3,2.2-6.3c0-2.5-0.8-4.1-2.3-5.9
	C90,60.1,87.4,60,83.8,60H52.9v15.8L84.3,75.7L84.3,75.7z M118.4,14.8h70.8v16.7h-51.5v13.9h50.5v17h-50.5V76h51.5v15.9h-70.8
	C118.4,91.9,118.4,14.8,118.4,14.8z M227.8,31.3h-32.6V14.8h84v16.5h-31.6v60.6h-19.8V31.3z"/>
<path id="_x3C_us_x3E__1_" fill="#FFFFFF" d="M335.5,92.4c-4.7-1.5-8.8-3.7-12.2-6.6c-3.4-2.8-6-6.2-8-10.2c-1.9-3.9-2-8.3-2-13.1
	V14.8h20.9v47.9c0,4.1,1.3,7.5,4,10.1c2.7,2.6,10.7,3.9,15.8,3.9c4.8,0,12.7-1.2,15.3-3.7c2.6-2.5,3.9-5.9,3.9-10.3V14.8h21.2v47.8
	c0,5-0.9,9.4-2.8,13.4s-4.5,7.3-7.8,10.1c-3.3,2.7-7.4,4.9-12.2,6.4c-4.8,1.5-12.5,2.2-18.2,2.2C347.9,94.7,340.2,94,335.5,92.4z
	 M479.4,70.3c0-3.4-0.6-6.3-1.8-8.8c-1.2-2.5-3.2-4.7-6-6.5c-2.8-1.9-6.4-3.5-10.9-4.9s-10-2.7-16.5-4c-5.5-1-9.8-2-13-2.9
	s-5.6-1.9-7.2-2.9s-2.7-2-3.1-3.1c-0.3-0.8-0.6-1.8-0.6-2.9c0.2-2.7,1.8-4.7,4.9-5.9c3.3-1.3,7.7-1.9,13.2-1.9c6,0,10.7,1,13.9,3
	c3.3,2,4.9,4.8,4.9,8.4v0.7v1.7h19.5v-1.7v-0.7v-1.7c0-3.4-0.8-6.6-2.3-9.5s-3.9-5.4-7.1-7.4s-7.2-3.6-12-4.8
	c-4.8-1.1-10.5-1.7-17.1-1.7c-6.4,0-11.9,0.5-16.6,1.5s-8.6,2.5-11.7,4.3c-3.1,1.9-5.4,4.1-7,6.8c-1.5,2.6-2.3,5.6-2.3,8.8
	c0,0.3,0,0.6,0,0.9c0,0.3,0,0.5,0,0.8c0,3.1,0.7,5.8,2,8.2c1.3,2.3,3.3,4.4,6,6.2s6.1,3.4,10.2,4.7c4.1,1.4,9,2.7,14.6,3.9
	c6.1,1.3,11,2.4,14.6,3.4s6.4,2.1,8.3,3.1s3.1,2.2,3.6,3.4c0.4,1,0.7,2.1,0.8,3.4c-0.2,2.7-1.7,4.9-4.6,6.4c-3.1,1.7-8.4,2.5-16,2.5
	c-8,0-13.8-1.1-17.2-3.4c-3.5-2.3-5.2-5.6-5.2-9.8v-2.1v-1.7h-18.6v1.7v2.9v1.7c0,3.6,0.8,6.8,2.4,9.8s4.1,5.5,7.4,7.7
	c3.4,2.2,7.7,3.8,12.8,5c5.2,1.2,11.4,1.8,18.6,1.8c13.2,0,23-2,29.4-6.1c6.4-4,9.6-9.6,9.6-16.6c0-0.3,0-0.6,0-0.9
	C479.4,70.8,479.4,70.6,479.4,70.3z"/>
<linearGradient id="_x3C_border_x3E__2_" gradientUnits="userSpaceOnUse" x1="256" y1="112" x2="256" y2="2.4" gradientTransform="matrix(1 0 0 -1 0 112)">
	<stop  offset="0" style="stop-color:#DFE4E7"/>
	<stop  offset="0.4159" style="stop-color:#DDE2E5"/>
	<stop  offset="0.6435" style="stop-color:#D5DADE"/>
	<stop  offset="0.825" style="stop-color:#C7CED2"/>
	<stop  offset="0.9821" style="stop-color:#B4BCC1"/>
	<stop  offset="1" style="stop-color:#B1B9BF"/>
</linearGradient>
<path id="_x3C_border_x3E__1_" fill="url(#_x3C_border_x3E__2_)" d="M481.5,0c7.5,0,13.3,4.5,17.7,11.4
	c8.4,12.8,12.8,27.7,12.8,43.2c0,15.6-4.5,30.6-12.9,43.4c-4.4,7-10.2,11.6-17.6,11.6H31c-7.5,0-14.2-3.9-17.8-10.9
	C4.5,85.7,0,70.6,0,55s4.5-30.6,13-43.5C16.6,4.4,23.4,0,31,0H481.5z M472.6,5.5H39.8c-7.2,0-13.7,4-17.1,10.3
	c-8.1,11.6-12.4,25.1-12.4,39.1c0,14.1,4.3,27.7,12.5,39.3c3.4,6.2,9.8,9.8,16.9,9.8h432.9c7,0,12.6-4.1,16.7-10.4
	c8.1-11.5,12.3-25.1,12.3-39.1c0-13.9-4.2-27.4-12.2-38.9C485.4,9.5,479.8,5.5,472.6,5.5"/>
</svg>
