<?xml version="1.0" encoding="utf-8"?>
<!-- Generator: Adobe Illustrator 26.0.1, SVG Export Plug-In . SVG Version: 6.00 Build 0)  -->
<svg version="1.1" id="Layer_1" xmlns="http://www.w3.org/2000/svg" xmlns:xlink="http://www.w3.org/1999/xlink" x="0px" y="0px"
	 viewBox="0 0 136.2 35.6" style="enable-background:new 0 0 136.2 35.6;" xml:space="preserve">
<path d="M7.7,5.5C8.3,5.3,9,5.2,9.6,5.1c0.8-0.1,1.5-0.2,2.3-0.2c1.4,0,2.9,0.3,4.2,0.8C17.3,6.3,18.3,7,19.2,8
	c0.9,1,1.5,2.2,1.9,3.4c0.4,1.4,0.7,2.8,0.7,4.2c0,1.8-0.3,3.5-0.9,5.2c-0.5,1.4-1.4,2.6-2.5,3.6c-1.1,1-2.4,1.7-3.9,2.1
	c-1.6,0.5-3.2,0.7-4.9,0.7c-1.8,0-3.5-0.2-5.3-0.5C2.8,26.4,1.4,26,0,25.5V-2.4h7.7V5.5z M7.7,21.3c0.7,0.2,1.3,0.3,2,0.3
	c1.2,0,2.4-0.5,3.2-1.4c0.8-0.9,1.2-2.3,1.2-4.2c0-1.8-0.4-3.2-1.2-4.1c-0.8-0.9-1.9-1.3-3.1-1.3c-0.4,0-0.8,0-1.1,0.1
	c-0.4,0.1-0.7,0.2-1.1,0.3V21.3z"/>
<path d="M30.2,17.5c0.1,1.3,0.5,2.3,1.3,3c0.8,0.7,1.9,1.1,3,1.1c0.9,0,1.7-0.2,2.5-0.5c0.7-0.4,1.4-0.9,1.9-1.6l4.7,3.7
	c-0.5,0.6-1,1.1-1.6,1.6c-1.4,1.1-3,1.8-4.8,2.2c-1.1,0.2-2.3,0.3-3.4,0.3c-1.5,0-2.9-0.2-4.3-0.7c-2.7-0.9-4.8-2.9-5.9-5.5
	c-0.6-1.5-0.9-3.2-0.9-4.8c0-1.6,0.3-3.2,0.8-4.7c0.5-1.3,1.3-2.5,2.3-3.5c1-1,2.2-1.7,3.5-2.2c1.4-0.5,2.9-0.8,4.4-0.7
	c3.2,0,5.8,1,7.7,3.1s2.9,5.2,2.9,9.5H30.2z M37,13.4c0-1-0.4-1.9-1-2.7c-0.5-0.6-1.3-1-2.2-1c-0.9,0-1.7,0.4-2.3,1
	c-0.7,0.7-1.1,1.7-1.2,2.7L37,13.4z"/>
<path d="M44,10.7V5.4h3V0h7.7v5.4h3.3l1.9,5.3h-5.2v8.6c0,0.6,0.1,1.2,0.2,1.7c0.2,0.4,0.5,0.6,1.1,0.6c0.5,0,1-0.1,1.5-0.3
	c0.5-0.2,0.9-0.5,1.3-0.8l2,4.6c-1,0.7-2,1.2-3.2,1.5c-1.3,0.4-2.6,0.5-4,0.5c-1.1,0-2.2-0.1-3.2-0.5c-0.8-0.3-1.5-0.8-2.1-1.4
	c-0.5-0.6-0.9-1.4-1.1-2.2c-0.2-1-0.3-1.9-0.3-2.9v-9.4L44,10.7z"/>
<path d="M66.9,26.8L57.4,0h7.5l5.5,16.7l3.3-11.3h5L82,16.7l3.2-11.3h7.9l-7.6,21.4h-5.9l-3.4-11.2l-3.4,11.2H66.9z"/>
<path d="M105.2,26.8l-0.6-1.7c-0.7,0.6-1.5,1.1-2.4,1.4c-1.1,0.4-2.3,0.6-3.5,0.6c-0.9,0-1.9-0.1-2.8-0.4c-0.8-0.3-1.6-0.7-2.2-1.3
	c-0.6-0.6-1.1-1.3-1.5-2c-0.4-0.9-0.5-1.8-0.5-2.7c-0.1-1.9,0.8-3.6,2.2-4.8c0.7-0.6,1.5-1,2.4-1.4c0.9-0.4,1.9-0.6,2.9-0.7
	c0.9-0.1,1.8-0.3,2.6-0.3s1.6-0.1,2.2-0.2v-0.5c0-0.9-0.3-1.5-0.8-1.9c-0.6-0.4-1.3-0.6-2-0.6c-0.8,0-1.6,0.2-2.4,0.5
	c-0.8,0.3-1.5,0.8-2.2,1.3l-3.5-3.8c1.2-1,2.5-1.8,4-2.4c1.7-0.6,3.4-0.9,5.2-0.9c2.8,0,5.1,0.7,6.8,2c1.7,1.4,2.5,3.5,2.5,6.3v13.5
	H105.2z M104.1,17.1c-0.4,0-0.9,0.1-1.3,0.1s-0.9,0.1-1.4,0.2c-0.9,0.1-1.6,0.5-2,0.9c-0.4,0.5-0.6,1-0.6,1.6c0,0.6,0.2,1.1,0.7,1.5
	c0.5,0.4,1.1,0.6,1.8,0.6c0.5,0,1-0.1,1.5-0.3c0.5-0.2,0.9-0.4,1.3-0.7V17.1z"/>
<path d="M113.7,29.1c0.5,0.3,1,0.5,1.5,0.6c0.5,0.2,1,0.3,1.5,0.3c0.5,0,0.9-0.1,1.3-0.3c0.4-0.3,0.7-0.7,0.9-1.1l1.2-2.8L111,5.4
	h8.4l4.4,12.5l4.3-12.5h7.9l-10.8,25.3c-0.8,1.8-1.8,3-3.1,3.8c-1.4,0.8-3,1.1-4.6,1.1c-1,0-2.1-0.1-3.1-0.3
	c-0.9-0.2-1.8-0.5-2.7-0.9L113.7,29.1z"/>
</svg>
