<?xml version="1.0" encoding="utf-8"?>
<!-- Generator: Adobe Illustrator 26.0.1, SVG Export Plug-In . SVG Version: 6.00 Build 0)  -->
<svg version="1.1" id="Layer_1" xmlns="http://www.w3.org/2000/svg" xmlns:xlink="http://www.w3.org/1999/xlink" x="0px" y="0px"
	 viewBox="0 0 194.8 182.7" style="enable-background:new 0 0 194.8 182.7;" xml:space="preserve">
<style type="text/css">
	.st0{fill:#13274F;}
	.st1{fill:#CE1141;}
</style>
<path class="st0" d="M188,130.1c-2.4-2.3-6.3-6.1-11.2-3.8c-3.6,1.8-4.3,5.5-4.3,8.3c0,1.1,0.1,2,0.2,2.7c0.1,0.9,0.1,1.8,0.1,2.7
	c0,8.1-4.1,13-8.5,13.7c-3.1,0.1-14.6-9.7-20.1-32c21.1-7.9,28.8-20.2,31.4-29.5c0.9-3.3,1.3-6.5,1.3-9.4c0-7-2.1-12.7-4.4-15.1
	c-1.2-1.4-4.9-5.5-9.9-3.9c-5.1,1.6-5.7,7.3-6,9.5c-1,8.4-5.8,14.7-15.2,19.7c1-24.5,9.8-51,25.8-77.4c1.3-2.1,3.3-5.4,3.3-8.6
	c0-1.7-0.6-3.4-2-4.9c-4.2-4.2-9.7-1-13,1l-1,0.6C107.9,28,84.3,75.3,67.1,109.8c0,0-0.3,0.6-0.6,1.2
	c-26.6,10.1-31.3,28.3-31.3,28.5c-0.2,0.8-0.5,2.1-0.5,3.5c0,1.9,0.5,4.1,2.6,5.8c1.2,1,2.5,1.3,3.7,1.5c-1.5,0.9-3.1,1.5-4.5,1.6
	c-13.9,0.7-18.2-11.4-18.3-11.6c-0.3-7.2-4.5-8.7-6.4-9c-7.1-1-9.7,7.8-10.8,11.5c-2.4,8.3-0.3,18.3,5.6,26
	c6.9,9.2,18.1,14.1,31.4,13.9c22.7-0.3,37.3-25.2,49.1-49.5c7.1-1.8,13.2-2.6,20-3.5c0,0,6.7-1,12-1.8c6,24.6,17.2,42.7,31.4,50.2
	c8.7,4.6,18.2,4.9,27.3,1c8.5-3.7,14.5-11.9,16.4-22.4C196.1,146.2,193.6,135.5,188,130.1L188,130.1z M100.8,104.1
	c4.3-9,8.8-17.9,13.8-25.6c-0.1,2.8-0.3,5.6-0.3,8.3c0,5.1,0.4,10,0.8,14.9C110.8,102.5,106,103.4,100.8,104.1z"/>
<path class="st1" d="M183.6,134.6c-2.6-2.6-5.5-5.4-4.7,2.1c1.3,12.8-5.2,21.9-13.6,23.3c-8.1,1.3-23.3-14.3-28.5-42.2
	c41.8-12.6,34.5-42.1,31.1-45.8c-2.9-3.2-4.4-3.2-5,2.1c-1.5,13.3-10.8,22.4-27.9,28.6c-1-24.2,5.4-55,26.8-90.3
	c6.4-10.5-2.1-4.4-4.4-3.1c-46.4,24.1-69,71.7-86.5,106.7c-23.2,7.9-29.2,22.5-29.8,25c-0.8,3.4-0.5,4.1,3.7,2.1
	c5.8-2.8,11-5,15.6-7C53,149,45.7,157.7,36.8,158.1C19,159,12,143.6,12,140.9c0-5-2.4-5.2-5,3.7c-3.5,12,5.7,32.2,30.8,31.9
	c19.1-0.3,32.4-22.7,44.9-48.6c14.5-4,23.9-3.9,41.1-7c7.9,39.1,29.1,62.1,51.5,52.5C190.9,166.6,191.5,142.2,183.6,134.6
	L183.6,134.6z M121.6,106.7c-8.9,2.1-19,3.7-30.8,5c-0.2,0-0.4,0-0.6,0.1c9.8-21.1,19.7-41.8,32.2-52.9
	C120.2,76,120.1,92.1,121.6,106.7L121.6,106.7z"/>
</svg>
