<?xml version="1.0" encoding="utf-8"?>
<!-- Generator: Adobe Illustrator 26.0.1, SVG Export Plug-In . SVG Version: 6.00 Build 0)  -->
<svg version="1.1" id="Layer_1" xmlns="http://www.w3.org/2000/svg" xmlns:xlink="http://www.w3.org/1999/xlink" x="0px" y="0px"
	 viewBox="0 0 188.4 178.1" style="enable-background:new 0 0 188.4 178.1;" xml:space="preserve">
<style type="text/css">
	.st0{fill:#DF4601;}
	.st1{fill:#FFFFFF;}
	.st2{fill-rule:evenodd;clip-rule:evenodd;fill:#DF4601;}
</style>
<path class="st0" d="M186.4,20.3c-1.8-4.2-6-8.1-12.8-9.2c-10.8-1.1-28.8,3.4-46.9,7.1c-6.4,1.4-19.9,3.1-19.9,3.1
	C96.2,9.1,84.2,5.8,76.6,4.8c-4.3-0.6-6.4-0.1-8.2-0.7C66.8,3,61.9-1.1,52.9,0.3c0,0-8.3,1.1-14.8,7.8c-1.3,1.3-3.6,4.3-4.7,7.5
	c-1.6,1.5-2.9,1.8-6.6,5.4c-23.2,19.7-13.7,45.3-10,53.8C-4.1,91.1,0.4,110,0.4,110l6.5-1c-0.5,84,121.3,90.1,135.9,25.9
	c5.3-23.3,9.6-33.8,30.5-39.3c4.2-1.2,5.9-4,5.8-6.1c-0.9-8.3-18.9-17.3-45.9-14.8c-1.6-5.4-1.7-7.5-1.7-7.5
	c13.7-3.1,32.4-9.2,45.5-19.6C187.3,39.4,191.1,31.5,186.4,20.3 M155.4,48c-13.1,6-28.2,9.5-32,10.5c-5.9,1.6-5.7,3.2-4.5,5.7
	c2.6,5.8,3.4,9.5,4.4,23.1c8.6-2.6,24-2.2,37.7,1.1c-8.6,3.4-17.5,9.3-25.1,19.3c-22.6,30-58.5,27.2-74.8,11.6
	c-3.5,3,1.1,13.1,1.1,13.1c-0.7,0.7-2.5,0-2.5,0c-12.1-20,0.8-25.3,10.9-25.8c4.2-0.8,3.7,1.8-0.2,2.5c-16.8,3.8,6.4,23.1,35.1,15.6
	c25.3-6.6,23.8-22.8,46.4-35.3c-18.1-3.4-30.7,1.1-36.1,3.9c-3.6,1.8-9.5,2-12.1,1c-3.3,10.2-14.2,13.1-35.1,8
	c-14.8-3.6-26.6,11-20,29.7c6.7,19.2,39.8,38.4,76.1,15.8c-3,3.8-6.6,7.1-11,9.8c-9.4,6-21.5,9.3-34.2,9.3
	c-18.1,0-34.9-6.5-46.1-17.8C23.1,139,18,125.2,18.2,108.6c0-2.9,1-9.4,2-11.4L13,97.6c0,0,2.3-10.6,18.1-19.8h0l-0.7-1.4
	c-16.2-30.8-0.8-43.1,5.9-48.6c5.5-4.5,6.9-4.4,7.9-8.3c0.6-2.3,2.9-4.7,5.8-6.3c3.7-2.3,8.2-2.5,10.9-0.5c2.5,2.5,7.4,3.1,10.4,3.1
	c23.3,0.8,30.3,17.8,30.3,17.8c5.3-1.6,13.9-1.8,28.8-4.8c28.5-6.3,30.6-6.5,35.2-6.9c5.3-0.5,9.8-0.2,11.6,4.3
	c1.9,4.3-3.1,9.8-4.4,11.1C171.1,39.1,164.7,43.7,155.4,48"/>
<path d="M79.9,42.9c0.8-0.2,1.2-0.4,1.7-1.2c0.8-1.2,0.9-3.2,0.9-4.7c0-1.8-0.4-4.2-0.9-5.8c-2.5,1.4-4.7,1.5-7,0
	c-0.5,1.8-0.5,3.9,0,5.7C75.4,39.7,77.4,43.4,79.9,42.9 M77.7,30.3c1.1,0.4,2.2,0.5,3.5-0.2c-0.9-3-2.6-6.6-4.4-6.6
	c-0.8,0-1.4,0.3-1.8,1c-0.5,0.8-0.6,2.1-0.1,3.2C75.4,28.8,76.5,29.8,77.7,30.3 M90.7,35.1c-0.1,0.3-0.1,0.6,0.1,0.9
	c0.2,0.2,0.5,0.3,0.8,0.2c0.3-0.1,0.5-0.3,0.6-0.6c0.1-0.2,0.2-0.6,0-1c0-0.1-0.1-0.1-0.1-0.2c0,0-0.1-0.1-0.1-0.1
	C91.3,34.4,90.9,34.7,90.7,35.1"/>
<path d="M177.2,26.3c-1.9-4.4-6.3-4.8-11.6-4.3c-4.6,0.4-6.7,0.6-35.2,6.9c-14.9,3-23.5,3.2-28.8,4.8c0,0-7-17-30.3-17.8
	c-3,0-7.9-0.6-10.4-3.1c-2.7-2-7.2-1.7-10.9,0.5c-2.9,1.6-5.2,4-5.8,6.3c-1,3.9-2.4,3.7-7.9,8.3c-6.7,5.5-22.1,17.8-5.9,48.6
	l-1.5-3.1c0,0,11.9-1.4,24.3-7.2l-22,11.6h0C15.3,87,13,97.6,13,97.6l7.3-0.5c-1,2-2,8.5-2,11.4c-0.2,16.7,4.9,30.4,15.1,40.7
	c11.2,11.3,28,17.8,46.1,17.8c12.7,0,24.8-3.3,34.2-9.3c4.3-2.8,8-6.1,11-9.9c-36.3,22.6-69.4,3.4-76.1-15.8
	c-6.5-18.7,5.2-33.3,20.1-29.7c20.9,5.1,31.8,2.2,35.1-8c2.6,0.9,8.6,0.8,12.2-1.1c5.4-2.8,18-7.3,36.1-3.9
	c-22.6,12.5-21.1,28.6-46.4,35.3c-28.7,7.5-51.9-11.8-35.1-15.6c3.9-0.7,4.4-3.3,0.2-2.5c-10.1,0.6-23,5.8-10.9,25.8
	c0,0,1.7,0.7,2.5,0c0,0-4.6-10.1-1.1-13.1c16.3,15.6,52.2,18.4,74.8-11.6c7.6-10,16.5-15.9,25.1-19.3c-13.8-3.3-29.2-3.7-37.7-1.1
	c-1-13.6-1.8-17.3-4.4-23.1c-1.2-2.6-1.4-4.1,4.6-5.7c3.7-1,18.9-4.6,32-10.5c9.3-4.2,15.6-8.9,17.4-10.6
	C174.1,36.1,179.1,30.6,177.2,26.3 M48.2,22.5c2.9-10.8,11.4-4.3,11.4-4.3L48.2,22.5L48.2,22.5z M88.9,33.3c0-0.7,0.1-1.6,0.3-2.1
	l1.2-0.9l0.1-0.1l0,0.1c0.1,0.3,0.2,0.6,0.5,0.8l0.4,0.3l1,0.9c0.4,0.4,0.7,0.7,0.8,0.9l0.1,0.4l0,0.2c0.2,1-0.3,2-1.3,2.6
	c-0.4,0.3-1,0.2-1.3,0.1c-0.2-0.1-0.6-0.4-0.7-0.7c-0.2-0.6,0.1-1.6,1.6-2.2c0,0,0.1,0,0.1-0.1c-0.1-0.1-0.1-0.1-0.1-0.1
	c-0.5-0.3-1.3-1-1.6-1.5L90,32c0,0.1,0,0.2,0,0.2c-0.1,0.2-0.1,0.5-0.2,0.9l-0.1,1.3l0,0.4l-0.1,1.2l-0.2,1.3c-0.4,1.6-1,2.6-1.9,3
	l-0.1,0.1l0.2-1.3h0c0.8-0.5,1-1.6,1.2-3.1L88.9,33.3L88.9,33.3z M87.2,29.4c0.2-0.4,0.3-0.6,0.5-0.6c0,0,0.1-0.1,0.2-0.1
	c-0.2,0.6-0.2,0.6-0.2,1c0.3,0,0.5,0,0.6,0.2c0.1,0.3,0,0.8-0.2,1.2c-0.1,0.2-0.2,0.2-0.4,0.3c-0.4,0.2-0.6,0.2-0.7,0
	C86.8,31,86.9,30,87.2,29.4 M72.3,27.9c-0.6-1.5-0.3-3.3,0.6-4.6c0.8-1.2,2.2-1.9,3.7-2c2.7-0.1,5.1,2.4,7,7.4
	c0.4-0.4,0.8-1,1.1-1.6l1,0.4c-0.4,0.9-1.1,1.9-1.7,2.4c1.3,3.4,1.5,8.7-0.1,12.2c-0.8,1.6-1.9,2.6-3.4,3.1
	c-1.2,0.4-2.7,0.3-3.9-0.4c-2-1.2-3.7-3.5-4.7-6.6C71,35.1,70.9,31.2,72.3,27.9 M91.2,99.4c-3.5,1.2-7.7-1.2-10.8-5.7
	c1.8,1.4,3.9,1.9,5.4,1c2.5-1.4,2.8-5.5,0.7-9.2c-2.1-3.7-5.7-5.6-8.2-4.3c-0.9,0.5-1.5,1.4-1.8,2.5c-1-6.5,1-12.2,5.1-13.6
	c4.9-1.6,11.1,3.6,13.7,11.7C98,89.9,96.2,97.8,91.2,99.4 M110.8,91.4c-3.3,0.9-7-1.3-9.8-5.3c1.4,0.9,2.9,1.2,4.1,0.6
	c2.3-1.1,2.9-4.9,1.2-8.5c-1.7-3.5-5-5.5-7.3-4.4c-0.8,0.4-1.4,1.1-1.8,2.1c-1-7,1.3-13.2,5.7-14.3c5-1.4,10.9,4.2,13.1,12.5
	C118.1,82.3,115.8,90.1,110.8,91.4 M86.8,59.5C75.1,58,67.6,58,75.1,53.1c0,0,17.5-13.6,37.2-15.9c18.3-2.3,47.4-8.7,47.4-8.7
	s-14.3,8.7-28.4,18.5C115.9,56.2,104.7,59.9,86.8,59.5 M141.8,46.6c0,0,28.6-19.9,29.6-18.5C174,31.6,159.5,40.6,141.8,46.6"/>
<path class="st0" d="M48.2,22.5l11.4-4.3C59.6,18.2,51.1,11.7,48.2,22.5 M112.3,37.2c-19.8,2.3-37.2,15.8-37.2,15.8
	c-7.5,5,0.1,4.9,11.7,6.5c17.8,0.4,29.1-3.3,44.5-12.5c14.1-9.8,28.4-18.5,28.4-18.5S130.6,34.9,112.3,37.2 M141.8,46.6
	c17.8-6,32.2-15,29.6-18.5C170.3,26.7,141.8,46.6,141.8,46.6"/>
<path class="st1" d="M28.8,73.4l1.5,3.1l0.7,1.4l0,0l22-11.6C40.7,72.1,28.8,73.4,28.8,73.4 M81.6,70.1c-4.1,1.3-6.1,7-5.1,13.6
	c0.3-1.1,0.9-2,1.8-2.5c2.5-1.4,6.1,0.5,8.2,4.3c2.1,3.7,1.7,7.8-0.7,9.2c-1.6,0.9-3.6,0.4-5.4-1c3.1,4.4,7.2,6.8,10.8,5.7
	c4.9-1.6,6.8-9.5,4.1-17.5C92.7,73.8,86.6,68.5,81.6,70.1 M102.9,61.6c-4.4,1.2-6.7,7.3-5.7,14.3c0.4-0.9,1-1.7,1.8-2.1
	c2.3-1.1,5.6,0.8,7.3,4.4c1.7,3.5,1.2,7.3-1.2,8.5c-1.2,0.6-2.7,0.3-4.1-0.6c2.8,4,6.5,6.2,9.8,5.3c5-1.3,7.3-9.1,5.1-17.3
	C113.7,65.9,107.9,60.3,102.9,61.6"/>
<path class="st2" d="M76.7,44.8c1.2,0.7,2.7,0.8,3.9,0.4c1.5-0.5,2.6-1.6,3.4-3.2c1.6-3.4,1.4-8.7,0.1-12.2c0.6-0.5,1.3-1.5,1.7-2.4
	l-1-0.4c-0.2,0.6-0.7,1.2-1.1,1.6c-1.9-5-4.4-7.6-7-7.4c-1.5,0.1-2.9,0.8-3.7,2c-0.9,1.3-1.2,3-0.6,4.6c-1.4,3.4-1.3,7.3-0.2,10.3
	C73.1,41.3,74.7,43.6,76.7,44.8 M75,24.5c0.4-0.6,1.1-1,1.8-1c1.9,0,3.6,3.6,4.4,6.6c-1.3,0.7-2.4,0.6-3.5,0.2
	c-1.3-0.5-2.3-1.5-2.8-2.7C74.4,26.5,74.5,25.3,75,24.5 M74.6,31.2c2.3,1.4,4.5,1.4,7,0c0.5,1.6,0.9,4,0.9,5.8
	c0,1.5-0.1,3.5-0.9,4.7c-0.5,0.7-0.9,1-1.7,1.2c-2.5,0.5-4.5-3.2-5.3-5.9C74.1,35.2,74.1,33.1,74.6,31.2"/>
<path class="st0" d="M87.7,31.4c0.2-0.1,0.3-0.1,0.4-0.3c0.2-0.4,0.3-0.9,0.2-1.2c-0.1-0.2-0.2-0.3-0.6-0.2c0-0.4,0-0.4,0.2-1
	c-0.1,0-0.1,0-0.2,0.1c-0.2,0.1-0.3,0.2-0.5,0.6c-0.3,0.6-0.4,1.6-0.2,2C87.1,31.5,87.3,31.5,87.7,31.4 M87.6,38.8L87.6,38.8
	l-0.3,1.3l0.1-0.1c1-0.4,1.6-1.4,1.9-3l0.2-1.3l0.1-1.2l0-0.4l0.1-1.3c0-0.4,0.1-0.7,0.2-0.9c0,0,0-0.1,0-0.1c0,0.1,0.1,0.1,0.1,0.1
	c0.3,0.5,1.2,1.2,1.6,1.5c0,0,0.1,0,0.1,0.1c-0.1,0-0.1,0.1-0.1,0.1c-1.5,0.6-1.8,1.6-1.6,2.2c0.1,0.4,0.4,0.6,0.7,0.7
	c0.3,0.1,0.8,0.1,1.3-0.1c1-0.5,1.5-1.5,1.3-2.6l0-0.2l-0.1-0.4c-0.1-0.2-0.3-0.5-0.8-0.9l-1-0.9L91,31.2c-0.2-0.2-0.4-0.5-0.5-0.8
	l0-0.1l-0.1,0.1l-1.2,0.9c-0.2,0.5-0.2,1.4-0.2,2.1l-0.2,2.4C88.6,37.3,88.3,38.3,87.6,38.8 M92.1,34.3c0.1,0.1,0.1,0.1,0.1,0.2
	c0.2,0.4,0.1,0.8,0,1c-0.1,0.3-0.3,0.5-0.6,0.6c-0.3,0.1-0.6,0.1-0.8-0.2c-0.2-0.2-0.2-0.6-0.1-0.9C90.9,34.7,91.3,34.4,92.1,34.3
	C92,34.2,92.1,34.3,92.1,34.3"/>
</svg>
