<?xml version="1.0" encoding="utf-8"?>
<!-- Generator: Adobe Illustrator 26.0.1, SVG Export Plug-In . SVG Version: 6.00 Build 0)  -->
<svg version="1.1" id="Layer_1" xmlns="http://www.w3.org/2000/svg" xmlns:xlink="http://www.w3.org/1999/xlink" x="0px" y="0px"
	 viewBox="0 0 233.6 233.6" style="enable-background:new 0 0 233.6 233.6;" xml:space="preserve">
<style type="text/css">
	.st0{fill:#FFFFFF;}
	.st1{fill:#0E3386;}
	.st2{fill:#CC3433;}
</style>
<path class="st0" d="M0,116.8C0,52.3,52.3,0,116.8,0c64.5,0,116.8,52.3,116.8,116.8c0,64.5-52.3,116.8-116.8,116.8
	C52.3,233.6,0,181.3,0,116.8z"/>
<path class="st1" d="M7.5,116.3C7.5,56,56.4,7.1,116.7,7.1C177.1,7.1,226,56,226,116.3S177,225.6,116.7,225.6
	C56.4,225.6,7.5,176.6,7.5,116.3z M116.7,197c44.5,0,80.7-36.1,80.7-80.7c0-44.5-36.1-80.7-80.7-80.7c-44.6,0-80.7,36.1-80.7,80.7
	C36.1,160.9,72.2,197,116.7,197L116.7,197z"/>
<path class="st2" d="M152.3,139.1c-7.5,11.7-20.6,19.4-35.5,19.4c-23.3,0-42.2-18.9-42.2-42.2c0-23.3,18.9-42.2,42.2-42.2
	c15.4,0,28.8,8.2,36.2,20.5l20.8-20.3c-12.9-17.5-33.6-28.8-57-28.8C77.7,45.6,46,77.3,46,116.3c0,39.1,31.7,70.7,70.7,70.7
	c23.1,0,43.6-11.1,56.5-28.2L152.3,139.1L152.3,139.1z"/>
<path class="st2" d="M104.3,123.3V97.7H117v26c0,9.3-2.2,11.5-9.6,11.5H94.2c-6.1,0-8.1-3.9-8.1-12.2V97.7h12.7v25.7
	C98.8,126.8,104.3,126.8,104.3,123.3 M121.6,135.2V97.7h20.1c7.6,0,10.8,1.8,10.8,10.5c0,4.6-0.9,7-3.5,8.3c3.5,2,3.5,5.7,3.5,9
	c0,8.3-3.7,9.6-10.8,9.6H121.6z"/>
<path class="st0" d="M140.3,107.9c0-1.5-1.5-1.4-5.4-1.4v5.3c2.2,0,5.4,0.2,5.4-1.8L140.3,107.9L140.3,107.9z M140.2,123.2
	c-0.7-1.8-1-1.6-5.3-1.6v5.3c2.7,0,5.3,0.2,5.3-1.8C140.2,124.6,140.4,123.5,140.2,123.2L140.2,123.2z"/>
<path class="st2" d="M177.8,135.2c6.8,0,10.4-1.9,10.4-7.9c0-0.7,0-7.6,0-8.4c0-4.4-3.1-7.2-7.5-7.2h-9.2c-2.5,0-1.9-3.6-1.9-4.7
	c0-1.8,5.2-2.3,5.2,0.6v1.7h13.5c0-8.7-1.6-11.5-10.4-11.5c-2,0-9.5,0-11.8,0c-5.6,0-8.7,2.2-8.9,8.8c-0.2,6.6,0,3.7,0,6.1
	c0,2.4-0.4,7.8,7,7.8h9.3c2.6,0,2.1,3.1,2.1,3.1v2c0,2.2-4.4,2.3-5.4,0.5c-0.7-1.2-0.3-3.1-0.3-3.1H157c0,2.6-1.4,12.4,6.2,12.4
	L177.8,135.2L177.8,135.2z"/>
</svg>
