<?xml version="1.0" encoding="utf-8"?>
<!-- Generator: Adobe Illustrator 26.0.1, SVG Export Plug-In . SVG Version: 6.00 Build 0)  -->
<svg version="1.1" id="Layer_1" xmlns="http://www.w3.org/2000/svg" xmlns:xlink="http://www.w3.org/1999/xlink" x="0px" y="0px"
	 viewBox="0 0 124.7 174.9" style="enable-background:new 0 0 124.7 174.9;" xml:space="preserve">
<style type="text/css">
	.st0{fill:#FFFFFF;}
</style>
<path class="st0" d="M19.1,14.6c-4.5,4.8-8.9,14.4-9.5,20.8c-0.2,2.1-0.3,4-0.3,5.8c0,6.5,1.3,11.5,4.2,16.3c3.6,6,9.4,11,16.6,14.4
	C37,75.1,46.8,79.5,48,80c0.4,0.2,0.9,0.4,1.5,0.7c-2.3,1.6-3.6,2.6-4.7,3.4c-6.1-1.4-13.7-0.3-15.5,0.1c-7.2,1.7-13.9,5-18.7,9.2
	c-4.9,4.3-8.6,9.2-9.8,13.2c-1.4,4.4-0.9,7.5,1.3,9.3c3.3,2.6,7.7-0.1,9.1-0.9c2.9-1.8,8.3-5.2,15-6.2c5.9-0.9,13.8-0.1,17.4,2.3
	v6.4c-0.9,0.8-1.8,1.7-1.8,1.7c-0.9,0.9-1.4,2.1-1.4,3.4c0,0.6,0.1,1.2,0.3,1.8c0.6,1.7,2,2.3,2,2.3c11.7,7.1,11.7,7.1,19.5,11.9
	c-0.1,0-0.3,0.1-0.4,0.1c-1,0.4-3.4,2-3.4,6.1v17.1l10.2,9.7c2.2,2.3,4.4,2.6,5.9,2.5c1.8-0.1,3.4-1,4.5-2.4c0,0,6.8-8.7,11-14.1
	c3.1,4.8,8,12.4,8,12.4c0-0.1,0.1,0.3,0.1,0.3c0.6,1.2,1.7,3.8,4.5,4.5c1.2,0.3,3.2,0.4,5.4-1.3c3-2.2,10.1-7.7,11.3-8.9l0.2-0.2
	c0.8-0.8,2.1-2.1,2.1-4.1v-16.3c0-1.8-0.9-4-3.1-4.9c-1.6-0.6-3.4-0.6-5.5,1.1c-1,0.8-2.6,2-5,3.8c-1.4-2.2-2.1-3.4-3.2-5.1
	c2.1-2.6,6.9-8.8,9.7-12.2c0.3,0.3,1.1,0.8,1.1,0.8l0.1,0.1c2.9,1.9,5.1,1.2,6.1,0.6c2.8-1.6,2.9-5.2,2.9-6.3l0-13.7l-8.6-9
	c-1.2-1.4-3-2.1-4.8-2c-1.8,0.1-3.5,1.2-4.5,2.8c-0.5,0.7-4.6,5.8-8.8,11.1V93.2c0.5-0.5,1.1-1.1,1.1-1.1c0.8-0.7,2.5-2.8,2.5-5.4
	c0-0.6-0.1-1.2-0.3-1.9c-0.5-1.3-1.7-2.8-4.3-3.5c0.8-3,1.1-5.9,1.1-8.1c0-0.2,0-0.4,0-0.6c0-6-1.4-11-4.1-15
	c-3.2-4.7-5.7-6.3-9.2-8.5l-0.9-0.6c-4-2.6-25.2-13.7-26.1-14.2c-0.1,0-8.1-4-8.1-4c-5.3-2.7-5.7-4.6-5.7-5.6v-0.2
	c0.1-0.6,1.6-2.9,4.6-2.9c3.1,0,5.3,0.1,9.4,1.5c6.5,2.2,6.7,4.8,6.7,5.8c0,0.2-0.2,3-0.2,3l13.5,9.2l20.2-26l-16.4-11l-2.2,2.2
	c-0.7,0.7-1.2,1.2-1.4,1.3c-0.3,0-1.2-0.2-1.2-0.2l-3.6-1.4C67.4,3.8,57.8,0,49.2,0C34,0,26,7.2,19.1,14.6z"/>
<path d="M21.2,16.6c-4.1,4.3-8.2,13.3-8.7,19.1c-0.2,2-0.3,3.8-0.3,5.5c0,6,1.2,10.5,3.8,14.8c3.3,5.5,8.6,10.1,15.4,13.2
	c7.1,3.3,16.7,7.6,17.8,8c2,0.8,4.9,2.4,5.7,3.3c-1,0.7-8.8,6.4-9.3,6.8c-5.1-1.7-13.2-0.7-15.5-0.2c-6.8,1.6-13,4.7-17.4,8.6
	c-4.5,3.9-7.9,8.4-9,11.9c-1,3.1-0.9,5.1,0.3,6.1c1.2,0.9,3,0.5,5.7-1.1c2.9-1.8,8.8-5.5,16.2-6.7c5.5-0.8,11-0.2,15.1,0.8
	c0,0,3.2,1,5.7,2.7v9.5c-0.4,0.4-2.7,2.4-2.7,2.4c-0.4,0.4-0.5,0.9-0.5,1.3c0,0.3,0,0.5,0.1,0.8c0.2,0.5,0.7,0.8,0.7,0.8l27.9,17
	c0,0,6.6-5,7.8-5.9c0.5,0.8,1,1.7,1.3,2.2c-0.6,0.7-7.7,9.5-8.6,10.5l-6.2-5.6c-1.5-1.4-2.8-1.2-3.3-1c-1.1,0.5-1.7,1.7-1.7,3.4
	v15.9l9.3,8.9c1.5,1.5,2.8,1.7,3.6,1.7c0.9-0.1,1.8-0.5,2.4-1.3c0,0,10.8-13.8,13.6-17.4l10.3,15.9l0.3,0.6c0.5,1,1.2,2.5,2.6,2.9
	c0.9,0.2,1.9,0,2.9-0.8c3-2.2,10-7.7,11-8.6l0.2-0.2c0.7-0.7,1.2-1.2,1.2-2v-16.3c0-0.8-0.4-1.7-1.3-2.1c-0.6-0.3-1.5-0.3-2.6,0.8
	c0.1-0.1-5.6,4.2-7.5,5.7l-6-9.6c0.6-0.8,12-15.1,12.9-16.2c0.9,0.7,3.3,2.6,3.3,2.6c1.2,0.8,2.2,1,3,0.5c1.4-0.8,1.4-3.2,1.3-3.5
	v-12.7l-7.9-8.2c-0.6-0.7-1.5-1.1-2.3-1c-0.9,0.1-1.8,0.6-2.2,1.4c-0.4,0.7-6.5,8.3-10.8,13.6c-1.1-0.9-2.7-1.5-3.6-1.8V92.1
	c0.3-0.3,2.1-2.1,2.1-2.1c0.3-0.3,1.5-1.7,1.5-3.1c0-0.3,0-0.6-0.2-0.8c-0.5-1.2-1.9-1.8-4.2-1.8c0,0-0.8,0.1-1.5,0.1
	c1.7-3.9,2.2-8.1,2.2-11c0-0.2,0-0.4,0-0.6c0-5.4-1.2-9.9-3.6-13.4c-2.9-4.2-5-5.5-8.4-7.7L82.1,51C78.1,48.5,57,37.4,56.1,37
	c0,0-8.1-4-8.1-4c-6.3-3.2-7.4-6-7.4-8.3c0-0.1,0-0.2,0-0.3c0.1-1.9,2.8-5.7,7.6-5.7c3.3,0,5.8,0.1,10.4,1.6c5.9,2,8.7,4.8,8.7,8.7
	c0,0-0.1,1.4-0.1,1.4l9.8,6.7l16.6-21.3L81.9,8l-0.5,0.4c-2.5,2.5-2.6,2.5-5.3,2c-0.7-0.1-2.2-0.7-4.2-1.5
	c-5.5-2.2-14.7-5.9-22.9-5.9C35,2.9,27.9,9.4,21.2,16.6L21.2,16.6z M46,88.7l10.5-7.7v-0.4c-0.1-1.8-5.2-4.1-6.9-4.9
	c-1-0.4-10.7-4.8-17.7-8c-6.4-3-11.5-7.4-14.7-12.6c-2.3-3.9-4.3-8.9-3.3-19.4c0.5-5.5,4.5-14.1,8.3-18.2c6.5-7,13.4-13.2,26.8-13.2
	c7.8,0,16.9,3.7,22.3,5.8c2.1,0.8,3.6,1.5,4.4,1.6c3,0.6,3.8,0.5,6.3-2c0.9,0.6,8.2,5.5,9.3,6.2C90.4,17.4,77.5,34,76.7,35
	c-1-0.7-7.2-4.9-7.8-5.4c0-0.3,0-0.5,0-0.5c0-4.7-3.3-8.1-9.8-10.3c-4.7-1.6-7.5-1.7-10.8-1.7c-5.8,0-9.1,4.6-9.1,7.1
	c-0.2,4,2.4,7.2,8.2,10.1l8.1,4c0.2,0.1,22,11.5,25.8,14l0.9,0.6c3.3,2.1,5.2,3.3,7.9,7.3c2.3,3.3,3.4,7.7,3.3,13
	c0,3.1-0.5,7.6-2.6,11.6l-0.7,1.3l4.1-0.4c1.5,0,2.5,0.3,2.7,0.8c0.3,0.7-0.6,2-0.9,2.3l-2.7,2.7l0.1,0.3v22.9l0.6,0.2
	c1.2,0.4,3.4,1.3,4,2.1l0.6,0.8l0.6-0.8c1.1-1.4,10.8-13.4,11.4-14.4c0.2-0.4,0.7-0.6,1.1-0.7c0.4,0,0.7,0.1,1,0.5
	c0,0,6.4,6.7,7.5,7.8v12.3c0,0.8-0.2,1.7-0.6,2c-0.2,0.1-0.8,0-1.4-0.4l-4.4-3.5l-14.5,18.3l7.5,12l8.9-6.8c0.6-0.5,0.9-0.6,1-0.6
	c0.2,0.1,0.3,0.4,0.3,0.7v16.3c0,0.2-0.4,0.5-0.8,0.9l-0.2,0.2c-0.9,0.9-7.6,6.2-10.8,8.5c-0.7,0.5-1.2,0.7-1.7,0.6
	c-0.7-0.2-1.2-1.2-1.5-2l-0.4-0.8L90.2,150l-14.9,19.1c-0.2,0.3-0.6,0.7-1.2,0.7c-0.7,0.1-1.6-0.4-2.4-1.2c0,0-8.4-8-8.8-8.5v-15.2
	c0-1.2,0.4-1.8,0.7-2c0.4-0.2,1,0.1,1.7,0.7c0,0,7.4,6.6,7.4,6.6L83,137.6l-2.8-4.7c0,0-7.5,5.8-8.3,6.3c-0.9-0.5-27-16.4-27-16.5
	c0-0.1,0-0.1,0-0.2c0-0.1,0-0.2,0.1-0.3l3.1-2.8l0-0.3v-10.7l-0.4-0.2c-2.1-1.4-3.8-2.3-6.8-3.1c-5.1-1.3-11.2-1.5-15.4-0.8
	c-7.7,1.2-13.9,5-16.8,6.9c-2.8,1.8-3.7,1.4-3.9,1.2c-0.4-0.3-0.6-1.7,0.2-4.4c1-3.1,4.3-7.5,8.5-11.2c4.3-3.7,10.2-6.7,16.8-8.2
	c2.6-0.6,10.6-1.4,15.1,0.2l0.4,0.1L46,88.7L46,88.7z"/>
<g>
	<path d="M118.9,122.4v-11.6l-7.3-6.5l-20.1,25l-2.8-4.5c2.4-1.8,5.6-4.2,6-4.4c0.6-0.3,2-1.2,2.8-1.2c0.7,0-1-2.9-5.8-2.9V90.6
		l2.8-3.1c0,0-3.4,0.5-4.9,0.1c-0.3-0.1-0.9-0.4-1.6-0.7c0.9-1.4,1.7-3.1,2.3-5c3.3-10.4,1.1-20-6.7-25.9c-5.5-4.1-28-15.6-28-15.6
		s-13.6-6.7-15.1-8.2c-1.1-1-3.2-2.7-3.2-7.8c0-3.1,3.4-6.5,4.9-7.1c2.4-1.1,3.1-1.6,7.9-1.7c2.7,0,5.2,0.6,5.6,0.7
		c3,0.3,10,2.6,13.6,7.5c1.4,1.4,1.7,5.5,1.7,5.5l5.7,3.6l12.3-16.1l-6.7-4.5c-1.9,2.1-5.5,2.2-7,1.5c-1.4-0.7-13.9-5.3-15.7-5.8
		C56.2,6.7,48.9,5.9,45,6.5c-3.9,0.6-10.4,1.8-15.4,7.1c-5.9,6.2-6,11.2-6,13.9c0,4.2,1.1,9.8,5.8,14.5c6.8,6.8,17.1,11.1,19.5,12.3
		c4.1,2.3,17.1,9.1,19,10.2c8,4.7,11,9.6,10.2,15.8c0,0.3-0.1,0.6-0.2,0.9c-3.5-2-8.4-5.1-10.4-7.1c0,0-1.2,1.3-1.9,2l-5.8,4.4
		c0.7-2.8,0.8-7.6,0.6-8.1c-0.1-0.6-0.6-5.2-4.6-8.1c-2.8-2-8.9-5.7-14.2-8.3c-2.3-1.1-9.7-5.6-13.2-8.6c0,0-6.1-5.7-7-9.2
		c-1.8-4-1.9-13.4-1-14.4c0,0-2.3,2.6-3.9,7.9c-0.8,2.5-1.3,5.9-1.3,8.1c0,3.8,0.7,10.4,4.8,16c1.8,2.5,4.7,5.3,7.7,7.3
		c3.7,2.4,7.4,3.9,7.7,4.1c1,0.7,10.6,4.8,11.5,5.2c0.9,0.4,5.3,2.5,6.2,3c3.3,1.8,5,2.9,6.1,5.7l-9.9,7.4c0,0,0.4,0.8,0.4,2v0.9
		c-1.3-0.4-2.7-0.8-4.1-1.1c-6.5-1.1-10.5-1.1-15.7,0.2c-5.7,1.4-11.8,3.7-17.4,9.4C5.9,106.5,6,110.8,6,110.8l6.4-3.8
		c5.3-3,12.4-4.8,17.4-4.8c11.9,0,18,3.4,19.7,5.3v11.5c0,2.3-0.7,2.6-1.2,3c-0.2,0.2-0.4,0.2-1,0.7c0,0,0.9,0.3,1.1,0.5
		c0.6,0.4,23.2,14.1,23.2,14.1l8.8-6.4l4.3,6.9l-12,14.9l-8.3-7.5v14.1l9.4,8.7l16.7-20.9l13.7,21.8l11-8.9v-13.9l-8.9,6.7l-9-14.3
		l16.2-20.4L118.9,122.4L118.9,122.4z M62.5,91l5.2-3.8c1.4,1.2,3,2.2,4.7,3.2c-0.1,0.1-0.2,0.2-0.2,0.2s-5.9,5.1-9.7,5.6L62.5,91
		L62.5,91z M71.5,124.1l-9-5.5v-13.7c3.8-0.7,13-5.1,17.8-9.8c0.1,0.9,0,10,0,16.2l-5.5-8.8l-8.4,6v10.7l4.7-3.1l3.5,5.6L71.5,124.1
		L71.5,124.1z"/>
</g>
</svg>
