<?xml version="1.0" encoding="utf-8"?>
<!-- Generator: Adobe Illustrator 26.0.1, SVG Export Plug-In . SVG Version: 6.00 Build 0)  -->
<svg version="1.1" id="Layer_1" xmlns="http://www.w3.org/2000/svg" xmlns:xlink="http://www.w3.org/1999/xlink" x="0px" y="0px"
	 viewBox="0 0 358.5 432" style="enable-background:new 0 0 358.5 432;" xml:space="preserve">
<style type="text/css">
	.st0{fill:#C4CED4;}
</style>
<path class="st0" d="M86.1,27.5c0,0-71.4,28-71.5,119c-0.1,93.2,68.9,110.9,68.9,110.9S47.9,212.8,48,141.3
	C48.2,64.2,86.1,27.5,86.1,27.5L86.1,27.5z"/>
<path d="M328.9,401.7c-14.8-14.5-41.7-90.8-64-95.8c8.2-4.1,59.5-16.1,59.8-71.6c-0.2-60.1-55.9-79.5-111.5-79.5
	c-11.8,0-33.4,0.9-55.3,2.2c-27.8,1.7-42.1,3-63.2,4.8v20.4c29.9,0,36.1,7,36.1,39.5v38.9c-41.2-8.7-68.2-54.5-68.2-118.9
	c0-68.2,32-116.1,78.8-116.1c17.6,0,33.1,7,45.4,19.8c12.3,12.7,21.1,31.2,25,53.7h16.5L225.2,7h-13c-1.4,4.4-3.2,6.2-6.3,6.2
	C197,13.2,176.3,0,138.6,0C97.8,0,63,15,38.7,41.3C14.1,68.2,0,104.7,0,148.7c0,30.4,8.8,64.6,28.9,91.9
	c20,27.3,52.4,47.1,99.6,47.1c0.8,0,1.6-0.1,2.4-0.1v85.8c0,31.7-6.9,38.2-36.1,38.2V432h131.7v-20.4c-27.1,0-37.2-3.9-37.2-36.1
	v-58.2h18.4c0,0,67.9,114.8,69.8,114.7c4.8,0,81.1,0,81.1,0v-20.3C358.5,411.6,343.2,414.1,328.9,401.7L328.9,401.7z M14.6,146.5
	c0.1-91,71.5-119,71.5-119S48.2,64.2,48,141.3c-0.1,71.5,35.4,116.1,35.4,116.1S14.5,239.8,14.6,146.5L14.6,146.5z M175.1,411.5h-30
	V178.6l30-2.1L175.1,411.5L175.1,411.5z M307,235.4c0.2,45.8-55.8,57.3-55.8,57.3s20.7-12.5,20.7-56.8c0-44.7-19.8-57.4-19.8-57.4
	S306.8,183.5,307,235.4L307,235.4z M189.2,296v-14.4c1.3,0,2.7-0.1,3.9-0.1c4.2,0,8.1,0,11.3,0.9c3.5,0.4,7.1,1.3,10.2,2.6l1.1-3.1
	c10.2-29.9,18.6-62.5,21.5-87.5h-16.5c-8.4,22.5-18.9,39.4-31.4,50.7v-69.5h17c33.7,0,51.5,22.6,51.5,56.9
	C257.7,277.3,239.6,296.8,189.2,296L189.2,296z M279,411.6c0,0-38.7-69.2-56.5-93.9c0,0,13-2.1,19.4-3.9c5.8-1.6,10-3.3,10-3.3
	c15.2,7.6,36.8,41.5,48.4,69.2c12.5,25,21.4,32.1,21.4,32.1L279,411.6L279,411.6z"/>
<path class="st0" d="M145.1,411.5h30v-235l-30,2.1 M271.9,235.9c0,44.3-20.7,56.8-20.7,56.8s56-11.5,55.8-57.3
	c-0.2-51.9-54.9-56.9-54.9-56.9S271.9,191.2,271.9,235.9L271.9,235.9z M300.4,379.6c-11.6-27.7-33.2-61.5-48.4-69.2
	c0,0-4.2,1.7-10,3.3c-6.4,1.8-19.4,3.9-19.4,3.9c17.8,24.8,56.5,93.9,56.5,93.9l42.8,0.1C321.8,411.7,312.9,404.6,300.4,379.6
	L300.4,379.6z"/>
</svg>
