<?xml version="1.0" encoding="utf-8"?>
<!-- Generator: Adobe Illustrator 26.0.1, SVG Export Plug-In . SVG Version: 6.00 Build 0)  -->
<svg version="1.1" id="Layer_1" xmlns="http://www.w3.org/2000/svg" xmlns:xlink="http://www.w3.org/1999/xlink" x="0px" y="0px"
	 viewBox="0 0 233.6 233.6" style="enable-background:new 0 0 233.6 233.6;" xml:space="preserve">
<style type="text/css">
	.st0{fill:#002D62;}
	.st1{fill:#EB6E1F;}
	.st2{fill:#F4911E;}
	.st3{fill:#FFFFFF;}
	.st4{fill:#E7E9EA;}
</style>
<path class="st0" d="M116.8,233.6C52.4,233.6,0,181.2,0,116.8C0,52.4,52.4,0,116.8,0c64.4,0,116.8,52.4,116.8,116.8
	C233.6,181.2,181.2,233.6,116.8,233.6"/>
<path class="st0" d="M174.2,83.3h38.4c-13.6-39.1-50.5-67.2-94.1-68L135,65.8h39.2C174.2,65.8,174.2,83.3,174.2,83.3z M59.4,175.3
	v-17.4l13.8-4.9L70,154l3.2-1.1V125L19.9,86.3c-3.1,9.9-4.7,20.2-4.7,30.5c0,33.1,15.9,62.5,40.4,81.1l7.3-22.6H59.4z M59.4,65.8
	h39.2L115,15.3c-43.6,0.7-80.4,28.9-94.1,68h38.4C59.4,83.3,59.4,65.8,59.4,65.8z M124.3,162.2l-7.5-5.5l-7.5,5.5v13.1H91.2
	l-33.3,24.2c16.6,11.9,36.9,18.8,58.9,18.8c22,0,42.3-7,58.9-18.8l-33.3-24.2h-18.1L124.3,162.2L124.3,162.2z M213.6,86.3L160.4,125
	v27.9l13.8,4.9v17.4h-3.7l7.3,22.6c24.6-18.5,40.4-47.9,40.4-81.1C218.3,106.5,216.7,96.2,213.6,86.3"/>
<path class="st1" d="M116.8,7.9C56.6,7.9,7.9,56.6,7.9,116.8c0,60.2,48.7,108.9,108.9,108.9c60.1,0,108.9-48.7,108.9-108.9
	C225.7,56.6,176.9,7.9,116.8,7.9 M177.9,197.9l-7.3-22.6h-28.2l33.3,24.2c-16.6,11.8-36.9,18.8-58.9,18.8s-42.3-7-58.9-18.8
	l33.3-24.2H73.7l-19.3,26.8l1.4-4.2c-24.6-18.5-40.5-47.9-40.5-81.1c0-10.6,1.6-20.8,4.7-30.5L73.2,125v-6.7L32.5,88.7l-16.7-5.4H21
	c13.7-39.1,50.5-67.3,94.1-68l1.8-5.4v99.5h21.3V88.2l-13.8-4.9V65.8H135l-16.4-50.5c43.6,0.7,80.4,28.9,94.1,68h5.2l-16.7,5.4
	h-40.6V125l53.2-38.6c3.1,9.9,4.7,20.1,4.6,30.5C218.3,149.9,202.4,179.3,177.9,197.9"/>
<path class="st1" d="M138.1,152.9v-21.1h-32.9l-9.6,13.3v7.8l13.8,4.9v4.3l7.5-5.5l7.5,5.5v-4.3"/>
<path class="st2" d="M160.5,88.2v0.5h40.6l16.7-5.4h-43.6 M109.3,65.8v17.5l-13.8,4.9v21.1h21.3V9.9l-1.7,5.4L98.6,65.8 M95.5,145.1
	l9.6-13.3h-9.6 M70,154.1l3.2-1.1L70,154.1L70,154.1z M55.7,197.9l-1.4,4.2l19.4-26.8H63.1 M59.4,83.3H15.8l16.7,5.4l40.7,29.5v-30"
	/>
<path class="st3" d="M59.4,157.8v17.4l4.4-4.4h41V161l4.4-3.1l-13.8-4.9l-4.4,3.1v-28.7h51.4l-4.4,4.4v21.1l-13.8,4.9v17.4l4.4-4.4
	h41V161l4.4-3.1l-13.8-4.9L156,156V85.1l13.8-4.9v-9.9l4.4-4.5h-49.9v17.5l4.4-3.1l13.8,4.9l-4.4,3.1v21.1H95.5l-4.4,4.5V85.1
	l13.8-4.9v-9.9l4.4-4.5H59.4v17.5l4.4-3.1l13.8,4.9l-4.4,3.1v64.7"/>
<path class="st4" d="M174.2,83.3V65.8l-4.4,4.5v9.9L156,85.1V156l4.5-3.1V88.2 M174.2,157.8l-4.4,3.1v9.9h-41l-4.5,4.4h49.9
	 M95.5,131.8h42.5l4.4-4.4H91.1V156l4.4-3.1v-7.8 M109.3,162.2v-4.3l-4.4,3.1v9.9h-41l-4.4,4.4h49.9 M77.6,85.1l-13.8-4.9l-4.4,3.1
	l13.8,4.9 M128.8,80.2l-4.4,3.1l13.8,4.9l4.4-3.1 M109.3,83.3V65.8l-4.4,4.5v9.9l-13.8,4.9v28.7l4.5-4.5V88.2"/>
</svg>
