<?xml version="1.0" encoding="utf-8"?>
<!-- Generator: Adobe Illustrator 26.0.1, SVG Export Plug-In . SVG Version: 6.00 Build 0)  -->
<svg version="1.1" id="Layer_1" xmlns="http://www.w3.org/2000/svg" xmlns:xlink="http://www.w3.org/1999/xlink" x="0px" y="0px"
	 viewBox="0 0 132.2 190.2" style="enable-background:new 0 0 132.2 190.2;" xml:space="preserve">
<style type="text/css">
	.st0{fill:#FFFFFF;}
	.st1{fill:#003263;}
	.st2{fill:#BA0021;}
	.st3{fill:#862633;}
	.st4{fill:#C4CED4;}
</style>
<path class="st0" d="M78,190.2h54.2c-5-3.4-9.4-9.4-11.4-16.2l-15.2-52c-1.6-5.6,1-11.2,5.3-15c-6.1-1.8-11.4-6.1-13.1-11.8
	l-8.5-29.1c12.1-4,19.9-11.2,19.9-19.5c0-10.8-13.4-19.7-32.1-22.3L70.1,0h-7.9L55,24.3c-18.7,2.5-32.1,11.4-32.1,22.3
	c0,8.3,7.9,15.5,20,19.5l-8.5,29.1c-1.7,5.8-7,10-13.1,11.8c4.3,3.8,6.9,9.4,5.3,15l-15.2,52c-2,6.8-6.4,12.8-11.4,16.2h54.2
	c-4.4-3.4-6.9-9.4-4.9-16.2l1.3-4.5h30.8l1.3,4.5C84.8,180.9,82.4,186.8,78,190.2L78,190.2z M61.4,132.7l4.7-16.1l4.7,16.1H61.4
	L61.4,132.7z"/>
<path class="st1" d="M123,186.5c-2.6-3.4-4.6-7.3-5.8-11.4l-15-51.7c-2.4-8.2,2-14,2.6-15c-5.2-2.8-9.1-7.1-10.5-12.2l-9.2-31.4
	c12.9-3.4,21.7-10.3,21.7-18.2c0-10-14.2-18.3-32.9-20.2L67.3,3.7h-2.4l-6.6,22.7c-18.8,1.9-32.9,10.2-32.9,20.2
	c0,7.9,8.8,14.7,21.7,18.2l-9.2,31.4c-1.5,5.1-5.3,9.4-10.5,12.2c0.6,0.9,5,6.8,2.6,15L15,175.1c-1.2,4.1-3.3,8.1-5.9,11.4h37.5
	c-3-6.7-1.4-11.6-0.1-16.2l1.3-4.6h36.4l1.3,4.6c1.3,4.6,2.9,9.5-0.1,16.2L123,186.5L123,186.5z M56.4,136.4l9.6-33l9.6,33H56.4z"/>
<path class="st2" d="M76.1,54.7l-4.8-16.6l0.9,3.3c-2-0.1-4-0.2-6.1-0.2V52L95,151.1l6.7,22.7l11.4,6.8c-0.8-1.7-1.5-3.5-2.1-5.3
	l-14.4-49.3c-2.3-7.7-1-11,0.6-15.7c-4.3-3.3-7.2-7.6-8.6-12.5L77.7,60.4l0,0L76.1,54.7L76.1,54.7z M69.5,32l-3.4-11.6V32
	C67.2,32,68.3,32,69.5,32z M30.3,174.4l9.2,6.2c-0.5-3.1,0-7.2,0.9-10.1l3-10.6l-6.3-8.9L30.3,174.4L30.3,174.4z"/>
<path class="st2" d="M48.7,142.2l17.4-59.7V52l-28.9,99.1H95l-11.5-8.9"/>
<path class="st3" d="M66.1,82.5l17.4,59.7l11.5,8.9L66.1,52"/>
<path class="st3" d="M113.1,180.7l-11.4-6.8L95,151.1H37.2L66.1,52V41.2c2.1,0,4.1,0.1,6.1,0.2l-0.9-3.3c-0.3,0-0.5,0-0.8,0
	c-1.4-0.1-2.9-0.1-4.4-0.1c-1.8,0-3.5,0.1-5.2,0.2l-4.8,16.6h0l-1.7,5.7h0L43.5,97.9c-1.4,4.9-4.2,9.2-8.6,12.5
	c1.6,4.6,2.9,8,0.6,15.7l-14.4,49.3c-0.5,1.8-1.2,3.6-2.1,5.3h20.5l-9.2-6.2l6.8-23.3l6.3,8.9h45.1l3.1,10.6c0.8,2.9,1.3,7,0.8,10.1
	L113.1,180.7L113.1,180.7z M66.1,20.4L62.7,32c1.1,0,2.2-0.1,3.4-0.1L66.1,20.4L66.1,20.4z"/>
<path class="st4" d="M56.1,54.7L56.1,54.7c-10.5-1.2-17.9-4.4-17.9-8.1c0-4.2,9.8-7.8,22.7-8.5c1.7-0.1,3.4-0.2,5.2-0.2
	c1.5,0,2.9,0.1,4.4,0.1c0.3,0,0.5,0,0.8,0C84.2,38.8,94,42.4,94,46.6c0,3.7-7.5,6.8-17.9,8.1h0l1.7,5.7l0,0
	c13.5-2,23.2-7.4,23.2-13.8c0-7.6-13.8-13.8-31.4-14.6c-1.1,0-2.2-0.1-3.4-0.1c-1.1,0-2.3,0-3.4,0.1C45,32.8,31.3,39,31.3,46.6
	c0,6.4,9.7,11.8,23.1,13.8h0L56.1,54.7L56.1,54.7z"/>
</svg>
