<?xml version="1.0" encoding="utf-8"?>
<!-- Generator: Adobe Illustrator 26.0.1, SVG Export Plug-In . SVG Version: 6.00 Build 0)  -->
<svg version="1.1" id="Layer_1" xmlns="http://www.w3.org/2000/svg" xmlns:xlink="http://www.w3.org/1999/xlink" x="0px" y="0px"
	 viewBox="0 0 159.3 156" style="enable-background:new 0 0 159.3 156;" xml:space="preserve">
<style type="text/css">
	.st0{fill:#002B5C;}
	.st1{fill:#D31145;}
</style>
<path class="st0" d="M76.4,111.1c4,0.6,8.2,0.9,12.5,0.8c1.5,0,3-0.1,4.5-0.2l0.4-97.1c14.1,0.4,28.9,2,42.1,5.9
	c1,5.7,9.2,16.8,18,18c0,0-3.4-20.8-2.4-31.5c-19.1-5.4-81-12-132.9-0.7c0,0-0.2,26.5-3.7,31.9c0,0,17.1-4.4,20.9-19.6
	c0,0,18.2-3.2,41.7-3.9L77,48.2l0,1.3L76.4,111.1L76.4,111.1z M76.2,132.8l-0.1,7L66.4,156h39.1l-12.2-15.6l0-7.2
	c-1.6,0.1-3.1,0.2-4.7,0.2C84.3,133.5,80.2,133.2,76.2,132.8L76.2,132.8z"/>
<path class="st1" d="M93.7,27l-0.1,21.7c22.3,1.3,40.3,12.1,43.7,26.2l22-0.4C156,48.8,128.2,28.8,93.7,27L93.7,27z"/>
<path class="st1" d="M93.4,111.7c-1.5,0.1-3,0.2-4.5,0.2c-4.3,0.1-8.5-0.2-12.5-0.8C55,107.9,38.9,95.9,38.7,81.1
	C38.4,66,54.8,53.1,77,49.5l0-1.3l0.2-19.6C59.1,31,42.1,40.2,30.8,51.9C21.4,63.3,6.3,78.2,0,80.6c0,0,23.6,19.3,28.2,26.9
	c10,12.7,26.5,22.7,48,25.2c4,0.5,8.1,0.7,12.4,0.6c1.6,0,3.2-0.1,4.7-0.2c32.4-2.2,58.7-20.1,64.9-43.2L135,90.4
	C128.6,101.7,112.7,110.2,93.4,111.7L93.4,111.7z"/>
</svg>
