<?xml version="1.0" encoding="utf-8"?>
<!-- Generator: Adobe Illustrator 26.0.1, SVG Export Plug-In . SVG Version: 6.00 Build 0)  -->
<svg version="1.1" id="Layer_1" xmlns="http://www.w3.org/2000/svg" xmlns:xlink="http://www.w3.org/1999/xlink" x="0px" y="0px"
	 viewBox="0 0 163.1 239" style="enable-background:new 0 0 163.1 239;" xml:space="preserve">
<style type="text/css">
	.st0{fill:#FF5910;}
</style>
<path class="st0" d="M161,158.5c0-2.8-0.9-5.5-2.4-7.8c-2.5,3.9-6.5,5.7-11,4.6c-4-0.9-7.2-3.8-7.2-6.5V88.1l0.9,0.3
	c4.5,1.8,7.8,6.2,8.8,11.6c0.2,1,0.3,2.1,0.3,3.2c0,3.7-1.4,7-3.6,9.6c4.1-0.9,16.4-4.6,16.4-20c0-14.2-11.5-23-22.2-25.1l-0.5-0.1
	V25.2c0-2.7,3.2-5.5,7.2-6.5c4.5-1.1,8.5,0.7,11,4.6c1.6-2.3,2.4-5,2.4-7.8c0-3.7-1.4-7.5-4.1-10.5c-6-6.6-15.8-6.6-26.4-0.1
	l-0.3,0.2l-0.3-0.2c-10.6-6.5-20.4-6.5-26.4,0.1c-2.7,3-4.1,6.8-4.1,10.5c0,2.8,0.8,5.5,2.4,7.8c2.5-3.8,6.5-5.7,11-4.6
	c4,1,7.2,3.8,7.2,6.5v47.4l-0.3,0.2c-8.2,4.3-15.6,10.3-22,17.9l-0.5,0.6l-0.5-0.6c0,0-54.2-65.7-54.3-66.3c0.6-2.8,4.2-5.4,8.3-6
	c4.1-0.6,7.6,1.3,9.9,4.8c1.6-2.3,2.4-5,2.4-7.8c0-3.7-1.4-7.5-4.1-10.5c-6-6.6-15.8-6.6-26.4-0.1l-0.3,0.2l-0.3-0.2
	C21.3-1.6,11.4-1.6,5.5,4.9c-2.7,3-4.1,6.8-4.1,10.5c0,2.8,0.9,5.5,2.4,7.8c2.5-3.8,6.5-5.7,11-4.6c4,1,7.2,3.8,7.2,6.5v42.6
	l-0.5,0.1C10.8,70.2,0,78.8,0,92.8c0,15.5,12.3,19.2,16.4,20c-2.2-2.6-3.6-5.9-3.6-9.6c0-0.9,0.1-1.7,0.2-2.6
	c0.8-5.3,3.8-9.7,8.1-11.8l0.9-0.4v60.5c0,2.7-3.2,5.5-7.2,6.5c-4.5,1.1-8.5-0.7-11-4.6c-1.6,2.3-2.4,5-2.4,7.8
	c0,3.7,1.4,7.6,4.1,10.5c6,6.6,15.8,6.6,26.4,0.1l0.3-0.2l0.3,0.2c10.6,6.5,20.4,6.5,26.4-0.1c2.7-3,4.1-6.8,4.1-10.5
	c0-2.8-0.9-5.5-2.4-7.8c-2.5,3.9-6.5,5.7-11,4.6c-4-0.9-7.1-3.8-7.2-6.5v-56l1,0.7c15,10.2,26.6,31.2,28,44.4v69.3
	c0,7.4-5,13-9.8,14.2c-3.4,0.8-6.4-0.6-8.4-3.7c-1.5,2.3-2.4,4.8-2.4,7.5c0,3.3,1.2,6.6,3.6,9.2c5.8,6.5,15.9,6.3,26.9-0.6l0.3-0.2
	l0.3,0.2c11,6.8,21,7,26.9,0.6c2.4-2.6,3.6-5.9,3.6-9.2c0-2.6-0.9-5.2-2.4-7.5c-2,3-4.8,4.4-8.1,3.6c-4.9-1.2-10.1-7.2-10.1-14.1
	v-68.4c0.3-4.7,2.1-10.8,5.1-17.1l0.4-0.9l0.6,0.8c0,0,22,27.1,22.2,27.5c-0.3,2.7-3.6,5.5-7.7,6.3c-2.1,0.4-7.2,0.7-10.6-4.6
	c-1.5,2.3-2.4,4.9-2.4,7.7c0,3.7,1.4,7.5,4.1,10.5c6,6.6,15.8,6.6,26.4,0.1l0.3-0.2l0.3,0.2c10.6,6.5,20.4,6.5,26.4-0.1
	C159.6,166,161,162.2,161,158.5L161,158.5z M81.5,119.5l-0.5-1.4C70.8,91.2,54.5,78.4,42.7,72.4l-0.3-0.2V53.4l44.1,54.1l0.2,0.3
	L81.5,119.5L81.5,119.5z M120,118.9L108,104.3l0.3-0.4c3.4-3.9,7-7.3,10.7-9.9l1-0.7L120,118.9L120,118.9z"/>
</svg>
