<?xml version="1.0" encoding="utf-8"?>
<!-- Generator: Adobe Illustrator 26.0.1, SVG Export Plug-In . SVG Version: 6.00 Build 0)  -->
<svg version="1.1" id="Layer_1" xmlns="http://www.w3.org/2000/svg" xmlns:xlink="http://www.w3.org/1999/xlink" x="0px" y="0px"
	 viewBox="0 0 61.7 51.1" style="enable-background:new 0 0 61.7 51.1;" xml:space="preserve">
<style type="text/css">
	.st0{fill:none;}
	.st1{fill:#003831;}
</style>
<path class="st0" d="M28.5,26.6L26,18.9l-2.6,7.7L28.5,26.6z"/>
<path class="st0" d="M30,27.7l-4-12.1l-4.1,12.1H30z M28.5,26.6h-5.2l2.6-7.7C25.9,18.9,28.5,26.6,28.5,26.6z"/>
<path class="st0" d="M49.6,35.6c-0.4,0-0.8,0.1-1,0.4c-3.1,3.4-4.7,3.9-5.4,3.9c-0.6,0-1.3-0.3-2.1-2.6l-10-30.2
	c-1.2-3.5-3.3-5.8-6.3-6.8C23.9,0.1,23.1,0,22.2,0c-4.7,0-8.4,3.5-9.7,9.3c-0.1,0.5,0.1,1,0.6,1.2s1,0.1,1.3-0.4
	c0.9-1.3,2.6-2.8,4.3-2.8c0.5,0,1.1,0.1,1.6,0.4c1.7,1,1.8,1.8,0.9,4.5L21,12.9c-1-0.6-2.2-1-3.5-1c-2.7,0-6,1.8-6.6,6.9
	c0,0.4,0.2,0.9,0.6,1.1c0.4,0.2,0.9,0.1,1.2-0.2c0.3-0.3,1.2-0.6,2.3-0.6s2.1,0.4,2.5,1c0.6,0.8,0.3,2,0,2.9l-5.8,16.9
	c-6,0.3-10.4,3.9-11.8,9.6c-0.1,0.5,0.1,1,0.6,1.2s1,0,1.3-0.4c0.6-1,4.4-3,9.1-3c3.7,0,7.2,1.1,10.3,3.4c0.5,0.3,1.1,0.2,1.4-0.2
	l5.9-7.2c0.3-0.4,0.3-1-0.1-1.4c-0.5-0.5-1.7-0.7-2.6-0.7s-2.6,0.2-4.2,1.4c-1-0.7-2.1-1.3-3.3-1.7l2.5-7.4h9.9l3.8,11.3
	c1.3,3.8,3.6,6.3,6,6.3c0.9,0,2.3-0.4,3.4-2.1c0,0,6.3-9.5,7.1-10.6c0.6-0.9,0.4-1.5,0.2-1.9C51,35.9,50.2,35.6,49.6,35.6z
	 M50.3,37.8c-0.8,1.1-7.1,10.6-7.1,10.6c-2.3,3.6-6,0.9-7.6-3.9l-4-12H20.2l-3.1,9.1c1.8,0.5,3.4,1.4,4.7,2.4c2.4-2.3,5.6-1.7,6-1.3
	L22,49.9c-9.3-6.7-19.5-2.4-20.9-0.1C2.6,43.5,7.7,41,12.6,41l6-17.6c2-5.9-4.7-6-6.5-4.4c0.7-6.7,6.7-7.3,9.5-4.3l0.7-2.1
	c0.9-2.8,0.9-4.3-1.4-5.7c-2.7-1.6-5.7,0.3-7.3,2.6c1.7-7.2,6.5-9.3,11-8.1c2.9,0.9,4.6,3.3,5.6,6.1l10,30.2
	c1.1,3.2,3.1,5.8,9.2-0.9C49.5,36.6,51,36.7,50.3,37.8z"/>
<path class="st1" d="M49.3,36.7c-6.2,6.7-8.1,4.1-9.2,0.9l-10-30.2c-0.9-2.8-2.6-5.2-5.6-6.1c-4.5-1.2-9.3,0.9-11,8.1
	c1.6-2.3,4.6-4.3,7.3-2.6c2.3,1.4,2.3,2.9,1.4,5.7l-0.7,2.1c-2.8-3-8.8-2.4-9.5,4.3c1.8-1.7,8.5-1.5,6.5,4.4l-6,17.6
	c-5,0-10,2.6-11.5,8.8c1.4-2.2,11.6-6.6,20.9,0.1l5.9-7.2c-0.4-0.4-3.6-1.1-6,1.3c-1.3-1.1-2.9-1.9-4.7-2.4l3.1-9.1h11.4l4,12
	c1.6,4.8,5.2,7.5,7.6,3.9c0,0,6.3-9.5,7.1-10.6C51,36.7,49.5,36.6,49.3,36.7z M26,15.6l4,12.1h-8.1L26,15.6z"/>
<path class="st0" d="M40.3,19.6l3-3.9v-4.8h-5.7v5.8h0.8l-1.1,2.9H40.3z M38.6,11.9h3.6v3.4l-2.5,3.2h-1l1.1-2.9h-1.2
	C38.6,15.6,38.6,11.9,38.6,11.9z"/>
<path class="st1" d="M38.7,18.5h1.1l2.4-3.2v-3.4h-3.6v3.7h1.2L38.7,18.5z"/>
<path class="st0" d="M61.4,24.1c-0.9-2.6-3.7-4.4-5.8-4.8c-1.2-0.2-3.5-0.7-3.8-1.4c0,0-0.1-0.2,0-0.6c0.1-0.2,0.6-0.5,1.5-0.5
	c1,0,2.4,0.4,3.1,1.4l0.7,1.1l3.8-3.9l-0.5-0.7c-1.5-2.1-4.2-3.4-7.1-3.4c-2.6,0-4.9,1.1-6.2,3c-1.5,2.1-1.9,4-1.3,5.8
	c1,2.7,4.3,4.1,7,4.7c1.6,0.4,2.5,1,2.6,1.3c0,0,0.1,0.2-0.1,0.5c-0.5,0.7-3.7,0.3-6.3-2.1l-1-0.7l-3.2,4.3l0.5,0.6
	c1.4,1.7,5.1,4,8.7,4c2.4,0,4.5-1,6-2.9C62,27.6,61.9,25.5,61.4,24.1z M59.3,29.2C55,34.5,48,30.1,46.2,28.1l2-2.7
	c2.9,2.7,6.8,3.4,7.9,1.9c1.2-1.8-1.2-2.9-3.1-3.4c-4.6-1.2-8.7-3.9-5.1-8.9c2.6-3.7,9-3.2,11.6,0.5l-2.3,2.3
	c-1.5-2.3-5.8-2.4-6.4-0.6c-0.7,2.1,1.7,2.7,4.6,3.3C58.3,20.9,63,24.8,59.3,29.2z"/>
<path class="st1" d="M55.4,20.3c-2.9-0.6-5.3-1.2-4.6-3.3c0.6-1.8,4.9-1.6,6.4,0.6l2.3-2.3c-2.6-3.6-9-4.1-11.6-0.5
	c-3.6,5,0.5,7.7,5.1,8.9c1.9,0.5,4.3,1.6,3.1,3.4c-1,1.6-4.9,0.8-7.9-1.9l-2,2.7C48,30,55,34.3,59.3,29C63,24.8,58.3,20.9,55.4,20.3
	z"/>
</svg>
