<?xml version="1.0" encoding="utf-8"?>
<!-- Generator: Adobe Illustrator 26.0.1, SVG Export Plug-In . SVG Version: 6.00 Build 0)  -->
<svg version="1.1" id="Layer_1" xmlns="http://www.w3.org/2000/svg" xmlns:xlink="http://www.w3.org/1999/xlink" x="0px" y="0px"
	 viewBox="0 0 191.5 245.8" style="enable-background:new 0 0 191.5 245.8;" xml:space="preserve">
<style type="text/css">
	.st0{fill-rule:evenodd;clip-rule:evenodd;fill:#FFFFFF;}
	.st1{fill-rule:evenodd;clip-rule:evenodd;fill:#E81828;}
</style>
<path class="st0" d="M185.6,57.7C184,33.4,163.3,14.9,144,7.6c-6.2-2-12.7-4-18.9-5.3c-20.5-4.4-43-2-61.6,3.3
	c-25.4,7.2-50,27.1-60.1,53c-4,10.6-5,25,0.2,36.5c6.2,13.3,20,18.2,31.9,18.2c13.2,0,22-9.7,27-18.6v52.4l-0.3,35.5
	c-2,2.6-4.5,5.2-6.5,7.9c-4.6,7.1-10.8,16.7-11.2,28.4c0,3.4,0.2,9.4,3.3,14.3c4.2,7.6,12.4,10.9,18.5,12c7.6,1.2,15.2,0,21.5-2.3
	c14-5.3,26.4-18.5,28.8-34.4l0.1-0.6l0.3-67.6c5.2-2.1,10.6-4.1,15.8-6.4c6.7-3,13.4-6.4,19.9-10.6C175.6,109.9,188.4,85,185.6,57.7
	L185.6,57.7z M138.9,74.9c-1.4,7.2-9,14.4-17.6,17.3c-1.4,0.5-2.9,0.9-4.4,1.2l0.2-45c8.8-0.1,15.7,2.5,18.9,7.7l2,4.8
	c0.5,2.5,1,4.9,1.2,7.5C139.6,70.7,139.4,73.1,138.9,74.9z"/>
<path class="st1" d="M179.8,58.2c-1.3-21.7-20.5-38.5-37.6-45l-0.1,0c-5.3-1.7-11.9-3.8-18.2-5.1c-23.6-5.1-46.9-0.2-58.8,3.2
	C39.9,18.3,17.8,37.8,8.8,60.7c-4,10.5-4,23,0.1,32c4.3,9.3,14.3,14.9,26.6,14.9c9.9,0,19-7.7,24.4-20.6c0.1-0.2,0.6-1.9,0.6-1.9
	c0.9-2.7,1.8-5.5,1.8-8.7v-2.2H60c-1.4,0-3-0.6-4.5-1.1l-1.1-0.4c-0.5-0.4-1-1.5-1-2.3c1.1-6.6,6.6-13.2,14.9-18.1v95.1
	c0,0-0.3,35.9-0.3,37.4c-0.6,0.8-3.4,4.3-3.4,4.3l-4,5c-4.4,6.8-9.8,15.1-10.2,25.2v0c0,3.5,0.3,7.9,2.6,11.3
	c2.4,4.5,7.7,7.9,14.4,9.2c5.9,0.9,12.2,0.2,18.5-2c13.1-4.9,23.1-16.9,25.1-29.8c0-0.3,0.3-64.9,0.3-71c0.1-0.2,0.1-0.2,0.2-0.4
	c0.7-0.3,1.7-0.7,1.7-0.7c12.3-4.8,25-9.7,36.5-17.2c19.3-11.3,30.6-31.4,30.6-53.6C180.1,62.7,180,60.4,179.8,58.2L179.8,58.2z
	 M144.6,76.1c-2.1,10.6-12.2,18.4-21.3,21.5c-3.8,1.4-8.1,2-12.2,2.6c0-4.7,0.3-57.3,0.3-57.4c0.4,0,3.6-0.2,3.6-0.2
	c7.2-0.4,20.2,0.5,26.3,10.9c0.2,0.4,2.4,5.8,2.4,5.8c0.7,3.4,1.5,7.3,1.5,11.3C145.3,72.4,145.1,74.3,144.6,76.1z"/>
</svg>
