<?xml version="1.0" encoding="utf-8"?>
<!-- Generator: Adobe Illustrator 26.0.1, SVG Export Plug-In . SVG Version: 6.00 Build 0)  -->
<svg version="1.1" id="Layer_1" xmlns="http://www.w3.org/2000/svg" xmlns:xlink="http://www.w3.org/1999/xlink" x="0px" y="0px"
	 viewBox="0 0 154 217" style="enable-background:new 0 0 154 217;" xml:space="preserve">
<style type="text/css">
	.st0{fill:#EFB922;}
</style>
<path class="st0" d="M144,71.7c0-11,1.5-23,8.4-34.8c-18.2-4.5-32.3-21.7-36.8-36.9c-7.6,7.4-15,9.1-26.7,9.1L10.6,8.9L0,35.7
	c3.2,1.3,5.9,3.6,7.8,6.5c1.9,2.9,2.9,6.3,2.9,9.7V174c0,3.5-1,6.8-2.9,9.7c-1.9,2.9-4.6,5.1-7.8,6.5L10.6,216h29.9l10.7-25.8
	c-3.2-1.3-5.9-3.6-7.8-6.5c-1.9-2.9-2.9-6.3-2.9-9.7v-48.1H89c11.7,0,19.1,2.9,26.7,10.3c4.9-15.2,19.8-26.5,38-31
	C146.7,93.2,144,82.7,144,71.7L144,71.7z M102.7,99.3h-62V34.7h62c9.8,0,16,6.2,16,14.4V86C118.7,94.6,113.8,99.3,102.7,99.3z"/>
</svg>
