<?xml version="1.0" encoding="utf-8"?>
<!-- Generator: Adobe Illustrator 26.0.1, SVG Export Plug-In . SVG Version: 6.00 Build 0)  -->
<svg version="1.1" id="Layer_1" xmlns="http://www.w3.org/2000/svg" xmlns:xlink="http://www.w3.org/1999/xlink" x="0px" y="0px"
	 viewBox="0 0 271.6 191.3" style="enable-background:new 0 0 271.6 191.3;" xml:space="preserve">
<style type="text/css">
	.st0{fill:#C6011F;}
</style>
<path d="M154.5,38.6c35.1,0,61.6,16.2,70.5,30.3h44.2c-0.8-1.6-2.8-7-2.8-7h-42.2c-8.9-14.1-36.6-30.3-71.7-30.3
	c-59.7,0-83.1,39.7-83.1,58.7c0,11,3.2,20.7,8.7,28.9c-3.6-6.7-4.4-16.8-4.4-23.3C73.6,76.9,96.1,38.6,154.5,38.6"/>
<path d="M150.9,184.5c-61,0-85-26.2-113.3-56.2C26,116,18.8,104.9,0,91l3.9,8.9c18,14.8,25.5,25.4,37.1,37.7
	c28.3,30,51.8,53.6,112.9,53.6c53.4,0,94.8-26.4,114.2-58.9l-2.9-6.8C245.7,158.1,204.3,184.5,150.9,184.5"/>
<path class="st0" d="M152.4,31.7c35.1,0,62.8,16.2,71.7,30.3h42.2C246.8,23.3,196.3,0,145.7,0C96.1,0,58.2,28.6,36.4,54.4
	c-21.1,25-30.8,33-34.5,35.5C0.6,90.8,0,91,0,91c18.8,13.8,26,25,37.6,37.3c28.3,30,52.2,56.2,113.3,56.2
	c53.4,0,94.8-26.4,114.2-58.9h-41.7c-19.5,14.8-43.4,26.8-73.8,26.8c-28.1,0-57.4-11.7-71.6-33.1c-5.5-8.2-8.7-17.9-8.7-28.9
	C69.3,71.3,92.8,31.7,152.4,31.7"/>
</svg>
