<?xml version="1.0" encoding="utf-8"?>
<!-- Generator: Adobe Illustrator 26.0.1, SVG Export Plug-In . SVG Version: 6.00 Build 0)  -->
<svg version="1.1" id="Layer_1" xmlns="http://www.w3.org/2000/svg" xmlns:xlink="http://www.w3.org/1999/xlink" x="0px" y="0px"
	 viewBox="0 0 360.9 480" style="enable-background:new 0 0 360.9 480;" xml:space="preserve">
<style type="text/css">
	.st0{fill:#2F241C;}
</style>
<g>
	<path class="st0" d="M291.9,102.2l-194.2,0c0,0,11.6,16.7,11.6,48.4v24.6H68.2c-9.9,0-17.9-8-17.9-17.9V57.4
		c0-9.8,8-17.9,17.9-17.9l133.3,0c10.3,0.1,17,10.3,15.6,20.5c-1.4,9.8-6.5,15.7-6.5,15.7l52.9,0V52.9c0-29.2-23.7-52.9-52.9-52.9
		H52.9C23.7,0,0,23.7,0,52.9v109.9c0,29.2,23.7,52.9,52.9,52.9h145.5c9.9,0,17.9,8,17.9,17.9v95.2c0,9.8-8,17.8-17.8,17.8h-38.7
		V234.7h-50.4v111.9h-44c-9.9,0-17.8-8-17.8-17.8v-9.5c0-31.6,8.5-38.9,8.5-38.9l-52.9,0v54c0,29.2,23.7,52.9,52.9,52.9h53.3v44.4
		c0,31.7-11.6,48.4-11.6,48.4l194.2,0c38.1,0,69-30.9,69-69V171.1C360.9,133,330,102.2,291.9,102.2L291.9,102.2z M310.5,412
		c0,15-12.2,27.2-27.2,27.2H159.7v-52.1h54c29.2,0,52.9-23.7,52.9-52.9V228c0-29.2-23.7-52.9-52.9-52.9h-54v-32.2h123.6
		c15,0,27.2,12.2,27.2,27.2L310.5,412L310.5,412z"/>
</g>
</svg>
