<?xml version="1.0" encoding="utf-8"?>
<!-- Generator: Adobe Illustrator 26.0.1, SVG Export Plug-In . SVG Version: 6.00 Build 0)  -->
<svg version="1.1" id="Layer_1" xmlns="http://www.w3.org/2000/svg" xmlns:xlink="http://www.w3.org/1999/xlink" x="0px" y="0px"
	 viewBox="0 0 233 200.9" style="enable-background:new 0 0 233 200.9;" xml:space="preserve">
<style type="text/css">
	.st0{fill:#134A8E;}
	.st1{fill:#1D2D5C;}
	.st2{fill:#FFFFFF;}
	.st3{fill:#E8291C;}
</style>
<path class="st0" d="M71,72.3c0,0-1.4-3.4,0.4-6.9c0.7-1.4,2-2.6,3.7-3.7C87.9,53.2,115,62,115,62c-6.4-0.6-11.7-0.5-16.2,0.1
	c7.6,2.4,15.7,5.5,21.1,6.9c6.7,1.6,11.2,2.5,17.9,2.9l-0.2-2.6l3.7,0.6l9.9,1.7l1.5-3.7l1.6-4.1l3.2,3.1c0.1,0.1,5,4.8,7.5,7.3
	c-0.5-4.7-1.6-16.6-1.6-16.7l-0.5-4.8l4.5,1.8l4.9,2l7.3-12l2.5-4.1l2.5,4.1l5.9,9.7c2.1-8.4,3.5-17.3,7.9-21.5
	c-4.3,0.2-7.4,1.4-12.1,4.7c2.7-7.3,6.6-12.6,12-18.8c-5.2,0.8-10.2,2.3-15.1,5.1c1.9-4.4,2-9.9,2-9.9
	C162.5,40.2,98.7,39.9,82.1,45.3c-10.8,3.5-16.4,9.5-20.3,15.3C61.5,66.6,65.9,72.3,71,72.3L71,72.3z"/>
<path class="st1" d="M163.3,110.4l-4.3,5.1L163.3,110.4"/>
<path class="st1" d="M152.4,119l4.5-5.4l2.4-2.9l-9.4-8.1c-5.1,7.8-10,16.2-12.4,22.7l10.3,0c-5.3,6.5-15.5,17.4-22.3,29.4
	c-6.9-16.8-22.9-38.5-51.9-50.4c-8.4-3.5-16.3-8-15.3-14.7c-14.5-2.1-30.4-3.8-48.4-4.3c-1.4,0-2.6,0-3.8-0.1c-1,0-1.3,0.4-0.2,1.3
	c4.9,3.6,21.7,10,42.3,13.9c9.9,1.8,14.4,4.6,21.5,9.5c15.4,10.8,36.5,39.8,49.3,77.5c24.4-47.3,52.6-68.5,54.9-70.2l-14.5,1.2
	L152.4,119L152.4,119z M5.3,84.1c10.3-0.4,24.8-0.9,50.1-0.1c2.1,0,4.2,0.1,6.3,0.1c1.3-1.7,3.6-3.2,8-3.2H71
	c8.2,0.1,9.7,8.5,18.5,8.5c8.7,0,10.2-8.4,18.4-8.5c0.2,0,0.5,0,0.7,0h30.1l-0.4-5h-30.2c-8.4,0-9.8-8.5-18.6-8.5
	c-8.6,0-10.2,8.4-18.3,8.5c-8.7-0.5-12.2-7.8-12.8-14c-3.8,1.6-5.8,3.5-8.6,8C18.6,75,8,80,5.2,83.1C4.7,83.7,4.9,83.9,5.3,84.1
	L5.3,84.1z M86.1,71.2c-0.6,2.5-0.3,4.6-0.1,5.7h-2.9C83,74.7,84.3,72.4,86.1,71.2z"/>
<path class="st2" d="M86.1,71.2c-1.8,1.2-3.1,3.5-3.1,5.7H86C85.9,75.8,85.5,73.7,86.1,71.2z"/>
<path class="st2" d="M233,86.8l-4.8-1.7l-2.6-0.9l0.9-11.2l0.3-3.8l-3.7,0.6l-9.9,1.7l-1.5-3.7l-1.6-4.1l-3.2,3.1
	c-0.1,0.1-4.9,4.8-7.5,7.3c0.5-4.7,1.6-16.6,1.6-16.7l0.5-4.8l-4.5,1.8l-2,0.8c0.2-1,0.4-1.9,0.6-2.8c1.2-5.9,4.2-16.3,9.8-24.2
	c0,0-3.6-0.9-9.1,0.7c-1.6,0.5-0.1,0-0.2,0.1c1.8-4.4,10-15.5,10-15.5s-11.5-0.2-15.9,2.4c2.7-8.9,0.4-15.8,0.4-15.8l-9,10.4
	c-15.5,18-53.1,22.9-78.1,26.2c-10.1,1.3-18.1,2.4-23,4c-11.9,3.9-18.1,10.5-21.8,15.7l-2.4,1c-4.5,1.9-7.1,4.4-9.6,8.1
	C21.2,69.8,6.3,74.5,1.5,79.8l-0.3,0.4c-1.1,1.5-1.4,3.2-1,4.8c-0.2,1.4,0.1,3.5,2.6,5.4l0.2,0.1c5.9,4.2,23.4,10.9,44.2,14.8
	c9.4,1.7,13.4,3.1,19.4,8.5c29.7,26.9,44.3,67.3,50.9,87l7.4-13.7c24.8-43.6,49.2-63.7,49.5-64l5.1-4.7l0.1,0.3l2.6,5l2.6-5l1-1.9
	l19.3,1.6l7,0.6l-4.5-5.4l-2.4-2.9l23.9-20.6L233,86.8L233,86.8z M82.1,45.3c16.5-5.4,80.3-5.1,103.2-31.6c0,0-0.1,5.5-2,9.9
	c4.9-2.8,9.9-4.3,15.1-5.1c-5.4,6.2-9.3,11.5-12,18.8c4.7-3.3,7.8-4.5,12.1-4.7c-4.3,4.1-5.8,13-7.9,21.5l-5.9-9.7l-2.5-4.1
	l-2.5,4.1l-7.3,12l-4.9-2l-4.5-1.8l0.5,4.8c0,0.1,1.2,12,1.6,16.7c-2.6-2.5-7.4-7.3-7.5-7.3l-3.2-3.1l-1.6,4.1l-1.5,3.7l-9.9-1.7
	l-3.7-0.6l0.2,2.6c-6.7-0.4-11.2-1.2-17.9-2.9c-5.5-1.3-13.6-4.5-21.1-6.9c4.5-0.6,9.7-0.7,16.2-0.1c0,0-27.1-8.8-39.9-0.2
	c-1.7,1-3,2.3-3.7,3.7c-1.7,3.5-0.4,6.9-0.4,6.9c-5.2,0-9.5-5.8-9.2-11.8C65.7,54.7,71.3,48.8,82.1,45.3L82.1,45.3z M5.2,83.1
	C8,80,18.6,75,49.7,69.9c2.9-4.5,4.8-6.4,8.6-8c0.7,6.2,4.1,13.5,12.8,14c8-0.1,9.6-8.5,18.3-8.5c8.8,0,10.3,8.5,18.6,8.5h30.2
	l0.4,5h-30.1c-0.2,0-0.5,0-0.7,0c-8.1,0.2-9.7,8.5-18.4,8.5c-8.7,0-10.2-8.4-18.5-8.5h-1.3c-4.4,0-6.7,1.5-8,3.2
	c-2,0-4.2-0.1-6.3-0.1c-25.3-0.8-39.8-0.3-50.1,0.1C4.9,83.9,4.7,83.7,5.2,83.1L5.2,83.1z M118.9,187.4
	C106.1,149.7,85,120.8,69.6,110c-7.1-5-11.6-7.7-21.5-9.5C27.5,96.6,10.7,90.1,5.8,86.6c-1.1-0.9-0.9-1.3,0.2-1.3
	c1.1,0,2.4,0,3.8,0.1c18,0.6,33.9,2.3,48.4,4.3c-1,6.7,6.9,11.2,15.3,14.7c29,11.9,45.1,33.6,51.9,50.4c6.9-12,17.1-22.9,22.3-29.4
	l-10.3,0c2.4-6.5,7.3-14.9,12.4-22.7l9.4,8.1l-2.4,2.9l-4.5,5.4l6.9-0.6l14.5-1.2C171.6,118.9,143.3,140.2,118.9,187.4L118.9,187.4z
	 M201.1,110.4l4.3,5.1l-21.3-1.7l-0.9,1.7l-1,1.9l-0.5-0.9l-0.2-0.5l-1.1-2.2l-11.4,0.9h0l-8.4,0.7l-1.5,0.1l4.3-5.1l-26.1-22.5
	l4.8-1.6l-1.1-13.5l12.3,2.1l2.3-5.9c0,0,7.9,7.7,9,8.7c0.7,0.7,1.4,1,2.1,1c1,0,1.8-0.9,1.6-3.2l-0.1-1c-0.4-4.1-1.7-17.4-1.7-17.4
	l7.2,2.9l8.6-14.1l8.6,14.1l3.3-1.3l3.9-1.6c0,0-1.3,13.3-1.7,17.4c0,0.4-0.1,0.8-0.1,1c-0.2,2.2,0.6,3.2,1.6,3.2
	c0.6,0,1.4-0.4,2.1-1c1-1,9-8.7,9-8.7l2.3,5.9l12.3-2.1l-1.1,13.5l4.8,1.6L201.1,110.4L201.1,110.4z"/>
<path class="st3" d="M223.6,72.7l-12.3,2.1l-2.3-5.9c0,0-7.9,7.7-9,8.7c-0.7,0.6-1.4,1-2.1,1c-1,0-1.8-0.9-1.6-3.2
	c0-0.2,0.1-0.5,0.1-1c0.4-4.1,1.7-17.4,1.7-17.4l-3.9,1.6l-3.3,1.3l-8.6-14.1L173.6,60l-7.2-2.9c0,0,1.3,13.3,1.7,17.4
	c0,0.4,0.1,0.8,0.1,1c0.2,2.2-0.6,3.2-1.6,3.2c-0.7,0-1.4-0.3-2.1-1c-1.1-1-9-8.7-9-8.7l-2.3,5.9l-12.3-2.1l1.1,13.5l-4.8,1.6
	l26.1,22.5l-4.3,5.1l1.5-0.1l8.4-0.7l11.4-0.9l1.1,2.2l0.2,0.5l0.5,0.9l1-1.9l0.9-1.7l21.3,1.7l-4.3-5.1l26.1-22.5l-4.8-1.6
	L223.6,72.7L223.6,72.7z"/>
</svg>
