<?xml version="1.0" encoding="utf-8"?>
<!-- Generator: Adobe Illustrator 26.0.1, SVG Export Plug-In . SVG Version: 6.00 Build 0)  -->
<svg version="1.1" id="Layer_1" xmlns="http://www.w3.org/2000/svg" xmlns:xlink="http://www.w3.org/1999/xlink" x="0px" y="0px"
	 viewBox="0 0 84 72" style="enable-background:new 0 0 84 72;" xml:space="preserve">
<style type="text/css">
	.st0{opacity:0.8;}
	.st1{fill:#F06321;}
	.st2{fill-rule:evenodd;clip-rule:evenodd;fill:#F06321;}
</style>
<g class="st0">
	<path class="st1" d="M14,28.1c0.7,0,1.5,0.1,2.2,0.4c0.7,0.3,1.3,0.7,1.8,1.3c0.5,0.5,0.9,1.1,1.2,1.8c0.3,0.7,0.4,1.4,0.4,2.2
		c0,0.7-0.1,1.5-0.4,2.2c-0.3,0.7-0.7,1.3-1.2,1.8c-0.5,0.5-1.2,1-1.8,1.3c-0.7,0.3-1.4,0.4-2.2,0.4c-0.7,0-1.5-0.1-2.1-0.4
		c-0.7-0.3-1.3-0.7-1.8-1.3c-0.8-0.8-1.3-1.8-1.5-2.9c-0.2-1.1-0.1-2.2,0.3-3.3c0.4-1,1.1-1.9,2.1-2.5C11.8,28.4,12.9,28.1,14,28.1
		L14,28.1z M4.1,23.8c-1.3,1.3-2.4,2.8-3.1,4.6c-0.7,1.7-1,3.6-1,5.4c0,1.9,0.3,3.7,1,5.4s1.7,3.3,3.1,4.5c1.3,1.3,2.8,2.4,4.5,3.1
		c1.7,0.7,3.5,1,5.4,1c1.8,0,3.7-0.3,5.4-1c1.7-0.7,3.2-1.8,4.5-3.1c2.5-2.4,4-5.7,4.1-9.2c0-0.3,0-0.5,0-0.8v-0.4
		c0-1.8-0.4-3.6-1.1-5.2c-0.7-1.6-1.7-3.1-3-4.4c-1.3-1.3-2.8-2.4-4.5-3.1c-1.7-0.7-3.5-1.1-5.3-1c-1.8,0-3.7,0.3-5.4,1
		S5.4,22.4,4.1,23.8"/>
	<path class="st1" d="M42,28.1c0.7,0,1.5,0.1,2.2,0.4c0.7,0.3,1.3,0.7,1.8,1.3c0.5,0.5,0.9,1.1,1.2,1.8c0.3,0.7,0.4,1.4,0.4,2.2
		c0,0.7-0.1,1.5-0.4,2.2c-0.3,0.7-0.7,1.3-1.2,1.8c-0.5,0.5-1.1,1-1.8,1.3c-0.7,0.3-1.4,0.4-2.2,0.4c-1.1,0-2.2-0.3-3.1-0.9
		c-0.9-0.6-1.6-1.5-2.1-2.5c-0.4-1-0.5-2.2-0.3-3.3c0.2-1.1,0.8-2.1,1.5-2.9c0.5-0.5,1.1-1,1.8-1.3C40.6,28.3,41.3,28.1,42,28.1
		L42,28.1z M32.1,23.8c-1.3,1.3-2.4,2.8-3.1,4.6c-0.7,1.7-1,3.6-1,5.4c0,3.7,1.5,7.3,4.1,10c2.6,2.6,6.2,4.1,9.9,4.1
		c3.6,0,7-1.4,9.6-3.9c2.6-2.5,4.1-5.9,4.3-9.4c0-0.3,0-0.5,0-0.8v-0.4c0-1.8-0.4-3.6-1-5.2c-0.7-1.7-1.7-3.2-3-4.4
		c-1.3-1.3-2.8-2.4-4.5-3.1c-1.7-0.7-3.5-1.1-5.3-1c-1.8,0-3.7,0.3-5.4,1C35,21.4,33.5,22.4,32.1,23.8"/>
	<path class="st1" d="M70,28.1c0.7,0,1.5,0.1,2.2,0.4c0.7,0.3,1.3,0.7,1.8,1.2c0.5,0.5,0.9,1.1,1.2,1.8c0.3,0.7,0.4,1.4,0.4,2.2
		c0,0.7-0.1,1.5-0.4,2.2c-0.3,0.7-0.7,1.3-1.2,1.8c-0.5,0.5-1.1,1-1.8,1.3c-0.7,0.3-1.4,0.4-2.2,0.4c-1.1,0-2.2-0.3-3.1-0.9
		c-0.9-0.6-1.6-1.5-2.1-2.5c-0.4-1-0.5-2.2-0.3-3.3c0.2-1.1,0.8-2.1,1.5-2.9c0.5-0.5,1.1-0.9,1.8-1.2C68.6,28.3,69.3,28.2,70,28.1
		L70,28.1z M60.2,23.8c-1.3,1.3-2.4,2.8-3.1,4.6c-0.7,1.7-1,3.6-1,5.4c0,3.7,1.5,7.3,4.1,10c2.6,2.6,6.2,4.1,9.9,4.1
		c1.8,0,3.7-0.3,5.4-1c1.7-0.7,3.2-1.8,4.5-3.1c2.5-2.4,3.9-5.7,4.1-9.2c0-0.3,0-0.5,0-0.8v-0.4c0-1.8-0.4-3.6-1.1-5.2
		c-0.7-1.6-1.7-3.1-3-4.4c-2.6-2.6-6.2-4.1-9.9-4.1C66.3,19.7,62.7,21.2,60.2,23.8"/>
</g>
<g class="st0">
	<path class="st1" d="M14,8.4c0.8,0,1.5,0.1,2.2,0.4c0.7,0.3,1.3,0.7,1.8,1.3c0.5,0.5,1,1.1,1.2,1.8c0.3,0.7,0.4,1.4,0.4,2.2
		c0,0.7-0.1,1.5-0.4,2.2c-0.3,0.7-0.7,1.3-1.2,1.8c-0.5,0.5-1.2,1-1.8,1.3c-0.7,0.3-1.4,0.4-2.2,0.4c-0.7,0-1.5-0.1-2.2-0.4
		c-0.7-0.3-1.3-0.7-1.8-1.2c-0.5-0.5-0.9-1.2-1.2-1.9c-0.3-0.7-0.4-1.4-0.4-2.2c0-0.7,0.2-1.5,0.4-2.1s0.7-1.3,1.2-1.8
		c0.5-0.5,1.1-1,1.8-1.3C12.5,8.6,13.2,8.4,14,8.4z M27.9,14.8c0-0.3,0-0.5,0-0.7v-0.4c0-1.8-0.4-3.6-1.1-5.2s-1.7-3.1-3-4.4
		C22.5,2.8,21,1.7,19.3,1C17.6,0.3,15.8,0,14,0c-1.8,0-3.7,0.3-5.4,1C6.9,1.7,5.4,2.8,4.1,4.1C2.8,5.4,1.7,7,1,8.7
		c-0.7,1.7-1.1,3.5-1,5.4c0,1.9,0.3,3.7,1,5.4c0.7,1.7,1.7,3.3,3.1,4.6c1.3,1.3,2.8,2.4,4.5,3.1c1.7,0.7,3.5,1,5.4,1
		c1.8,0,3.7-0.3,5.4-1c1.7-0.7,3.2-1.7,4.5-3.1C26.3,21.6,27.8,18.3,27.9,14.8"/>
	<path class="st1" d="M42,8.4c0.7,0,1.5,0.1,2.2,0.4c0.7,0.3,1.3,0.7,1.8,1.3c0.5,0.5,1,1.1,1.2,1.8c0.3,0.7,0.4,1.4,0.4,2.2
		c0,0.7-0.1,1.5-0.4,2.2C47,17,46.5,17.6,46,18.1c-0.5,0.5-1.1,1-1.8,1.3c-0.7,0.3-1.4,0.4-2.2,0.4c-0.7,0-1.5-0.1-2.1-0.4
		c-0.7-0.3-1.3-0.7-1.8-1.2c-0.5-0.5-0.9-1.1-1.2-1.8c-0.3-0.7-0.4-1.4-0.4-2.2c0-0.7,0.1-1.5,0.4-2.2c0.3-0.7,0.7-1.3,1.2-1.9
		c0.5-0.5,1.1-1,1.8-1.2C40.5,8.6,41.3,8.5,42,8.4z M55.9,14.8c0-0.3,0-0.5,0-0.7v-0.4c0-3.6-1.5-7-4-9.6c-1.3-1.3-2.8-2.4-4.5-3.1
		C45.7,0.3,43.9,0,42,0c-1.8,0-3.7,0.3-5.4,1c-1.7,0.7-3.2,1.8-4.5,3.1c-1.3,1.3-2.4,2.8-3.1,4.5c-0.7,1.7-1,3.6-1,5.4
		c0,1.9,0.3,3.7,1,5.4c0.7,1.7,1.7,3.3,3.1,4.5c1.3,1.3,2.8,2.4,4.5,3.1c1.7,0.7,3.5,1,5.4,1c1.8,0,3.7-0.3,5.4-1
		c1.7-0.7,3.2-1.7,4.5-3.1C54.4,21.6,55.9,18.3,55.9,14.8"/>
	<path class="st1" d="M74,10.1c0.5,0.5,1,1.1,1.3,1.8c0.3,0.7,0.4,1.4,0.4,2.2c0,0.7-0.1,1.5-0.4,2.2C75,17,74.6,17.6,74,18.1
		c-0.5,0.5-1.1,1-1.8,1.3c-0.7,0.3-1.4,0.4-2.2,0.4c-0.7,0-1.5-0.1-2.2-0.4c-0.7-0.3-1.3-0.7-1.8-1.2c-0.5-0.5-0.9-1.2-1.2-1.9
		c-0.3-0.7-0.4-1.4-0.4-2.2c0-0.7,0.1-1.5,0.4-2.2c0.3-0.7,0.7-1.3,1.2-1.8c0.5-0.5,1.1-1,1.8-1.3c0.7-0.3,1.4-0.4,2.1-0.4
		c0.7,0,1.5,0.1,2.2,0.4C72.9,9.1,73.5,9.5,74,10.1L74,10.1z M84,14.1v-0.4c0-1.8-0.4-3.6-1.1-5.2c-0.7-1.6-1.7-3.1-3-4.4
		C77.3,1.5,73.7,0,70,0c-3.7,0-7.2,1.5-9.9,4.1c-1.3,1.3-2.4,2.8-3.1,4.5c-0.7,1.7-1,3.6-1,5.4c0,1.9,0.3,3.7,1,5.4
		c0.7,1.7,1.7,3.3,3.1,4.5c2.6,2.6,6.2,4.1,9.9,4.1c3.7,0,7.2-1.5,9.9-4.1c2.5-2.4,3.9-5.7,4.1-9.2C83.9,14.5,83.9,14.3,84,14.1"/>
</g>
<path class="st1" d="M24,65l1-1.7c1.1,1.1,2.6,1.7,4.1,1.7c1.5,0,2.5-0.6,2.5-1.6c0-0.7-0.5-1.2-2-1.8c-3.5-1.3-4.6-2.3-4.6-4.1
	c0-2.1,2-3.5,4.4-3.4c1.4,0,2.7,0.5,3.8,1.4l-0.6,1.9c-0.9-0.7-2.1-1.1-3.2-1.2c-0.9,0-2,0.3-2,1.3c0,1,0.8,1.3,2.4,2
	c2.6,1,4.1,1.9,4.1,3.9c0,2.2-1.8,3.7-4.7,3.8C27.2,67,25.4,66.3,24,65"/>
<path class="st1" d="M46.7,60.5c0-0.5,0-1.1-0.2-1.6c-0.2-0.5-0.5-1-0.8-1.4c-0.4-0.4-0.8-0.7-1.3-0.9c-0.5-0.2-1-0.3-1.6-0.3
	s-1.1,0.1-1.6,0.3c-0.5,0.2-0.9,0.5-1.3,0.9c-0.4,0.4-0.7,0.9-0.8,1.4c-0.2,0.5-0.3,1.1-0.2,1.6c0,0.5,0,1.1,0.2,1.6
	c0.2,0.5,0.5,1,0.8,1.4c0.4,0.4,0.8,0.7,1.3,0.9c0.5,0.2,1,0.3,1.6,0.3s1.1-0.1,1.6-0.3c0.5-0.2,0.9-0.5,1.3-0.9
	c0.4-0.4,0.7-0.9,0.8-1.4C46.7,61.6,46.7,61,46.7,60.5z M49.1,60.5c0,0.8-0.1,1.7-0.4,2.4c-0.3,0.8-0.7,1.5-1.3,2.1
	c-0.6,0.6-1.3,1.1-2,1.4c-0.8,0.3-1.6,0.5-2.4,0.5c-0.9,0-1.8-0.2-2.6-0.6c-0.8-0.4-1.4-1.1-1.9-1.9V72h-2.3V54.3h2.3v2.3
	c0.4-0.8,1.1-1.5,1.9-1.9s1.7-0.7,2.6-0.6c0.8,0,1.6,0.1,2.4,0.5c0.8,0.3,1.5,0.8,2,1.4c0.6,0.6,1,1.3,1.3,2.1
	C49,58.8,49.1,59.6,49.1,60.5z"/>
<path class="st2" d="M52.8,56.1c-1.2,1.1-1.9,2.7-2,4.3c0,0.9,0.1,1.7,0.4,2.5c0.3,0.8,0.8,1.6,1.3,2.2c0.6,0.6,1.3,1.1,2.1,1.5
	c0.8,0.3,1.6,0.5,2.5,0.5c0.9,0,1.7-0.2,2.5-0.5c0.8-0.3,1.5-0.8,2.1-1.5c0.6-0.6,1-1.4,1.3-2.2c0.3-0.8,0.4-1.7,0.4-2.5
	c-0.1-1.6-0.8-3.2-2-4.3c-1.2-1.1-2.7-1.8-4.4-1.8C55.6,54.4,54,55,52.8,56.1z M54.5,57.9c-0.8,0.7-1.2,1.7-1.3,2.7
	c0,0.6,0.1,1.1,0.2,1.6c0.2,0.5,0.5,1,0.9,1.4s0.8,0.7,1.3,0.9c0.5,0.2,1,0.3,1.6,0.3c0.5,0,1.1-0.1,1.6-0.3c0.5-0.2,1-0.5,1.3-0.9
	c0.4-0.4,0.7-0.9,0.9-1.4c0.2-0.5,0.3-1.1,0.2-1.6c-0.1-1-0.5-2-1.3-2.7c-0.8-0.7-1.7-1.1-2.8-1.1C56.2,56.7,55.2,57.1,54.5,57.9z"
	/>
<path class="st1" d="M66.1,54.3h2.3v2.8c0.3-0.9,0.9-1.7,1.7-2.2c0.8-0.5,1.7-0.8,2.7-0.8v2.2h-0.3c-1.1,0-2.1,0.4-2.8,1.2
	s-1.2,1.7-1.3,2.8v6.3h-2.3V54.3z"/>
<path class="st1" d="M76.3,63.3v-6.8h-1.7v-2.3h1.7v-3.6h2.4v3.6h3.5v2.2h-3.5v6.4c0,0.2,0,0.5,0.1,0.7c0.1,0.2,0.2,0.4,0.4,0.6
	c0.2,0.2,0.4,0.3,0.6,0.4c0.2,0.1,0.4,0.1,0.7,0.1c0.6,0,1.3-0.1,1.9-0.3v2c-0.8,0.3-1.6,0.5-2.4,0.5c-0.5,0-0.9,0-1.4-0.2
	c-0.4-0.2-0.8-0.4-1.1-0.8c-0.3-0.3-0.6-0.7-0.7-1.2c-0.1-0.4-0.2-0.9-0.1-1.4"/>
</svg>
