<?xml version="1.0" encoding="utf-8"?>
<!-- Generator: Adobe Illustrator 26.0.1, SVG Export Plug-In . SVG Version: 6.00 Build 0)  -->
<svg version="1.1" id="Layer_1" xmlns="http://www.w3.org/2000/svg" xmlns:xlink="http://www.w3.org/1999/xlink" x="0px" y="0px"
	 viewBox="0 0 142 21" style="enable-background:new 0 0 142 21;" xml:space="preserve">
<style type="text/css">
	.st0{fill:#2AA1CF;}
</style>
<g>
	<g>
		<path d="M88.1,1.2c0,0-3.9-2.2-9.5-0.7C73,2,72.3,11.3,74.2,16.1s7.7,6.1,14,3.6V15c0,0-2.5,1-5.5,1.3c-3.1,0.3-4-1.8-4.2-5.1
			c-0.2-3.4,0.5-5.2,2.6-6.3c2.2-1,7.1,1.2,7.1,1.2L88.1,1.2L88.1,1.2z"/>
		<path d="M114.7,0h-0.9c-4.3,0-7.8,3.4-7.8,7.5v6c0,4.1,3.5,7.5,7.8,7.5h0.9c4.3,0,7.8-3.4,7.8-7.5v-6C122.5,3.4,119,0,114.7,0z
			 M117.5,13.5c0,1.7-1.4,3-3.1,3h-0.4c-1.7,0-3.1-1.4-3.1-3V7.4c0-1.7,1.4-3,3.1-3h0.4c1.7,0,3.1,1.4,3.1,3V13.5z"/>
		<path d="M104.9,0.4H90.1v4.4h5v15.9h4.8V4.8h5V0.4z"/>
		<path d="M70.2,0.4h-4.8v20.4h4.8V0.4z"/>
		<path d="M44.7,0.4H50l3.9,11.8l4-11.8h5.5l-7.7,20.4h-3.7L44.7,0.4z"/>
		<path d="M137.2,11.9c1.6-0.9,2.6-2.6,2.6-4.5V5.6c0-2.9-2.4-5.2-5.4-5.2h-9.2v12.2v8.1h4.8v-8.1h2.1l3.9,8.1h6L137.2,11.9z
			 M132.9,8.3h-2.8c0,0-0.1,0-0.1-0.1V4.9c0,0,0-0.1,0.1-0.1h2.8c1,0,1.8,0.8,1.8,1.7C134.7,7.5,133.9,8.3,132.9,8.3z"/>
		<path class="st0" d="M42.4,0.4h-13v2.9h4.9v17.5h3.1V3.3h4.9V0.4z"/>
		<path class="st0" d="M27.4,3.4v-3h-8.6H17h-1.3v20.4H17h1.8h8.6v-3h-8.6v-6.1h7.5v-3h-7.5V3.4H27.4z"/>
		<path class="st0" d="M8.9,10.1H8.7c1.9,0,3.4-1.5,3.4-3.3V5.2c0-2.6-2.2-4.7-4.9-4.7H0v9.7v10.7h7.7c2.9,0,5.3-2.3,5.3-5.1V14
			C13,11.8,11.2,10.1,8.9,10.1z M2.8,3.4h3.7C8,3.4,9.2,4.6,9.2,6c0,1.5-1.2,2.7-2.7,2.7H2.8V3.4z M6.4,17.9H2.8v-6.2h3.7
			c1.8,0,3.2,1.4,3.2,3.1C9.6,16.5,8.2,17.9,6.4,17.9z"/>
	</g>
</g>
</svg>
