<?xml version="1.0" encoding="utf-8"?>
<!-- Generator: Adobe Illustrator 26.0.1, SVG Export Plug-In . SVG Version: 6.00 Build 0)  -->
<svg version="1.1" id="Layer_1" xmlns="http://www.w3.org/2000/svg" xmlns:xlink="http://www.w3.org/1999/xlink" x="0px" y="0px"
	 viewBox="0 0 142 40" style="enable-background:new 0 0 142 40;" xml:space="preserve">
<style type="text/css">
	.st0{fill:#041E42;}
	.st1{fill:#041E41;}
</style>
<g>
	<g>
		<path class="st0" d="M95.1,23.9c-0.2,0.4-0.4,0.8-0.6,1.1c-0.8,1.2-1.9,2.2-3.3,2.7c-1,0.4-2.1,0.4-3.1-0.1
			c-1-0.5-1.4-1.6-0.9-2.8c0.5-1.4,1.2-2.6,2-3.7c1-1.5,2.1-3,3.1-4.6c0.5-0.8,1-1.6,1.5-2.4c0.1-0.1,0.1-0.3,0.1-0.4
			c0.1-0.5-0.1-0.8-0.7-0.7c-0.7,0-1.2,0.5-1.7,0.9c-2,1.6-3.7,3.4-5.2,5.4c-1.4,1.8-2.6,3.7-3.9,5.6c-0.6,0.9-1.2,1.8-1.8,2.7
			c-0.1,0.1-0.2,0.2-0.3,0.2c-1.1,0-2.2,0-3.5,0c0.4-0.6,0.7-1.1,1.1-1.6c1.4-2,2.7-4,4.1-5.9c1.1-1.6,2.3-3.3,3.4-4.9
			c0.3-0.4,0.5-0.8,0.7-1.3c0.1-0.2,0.1-0.7,0-0.8c-0.2-0.2-0.6-0.2-0.8-0.1c-0.5,0.2-1,0.5-1.4,0.8c-1.4,1.3-2.8,2.6-4.1,4
			c-1.8,1.9-3.1,4.1-4.5,6.2c-0.7,1.1-1.4,2.2-2.1,3.3c-0.1,0.1-0.3,0.3-0.5,0.3c-1,0-2,0-3.1,0c0.8-1.3,1.6-2.4,2.1-3.3
			c-0.4,0.3-1,0.9-1.6,1.4c-1,0.9-2,1.7-3.2,2.1c-0.8,0.3-2.5-0.1-2.9-0.9c-0.2-0.4-0.3-0.8-0.3-1.3c0-0.1,0-0.3,0.1-0.5
			c-0.4,0.3-0.7,0.6-1.1,0.9c-0.9,0.7-1.8,1.4-2.9,1.7c-2.1,0.8-3.7-0.6-3.8-2.5c0-0.9,0.1-1.7,0.2-2.5c-0.3,0.3-0.6,0.7-0.9,1.1
			c-1.2,1.4-2.5,2.7-4.2,3.7c-0.8,0.4-1.7,0.6-2.6,0.3c-1.2-0.4-1.7-1.4-1.4-2.6c0.1-0.4,0.2-0.8,0.3-1c-0.4,0.4-0.9,0.8-1.4,1.3
			c-0.9,0.9-1.9,1.7-3.1,2.2c-1.2,0.5-2.8,0.2-3.4-0.8c-0.5-0.8-0.2-1.5,0-2.3c0.1-0.2,0.1-0.3,0.2-0.6c-0.7,0.7-1.3,1.3-2,1.9
			c-1,0.9-2.1,1.8-3.5,2c-1.1,0.2-2.7-0.4-2.8-1.9c0-0.6,0.2-1.1,0.3-1.7c-0.3,0.3-0.6,0.6-1,1c-1,1-2.1,2-3.5,2.5
			c-1.2,0.5-2.8,0-3.3-1.1c-0.3-0.6-0.2-1.2,0-1.9c0.4-1.2,1.1-2.3,1.8-3.4c1.8-2.7,3.6-5.4,5.4-8c0.4-0.6,0.9-1.3,1.3-1.9
			c0.1-0.1,0.3-0.3,0.4-0.3c1.1,0,2.2,0,3.4,0c-0.2,0.4-0.4,0.7-0.7,1c-2,2.9-4,5.8-6,8.6c-0.8,1.2-1.6,2.4-2.4,3.6
			c-0.2,0.4-0.4,0.8-0.5,1.2c-0.2,0.5,0.1,0.8,0.6,0.7c0.3-0.1,0.7-0.3,1-0.5c1.5-1.1,2.8-2.5,4.1-3.8c1.9-2,3.5-4.3,5.1-6.7
			c1.4-2.1,2.9-4.2,4.4-6.3C43.2,7.1,44.6,5,46,2.9c0.2-0.2,0.3-0.3,0.6-0.3c1,0,2.1,0,3.2,0c-0.3,0.4-0.5,0.8-0.8,1.2
			c-1.7,2.5-3.5,4.9-5.2,7.4c-0.8,1.1-1.6,2.2-2.3,3.3c-1.3,1.9-2.7,3.9-4,5.8c-1,1.5-2,3-3,4.5c-0.2,0.3-0.3,0.6-0.4,0.9
			c-0.2,0.6,0.2,0.9,0.7,0.7c0.4-0.1,0.8-0.3,1.2-0.6c1.1-1,2.2-1.9,3.1-2.9c1.2-1.3,2.4-2.7,3.5-4.1c1.1-1.4,2.1-2.9,3.1-4.4
			c1.7-2.4,3.4-4.9,5-7.3c0.9-1.3,1.8-2.6,2.7-4c0.2-0.4,0.5-0.5,0.9-0.5c1,0,2,0,3,0c-0.3,0.4-0.5,0.8-0.8,1.2
			c-1.6,2.2-3.1,4.4-4.7,6.7c-1.4,2-2.7,4-4.1,5.9c-1.2,1.7-2.4,3.4-3.6,5.2c-0.7,1.1-1.4,2.2-2.1,3.3c-0.2,0.3-0.2,0.6-0.3,0.9
			c-0.1,0.6,0.2,0.9,0.7,0.7c0.6-0.3,1.1-0.6,1.6-1c1.8-1.5,3.4-3.3,4.9-5c1.7-1.9,3-4,4.4-6c0.6-0.9,1.3-1.8,1.9-2.8
			c0.1-0.2,0.3-0.3,0.6-0.3c1.1,0,2.1,0,3.3,0c-0.4,0.6-0.7,1.1-1.1,1.6c-2.1,3.1-4.3,6.1-6.4,9.2c-0.6,0.9-1.2,1.8-1.7,2.7
			c-0.2,0.3-0.3,0.6-0.4,0.9c0,0.2,0,0.5,0.1,0.6c0.2,0.1,0.5,0.2,0.7,0.1c0.5-0.3,1-0.6,1.5-0.9c1.8-1.5,3.4-3.2,4.9-5
			c0.8-0.9,1.4-1.9,2.1-2.9c1.3-1.8,2.8-3.5,4.5-4.9c1.1-0.9,2.4-1.7,3.9-1.9c0.9-0.2,1.9-0.1,2.7,0.4c0.7,0.3,0.9,0.9,0.9,1.7
			c0,0.1,0,0.2,0.1,0.4c0.1-0.2,0.3-0.3,0.4-0.5c0.2-0.4,0.5-0.8,0.7-1.1c0.1-0.1,0.3-0.3,0.5-0.3c1.1,0,2.1,0,3.3,0
			c-0.3,0.4-0.5,0.8-0.8,1.2c-1.8,2.6-3.6,5.1-5.4,7.7c-0.9,1.4-1.9,2.7-2.8,4.1c-0.3,0.4-0.4,0.9-0.6,1.3c-0.1,0.2,0,0.6,0.1,0.7
			c0.2,0.1,0.5,0.1,0.7,0c0.7-0.4,1.5-0.9,2-1.4c1.5-1.5,2.9-3,4.3-4.5c1.6-1.8,2.9-3.9,4.2-5.9c0.6-1,1.3-2,1.9-3
			c0.1-0.1,0.2-0.2,0.3-0.2c1.1,0,2.2,0,3.4,0c-0.6,0.9-1.2,1.8-1.7,2.7c0,0,0.1,0,0.1,0.1c0.4-0.4,0.8-0.9,1.2-1.3
			c0.8-0.8,1.7-1.5,2.7-2c1.1-0.5,2.6-0.3,3.3,0.5c0.5,0.6,0.4,1.3,0.3,2c-0.1,0.4-0.2,0.7-0.4,1.2c0.4-0.4,0.6-0.6,0.9-0.9
			c1.1-1.2,2.3-2.3,3.9-2.9c1.1-0.4,2.3-0.2,3.1,0.6c0.4,0.4,0.5,0.9,0.4,1.4c-0.2,1.7-1.1,3-2,4.4c-1,1.5-2.1,3.1-3.1,4.6
			c-0.7,1-1.3,2-1.9,3.1c-0.2,0.3-0.2,0.6-0.2,0.9c0,0.5,0.2,0.7,0.7,0.7c0.5-0.1,1.1-0.3,1.5-0.5c0.8-0.5,1.4-1.1,2.1-1.7
			c0.2-0.1,0.3-0.3,0.5-0.4C95,23.8,95.1,23.9,95.1,23.9z M70.3,13.2c0,0-0.1,0-0.1,0c0-0.5-0.2-0.8-0.8-0.8c-0.7,0-1.2,0.2-1.8,0.6
			c-1.9,1.2-3.4,2.8-4.7,4.7c-1,1.5-2,3-2.9,4.6c-0.5,0.9-0.9,2-1.1,3c-0.2,0.8,0.4,1.3,1.2,1c0.6-0.3,1.3-0.6,1.8-1.1
			c3-2.7,5.5-5.9,7.4-9.4C69.7,14.9,69.9,14,70.3,13.2z"/>
		<path class="st0" d="M16.7,14.2c-0.4,0.5-0.9,1.1-1.2,1.6C14.2,17.9,13,20,11.7,22c-1.1,1.7-2.3,3.3-3.9,4.5
			c-1.1,0.8-2.4,1.2-3.7,1.4C3.3,28,2.5,28.1,1.7,28c-0.5,0-0.9-0.3-1.3-0.5c-0.5-0.4-0.5-1,0.1-1.4c0.7-0.5,1.6-0.6,2.5-0.6
			c0.2,0,0.4-0.1,0.6-0.2c1-1,1.6-2.2,2-3.5c0.7-2.1,1.4-4.3,2.1-6.4c0.9-2.8,2.1-5.5,3.7-8c1-1.6,2.3-3.1,3.8-4.3C15,3,15,3,15,2.9
			c-2.6-0.6-5.3-1.1-8-0.7C6.1,2.4,5.3,2.7,4.6,3C3.2,3.7,2.8,4.9,2.7,6.3c0,1,0.2,1.9,0.6,2.8c-1-0.3-1.7-0.8-2.2-1.7
			C0,5.7,0.4,3.6,1.6,2.1C3,0.3,4.9-0.1,7.1,0c2.1,0.1,4.1,0.7,6.1,1.2C14.1,1.4,15,1.7,16,1.9c0.1,0,0.4-0.1,0.5-0.2
			c1.3-0.9,2.7-1.2,4.3-1.1c0.5,0.1,0.8,0.3,0.9,0.7c0.1,0.4-0.1,0.8-0.5,1.1c-0.7,0.6-1.5,0.9-2.4,0.9c-0.2,0-0.4,0-0.5,0
			c-0.7-0.1-1.1,0.1-1.5,0.7c-1.2,2-2.4,3.9-3.5,5.9c-1.1,2.1-1.9,4.3-2.8,6.5c-1,2.6-2.1,5.3-3.9,7.5c-0.6,0.7-1.2,1.3-1.8,1.9
			c0.1,0,0.2,0,0.3,0c1.3-0.3,2.3-1.1,3.3-2c1.4-1.3,2.3-2.8,3.2-4.5c1.5-2.9,2.9-5.7,5-8.2c1.2-1.5,2.7-2.5,4.5-3.1
			c0.1,0,0.3,0,0.5,0c0,0.1-0.1,0.3-0.1,0.4c-0.8,1.2-1.3,2.5-1.6,3.9c-0.5,2.1-0.8,4.2-1.3,6.3c-0.5,2-1.4,3.8-2.6,5.5
			c-0.5,0.7-1,1.4-1.5,2.1c0.4-0.2,0.9-0.4,1.3-0.6c1.2-0.6,2-1.6,2.6-2.8c1.3-2.1,2.5-4.2,3.8-6.3c1.8-2.9,3.7-5.8,5.6-8.7
			c1.2-1.9,2.6-3.7,4.3-5.1c2.2-1.8,4.6-2.9,7.5-2.9c1.1,0,2.1,0.3,2.9,1.2C42.9,2,43,2.8,43.1,3.6c-0.1-0.1-0.1-0.2-0.2-0.3
			c-0.7-1-1.6-1.5-2.8-1.6c-2.7-0.1-4.9,1-6.6,3c-1.4,1.6-2.6,3.5-3.9,5.2c-1,1.5-2,2.9-3,4.4c-0.9,1.3-1.6,2.7-2.5,4
			c-1.3,2-2.5,4.1-4,6c-2.2,2.8-5.1,4-8.7,3.7c-0.6-0.1-0.7-0.4-0.4-0.8c0.5-0.7,1.1-1.5,1.6-2.2c1-1.3,1.6-2.8,2.2-4.3
			c0.6-1.6,1.1-3.3,1.6-5c0.2-0.5,0.2-1.1,0.3-1.6C16.8,14.2,16.7,14.2,16.7,14.2z"/>
		<path class="st0" d="M112,27.7c-1.7,0-3.3,0-5,0c0-2.2,0-4.3,0-6.5c-0.7,0-1.3,0-2,0c0,2.1,0,4.3,0,6.5c-1.7,0-3.3,0-5,0
			c0-5.5,0-10.9,0-16.4c1.6,0,3.3,0,5,0c0,1.9,0,3.8,0,5.7c0.7,0,1.3,0,2,0c0-1.9,0-3.8,0-5.7c1.7,0,3.3,0,5,0
			C112,16.7,112,22.2,112,27.7z"/>
		<path class="st0" d="M130.4,11.2c1.7,0,3.3,0,5,0c0,0.2,0,0.3,0,0.4c0,3.4,0,6.9,0,10.3c0,0.4,0.1,0.6,0.5,0.5c0.8,0,1.6,0,2.5,0
			c0,1.7,0,3.4,0,5.1c-2.7,0-5.3,0-8,0C130.4,22.2,130.4,16.7,130.4,11.2z"/>
		<path class="st0" d="M128.8,22.5c0,1.7,0,3.4,0,5.1c-2.7,0-5.3,0-8,0c0-5.5,0-10.9,0-16.4c1.6,0,3.3,0,5,0c0,0.2,0,0.4,0,0.7
			c0,3.4,0,6.7,0,10.1c0,0.4,0.1,0.5,0.5,0.5C127.2,22.5,128,22.5,128.8,22.5z"/>
		<path class="st0" d="M114.1,27.6c0-5.4,0-10.9,0-16.4c0.2,0,0.4,0,0.6,0c1.2,0,2.4,0,3.7,0c0.3,0,0.4,0.1,0.4,0.4
			c0,5.2,0,10.5,0,15.7c0,0.2,0,0.4-0.3,0.4C117.1,27.7,115.6,27.7,114.1,27.6C114.2,27.7,114.1,27.7,114.1,27.6z"/>
		<path class="st1" d="M85.2,39.9c0-2.3,0-4.6,0-6.8c1.3,0,2.7-0.1,3.9,0c1.2,0.1,1.8,1.3,1.3,2.4c-0.1,0.3-0.4,0.5-0.6,0.8
			c0,0,0.1,0.1,0.2,0.1c0.7,0.4,1,1,0.9,1.8c-0.1,0.7-0.6,1.3-1.3,1.5c-0.4,0.1-0.8,0.2-1.3,0.2C87.4,39.9,86.3,39.9,85.2,39.9z
			 M86.7,38.5c0.7,0,1.3,0,2,0c0.6,0,0.8-0.3,0.8-0.7c0-0.4-0.3-0.7-0.9-0.7c-0.5,0-1.1,0-1.6,0c-0.1,0-0.3,0.2-0.3,0.3
			C86.7,37.7,86.7,38.1,86.7,38.5z M86.7,35.7c0.6,0,1.2,0,1.8,0c0.3,0,0.5-0.3,0.5-0.6c0-0.3-0.2-0.6-0.5-0.6c-0.6,0-1.2,0-1.9,0
			C86.7,34.9,86.7,35.3,86.7,35.7z"/>
		<path class="st1" d="M52,37.5c0.5,0.8,1.1,1.6,1.7,2.4c-0.6,0-1.2,0-1.7,0c-0.1,0-0.2-0.1-0.3-0.2c-0.3-0.4-0.6-0.8-0.8-1.2
			c-0.5-0.8-0.6-0.8-1.6-0.7c0,0.6,0,1.2,0,1.7c0,0.3-0.1,0.4-0.4,0.4c-0.4,0-0.8,0-1.2,0c0-2.3,0-4.6,0-6.9c0.2,0,0.3,0,0.5,0
			c0.9,0,1.7,0,2.6,0c0.3,0,0.6,0,0.8,0.1c1,0.2,1.7,0.8,1.8,1.8c0.2,1.1-0.2,1.9-1.1,2.4C52.2,37.3,52.1,37.4,52,37.5z M49.3,36.3
			c0.7,0,1.3,0.1,1.9,0c0.5-0.1,0.7-0.5,0.7-1c0-0.4-0.4-0.8-0.8-0.8c-0.6,0-1.2,0-1.8,0C49.3,35.1,49.3,35.7,49.3,36.3z"/>
		<path class="st1" d="M111.2,32.9c2,0,3.6,1.5,3.6,3.5c0,2-1.6,3.6-3.6,3.6c-2.1,0-3.7-1.5-3.7-3.5
			C107.5,34.5,109.1,32.9,111.2,32.9z M113.2,36.4c-0.1-1.3-1-2.1-2.2-2.1c-1.1,0.1-1.9,1.1-1.9,2.3c0.1,1.2,1,2,2.2,2
			C112.5,38.5,113.3,37.5,113.2,36.4z"/>
		<path class="st1" d="M95.6,36.4c0-2,1.6-3.5,3.7-3.5c2.1,0,3.6,1.6,3.6,3.6c0,2-1.6,3.5-3.7,3.5C97.1,40,95.6,38.4,95.6,36.4z
			 M97.2,36.4c0,1.2,0.8,2.2,2,2.2c1.2,0,2.1-0.8,2.1-2c0-1.3-0.8-2.3-2-2.3C98.1,34.3,97.2,35.2,97.2,36.4z"/>
		<path class="st1" d="M42.7,36.4c0.1,1.9-1.5,3.6-3.6,3.6c-2.1,0-3.6-1.5-3.6-3.6c0-2,1.6-3.5,3.7-3.6
			C41.2,32.9,42.7,34.6,42.7,36.4z M39.1,38.6c1.1,0,2-0.9,2-2.1c0-1.1-0.9-2.1-2-2.2c-1.2,0-2.1,0.9-2.1,2.1
			C37,37.6,37.9,38.6,39.1,38.6z"/>
		<path class="st1" d="M126,33c-0.9,0.9-1.6,1.7-2.4,2.5c-0.3,0.3-0.4,0.5-0.1,0.9c0.8,1,1.6,2.1,2.4,3.2c0,0.1,0.1,0.1,0.1,0.3
			c-0.6,0-1.2,0-1.7,0c-0.1,0-0.2-0.2-0.3-0.3c-0.6-0.9-1.3-1.7-1.9-2.6c-0.5,0.4-0.9,0.8-0.8,1.5c0.1,0.4,0,0.8,0,1.3
			c-0.5,0-1,0-1.5,0c0-2.3,0-4.5,0-6.9c0.4,0,0.8,0,1.2,0c0.3,0,0.3,0.2,0.3,0.4c0,0.8,0,1.6,0,2.6c0.5-0.6,1-1.1,1.5-1.6
			c0.4-0.4,0.7-0.8,1.1-1.2c0.1-0.1,0.2-0.2,0.3-0.2C124.8,33,125.3,33,126,33z"/>
		<path class="st1" d="M25.4,33c1,0,2.1,0,3.1,0c1.8,0.1,2.8,1.6,2.2,3.3c-0.3,0.9-1,1.3-1.9,1.4c-0.6,0.1-1.2,0.1-1.8,0.1
			c0,0.5,0,1.1,0,1.6c0,0.3-0.1,0.4-0.4,0.4c-0.3,0-0.7,0-1.1,0C25.4,37.6,25.4,35.3,25.4,33z M27,36.4c0.5,0,1,0,1.4,0
			c0.6-0.1,0.9-0.4,0.9-1c0-0.5-0.3-0.9-0.8-1c-0.5-0.1-1,0-1.5,0C27,35.1,27,35.8,27,36.4z"/>
		<path class="st1" d="M73.2,33.8c-0.2,0.4-0.5,0.7-0.7,1.1c-0.5-0.2-0.9-0.4-1.4-0.5c-0.3-0.1-0.6,0-0.9,0c-0.2,0-0.4,0.3-0.4,0.5
			c0,0.2,0.1,0.4,0.3,0.5c0.4,0.2,0.8,0.3,1.2,0.4c0.3,0.1,0.7,0.2,1,0.4c0.9,0.4,1.2,1,1.1,2c-0.1,0.8-0.6,1.5-1.4,1.7
			c-1.5,0.4-2.8,0-4-0.9c0.3-0.4,0.6-0.7,0.8-1c0.7,0.2,1.3,0.5,2,0.7c0.2,0.1,0.6,0,0.8-0.1c0.4-0.2,0.4-0.7,0-0.9
			c-0.3-0.2-0.6-0.2-0.9-0.4c-0.4-0.1-0.8-0.2-1.2-0.4c-0.8-0.3-1.2-0.9-1.2-1.7c0-0.9,0.4-1.6,1.2-1.9
			C70.6,32.7,72.1,32.9,73.2,33.8z"/>
		<path class="st1" d="M20.2,33.8c-0.3,0.4-0.5,0.8-0.8,1.1c-0.4-0.2-0.8-0.4-1.2-0.5c-0.1,0-0.2,0-0.3-0.1
			c-0.6-0.1-1.1,0.1-1.2,0.5c-0.1,0.3,0.2,0.6,0.8,0.8c0.6,0.2,1.1,0.3,1.7,0.5c0.9,0.4,1.2,1,1.1,2c-0.1,0.9-0.5,1.4-1.3,1.7
			c-1.5,0.5-2.9,0.1-4.1-0.9c0.3-0.4,0.6-0.7,0.9-1.1c0.3,0.2,0.6,0.4,0.9,0.5c0.5,0.1,1,0.2,1.5,0.2c0.2,0,0.5-0.3,0.5-0.5
			c0.1-0.3-0.1-0.5-0.4-0.6c-0.3-0.1-0.6-0.2-0.9-0.3c-0.5-0.2-1-0.3-1.4-0.5c-0.7-0.3-0.9-1-0.9-1.7c0-0.8,0.4-1.4,1.1-1.7
			C17.7,32.6,19,32.9,20.2,33.8z"/>
		<path class="st1" d="M60,39.9c0-1.8,0-3.6,0-5.4c-0.7,0-1.4,0-2.1,0c0-0.4,0-0.8,0-1.2c0-0.1,0.1-0.2,0.2-0.2c1.8,0,3.6,0,5.4,0
			c0,0.5,0,0.9,0,1.4c-0.7,0-1.3,0-2,0c0,0.3,0,0.5,0,0.8c0,1.4,0,2.8,0,4.2c0,0.4-0.1,0.5-0.4,0.4C60.8,39.9,60.4,39.9,60,39.9z"/>
		<path class="st1" d="M61.9,6.7c0,1.1-1,2.2-2.1,2.3c-1,0.1-1.8-0.8-1.6-1.9c0.2-0.9,0.9-1.7,1.8-1.9C61.1,5,61.9,5.7,61.9,6.7z"/>
		<path class="st1" d="M38.8,6.7c-0.1,1.2-0.8,2.1-2,2.3c-0.8,0.2-1.6-0.5-1.7-1.4c-0.1-1.2,0.9-2.4,2.1-2.5
			C38.2,5.1,38.9,5.8,38.8,6.7z"/>
		<path class="st1" d="M142,26.6c0,0.6-0.4,1.1-1,1.1c-0.6,0-1.1-0.5-1.1-1.1c0-0.6,0.5-1.1,1.1-1.1C141.6,25.5,142,26,142,26.6z
			 M140.9,27.6c0.5,0,1-0.4,1-0.9c0-0.5-0.4-0.9-0.9-0.9c-0.5,0-0.9,0.4-0.9,0.9C140,27.1,140.4,27.5,140.9,27.6z"/>
		<path class="st1" d="M140.9,27.6c-0.5,0-0.9-0.4-0.9-0.9c0-0.5,0.4-0.9,0.9-0.9c0.5,0,0.9,0.4,0.9,0.9
			C141.9,27.1,141.5,27.6,140.9,27.6z M141.4,27.2c0-0.3,0.1-0.5,0.1-0.6c0.1-0.3,0-0.5-0.3-0.5c-0.2,0-0.4,0-0.6,0
			c0,0.4,0,0.8,0,1.1c0,0,0.1,0,0.1,0c0.1-0.1,0.2-0.2,0.3-0.3C141.1,27,141.2,27.1,141.4,27.2z"/>
		<path class="st1" d="M141.4,27.2c-0.1-0.1-0.3-0.2-0.5-0.3c-0.1,0.1-0.2,0.2-0.3,0.3c0,0-0.1,0-0.1,0c0-0.4,0-0.7,0-1.1
			c0.2,0,0.4,0,0.6,0c0.3,0,0.4,0.2,0.3,0.5C141.4,26.7,141.4,26.9,141.4,27.2z"/>
	</g>
</g>
</svg>
