<?xml version="1.0" encoding="utf-8"?>
<!-- Generator: Adobe Illustrator 26.0.1, SVG Export Plug-In . SVG Version: 6.00 Build 0)  -->
<svg version="1.1" id="Layer_1" xmlns="http://www.w3.org/2000/svg" xmlns:xlink="http://www.w3.org/1999/xlink" x="0px" y="0px"
	 viewBox="0 0 323.996 323.991" enable-background="new 0 0 323.996 323.991" xml:space="preserve">
<g>
	<path fill="#E03A3E" d="M161.998,323.991C72.672,323.991,0,251.321,0,161.999C0,72.673,72.672,0,161.998,0
		s161.998,72.672,161.998,161.999C323.996,251.321,251.324,323.991,161.998,323.991z"/>
	<path fill="#FFFFFF" d="M161.998,316.516c-85.204,0-154.523-69.316-154.523-154.517c0-85.204,69.319-154.523,154.523-154.523
		c85.203,0,154.522,69.319,154.522,154.523C316.52,247.199,247.201,316.516,161.998,316.516z"/>
	<path fill="#E03A3E" d="M161.998,309.04c-81.082,0-147.047-65.963-147.047-147.041c0-81.083,65.965-147.047,147.047-147.047
		s147.046,65.964,147.046,147.047C309.044,243.077,243.08,309.04,161.998,309.04z"/>
	<g>
		<polygon fill="#FFFFFF" points="109.508,37.732 112.311,44.052 104.358,40.016 99.951,41.97 109.156,62.728 113.564,60.772 
			107.718,47.591 115.829,51.985 118.713,58.489 123.123,56.534 113.917,35.776 		"/>
		<polygon fill="#FFFFFF" points="205.738,34.259 202.35,44.913 196.983,43.206 200.369,32.552 195.772,31.092 192.384,41.746 
			190.803,41.243 191.531,44.432 188.893,52.73 193.49,54.192 195.676,47.318 201.044,49.024 198.857,55.899 203.452,57.359 
			210.333,35.719 		"/>
		<path fill="#FFFFFF" d="M281.1,97.511c-0.865-1.355-1.731-2.709-2.598-4.064c-2.697,1.504-6.904,3.386-10.496,4.339l-1.957-3.062
			l9.418-6.023l-2.598-4.063l-9.419,6.022l-0.896-1.399l-1.479,2.92l-7.335,4.69l2.596,4.062l6.079-3.885l2.267,3.544
			c-1.737,2.046-4.286,4.253-5.311,5.087c0.866,1.353,1.733,2.708,2.6,4.063c1.459-1.189,6.039-5.176,6.906-7.499
			C272.754,101.533,277.954,99.265,281.1,97.511z"/>
		<path fill="#FFFFFF" d="M287.101,110.905c-3.909-0.006-6.439,1.074-9.714,2.352l-1.329,11.839
			c-0.942,0.285-1.907,0.53-2.892,0.723l-1.943-4.979l1.668-0.65l-1.757-4.493l-5.682,2.219c0,0,4.867,12.472,5.078,13.011
			c4.115-0.074,6.802-1.216,10.275-2.573l0,0h0.001l1.123-11.761c0.819-0.245,1.659-0.456,2.516-0.623l1.959,5.022l-1.663,0.649
			l1.752,4.493l5.685-2.22C292.178,123.915,287.423,111.734,287.101,110.905z"/>
		<polygon fill="#FFFFFF" points="42.89,97.926 46.579,100.162 49.31,95.656 65.045,105.191 67.545,101.068 51.808,91.533 
			54.538,87.026 50.85,84.79 		"/>
		<polygon fill="#FFFFFF" points="126.235,31.577 127.196,35.782 132.331,34.609 136.429,52.549 141.13,51.475 137.032,33.535 
			142.168,32.363 141.208,28.157 		"/>
		<polygon fill="#FFFFFF" points="61.898,71.343 58.656,74.911 75.459,90.183 83.312,81.541 80.119,78.64 75.508,83.711 		"/>
		<path fill="#FFFFFF" d="M59.264,115.685l-10.37-3.742c-3.635-1.275-7.708-1.754-11.925-1.379c-0.04,0.11-3.166,8.745-3.313,9.153
			c2.88,2.87,6.166,5.04,9.62,6.401l-0.575,1.587l3.232-0.604l8.13,2.952l1.643-4.536l-6.742-2.439l1.917-5.298l6.742,2.44
			L59.264,115.685z M38.797,118.184l1.141-3.151c2.4,0.146,4.717,0.575,6.885,1.288l-1.912,5.281
			C42.79,120.763,40.735,119.609,38.797,118.184z"/>
		<path fill="#FFFFFF" d="M224.868,68.672l5.535-9.533c1.903-3.35,3.104-7.271,3.487-11.488c-0.102-0.059-8.04-4.676-8.414-4.895
			c-3.339,2.323-6.061,5.168-8.016,8.323l-1.461-0.849l0.019,3.287l-4.355,7.472l4.169,2.426l3.604-6.196l4.868,2.832l-3.604,6.197
			L224.868,68.672z M226.066,48.089l2.896,1.684c-0.569,2.338-1.407,4.54-2.496,6.545l-4.854-2.824
			C222.814,51.558,224.317,49.742,226.066,48.089z"/>
		<path fill="#FFFFFF" d="M100.707,67.385l-6.698-8.756c-2.37-3.039-5.536-5.645-9.287-7.608c-0.093,0.072-7.391,5.646-7.737,5.909
			c0.873,3.972,2.465,7.573,4.633,10.585l-1.341,1.025l3.044,1.239l5.245,6.878l3.833-2.928l-4.351-5.697l4.476-3.418l4.352,5.696
			L100.707,67.385z M82.141,58.42l2.662-2.034c1.942,1.42,3.659,3.035,5.097,4.806L85.438,64.6
			C84.105,62.748,82.999,60.667,82.141,58.42z"/>
		<path fill="#FFFFFF" d="M157.124,49.696l-0.082-7.168l5.634-0.065l0.08,7.169l4.821-0.055l-0.105-8.648l1.636-2.852l-1.687,0.019
			c-0.148-3.709-1.112-7.526-2.873-11.193c-0.434,0.005-9.616,0.109-9.733,0.11c-1.745,3.859-2.633,7.862-2.628,11.716l0.115,11.022
			L157.124,49.696z M162.618,38.15l-5.615,0.064c0.041-2.28,0.398-4.609,1.052-6.925l3.352-0.037
			C162.114,33.552,162.525,35.871,162.618,38.15z"/>
		<path fill="#FFFFFF" d="M261.226,70.409c0,0-7.326,7.508-7.327,7.507c-1.778,1.879-3.912,3.51-6.314,4.853l-1.441-1.408
			c1.177-2.456,2.636-4.664,4.335-6.546l7.465-7.651l-3.458-3.371c0,0-7.371,7.556-7.374,7.56c-1.86,1.783-4.065,3.323-6.531,4.583
			l-1.442-1.408c1.283-2.434,2.859-4.606,4.693-6.432c-0.001-0.001,7.321-7.512,7.321-7.512l-3.45-3.367l-7.644,7.837
			c-2.69,2.78-4.814,6.316-6.21,10.339c0.083,0.083,5.563,5.429,5.874,5.732c0.661-0.225,1.306-0.477,1.939-0.735
			c-0.243,0.64-0.479,1.291-0.686,1.958c0.312,0.303,5.791,5.648,5.874,5.729c3.988-1.496,7.471-3.707,10.186-6.464l7.643-7.837
			L261.226,70.409z"/>
		<path fill="#FFFFFF" d="M67.172,222.808c-3.766,1.046-5.911,2.768-8.721,4.879l1.907,11.761c-0.832,0.529-1.695,1.022-2.59,1.475
			l-3.212-4.271l1.43-1.076l-2.898-3.854l-4.877,3.667c0,0,8.046,10.699,8.393,11.163c3.944-1.179,6.224-3.001,9.205-5.243l0,0
			l0.001-0.001l-2.085-11.63c0.725-0.456,1.476-0.883,2.255-1.273l3.24,4.307l-1.429,1.075l2.899,3.855l4.877-3.668
			C75.566,233.972,67.707,223.52,67.172,222.808z"/>
		<polygon fill="#FFFFFF" points="118.885,266.037 117.479,270.116 122.46,271.832 116.463,289.23 121.023,290.803 127.019,273.403 
			131.999,275.12 133.406,271.041 		"/>
		<path fill="#FFFFFF" d="M53.69,192.52c-0.209-0.983-3.12-14.772-3.12-14.772l-8.997,1.9l-0.359-1.697l-2.524,2.307l-10.336,2.183
			c0,0,2.902,13.743,3.105,14.706c3.634-0.723,7.264-2.033,10.725-3.857C46.105,193.919,49.08,193.494,53.69,192.52z
			 M47.347,183.358l1.103,5.22c-1.693,0.238-3.282,0.333-4.94,0.239l-0.939-4.449L47.347,183.358z M33.571,186.267l4.777-1.009
			l0.901,4.267c-1.514,0.704-3.054,1.311-4.607,1.813L33.571,186.267z"/>
		<polygon fill="#FFFFFF" points="110.697,266.971 112.843,263.229 99.748,255.719 95.173,263.695 93.613,262.801 93.654,266.345 
			88.451,275.416 101.547,282.927 103.694,279.184 94.781,274.073 97.209,269.839 102.718,272.998 104.865,269.255 99.355,266.094 
			101.785,261.86 		"/>
		<path fill="#FFFFFF" d="M252.251,254.104l1.204,1.321l-4.017,3.656l-9.476-10.412l3.648-3.319c0.468,0.419,0.949,0.861,1.437,1.32
			l3.565-3.244c-1.825-1.719-3.574-3.227-4.833-4.064c-0.45,0.411-10.285,9.361-10.285,9.361l15.28,16.793l11.148-10.145
			l-4.105-4.513L252.251,254.104z"/>
		<polygon fill="#FFFFFF" points="192.952,269.889 188.298,271.156 194.265,293.066 205.53,289.998 204.396,285.834 
			197.783,287.636 		"/>
		<path fill="#FFFFFF" d="M42.076,224.214l10.011-4.614c3.486-1.644,6.722-4.161,9.461-7.388c-0.049-0.108-3.885-8.452-4.066-8.846
			c-4.066-0.021-7.929,0.74-11.344,2.196l-0.707-1.534l-1.877,2.698l-7.862,3.604l2.015,4.383l6.514-2.995l2.353,5.117l-6.514,2.997
			L42.076,224.214z M54.897,208.066l1.4,3.046c-1.813,1.583-3.765,2.902-5.808,3.915l-2.346-5.101
			C50.244,209.033,52.516,208.413,54.897,208.066z"/>
		<path fill="#FFFFFF" d="M154.915,274.217c-0.997-0.134-14.963-2.006-14.963-2.006l-1.222,9.113l-1.721-0.23l1.329,3.15
			l-1.403,10.471c0,0,13.921,1.868,14.896,1.996c0.535-3.664,0.515-7.523-0.045-11.396
			C153.695,281.831,154.29,278.888,154.915,274.217z M144.158,277.127l5.288,0.709c-0.342,1.673-0.785,3.203-1.429,4.733
			l-4.508-0.604L144.158,277.127z M142.288,291.081l0.649-4.839l4.322,0.579c0.157,1.662,0.213,3.317,0.166,4.948L142.288,291.081z"
			/>
		<path fill="#FFFFFF" d="M273.526,177.807c-0.218,0.983-3.259,14.742-3.259,14.742l8.979,1.983l-0.374,1.694l3.251-1.06
			l10.315,2.28c0,0,3.032-13.716,3.245-14.677c-3.608-0.842-7.456-1.147-11.361-0.915
			C281.012,179.662,278.127,178.822,273.526,177.807z M275.521,188.769l1.149-5.211c1.64,0.484,3.126,1.053,4.6,1.822l-0.982,4.442
			L275.521,188.769z M289.268,191.809l-4.768-1.055l0.942-4.259c1.669-0.014,3.322,0.068,4.944,0.252L289.268,191.809z"/>
		<path fill="#FFFFFF" d="M180.965,295.722l-1.082-10.97c-0.414-3.832-1.733-7.715-3.886-11.358
			c-0.117,0.011-9.257,0.902-9.689,0.944c-1.35,3.836-1.895,7.735-1.638,11.439l-1.681,0.165l1.936,2.657l0.835,8.608l4.799-0.469
			l-0.698-7.136l5.608-0.548l0.696,7.136L180.965,295.722z M169.905,278.321l3.334-0.326c0.903,2.23,1.511,4.506,1.8,6.769
			l-5.589,0.547C169.294,283.034,169.451,280.684,169.905,278.321z"/>
		<polygon fill="#FFFFFF" points="252.513,228.678 249.627,232.543 267.821,246.128 274.808,236.773 271.35,234.19 267.247,239.684 
					"/>
		<polygon fill="#FFFFFF" points="211.627,262.648 207.293,264.764 217.257,285.167 227.749,280.046 225.856,276.168 
			219.696,279.175 		"/>
		<path fill="#FFFFFF" d="M265.219,206.609l9.557,4.32c2.375,1.03,4.636,2.477,6.718,4.274l-1.462,3.233
			c-2.725-0.374-5.306-1.114-7.646-2.213l-9.562-4.316l-1.983,4.394l9.975,4.507c3.534,1.579,7.581,2.366,11.841,2.305
			c0.048-0.106,3.877-8.582,4.08-9.033c-2.771-3.235-6.038-5.753-9.557-7.36l-9.978-4.505L265.219,206.609z"/>
		<path fill="#FFFFFF" d="M93.06,250.924c-1.195-1.075-2.39-2.15-3.585-3.226c-2.2,2.169-5.757,5.101-8.964,6.973l-2.702-2.43
			l7.479-8.31l-3.584-3.228l-7.479,8.311l-1.234-1.109l-0.652,3.205l-5.825,6.473l3.584,3.226l4.825-5.361l3.128,2.814
			c-1.128,2.436-3,5.241-3.765,6.315c1.194,1.076,2.389,2.151,3.584,3.226c1.092-1.535,4.447-6.596,4.663-9.065
			C86.083,257.022,90.495,253.452,93.06,250.924z"/>
	</g>
	<path fill="#FFFFFF" d="M262.437,161.999c0,55.476-44.965,100.449-100.439,100.449c-55.485,0-100.45-44.974-100.45-100.449
		c0-55.478,44.965-100.45,100.45-100.45C217.473,61.549,262.437,106.521,262.437,161.999z"/>
	<g>
		<g>
			<g>
				<path fill="#E03A3E" d="M162.048,68.86c-30.756,0-58.037,14.81-75.121,37.696c2.498,0.718,7.216,2.065,13.018,3.74l-0.026,0.018
					c9.181,2.703,39.638,11.635,45.331,13.452c16.627,5.335,20.997,7.426,25.683,12.438c4.678,5.007,11.781,10.817,18.729,15.67
					c6.951,4.844,10.339,10.167,10.339,18.575c0,8.396-6.468,15.493-10.499,17.924c0,0,1.454-4.038-0.486-5.81
					c-1.938-1.789-8.067-5.171-23.746-4.042c-15.657,1.133-36.663,8.726-50.871,16.315c0,0,6.78-10.662,16.958-15.506
					c0,0-8.4,0-55.283,20.442c14.398,33.203,47.463,56.43,85.976,56.43c51.729,0,93.667-41.939,93.667-93.671
					C255.715,110.799,213.776,68.86,162.048,68.86z M162.048,235.528c-20.438,0-38.921-8.399-52.172-21.937
					c37.824-19.512,61.374-14.479,61.374-10.675c0,3.865-5.814,12.911-5.814,12.911c30.841-4.36,53.302-22.932,53.302-47.958
					c0-25.052-23.427-37.157-29.403-40.867c-6.39-3.98-3.393-9.374-24.386-17.288c-12.773-4.81-30.701-9.561-37.72-11.357
					c10.356-5.634,22.207-8.828,34.819-8.828c40.31,0,72.997,32.69,72.997,73.001C235.045,202.853,202.357,235.528,162.048,235.528z
					"/>
				<path fill="#E03A3E" d="M161.238,138.151c0,0-5.335,0.479-10.827-2.267c-5.49-2.746-13.885-8.882-21.155-2.104
					c0,0,6.137-0.794,5.653,0.811c-0.487,1.611-1.129,10.981,7.267,14.536C150.567,152.684,160.264,150.093,161.238,138.151z"/>
			</g>
		</g>
	</g>
</g>
</svg>
