<?xml version="1.0" encoding="utf-8"?>
<!-- Generator: Adobe Illustrator 26.0.1, SVG Export Plug-In . SVG Version: 6.00 Build 0)  -->
<svg version="1.1" id="Layer_1" xmlns="http://www.w3.org/2000/svg" xmlns:xlink="http://www.w3.org/1999/xlink" x="0px" y="0px"
	 viewBox="0 0 288.6 320.75" enable-background="new 0 0 288.6 320.75" xml:space="preserve">
<g>
	<g id="Layer_3">
		<path d="M288.6,150.7c0-38.5-15-74.7-42.3-101.9c-23.4-23.5-53.6-38-86.4-41.4c-0.8-0.8-1.7-1.5-2.5-2
			c-11.5-7.5-21.1-1.9-27.8,1.3c-0.4,0.2-1.1,0.4-1.7,0.9c-12.5,1.5-24.7,4.6-36.1,8.9c-1.3-2-2.9-3.9-4.7-5.7
			C80.2,3.9,70.9,0,60.9,0C40.6,0,24,16.5,24,36.9c0,8.5,2.9,16.7,8.2,23.1C12.1,84.7,0,116.3,0,150.8c0,38.5,15,74.7,42.3,101.9
			C55.6,266,71,276.4,87.9,283.6c-1,7.6,0.3,12.7,1.7,14.9c-2.1,1.8-3,2.9-3.4,4.9c-3.4,4.6,4.8,10.4,8.2,13
			c6.8,5.3,10.4,4.4,15.9,4.1c6.6-0.3,12.9-8,16.3-13.1c7.2-1,8.5,0.1,8.7,1c2.2-0.3,5.4-0.9,9.6-2.7c9.7-4,6.8-8.9,5.9-9.8
			c-0.3-0.2-0.4-0.6-0.7-1c22.8-0.9,44.8-7,64.3-18c0.7,0.8,1.5,1.7,2.1,2.7c2.1,3.1,3.2,13.3,3.7,18.4c0.4,5.3,1.3,8.8,3.9,17
			c2.6,8.3,3.6,2.2,3.7,0s0.6-10.3,0.2-16.1c-0.3-5.8-0.4-14.1,0.7-17.7s-0.9-4.5-1.5-5.1c-0.6-0.7,0-0.9-1.5-5.4
			c-0.1-0.3-0.2-0.4-0.2-0.8c7.4-5,14.2-10.7,20.7-17.2C273.6,225.4,288.6,189.2,288.6,150.7"/>
	</g>
	<g id="Layer_5">
		<g>
			<path fill="#BB9753" d="M130.9,288.1c-1.7-1.5-4.4-3.4-4.8-3.7c-0.3-0.3-1.3,0.1-2.1,0.4c0,0,0.7,0.3,1.2,1
				c0.8,0.8,3,2.5,3.9,3.4c0.9,0.8,0.6,1.8,0.3,2.5c-0.1,0.7,1-0.1,2.3-0.9C133.1,290,132.6,289.5,130.9,288.1z"/>
			<path fill="#BB9753" d="M125.2,293.7c-0.9,0.3-1.9,0-2.5-0.6c-0.7-0.7-4.4-3.8-5-4.5c-0.7-0.7-0.6-1.6,0-2
				c-1.2,0.1-2,0.1-2.9,0.1c-0.8,0.1-2.1,0.1-1.1,1.1c0.9,0.9,5.9,5.6,6.8,6.5c0.9,0.9,1.8,0.9,2.7,0.7
				C124.1,294.9,126.2,293.4,125.2,293.7z"/>
			<path fill="#BB9753" d="M143.7,106.8c0.4-1.1,1.3-3.4,2-5.1c-1.6,0-3.8,0.2-5.1,0.2c-1.2,0-0.8,1.8-1,2.9
				c-0.2,1.3,2.1,0.2,1.8,1.9C141.3,107.4,143.3,107.9,143.7,106.8z"/>
			<path fill="#BB9753" d="M111.8,264.6c-0.3,0-1.1-0.1-1.5-0.3h-0.2l0,0l-0.8-0.1c0.4,0.3,0.7,1,0.1,1.3c-0.9,0.6-3.8,1-6.8,0.8
				c-3-0.1-3.7-1.8-3.8-2.9c0-0.7,0.1-1.3,0.1-2.5s-0.3-2.1,0.3-2.6c0.7-0.4,0.6,0.7,1,0.7c1.9,0,8.5,0.7,10.1,0.9
				c1.6,0.1,1.5-0.7,1.1-1.8c-0.1-0.3-0.4-0.2-0.2,0c-0.2,0.6-1.7,0.3-1.7,0.3s-2.9-0.2-4.8-0.3c-2-0.1-3.5-0.3-4.6-0.6
				c-1.1-0.2-2.6-0.2-2.5,0.3c0.1,0.6,0.3,7.5,0.4,8.5c0,1,0.1,1.3,0.6,1.3c1.2,0,9.8,0.1,11.8,0.1s1.8-0.2,1.9-1.3
				C112.5,265.5,112.2,264.6,111.8,264.6z"/>
			<path fill="#BB9753" d="M121.6,48.3c0.6,0.7,1.2,1.2,2,1.8c1.3-1.5,2.6-2.7,3.9-3.9c0,0,0,0,0-0.1c0.8-0.8,1.7-1.7,2.7-2.7
				c2.9-2.7,5.7-4.9,8.9-7c1.8-1.1,3.2-2.2,4.9-3.2c0-0.1,0-0.1,0-0.2c1.9-1.1,3.2-1.8,3.2-1.8s1.9-0.8,4.4-1.9
				c2.8-1,6.1-1.9,10.4-2.8c0.3-1,0.3-3.4,0.1-4.2c-0.1-3.1-3.5-6.1-3.5-6.1c0.3-0.2-0.2-1.8-0.4-3.2c-3.9,1.1-8.9,3.2-13.3,5.4
				c-0.7,0.3-0.7,0.3-2.3,1.2v-0.1c-0.8,0.3-1.7,0.9-2.3,1.2c-1.3,0.7-3.4,1.9-5.5,3.5c-3.1,2.1-6.9,4.9-10.4,8
				c-2,1.7-5.5,5.9-5.5,5.9c-0.6,0.8-1.1,1.5-1.5,2.2c0.3,0.8,0.4,1.5,0.7,2.1C118.4,43.3,119.6,46.6,121.6,48.3z"/>
		</g>
		<path fill="#BB9753" d="M137.4,101.9c-2.5-1.1-4.7-3.8-6.3-6.8c0,0,0.1-0.4-0.6-0.4s-3.1-0.2-7.3-1.7s-4.7-0.6-5.3,1.2
			s-1,5-1.1,10.4s2.2,8.7,3.7,8.2c0.7-0.3,2.5-1.1,4.5-2.1l5.5-2.3c2.3-0.8,5-2.3,5.9-2.9l1.5,0.1
			C138.1,103.5,138,102.3,137.4,101.9z"/>
		<path fill="#BB9753" d="M168.9,93.2c-3.7-0.2-8,0.4-12.1,2.1l-2,0.6c-1.1,0.6-2.5,1.1-3.5,1.8c-5.7,3.5-5.9,6.5-4.6,7.5
			c1.1,1,3.7,1.5,7.8,4.1l1.6,1.5l0.1,0.1c6.1,4.5,7.6,2,8.6-0.1c0.9-2.1,2.9-8.4,3.5-11.7C168.6,96.9,169.1,94.9,168.9,93.2z"/>
		<path fill="#BB9753" d="M129,126.4c-0.9-2-1.1-0.4-3.7,3.5c-1.2,2-7.7,9.2-8.2,9.7c-5.7,7-16.7,15.8-16.7,15.8
			c-4.9,4.5-7.6,7.8-9.3,10.5l6.4,20.1c2.8,3.9,6.8,9.5,8.3,11.8c2.2,3.7,2.2,8.2,3.1,7.5s3-2.7,3.7-3.2c0.7-0.6,1.3-1.2,1-2.5
			c-0.3-1.2-1.7-7.8-1.2-12.4c0.4-5.3,2.9-11,4.7-14.2s6.8-13.3,8.2-16c1.2-2.7,3.5-5.8,4-8.3s2.7-8.2,3.6-10.8
			C132.9,136.3,131.4,131.8,129,126.4z"/>
		<path fill="#BB9753" d="M182.1,185.3c0-2.6-1.5-4.6-4.4-9.4c-2.9-4.7-3.5-6.7-3.9-11.6c-0.3-3.1,0-7.2,0.3-11.1l-8.4-8.4l-0.2-7.4
			l-0.3-1.6c-2.3-11.1,3-24.3,4.5-27.9c1.6-3.9,7.5-14.9,9.7-18.2c-1.1-0.6-4-2-5.7-2.9s-2.5-1.2-2.9-0.6c-0.4,0.6-1,1-1.8,2
			c-1.6,2.2-0.2,1.9,0.2,1.9s2.3,2.5,2.7,3c0.3,0.6,0,1-0.8,2.8c-1.1,2.3-1.7,7.7-2.5,11c-2.7,9.7-6.8,8.8-8.8,7.5
			c-1.9-1.2-2.5,0.7-4.4,3.4c-0.4,0.7-1.5,2.1-3,3.7l-1.7,2.6l-10.5,10.1c0,0-3.6,3.7-4.7,4.2c-1.5,2.5-2.7,5.5-4.5,10.8
			c-2.5,7.5-8,17.5-10.4,21.4c-6,9.7-7,18.8-6.1,24.5c0.9,5.6,1.7,5.3,2.9,5.3s4.2,3.8,6.1,6.1c2,2.3,2.8,1.3,3.8,0.6
			c3.2-2.5,9.7-6.7,18.9-11.1c3.9-1.8,9.1-3.9,14.1-5.4l5.1-1.6c4.8-1.3,9.1-2.1,11.3-1.9C180,187.3,182.3,188.2,182.1,185.3z"/>
	</g>
	<g id="Layer_2_2_">
		<g id="Layer_2_1_">
			<path fill="#008348" d="M110.3,285.3c5.4-0.2,12.9-1.9,16.2-3.4c0.4,0.1,1.1,0.6,2.3,1c0.4-3.6-1.8-11.1-3.1-14.4
				c-0.9-2.2-1.7-3.8-2.7-6.1c-3-0.6-6.8-2.2-9.4-3.2c0,2.1,0.3,7.6,0.9,11.3c-1.1,0.1-2.7,0.2-4.6,0.2
				C110.2,274.6,110.5,281.9,110.3,285.3"/>
			<path fill="#008348" d="M211.1,273.4c-1-1,1.2-4.1,2.2-9.8c1-5.8,1.1-15.4-3.1-21c-2-2.6-3.1-4.4-3.4-5.5
				c-13.2,9.6-28.3,16-44.4,18.7c-0.2,0.3-0.3,0.7-0.6,0.9c-2.3,3-6.8,7.4-10.3,9.1c-3.4,1.8-7.3,3.1-9.4,3.8
				c-0.4,3.6-1.1,11.5-0.1,14.2c0.3,1,4.5,3.5,5.9,6.1c0.2,0.3,0.3,0.6,0.3,0.8c22.7-0.7,44.2-6.8,62.9-17
				C211.4,273.5,211.3,273.4,211.1,273.4"/>
			<path fill="#008348" d="M243.4,51.6c-21.9-21.9-49.9-35.8-80.1-39.8c2.5,4.8,2.8,10.4,3,13.9c4.4-1.9,7.6-2.9,9.5-5.8
				c1.8-2.9,4.2-2.3,5.8-0.2s1.6,4.7-2.5,7.4c-4.1,2.6-7.2,3.8-8,4.2c-0.9,0.4-0.1,1.2,0.9,2.9c1,1.7,3.6,5.8,3.9,14.5
				c0,0.1,0,0.2,0,0.3c16.3,5,31.4,14,43.8,26.5c20.1,20.1,31.2,46.9,31.2,75.3c0,16.3-3.7,32.1-10.5,46.4c1,0.4,2.1,3.7,2.6,7.9
				c0.2,2.2,0.1,4.7-0.6,6.1c-0.7,1.6-5.9,9.5-8.6,11.8c-1,0.9-3.4,0.8-4.4-0.7s-1.1-0.7-1.9,0.1c-0.8,0.8-3.5,4.7-4.1,5.7
				c-0.7,1-2.9,2-1.5,6c1.5,4,3.1,7,2.6,9.3c-0.6,2.2-0.8,2.9,2.2,5.4s2.9,5.7,1.6,7.6c-0.9,1.2-2.1,4.7-2.7,8
				c35.5-25.5,58.8-67.1,58.8-114C284.6,113.3,269.9,78.1,243.4,51.6"/>
			<path fill="#008348" d="M82.6,254.1c-0.3-3.8-1-10.6,1.7-15.4c-5.4-3.7-10.4-7.9-15.2-12.6c-20.2-20.2-31.2-47-31.2-75.4
				c0-30.5,12.9-57.9,33.4-77.4c0.2-0.3,0.4-0.8,0.8-1.1c-3.5,1.1-7.2,1.7-11,1.7c-9.7,0-19-3.8-26-10.7
				C15.2,87.9,4.2,118.6,4.2,150.8c0,37.4,14.6,72.7,41,99c12.6,12.6,27.4,22.6,43.4,29.6c0.6-3,1.6-6.3,2.9-9.7
				c1.2-3.2-0.7-10.7-3.8-14.6C86.2,254.5,84,254.2,82.6,254.1"/>
			<path fill="#008348" d="M119.7,12.9c-8.8,1.6-17.5,3.9-25.7,7.2c2.7,5.1,4,11,4,16.9c0,7.9-2.5,15.4-7,21.8
				c7.7-4.5,16.1-8,24.7-10.5c0.6-0.6,1.1-1.1,1.8-1.6c-3.2-5.4-7.5-14-3.8-25.5C114.7,17.8,117.1,15.1,119.7,12.9"/>
			<path fill="#F9A980" d="M71.5,104.7c-1.5-0.4-2.6,1.2-3.2,2.6c-0.7,1.3-1.5,2.8,0.7,5.8c2.1,3,3.4,4.8,7.2,4.6
				c1.8-0.1,3.4-1.5,3.9-2.2s0.7,0.6-0.2,1.9c-0.9,1.3-1.6,4.5,0.1,6.6c1.7,2.1,5.1,3.9,9.7,1.2c4.6-2.7,6.5-5.9,7.3-7.4
				s0.8-2.1,0-3s-3.4-5.1-3.9-13.4c-0.3-5,0.6-8.3-2.5-10.1s-10.3-6-11.1-14.2c-0.3-3.1-0.1-7.9-3.2-5.4c-3.1,2.6-3.1,4.4-3.5,6.1
				c-0.3,1.9,1.2,4.5,2.5,6.1c1.3,1.8,2.9,5.7,4.1,6.7c1.2,1,2,1.8,3,1.9c1,0.1,5,0.1,6,0.4c1,0.3,1.6,1.6-0.9,1.6s-6.1,0.7-7.9,0.9
				c-1.7,0.2-3.2,0.3-3.9,3.7c-0.8,3.4-1.9,7.3-2,8.5s-0.8,1.9-0.8,2.6s1.3,3.9,4.4,0.7s4.2-6.5,4.8-8c0.6-1.6,1.2-1.3,0.7,1.1
				c-0.6,2.5-0.7,8.6,0.4,10.7c1.2,2.3,3.8,4.7,7,3c0.7-0.3,1.8-0.9,2.7-0.8c0.9,0.1-0.2,1.7-1,2.3c-0.8,0.7-3.4,3.5-7.8-0.6
				c-1.1-1-2.7-3.2-3-6c-0.1-0.9-1.3-1.2-1.9-0.4c-0.6,0.8-3.6,3.6-5.7,1.6c-2.1-2-3-3.1-1.8-7.4C71.6,105.7,72,104.9,71.5,104.7"/>
			<path fill="#F9A980" d="M73.8,98.5c-0.4,1.5-0.9,3.4-1.1,3.9c-0.2,0.7-1.2,2.1-2.1,0.2c-0.9-1.9-0.9-3.4,0.6-4.8
				c0.4-0.4,1.1-1.3,1.6-0.9C73,97.6,73.8,98.1,73.8,98.5"/>
			<path fill="#F9A980" d="M78.8,93.3c-0.9,0.4-2.9,0.4-3.6,2c-0.4,1-2.2-0.1-1.3-1.3s1.6-1.1,2.1-1.5c0.6-0.3,0.8-1.3,1.9-0.8
				C78.9,92.4,79.1,93.2,78.8,93.3"/>
			<path fill="#F9A980" d="M139,73.1c-0.6,1.3-2.3,2.7-6.1,2.3c-1.9-0.2-3.9-0.3-4.1,1.2c-0.2,1.1-1.1,1-2.3,1
				c-1.2-0.1-2.7-0.3-2.7,0.1c-0.1,0.4,5.4,3.8,7.3,4.6c1.8,0.9,4.6,2.8,6.7,2.6c2.9-0.3,5.4-1.8,9.7-6.3c1.8-1.8,3.2-2.8,1.6-3.6
				c-1.1-0.4-2.3-0.7-3.8-0.7C143.5,74.3,140.4,74.1,139,73.1"/>
			<path fill="#F9A980" d="M118.2,73.2c-1.6-0.1-1.7-1.1-0.7-2.8c1-1.7,1.9-3.2,3.2-4.2c0.2,0.7,0.7,1.7,1.3,2c-0.9,1-2,2.1-1.8,4.5
				L118.2,73.2z"/>
			<path fill="#F9A980" d="M178.6,60.5c-2.3-4.2-6.3-2.1-8.2,1s-4,6.6-4.1,11.8c-1.3-0.4-2.7,0-3.4,1.1c-0.3,0.6-5.3-0.1-6.8,0.3
				c-1.7,0.4-2.2-0.6-0.4-2.9s8-10.8,7.6-17.1c-0.1-1.9,0.1-2.2,0.4-3.7c0.3-1.8,0.6-1.8-1.8-3.1c-1.5-0.8-1.6-3.1-1.8-4.9
				c-0.3-1.9-0.7-1.9-2.8-1.5c-1.3,0.2-4-1.5-5.3-3.4c-3.1,0.3-6,2.2-8.9,4.2s-13.2,11-15.8,12.7c2.5,1.3,3.2,3.9,2.3,8.5
				c-0.2,1,0,1.3,0.7,0.7c0.7-0.7,3.8-3.9,3.7-6.7c-0.1-2.7-1.3-4.2-1.6-4.6c-0.2-0.3,0.9-1.7,2.1,1.1c1.2,2.8,0.9,6.7-2.8,11.1
				s-6.6,4.2-8.2,5c-1.6,0.8-3.1,2-1.7,4.4s4.2,1.5,5.4,0.7c1.1-0.8,2.7-1.7,6.1-1.3c3.6,0.3,4.7-1.9,2.3-4.4
				c-0.8-0.8-2.8-2.5-0.3-2.5c1.5,0,3.2,3.2,4.2,4.1s3.2,1.2,6.1,1.5c3,0.2,7.6,1.3,7.6,4.2c0,1.8-1,2.3-2.2,0.9
				c-0.4-0.6-1.2,0.3-1.8,0.9c-1.9,1.9-6.8,7-10.2,7.9c-3.5,0.9-4.7-0.1-9.3-2.5c-4.6-2.5-8.8-4.9-10.1-5.7c-1.2-0.8-3.8-2.6-2.6,1
				c1.2,3.6,4.2,7.3,10.3,9.3c6,2,6.8,2.7,8.3,3.4c1.3,0.7,0.6,1.3-1.2,1.1c-1.6-0.2-3.2-1.6-1.9,1.5c1.3,3,3.4,6.3,9.5,5.4
				c6.1-0.8,6.3-2,10.2-8.5c0.7-1.1,1.3-0.3,0.9,2.6c3-1.5,4.7-1.9,6.5-2.3c1.8-0.4,6.4-2,9.5-7.7c1.6-2.9,2.5-3.9,2.1-6.8
				c-0.1-1.1,1.6-3.4,3.2-4.9C176.4,70.6,180.8,64.7,178.6,60.5z M151.8,66.1c0.6,0.1,0.6,0.1,0.4,0.1c-1.9,0-4.7-0.6-6.8-2
				c-2.1-1.5-2.7-2.1-2.5-4.1c0.2-1.2,0.3-1.9,0.3-2.5c0.1-0.3,0.1-0.6,0.1-0.9c0.2-1,0.1-1.7-0.2-1.9c-0.2-0.2-0.3-0.3-0.7-0.3
				c-0.3,0-1,0.3-1.8,0.9c-1.1-0.9-2.3-1.8-3.1-2.6c-0.7-0.6-1.1-1-1.3-1.1c-0.2-0.2-0.4-0.3-0.6-0.7c0-0.2,0.1-0.4,0.3-0.8
				c0.2-0.2,0.3-0.2,0.7-0.2h0.1h0.1c0.2,0,0.6,0,0.8-0.3s0.3-0.8,0.2-1.5c0,0,0.1-0.1,0.6-0.1c0.1,0,0.3,0,0.3,0c0.2,0,0.3,0,0.3,0
				c0.3,0,0.4,0,0.6-0.1c0.3-0.1,0.3-0.3,0.3-0.6c0.1-0.3,0.1-0.3,0.4-0.3c0.2,0,0.4,0,0.9,0.1c0.1,0,0.1,0,0.2,0
				c0.3,0,0.6-0.3,0.7-0.4l0.1-0.1c0.1-0.2,0.3-0.3,0.6-0.3c0.1,0,0.2,0,0.3,0c0.3,0.1,0.6,0.1,0.8,0.2c0.3,0.1,0.6,0.2,0.9,0.2
				c0.7,0,0.9-0.4,1-0.9c0.2-0.8,0.3-1,0.7-1c0.3,0,0.7,0.2,1.1,0.4c0.4,0.3,0.9,0.3,1.1,0.3c0.4,0,0.9-0.3,1-0.9c0,0,0-0.1,0.2-0.1
				c0.3,0,0.9,0.2,1.6,0.6l0.3,0.2c1.1,0.6,3.2,1.8,5.7,4.7c0.6,0.7,0.8,1.1,0.7,1.2c0,0-0.1,0-0.2,0c-0.3,0.1-1,0.2-1.1,1.1
				c-0.1,0.4-0.2,0.9-0.3,0.9c0,0-0.1-0.1-0.2-0.3c-0.2-0.3-0.3-0.6-0.7-0.6c-0.1,0-0.1,0-0.2,0c0,0-0.1-0.1-0.1-0.3
				c-0.1-0.2-0.2-0.6-0.7-0.6c-0.2,0-0.3,0.1-0.4,0.2c0,0,0,0-0.1,0c-0.1-0.2-0.2-0.6-0.7-0.6c-0.1,0-0.2,0-0.3,0h-0.1
				c0,0,0-0.1-0.1-0.2c-0.1-0.2-0.2-0.3-0.4-0.3s-0.3,0.1-0.4,0.1c-0.2,0.1-0.3,0.1-0.4,0.1c-0.1,0-0.1,0-0.1-0.1
				c-0.2-0.3-0.3-0.3-0.4-0.3c-0.2,0-0.3,0.1-0.6,0.2c-0.1,0.1-0.3,0.2-0.3,0.2s-0.1,0-0.2-0.1c-0.1-0.1-0.3-0.3-0.4-0.3
				c-0.3,0-0.3,0.2-0.6,0.3l-0.1,0.1c-0.1,0.2-0.2,0.2-0.3,0.2c0,0-0.1,0-0.2,0c-0.1-0.1-0.3-0.1-0.3-0.1c-0.3,0-0.6,0.3-0.7,0.3
				c-0.1,0.2-0.1,0.2-0.1,0.2s-0.1,0-0.2-0.1c-0.1-0.1-0.3-0.1-0.3-0.1c-0.4,0-0.7,0.3-0.8,0.7c-0.1,0.3-0.2,0.3-0.3,0.3h-0.1
				c-0.2,0-0.3-0.1-0.4-0.1c-0.6,0-0.7,0.6-0.8,1.1c0,0.1,0,0.2-0.1,0.3c-0.2,0.9-0.6,4.7-0.4,5.6c0.1,0.9,1.2,0.9,1.7,0.9
				c0.9,0,1.9-0.2,3.4-0.3c2.7-0.3,7.8-1.9,10.4-4c0.7-0.6,1.1-0.6,1.3-0.6s0.2,0,0.3,0.1c0,0.1-0.3,0.9-1,1.3
				c-0.1,0.1-0.1,0.1-0.2,0.2c-0.8,0.7-2.7,2.5-6.6,3.1c-3.7,0.7-7,1.3-8.3,1.3c-0.2,0-0.2,0-0.3,0s-0.1,0-0.2,0
				c-0.2,0-0.3,0.1-0.3,0.3c-0.1,0.2,0,0.4,0.3,0.7c0.3,0.3,0.9,0.4,1.3,0.4c0.2,0,0.3,0,0.4,0c0.1,0,0.6,0.3,0.9,0.7
				c0.8,0.8,2,1.8,3.6,1.8c2,0,4.8-2.1,5.7-2.8c0.3-0.3,1.2-0.8,1.8-0.9c-0.1,0.1-0.2,0.3-0.3,0.4l-0.1,0.2
				C155.6,64.1,153.7,66.1,151.8,66.1z M175.7,63.7c-1.2,0.9-2,1.2-2.1,2.8c-0.1,1.6-0.3,4.2-1,4.5c-0.8,0.3-0.7-1.5-0.9-0.9
				c-0.3,0.8-1.2,0.4-1.6-0.3c-0.1-0.3-2.9-0.3-0.7-3.5c2-2.9,3.6-4.5,5-5.1C175.9,60.5,178.5,61.8,175.7,63.7z"/>
			<path fill="#F9A980" d="M230.3,196.2c-0.4-1.3,0.3-3.5,3.2-1.9c2.8,1.6,4.9,2.9,2.9,8.9c-2,6.1-3.5,9.7-4.2,12.3
				s-3.8,5.8-2.8,1.5c1-4.4,1.6-9.6,1.1-12.3c-0.8-4.9,0.8-4.7,0.3-6.8C230.6,197.2,230.5,196.6,230.3,196.2"/>
			<path fill="#F9A980" d="M240.9,201.4c0.8,2.5,1.7,7.9,0.3,10.2c-1.3,2.2-5.5,8.3-7,9.9c-1.6,1.6-2.8,0.9-1.8-0.8
				c1-1.7,2.3-3.9,2.3-4.7c0-0.8-0.1-1.7,1.2-4.2c1.3-2.5,3.7-11.1,3.9-11.8C240.1,199.3,240.7,200.8,240.9,201.4"/>
			<path fill="#F9A980" d="M212.1,222c-0.7-2-1-4.9-2.1-6.6c0.9-2.5,3.9-8.9,8.8-11.1c0.6-0.2,0.9-0.8,0.7-1.2
				c-0.2-0.4,0.7-0.8,1.1,0.8s1.2,6,1.2,6c0.2,1-0.2,1.8-0.4,3.1c-0.2,1.3-0.8,4.4-0.4,5.9c0.3,1.6,0.9,2.7,3.9,2
				c1.6-0.3,1.5-0.8,1.9-2.1c0.4-1.3,1.7-5.1,2.1-7.3c0.4-2.1,0.1-7.3-0.3-8.6s0.2-5.9-0.2-6.8c-0.3-0.9-0.6-2.2-3.4-3.1
				c-2.8-0.9-3.6-1.1-5.4,0.8c-1.9,1.9-2.5,2.7-3.5,3.6c-0.9,0.9-3.1,0.1-1.2-1.7s3.7-3.6,4.2-4.1l-0.6-1.5h-1c-3,3-7,4.8-9.7,5.4
				c-1,0.2-2.9,0.3-1.6,2.1c0.3,0.4,0.4,1.7,1.2,1.2c0.8-0.4,2-2.5,3.1-1.6s-0.2,3-1.6,4c-1.3,1-2.8,2-3.8,2.5
				c-1,0.6-1.6,1.1-1.5,2.9s0.2,5-0.8,7.5s-0.4,3.1,0.4,4.7c0.9,1.7,2.3,3.1,2.8,5.8c0.4,2.7,0.7,3.4,2.5,3.1c1.8-0.2,2.5-1,3.1-2.1
				L212.1,222z"/>
			<path fill="#008348" d="M147.4,28.5c1.6,0.2,3.2,0.1,3.6-1c0.3-1.1,0.1-1.8-0.4-1.9c-0.4-0.2-0.8-0.2-0.4-1.1
				c0.2-1,1-0.9,0.9-2.5s-1.2-1.7-2.3-1.2c-1.1,0.3-1.5,0.9-2.5,2.1c-1,1.3-0.6-0.9-0.3-1.2s0.6-2.9-0.8-3.4
				c-0.8,0.3-1.6,0.8-2.3,1.1c-0.2,0.4-0.3,1.1-0.7,1.7c-0.6,1.5-1.2,0.3-1.8-0.3l0,0c-1.5,0.8-2.8,1.6-3.8,2.2
				c-0.1,0.1-0.2,0.2-0.3,0.2c0.1,0.9,1.1,2,1.8,2.5c0.8,0.4,0.3,1.5-0.6,1.5c-0.9,0-2-0.6-3.1,0.8c-1.1,1.3-0.3,2.6,0.7,2.6
				c1.1,0,1.9,0.3,2.3,1.7c0.3,1.2,0.7,1.8,2.1,1.9c1.5,0.1,2.3-1,2.7-1.7c0.3-0.7,0.9-1.7,1.6-1.3c0.9,0.3,0.8,1.2,0.4,2.3
				c1.1-0.6,2.1-1.1,3.2-1.8c-0.2-1-0.8-1.8-1.1-2.2C145.7,28.6,145.9,28.4,147.4,28.5"/>
			<path fill="#008348" d="M159.8,12.3c-0.4,0.1-1.1,0.3-1.7,0.3c0.3,1.2,0.8,2.9,0.4,3.2c-0.3,0.3-1.7,0.4-2.6,0.8
				c-1,0.3-3.4,2.5-2.1,4.1c1.2,1.7,1.7,2.6,1.8,3.4c0.2,0.9,2.2,1.8,3.6,0.2c1.3-1.7,2.5-3.5,2.8-2.3c0.3,1,0.2,3.4,0,4.7
				c0.3-0.1,0.6-0.1,0.9-0.2C163.6,20.2,162,15.8,159.8,12.3"/>
			<path fill="#008348" d="M129.2,42.4c-0.8-0.6-1-1.6-0.1-1.8c1-0.3,2.2-0.4,4.6-1.6c2.3-1,1.1-2.7,0.1-3.2
				c-1.1-0.4-1.1-1.5-1.1-2.5c0.1-1.1-0.2-2.6-2.2-1.8c-2,0.8-1.3,2.8-1.9,3.5c-0.6,0.7-1,0.4-0.9-0.6s-0.8-1.7-1.2-1.9
				c-0.3-0.2-1.2-0.3-1.9-0.3c-2.1,1.9-4,3.9-5.5,5.9c0.3,0.7,1.1,1.5,1.6,1.6c0.6,0.2,1.3,0.6,1.3,1.7c0,1-2.1,1-3.6,1.1
				c1,2.7,2,4.6,3.4,6.1c0.3-0.1,0.8-0.2,1.2-0.4c1.8-0.8,2.3-3.4,2.5-4.1c0.3-0.8,1-0.6,1.6,0.3c0.3,0.7,0.4,1.3,0.4,2
				c1-1,1.9-1.9,2.9-2.8C130.1,43,129.7,42.7,129.2,42.4"/>
			<path fill="#008348" d="M158.8,108.9c0.3-0.1-0.6-3.9,0.2-4.1c0.7-0.2,1.1,2.1,2.6,1.9c1.6-0.3,1.9-1.8,1.8-3.6
				c-0.2-1.8,0.8-0.8,1.6-2s-0.9-2.9-2.8-1.8c-1.9,1.1-1.6-0.3-0.6-1s0.3-2.8-1.8-2.1c-1.6,0.4-2.3-0.4-3-0.9
				c-0.6,0.2-1.1,0.4-1.7,0.7c-0.1,0.3,0,1,0.1,1.6c0.2,0.7,0.4,2.5-0.7,1.8c-1.1-0.7-2.5-1.1-2.8,0.2c-0.3,1.2,0.3,1.3,0.3,2.1
				s-2.1,1-1.1,2.5c1,1.7,2.3,0.8,3.2,0.1c1-0.6,1.8,0.1,1.6,1c-0.3,0.7-0.8,2.8-0.9,4.2c0.4,0.3,0.9,0.6,1.3,1
				C156.7,110,157.7,109.1,158.8,108.9"/>
			<path fill="#008348" d="M128.4,105c0.9-0.2,2.5,1.6,3.9,0.4c1.5-1-0.6-2-0.3-2.8c0.2-0.8,1-2.5-0.1-3.2c-1-0.8-2-0.1-3.1,1.1
				c-1.1,1.1-0.7-1.1-0.1-2c0.8-1.2,0-2-1.2-2.3c-1.2-0.2-1.7,1.6-2.5,0.8c-1.3-1.2-3.4-0.8-2.9,1c0.4,1.8,1.1,2.3,0,2.5
				s-2-2.5-3.2-0.3s0.8,2.9,0.6,4.6c-0.2,1.7,0.4,3.5,1.6,3.6c1,0.2,2-1,2.6-1.7s1.9-1.1,1.8,0.1c-0.1,0.9-0.2,2.7-0.2,3.8
				c2-1,4.2-2,5.4-2.5c0.1,0,0.1,0,0.2-0.1c-0.6-0.2-1.3-0.6-2.1-1.1C127.5,106.2,127.5,105.3,128.4,105"/>
			<path fill="#008348" d="M103.8,155.7c2.5-0.8,2.7,1.2,2.3,2.9s-0.3,5.3-0.2,7l4.2,0.2c-0.2-1.1,0-4.4,0.1-6.3
				c0.1-1.9,2-4.8,2.7-1.9s3.6,3,5.6,1.8s3.5-3.9,5.6-7.7s-0.7-4.8-2.3-4.6s-3.4,0.4,0.4-2.7c3.5-2.9-2.5-4.4-5.1-4.9
				c-4.5,4.7-9.9,10.1-14.9,14.2c-0.6,0.6-1.2,1.1-1.8,1.6C100.9,155.8,102,156.3,103.8,155.7"/>
			<path fill="#008348" d="M99.4,183.8c2.1-0.7,3.5,3.9,6.6,1.2s0.9-4.9,0.8-7.2s2.5-3.1,1.7-5.9c-1.1-4.2-5.1-0.2-7.5,2.1
				c-2.5,2.3-2.5,0.4-0.1-3.4c2.5-3.8-1.6-5-4-4c-2.2,0.9-4.1,0-5.4-1.1c-1,1.6-1.7,2.9-2.3,4.4c-2.1,4.4-0.7,4.5,0.9,4.5
				c1.6,0,4.9,6.6,5.4,7.8c0.2,0.3,1.2,2.1,2.8,4.2C97.8,185.4,98,184.3,99.4,183.8"/>
			<path fill="#008348" d="M160.3,140c-2-0.4-4.7-0.8-4.9,3.4c-0.1,1.6,1.5,2.8,2.9,3.4c1.5,0.6,1.2,1.6-0.3,1
				c-1.6-0.6-2.8-0.9-3.9,2.3c-1.1,3.2,0.9,3.7,1.9,3.9s1.8,0.4,1.6,1.8c-0.2,1.3-0.9,5.3,1.7,5.6c2.5,0.3,4.8-2.8,5.6-4.4
				s1.7-3.1,1.9-1.3s-0.1,2.7-1,4.7s-0.9,2.9,0.4,2.8c1.3-0.1,3.6,0,4.2-1.6s1.7-4.6,1.8-6.7c0.1-1.3,1.2-1.5,2.1-1.3
				c0.3-2.2,0.6-4.5,0.9-6.4c-4.4,0.7-8.2-4.7-9.4-9.3C164.2,139.2,162,140.4,160.3,140"/>
			<path fill="#008348" d="M139.5,139.2c-0.8,1.3-3,5.1-2,6.4s2.1-1.2,3-0.3s2.9,1.9,2.9,1.2s0.2-2,0.6-3.8c0.3-1.8,1.1-2.8,1.9-1.3
				s1.9,2.7,4.7,2s2.5-3.6,1.9-5.7c-0.6-2.1,1.5-3.1,2.5-3.7c1-0.6,3.6-2.6,1.7-4.4c-1.9-1.8-3.6,0.8-5.3,1.1s-1-1.1,2.5-3.8
				c3-2.3,0.4-4.7-1.3-5.4c-4.8,4.8-13.3,12.6-15.2,14.4c-0.7,0.7-1.2,1.3-1.8,2.3C139.8,136.2,140.2,137.8,139.5,139.2"/>
			<path fill="#008348" d="M167,184c1.5,1.3,4.9,3.2,7.4,1s-0.6-4.7-0.9-6.5c-0.3-1.8,1.8-2.9,0.7-5.8c-1.9-5-4.8,1-6.5,2.7
				s-1.3-1.1,0.1-2.7c0.8-0.8,4.2-2.9,2.2-5.3c-2-2.3-4.9-1-6.4,0s-2.5,2.2-4.8,1.6c-2.2-0.7-4.1-0.9-5.4,2.3
				c-1.3,3.2,1.2,2.3,3.2,4.7c2.1,2.3,0.8,2.5-0.9,1.9s-2.5-2.7-4.9-2.3c-2.5,0.3-2.5,4.2-1.7,5.3c0.8,1,2.3,1.6,1.2,3.5
				s0.6,4.1,2.5,5c2,0.9,5-2.7,6.1-4.1c1.1-1.5,2.2-1.1,2,0c-0.2,1-0.7,3.5-0.8,5.6c1.8-0.6,3.4-1.1,5-1.5c0-1.1-0.3-3.1-0.8-4.8
				C164.1,182,165.5,182.7,167,184"/>
			<path fill="#008348" d="M138.1,195.8c-2.7,0.8-3.1-0.4-4.9-1.1s-1.9,0.9-0.7,2.8c1.2,1.9,2.6,3.7,1.1,3.7s-2.6,0.2-2.8,1.3
				s-2.6-0.2-3.1-2.5c-0.6-2.3-1.1-6.8-2.3-4.6s-2.3,5.9-5.4,4.2c-3.1-1.7-1-3.9-2.6-5.4c-1.6-1.6-3-3.6-1.5-6.4s2.9-0.4,4.4-0.4
				s1.7-1.3,0.3-2.3c-1.3-1-3-5.8,3.1-5.4c2.3,0.1,4.9-0.7,6.8-2.1c2-1.5,7.3-0.7,5.1,3c-2.1,3.7-1.5,4.5-0.2,3.1
				c1.2-1.3,2.8-3.8,5.1-3.1s1.3,2.5-0.1,4.5c-1.5,2-0.6,3.4,0.6,4.1C142.2,189.9,144.3,194.1,138.1,195.8"/>
			<path fill="#008348" d="M149.4,169.6c-2,0.1-4.5-0.4-4.5-0.4c-0.2,2.1-2.3,5.1-4.4,8.3c-0.2,0.3-1.5,0.3-2-0.1
				c-0.6-0.4-2.1-1.2-0.9-2.5c1.2-1.3,3.2-4.1,2.9-5.4c-0.3-1.2-1.2-2.3-2.6-0.7c-1.3,1.7-3.5,5.1-5.8,5.3s-4.7-2-3.6-4.1
				c1.1-2.1,1.5-3.2-0.1-5.1c-1.6-1.9-1-4.4,2.3-5.8c1-0.4,2.8,0,3.9,1c1.2,1,1.9,0,0.2-1s-3-2.2-3.2-4.5c-0.2-2.1,1.1-4.4,3.9-3.1
				c2.9,1.2,4.7,0.2,5.9-0.8s6.5-2.2,5.7,2.3c-0.6,3.4-2.1,3.5-2.5,5.3s0.9,0.7,1.7-0.7c0.8-1.3,2.5-6.8,6.1-2.7
				c0.9,1,0.6,2.7-0.6,4.6c-1.1,1.9-0.2,3,0.4,3.9C153.5,164.3,155,169.3,149.4,169.6"/>
			<path fill="#BB9753" d="M142.1,20.9c0.2-0.6,0.3-1.1,0.6-1.7c-0.8,0.3-1.7,0.9-2.3,1.2C140.8,21.4,141.5,22.4,142.1,20.9"/>
		</g>
	</g>
	<g id="Layer_6">
		<g>
			<path fill="#A73832" d="M51.6,30.4c0.8,1.1,1.6,0.9,1.9,0.1c0.7-1.7,2-7,2-11.1c0-9.4,1.2-13.1,3.6-17.4
				C48.3,2.6,38.5,8.1,32.6,16.5C41.7,18.9,48.6,26.3,51.6,30.4z"/>
			<path fill="#A73832" d="M50.7,35.7c1.1-1.5-0.2-2.3-0.8-3.1c-2.9-4.1-9.6-11.5-18.7-13.9c-3.2,5.4-5.1,11.4-5.1,18.1
				c0,3,0.3,5.8,1,8.4C44.2,46.7,49.7,37.1,50.7,35.7z"/>
			<path fill="#A73832" d="M62.8,1.7c-2.5,3.9-3.9,6.9-4.9,17.2c-1,10.2-1.9,17.3-9.3,23.5c-5.7,4.6-16.9,5.9-20.5,5.7
				c1.7,4.9,4.4,9.3,7.9,13c10.6-3.6,18.3-8.2,28.5-17.7c10.2-9.5,15.3-19.2,16.9-22.8c1-2.3,2.9-5.4,1.6-0.2
				c-1.3,5.1-6.1,16.1-16.1,25.5c-9.8,9.4-18.8,14.2-29.2,16.9c6.1,5.6,14.4,9.1,23.5,9.1c0.3,0,0.4,0,0.8,0
				c2-12.6,5.1-16.8,11.3-22.1c6-5.4,14.6-8.2,21.9-5.1c0.6-2.3,0.8-5,0.9-7.9C96.1,17.8,81.4,2.6,62.8,1.7z"/>
			<path fill="#A73832" d="M77.1,50.5c-0.9,0.6-1.6,1-0.4,2c2,2,5,5.8,7.2,11c4.8-4,8.4-9.4,10.4-15.4
				C92.5,45.7,86.6,44.6,77.1,50.5z"/>
			<path fill="#A73832" d="M72.3,54.4C67,59.1,65,66.1,63.9,71.6c6.3-0.4,12.2-2.7,17.1-6c-2-4.9-3.7-8.5-5.6-11
				C74.3,53.3,74.2,52.8,72.3,54.4z"/>
			<path fill="#A73832" d="M223,262.2c2-6.5,5.3-6.4,4.2-8.9s-2.8-4.4-4.1-5.8c-1.3-1.5-0.3-4.9-0.3-6.4c-0.1-2.7-2.2-3.1-2.5-6.1
				s-0.4-5.4,1.8-8.5c2.2-3-0.8-2.9-1.8-4.8s-1.6-4.5-0.7-8.3c0.4-2,0.2-2.5-0.3-2.8c-0.6-0.2-2.9-0.7-2.9-0.7l-3.5,6.8
				c0.6,1.3,0.8,3.4,0.8,4.7l-0.9,5.7c-0.8,1.3-2.1,3.5-2.1,5.4s-1.9,3.9-1.7,4.8c0.2,0.9,2.7,3.2,4.1,5.7c1.5,2.5,3.2,6.1,3.2,12.3
				s-2,14.5-2.2,15.5c-0.2,1.1-0.8,2,0.9,3.6c1.7,1.6,4.4,4.5,5.4,11.1s1.7,10.1,2.1,10.4s0.3,0.9,0.3,2.1s1.1,8.3,1.9,9.6
				s0.7-7.5,0.6-10.2c-0.1-2.5,0.1-14.8,0.6-16.7c0.4-1.8,0.9-3.8-0.7-6C223.7,272.5,221,268.6,223,262.2z"/>
		</g>
	</g>
	<g id="Layer_4">
		<g>
			<path fill="#FFFFFF" d="M101.4,77.4c-2.9,0.6-2.8,1.1,0.3,0.8c1,0,15-2.1,16.8-2.5c1.8-0.3,2.2,0.9,2.7,0.6
				c0.6-0.2-0.2-0.2-0.6-2.5l-2.6,0.3C114.9,74.9,104.3,76.8,101.4,77.4z"/>
			<path fill="#FFFFFF" d="M218,77.1c-12-12-26.4-20.7-42-25.6c-0.1,1.6-0.2,3-0.2,3.6c3.1,1.6,6.6,4.9,5.3,11.2
				c-0.6,2.6-2.7,5-2.9,6c-0.3,1.7-3.9,4.6-4.9,6.8s-1.2,4-1,5c1.8,1.7,5.8,3.9,8,4.7c1.7,0.6,1.7,1,1,2c-0.2,0.2-0.6,0.4-0.6,0.7
				c-2.7,3.7-7,13-8.9,18.8c-2,5.8-6.6,19.7-3.2,28.7c3.2,9.1,9.6,3.4,11.1-0.1s3.7-9.4,4.4-11s1-2.5,2.2,1.2s3,12.5,3,13.3
				s-1.2,3-2.5,6.5s-2.1,5.9-0.8,8s6.6,11.1,8.3,15c1,2.3,1.9,2.8,4.6,2.1s9.2-2.9,11.1-3.8c1.9-0.9,1-2.5,0.4-4.4
				c-0.9-2.9-4.2-19-4.2-21.1s0.6-4.9-2.2-1.8c-1,1.1-2.3,0-2-1.6s3.7-23.4,3.9-25.9c-1.9-4.1-7.5-17.1-8.9-19.6
				c-1.6-2.3-2.1-2.5-4.5-1.2s-7.5,3.1-9.5-1.3c-0.2-0.4-0.4-1.2-0.3-1.8c0.6,0.3,1,0.9,1.7,1.7c1.2,1.5,4.5,0.6,6.5-0.4
				s4.6-1.3,6.6,1.1c2,2.5,5,7,6.5,11.2s3,7.6,3.5,8.3c0.4,0.7-1.6,13-2.1,17.8c-0.6,4.9-1,7-1.1,7.8s3.1-2.8,3.2,1.5
				c0.1,3.4,1.7,14.2,3.5,22.2c0.4,2,1,3.9,1.5,5.4c1.3,0.2,2.5,2.9,3.2,7c0.8,4.1,2.5,6.7,2.5,8.7c0.1,2,0.7,2.3,1.3,2.7
				c0.7,0.3,0.4,1.3-1.6,3.7c0.4,0.3,1.1,1,1.6,1.5c0.6-0.6,2.1-2.3,2.1-2.3s6.1,2.5,7.5,2.9c1.3,0.4,2.9-2.8,6.8-1.1
				c1.1,0.4,2.3,2,3.2,3.5c6.1-13.3,9.7-28.3,9.7-43.9C248.5,123,237.6,96.7,218,77.1z"/>
			<path fill="#FFFFFF" d="M207.9,230.3c-1.6-0.8-2.6,0.3-3.4-5.8c-0.2-1.8-1.7-4.1-2.8-5.3c-1.1-1.1-1.2-3.2-0.7-5
				c0.9-2.8,1.1-5.4,1-7.5c-0.1-2.2,0.3-5,3.5-6.4c-1.1-1.2-1.7-2.8-2-3.9c-4.6-1.6-5.5-1.7-6.4-3.9c-1.6-3.7-2.5-9.1-3-12.1
				c-0.2-1.5-0.3-2.8-0.3-4c-1.5-2.8-4.7-8.9-7.3-13.5c-1-1.8-1.8-3.2-2.3-4.2c-2.2-3.9,0-8.9,1.1-12c1.1-3,2-5.7,1-8.7
				s-1-3.7-1.2-4.9s-1.2-2.8-2.5,1.5c-1.3,4.2-3.9,10.4-5.4,16.9c-0.9,3.7-1.3,7.6-1.1,11.5c0.2,2.9,0.8,5.8,2,8.4
				c2.9,6,6.4,11.6,5.9,14.9c-0.4,3.4-1.1,3.5-1.2,4c-0.6,6.5-3.4,18.9-4.8,22.5c-1.5,3.6-7.2,16.4-8.3,21.9
				c-1,4.1-3.5,13.2-5.7,18.4c16.7-3.2,32-10.3,44.8-20.5C209,231.7,208.9,230.8,207.9,230.3z"/>
			<path fill="#FFFFFF" d="M84.2,84.1c1.2,1.7,2.8,3.1,4.9,4.1c5.4,2.8,6.6,4.7,6.6,9.6c0,4.8,0.9,14.6,2.5,16.2
				c1-1,2.1-2.5,2.3-2.9c1.6,2.9,4.7,8.3,9.7,11.6c0.1,0,0.1,0.1,0.1,0.2c0,0.1-0.1,0.1-0.1,0.2c-0.4,0.9-1.3,0.6-1.9,0.4
				c-1.2-0.3-5.4-4.8-6.8-7.3s-1.7-2.2-2.2-0.4c-0.6,1.8-2.7,5.7-4.1,7.5c-1.5,1.9-5.3,6.8-6.3,7.9c-1,1.1,0,1.6,0.9,2.5
				s5.4,6.5,6.5,7.6c1,1.2,2.1,3.5,4.8,1s5.9-6.8,7.4-11.5c1.3-4.1,1.6-6.5,2.5-6.7c0.1,0.1,0.2,0.1,0.3,0.2
				c1.7,0.4,12.5,2.1,12.7,4.4c2.2-2.2,5.8-7.8,6.5-9.7s4.6-7.9,7.5-11.2c0-1.3,0-2.1,0.1-2.5c-0.8,0.7-2,2.3-3.8,3.1
				s-8,3.5-12.5,5.7c-1.6,0.8-4.4,1.7-5.4-6.5c-1.1-8.2,0-12.4,0.8-14.2c0.8-1.9,2.2-3.6,5-2.8s7.3,2.5,8.5,2.5c0.2-0.9,1-2.5-2-2.9
				c-2.1-0.2-7.7-1.8-11-6.1c-1.2-1.8-2.1-3.9-2.2-6.7c-6.4,1-21,2.9-24.1,3.7c-3.2,0.8-6,1.5-7-5.9c-0.4-3.1-1.2-7.5,1-5.9
				c1.8-1.3,4.2-2.9,8.6-2.2c0.8,0.1,1.8,0.8,2.1,1.5c0.2,1.1-0.2,2.8-0.8,4.6c-1,3-2.8,5.1,3.2,3.8c6.4-1.5,14.4-2.7,16.5-3.1
				c0.3-2.1,2-5.5,4.1-7.9c2.1-2.5,2.5-4.5,2.6-5.3s-0.6-1-1.7,0c-1.2,1.1-4.9,3.4-8.3,2.5c-1.3-0.3-3-2.9-3.9-4.4
				c0.8-1.6,2.6-4.1,4.8-6.8c-11.8,3.8-22.9,9.7-32.9,17.5c-0.1,1.2,0.1,4,0.9,7.3C81.1,78.7,82.1,81.6,84.2,84.1z"/>
			<path fill="#FFFFFF" d="M91.9,236.3c4.6-1.8,8.2-1.8,11.7,3c1,1.3,1.8,5.3,10.4,1.8c-4.6-5.4-7.4-11.8-9.7-20.6
				c-3.9-13.7-12.9-29.3-9.6-36.4c-1.9-1.8-4.1-8.7-6.5-7.9c-1.6,0.4-3.8,0.6-2-4.7c0.8-2.3,2.1-5.3,4.7-8.6
				c3.1-4.1,7.8-9.2,15.6-15.2c0.7-0.6,0.8-1,0.3-1.5c-0.8-0.8-1.6-1.7-2.3-2.1c-0.8-0.4-1.6-0.2-2.2,0.4c-0.7,0.7-1.8,1.5-2.5,1.9
				s-6-4.8-8.8-8.6s-5.7-5-6.6-5.4c1.1-1.2,3.7-3.9,2.7-3.6c-1.7,0.6-4.7,1-7.5-2.2c-3.7-3.9-2.2-5.9-3-6.5s-4.8,0.3-7.8-4.4
				s-4.2-6.7-1.8-10.1c1.2-1.7,1.7-2.5,1.3-4.6c-0.3-2.1,0-3.5,2.8-6.1c2.8-2.7,4.5-5.1,5.7-4.9c1,0.2-1.8-3.4-3.6-6
				c-0.4-0.7-0.8-1.3-1.1-1.8c-0.4-1.1-1.1-2.9-1.2-4.9C51.3,97,40.5,123,40.5,150.7s10.8,54,30.5,73.6c4.7,4.7,9.6,8.7,14.8,12.4
				C88,234.2,90.6,235.2,91.9,236.3z"/>
			<path fill="#FFFFFF" d="M203.7,193.3c3.6-0.1,9.6-1.7,14-5.7c-1.2-1.5-3.4-8.4-3.9-11.3c-0.8-3.1-0.8-6.4-4-4.6
				c-2,1.1-9.1,4.2-12,4.7c-3,0.4-2.2,1.2-1.7,3.5s2.2,8.9,3.1,11.2S201.3,193.4,203.7,193.3z"/>
			<path fill="#FFFFFF" d="M155,112.5c-1.5-1-6.8-4.4-7.6-4.9c-0.9-0.7-1.2-0.7-1.6-0.1c-0.2,0.4-1,1.8-2.8,1.8s-3.2-0.6-4.4,1
				c-1.1,1.6-7.3,8.9-8.6,13.6c1.3,2.8,3.1,7.8,4.5,11.3c4.4-3.7,18.2-17.2,20.8-19.8C156.4,114.4,156.5,113.5,155,112.5z"/>
			<path fill="#FFFFFF" d="M121.5,128.9c-1,0.2-5.1-1.5-9.1-2.2c-1.2-0.1-1.5-0.1-1.7,0.3c-0.9,3.5-2.5,9.5-5.4,14.1
				c1.1,1.8,2,3.4,3.4,3.9c3.1-2.2,8.9-7.7,10.7-9.7c1.7-2,3.8-5,3.8-5.7C123.3,128.9,122.5,128.7,121.5,128.9z"/>
			<path fill="#FFFFFF" d="M179.8,20.8c-1.3-1.5-2.1-1.1-3.4,0.3c-3,3.6-8.9,6.7-19.1,9.3c-10.2,2.6-19.8,9.7-24,13.2
				c-4.1,3.5-14.5,12-19.6,14c-1.3,0.6-4.1,2.5-0.6,2.9c2.7,0.3,4.6-1.2,10.4-5.4c5.8-4.2,10.3-7.3,14.8-11.6
				c4.1-4,11.6-7.8,19.7-10.1s18.6-5.7,21.6-8.9C181.1,22.9,181.2,22.1,179.8,20.8z"/>
			<path fill="#FFFFFF" d="M128.4,59.2c0.6-0.3-0.1-2.7-2-2.3c-0.6,0.2,0.1-1.3-1-0.7c-0.9,0.4-1.2,1-2.2,4.2s-0.9,5.1-0.1,5.9
				c0.6,0.6,1.5,0.6,1.9,0.6c0.3,0,0.7,0.1,0.6-0.9C125.4,65.1,125.4,61,128.4,59.2z"/>
			<path fill="#FFFFFF" d="M93.4,70.8c0-1.8-0.9-1.8-2.5-1.8c-1.9,0-3.9,0.7-5.4,1.3c0.2,0.7,0.1,3.5,0.4,5.3
				c1.1,5.7,3.1,4.9,4.5,4.7c1.3-0.2,3.8-1.2,2.8-1.2s-1-0.7-0.9-2.3C92.5,75,93.3,72.5,93.4,70.8z"/>
			<path fill="#FFFFFF" d="M127.2,259c1.9-2.2,1.8-7.7,0.8-12c-0.9-4.2-7.5-5.9-13.4-3.5c-5.9,2.5-9.4,1.5-10.8,0.6
				c0,0-0.8-0.6-1.3-0.9c-0.6-0.3-0.6,1-1.2,2.3s-0.8,5,0.2,7.2c2.6,0,6.1,1.1,8.3,2.1c2.1,0.9,9.6,4.4,12.9,5.4
				C124.2,260.8,125.6,261,127.2,259z"/>
			<path fill="#FFFFFF" d="M140.4,284.1c-0.2-0.8-0.6-5.5-0.6-6.8s0.3-4.7,0.4-5.8c0.1-1.1,0.4-2.1-1.5-2c-1.8,0.2-6.1-0.3-6.8-2.5
				c-0.9-2.7-3.5-3.2-4.9-3.2c-2.6,0,0,2.8,0.8,4.9c0.9,2.2,4.1,14.8,2.7,14.9c-1.5,0.1,0,1.3,1.2,2.2c2.3,1.7,6,0.6,7,0.1
				C139.8,285.5,140.6,285,140.4,284.1z"/>
			<path fill="#FFFFFF" d="M90,241.3c0.7-0.8,0.6-1.5,0.1-2.2c-0.4-0.8-0.8-1.3-1.3-1.6c-1.3-0.4-2.5,0.2-3.6,2.8
				c-1.1,2.3-1.3,10.1-1,12.5c0.9-0.2,2.6,0.1,3.4,0.3C87.3,248.8,88.7,242.7,90,241.3z"/>
			<path fill="#FFFFFF" d="M110.8,317c-3.5,0.3-6-0.2-9.9-1.9c-3.8-1.7-9.1-6.5-11.8-9.6c-0.9-1-1.7,0.2-0.9,1.3
				c3.4,4.8,8.6,8.2,12,9.9c3.4,1.8,8.5,1.8,10.7,1.5C113,317.9,113.6,316.7,110.8,317z"/>
			<path fill="#FFFFFF" d="M147,297.7c-2.2,1.1-6.5,3.1-10.4,4.1c0.4,2,0.6,2.9,0.6,3.5c2.5,0,7.2-1.8,11.1-4.1
				c0.9-0.6,1.2-1.2,0.9-2C148.7,298.5,148.3,297.1,147,297.7z"/>
			<path fill="#FFFFFF" d="M123.8,287.3c-0.7,0-3.8,0.7-3.2,1.2c0.3,0.3,1.7,1.8,2.5,2.7c0.9,0,2.9-0.6,3.2-0.8
				c0.4-0.2,0.6-0.4,0.2-0.8C126.1,289.1,124.6,287.7,123.8,287.3z"/>
			<path fill="#FFFFFF" d="M147.8,222.1c-1,0.1-8.3,0.1-13.4-0.6c-9.1-1.1-18.1-6.3-21-9.7c-0.4-0.6-3.1-0.3-0.9,1.5
				c2.2,1.8,7.9,7,16.2,8.6c1.9,0.3,4.9,0.9,5.4,7.8c0.4,6.8-0.2,11.3-0.2,12s-0.4,0.9-1,0.1s-2.5-3.4-3.5-3.9s-1.7-0.4-2.5,0.2
				c-0.9,0.7-2.2,2-2.8,2.7l2.5,1.5c-0.9-0.7-0.8-1-0.3-1.7c0.4-0.7,0.9-1.1,1.3-1.3c0.4-0.2,1.1-0.3,1.9,0.8
				c0.8,1.1,5,8.2,5.9,10.1s2,0.7,1.6-0.4s-1.3-3-1.7-3.6c1.2-3.8,2.5-9.6,2.5-13.3c0-3.7-0.9-7.5-1.6-8.9c3,0.1,9.6,0,12.2-0.8
				C150.9,222.2,148.8,222,147.8,222.1z"/>
			<path fill="#FFFFFF" d="M94,271c-0.3,0.8-1.5,3.9-1.8,6.1c-0.3,2.3-0.9,5.8,0,10.8s1.3,6.6,1.6,7.5l2.7-0.9
				c-1.5-0.9-3.1-5-3.5-13.3c-0.1-2.8,1-7.5,1.9-9.7S94.3,270.2,94,271z"/>
			<polygon fill="#FFFFFF" points="243.8,94.2 248,91.1 241.4,81 244.8,78.6 252.2,89.5 256.5,86.4 248.8,75.7 252.2,73.3 
				260.2,84.6 264.6,81.6 252.6,64.7 232.9,78.8 			"/>
			<polygon fill="#FFFFFF" points="255.6,119 262.1,116 257.6,106.3 272.7,100 270,94 248.7,103.3 			"/>
			<polygon fill="#FFFFFF" points="259.5,129.2 260.2,135.1 274.5,133.5 275.1,139.7 281.5,139.2 279.7,118.4 273.2,118.9 
				273.8,127.5 			"/>
			<polygon fill="#FFFFFF" points="260.2,149.6 260.2,156.6 281.3,156.5 281.2,149.5 			"/>
			<path fill="#FFFFFF" d="M270.2,166.7c-3.6-0.7-7.7-0.1-10.6,2.1c-2.6,2-3.9,3.9-4.6,7.6c-0.4,2.3-0.1,5.4,0.7,8l5.6-1.8
				c-0.6-1.2-0.8-3.2-0.2-5.3c1.1-3.8,4.2-5.5,8-4.9c3.9,0.6,6.3,4.2,5.6,8.6c-0.3,1.8-1.1,3.2-3.1,4.5l3.5,4.1
				c2.8-1.8,4.9-5.1,5.4-7.5c0.8-3.9-0.2-6.8-2-10.1C276.4,168.9,273.3,167.2,270.2,166.7z"/>
			<path fill="#FFFFFF" d="M266.2,196.1c-2.9-0.8-6.9,2.5-8.9,4.4c-1.1,1.1-5,5-6.8,4.4c-1.7-0.6-1.1-3-0.6-4.7
				c0.8-2.3,2-4.4,3.9-5.6l-3.5-1.6c-1.7,1.5-3.6,3.7-4.4,6c-0.9,2.6-1.2,5.8-0.9,7.7c0.4,2.5,1.3,4.1,4.2,3.9
				c2.2-0.2,7.8-3.9,11.1-6.8c1.7-1.6,3-1.8,3.8-1.2c1.1,0.7,1.1,2.6,0.7,3.9c-0.6,1.7-1.3,4.2-2.7,5.3l4.7,3.2
				c1.9-1.9,3-4.9,3.5-7.6C271.7,200.6,268.1,196.5,266.2,196.1z"/>
			<path fill="#FFFFFF" d="M219.7,68.3c1.9,1.3,4.8,2.2,7.5,2.7l0.6-5.8c-1.3,0-3.2-0.7-4.8-1.9c-3-2.6-3.2-6.7-1.2-9.4
				c2.5-3.2,6.6-3.9,10.3-1.6c1.5,1,2,2.5,2.3,4.8l5.4-0.9c-0.3-3.2-2.2-7-4-8.6c-2.8-2.5-6.1-3.1-9.7-2.6c-3.6,0.4-6.9,2.8-8.9,5.5
				c-2,2.9-3.2,6.9-2.5,10.5C215.4,64.3,216.6,66.2,219.7,68.3z"/>
			<path fill="#FFFFFF" d="M24.2,177.6c0.2-1.6,0.1-4.6,1.8-4.8c1.7-0.3,2.8,1.2,3.1,2.9c0.4,2.5,1.1,4.2,0.2,6.4l4.5-0.4
				c0.8-2.1,0.4-4.8,0-7.3c-0.6-2.7-1.5-4.7-3.5-6.5c-1.9-1.8-3.4-2.2-6.3-1.6c-1.8,0.3-4.8,3.5-4.9,9.7c0,1.1-0.3,3.5-1.3,3.5
				c-1.3,0.1-2.3-1.6-2.6-2.8c-0.3-1.8,0.1-5.5,0.8-7h-4.7c-0.7,2.7-1,6.4-0.3,9.2c1.2,6.1,4.9,8,7.9,7.7
				C22.1,186.1,23.7,182.8,24.2,177.6z"/>
			<polygon fill="#FFFFFF" points="14.9,152.1 31.4,151.9 31.4,146.7 14.9,146.9 14.7,139.8 9.4,140 9.6,159.7 15,159.6 			"/>
			<polygon fill="#FFFFFF" points="44.9,99.8 32.1,92.6 32.2,92.4 49.1,92.1 53.1,86 32.2,73.9 29,78.7 43.4,87.6 23.8,88.2 
				21.1,93.4 41.7,105.4 			"/>
			<path fill="#FFFFFF" d="M24.1,131.7c7.2,0,12.9-5.8,12.9-12.9c0-7.2-5.8-12.9-12.9-12.9c-7.2,0-12.9,5.8-12.9,12.9
				C11.3,125.9,17,131.7,24.1,131.7z M24.1,112c3.7,0,6.7,3,6.7,6.7s-3,6.7-6.7,6.7s-6.7-3-6.7-6.7S20.4,112,24.1,112z"/>
			<path fill="#FFFFFF" d="M45.3,203.6c0-7.2-5.8-12.9-12.9-12.9c-7.2,0-12.9,5.8-12.9,12.9c0,7.2,5.8,12.9,12.9,12.9
				S45.3,210.6,45.3,203.6z M32.4,210.2c-3.7,0-6.7-3-6.7-6.7s3-6.7,6.7-6.7s6.7,3,6.7,6.7S36.1,210.2,32.4,210.2z"/>
			<path fill="#FFFFFF" d="M47.9,218.2c-1.9,1.8-2.9,5.9-1.1,8.7c-2-1-6.1-1.3-8,0.3c-4.7,4,1,9.8,5.6,14.4l6.5,6.4l17-14l-6.9-8
				C58.7,222.8,51.9,214.6,47.9,218.2z M48.6,240.7c-1.8-2-6.8-6-4.7-8c2-1.9,7.2,4.2,7.7,5L48.6,240.7z M56.5,233.5l-0.4-0.6
				c-1.5-1.8-6.1-6.8-4.2-8.6c1.8-1.8,6.4,4,7.6,5.6l0.6,0.7L56.5,233.5z"/>
			<path fill="#FFFFFF" d="M105.1,262.1c-1.8,0-3.5-0.8-4.4-0.2c-0.8,0.4-0.1,1.8,1,2.1c0.9,0.3,5.9,0,6.8,0l1.6,0.2
				c0-2.1-0.7-2-1.1-2.3C108.6,261.7,106.8,262.1,105.1,262.1z"/>
		</g>
	</g>
</g>
</svg>
