<?xml version="1.0" encoding="utf-8"?>
<!-- Generator: Adobe Illustrator 26.0.1, SVG Export Plug-In . SVG Version: 6.00 Build 0)  -->
<svg version="1.1" id="Layer_2_00000170248392065777511830000008557325321697823873_"
	 xmlns="http://www.w3.org/2000/svg" xmlns:xlink="http://www.w3.org/1999/xlink" x="0px" y="0px" viewBox="0 0 348.1 335.4"
	 enable-background="new 0 0 348.1 335.4" xml:space="preserve">
<g id="Layer_2_1_">
	<path fill="#1D1160" d="M84.8,153H60.1v26.7L45.3,187l14.8,7.7v23.8l16.4,10.1c6-0.8,13.7-1.8,22.7-2.7l63.3,36.5l11.5,53.1
		c0.1-0.1,11.6-53.1,11.6-53.1l63.2-36.5c8.9,0.9,16.6,1.8,22.7,2.7l16.3-10.1v-23.8l14.8-7.6l-14.8-7.5v-26.7h-24.6
		c0,0,3.8-3.7,8.7-12c2-3.5,4-7.8,6.3-12.9c18-5.4,31.3-17,36.9-28.1c15.4-28.2,27-62.6,27-62.6s-6.6,3.2-14.7,7.2
		c6.5-19.8,10.4-36.7,10.4-36.7s-71,46.9-126.2,91.1l-4.8-2.9c0-0.5,0.2-4.5,0.2-4.8c0,0,0.6-4.7-7.7-7.5c-0.6-0.2-1-0.4-1.5-0.5
		c4-3,10.2-7.6,14.8-10.7c7.2-5,6.4-10.4,6.4-10.4l-26.2,19.5c-20.3-6.5-37.2,0-37.2,0l-26.2-19.5c0,0-0.8,5.4,6.4,10.4
		c4.5,3.1,10.8,7.7,14.8,10.7c-0.5,0.2-0.9,0.4-1.5,0.5c-8.3,2.8-7.7,7.5-7.7,7.5c0,0.4,0.1,4.3,0.2,4.8l-4.8,2.9
		c-55.6-44-126.5-91-126.5-91s3.9,16.7,10.4,36.6C12.1,40.3,6,37.3,6,37.3s11.6,34.5,27,62.6c5.7,11.2,18.9,22.7,36.9,28.1
		c0,0,3,6.9,5.6,12C78.7,146.2,84.8,153,84.8,153"/>
	<path fill="#00788C" d="M203.8,112.9c-0.3,0.7-0.6,1.6-0.7,2.3C227.9,99,271.3,70.7,320,39c0,0,0.1,1,4.3-11.4
		C272.8,58.6,227.4,93.8,203.8,112.9"/>
	<path fill="#00788C" d="M144.2,112.9C120.6,93.8,75.1,58.6,23.7,27.6C28,40.2,28,39.1,28,39.1c48.7,31.6,92,59.9,116.9,76.2
		C144.8,114.5,144.5,113.7,144.2,112.9"/>
	<path fill="#00788C" d="M174,138c-4.2-1.7-14.9-7-21.4-20.9c5.3,4.5,12,6,17.4,0.7c-6.5-2.9-7.4-14.6-8.7-17.6
		c-2.6-6.3-6.6-9.4-9.9-10.7c1.6-0.6,3-1,4.5-1.5c3,1.7,8.2,5.5,9.9,13.2c0,0,0.6-8.8-3.7-14.8c8.4-2,16.9-1.8,23.8,0
		c-4.3,6.1-3.7,14.8-3.7,14.8c1.7-7.7,6.7-11.5,9.9-13.2c1.4,0.5,2.9,0.9,4.5,1.5c-3.2,1.3-7.3,4.5-9.9,10.7
		c-1.3,3-2.1,14.8-8.7,17.6C179.5,126.8,177.7,135.1,174,138 M99.1,154.4c0,0-12.2-8.8-19.1-24.7l4.9,1.5
		c15.9,4.2,46.3,8.4,46.3,8.4c-14.7,0.4-27,1.5-34.1,2.2c-1.5-1.8-3.1-4.1-3.8-5.9c0,0,0.6,5.5,1.8,9
		C96.7,150.2,99.1,154.4,99.1,154.4"/>
	<path fill="#00788C" d="M252.8,145L252.8,145c1.3-3.5,1.8-9,1.8-9c-0.6,1.8-2.3,4.1-3.8,5.9c-7.1-0.8-19.5-1.9-34.1-2.3
		c0,0,30.4-4.1,46.3-8.4l4.9-1.5c-6.9,16-19.1,24.6-19.1,24.7C248.9,154.4,251.3,150.2,252.8,145"/>
	<path fill="#00788C" d="M136.1,229.9l-31-17.9c-2.2,0.2-4.4,0.5-6.5,0.6l43,24.8C139.5,235.2,137.7,232.6,136.1,229.9"/>
	<path fill="#00788C" d="M211.9,229.9l31-17.9c2.2,0.2,4.4,0.5,6.5,0.6l-43,24.8C208.5,235.2,210.3,232.6,211.9,229.9"/>
	<path fill="#00788C" d="M160.3,234.1c-13.6-3-19.4-9.7-19.4-9.7c2.8,5.7,7,10.6,12.3,14.2C153.1,238.5,158.9,236.9,160.3,234.1"/>
	<path fill="#00788C" d="M151.9,219.4c-0.9-0.9-1.9-1.9-3-3c-4.3,1.5-6.8,3.2-8.1,4.3c3,2.9,8.8,6.7,19.2,8.9
		C158.7,226.3,155.5,223,151.9,219.4"/>
	<path fill="#00788C" d="M173.7,251.7c-4.5,0.1-7.7,1.8-8.9,2.2c-1.1-2.1-2.5-4.3-3.7-6.3c3.9,0.5,7.3-0.3,7.3-0.3
		c-1.7-0.6-5.8-1.9-11.3-5.6l0,0c0.5-0.2,0.9-0.5,1.5-0.6l0,0c1.5-0.7,3-1.7,4.1-2.9c1.4-1.4,2.3-3.2,2.3-5.3
		c0-6.8-4.6-9.1-9.7-14.2c-1-1-2.1-2-3.2-3.1c4.7-1.3,11.2-2.2,19.7-2.4l2,28.9h0.3l2.1-28.9c8.7,0.2,15,1.1,19.7,2.4
		c-1.1,1.1-2.2,2.1-3.2,3.1c-5.2,5.1-9.7,7.4-9.7,14.2c0,2.2,0.9,4,2.3,5.3c1.2,1.2,2.6,2.1,4.1,2.9l0,0c0.5,0.3,1,0.5,1.5,0.6l0,0
		c-5.5,3.7-9.8,5.1-11.3,5.6c0,0,3.4,0.7,7.3,0.3c-1.3,1.9-2.6,4.1-3.7,6.3c-1.1-0.4-4.3-2.1-8.9-2.2H173.7L173.7,251.7z"/>
	<path fill="#00788C" d="M194.8,238.5c5.2-3.6,9.4-8.5,12.3-14.2c0,0-5.6,6.7-19.4,9.7C189.1,236.9,194.8,238.5,194.8,238.5"/>
	<path fill="#00788C" d="M188,229.8c10.3-2.1,16.1-6,19.2-8.9c-1.3-1.2-3.8-2.9-8.1-4.3c-0.9,1-1.9,2-3,3
		C192.5,223,189.3,226.3,188,229.8"/>
	<path fill="#FFFFFF" d="M164.7,118.6c0,0-5-3.3-5.8-10.3C158.9,108.3,152.4,119.2,164.7,118.6"/>
	<path fill="#FFFFFF" d="M183.6,118.6c0,0,5-3.3,5.8-10.3C189.5,108.3,195.9,119.2,183.6,118.6"/>
	<path fill="#FFFFFF" d="M179.9,262.3c-0.9-0.9-2.2-2-6.2-2c-3.8,0-5.1,0.9-6.2,1.8l6.5,25.4L179.9,262.3z"/>
	<polygon fill="#FFFFFF" points="222.6,150.3 222.6,159.6 219.5,159.6 219.5,150.3 216.9,150.3 216.9,147.6 225.2,147.6 
		225.2,150.3 	"/>
	<polygon fill="#FFFFFF" points="207.9,150.3 207.9,159.6 204.8,159.6 204.8,150.3 202.2,150.3 202.2,147.6 210.6,147.6 
		210.6,150.3 	"/>
	<path fill="#FFFFFF" d="M163.9,155.3h1.1v-6.5l-1.3-1.3h-7.9v12h3v-4.2h2.2l1.8,4.2h3L163.9,155.3z M162,152.7h-3.3v-2.4h3.3V152.7
		z"/>
	<polygon fill="#FFFFFF" points="240.7,150.3 240.7,147.6 231.8,147.6 231.8,159.6 240.7,159.6 240.7,156.9 234.9,156.9 234.9,155 
		240.7,155 240.7,152.3 234.9,152.3 234.9,150.3 	"/>
	<polygon fill="#FFFFFF" points="175.7,156.9 175.7,147.6 172.5,147.6 172.5,159.6 180.1,159.6 180.1,156.9 	"/>
	<path fill="#FFFFFF" d="M193.8,147.6h-7.9v10.7l1.4,1.4h7.9V149L193.8,147.6z M192.3,156.9h-3.4v-6.6h3.4V156.9z"/>
	<path fill="#FFFFFF" d="M148.6,159.6v-10.7l-1.3-1.4h-8.1v12h3v-3.9h3.4v3.9L148.6,159.6L148.6,159.6z M142.2,150.3h3.4v2.8h-3.4
		V150.3z"/>
	<polygon fill="#FFFFFF" points="129.6,147.6 129.6,153 126.2,153 126.2,147.6 123.2,147.6 123.2,159.6 126.2,159.6 126.2,155.7 
		129.6,155.7 129.6,159.6 132.6,159.6 132.6,147.6 	"/>
	<path fill="#FFFFFF" d="M309.6,62.5c5.8-13.7,10.2-23.4,10.2-23.4c-48.7,31.6-92,59.9-116.9,76.2c-0.9,2.7-2,5.1-3.2,7.3l98-53.4
		l-76.5,55.2l3.5-0.6l40.4-3.9c0,0,27.3-2.7,42.5-23.1c7.2-11,19.4-43.1,19.4-43.1L309.6,62.5z"/>
	<path fill="#FFFFFF" d="M75.5,190.3l9.4-4.1v21.4c2.7-0.4,5.4-0.7,8.3-1v-46.9h-8.3c0-0.1,0,16.9,0,16.9l-9.4,4v-20.8h-8.3v24.3
		l-6.8,3.3l6.8,3.4v19.7c2.7-0.5,5.5-0.9,8.3-1.4V190.3z"/>
	<path fill="#FFFFFF" d="M140.2,190.2c2-0.1,4.1-0.1,6.2-0.2c1.6,4,3.1,8.5,4.6,12.4c2.8-0.1,5.5-0.2,8.3-0.2c-1.6-4-3-8.5-4.6-12.4
		c1,0,2.1,0,3.1-0.1v-19.2l-3.7-3.6h-25.4l3.1,3.8v32.6c2.8-0.2,5.5-0.3,8.3-0.5L140.2,190.2L140.2,190.2L140.2,190.2z M140.2,174.5
		h9.4c0,2.3,0,5.3,0,7.4c-3.1,0-6.3,0.1-9.4,0.2V174.5z"/>
	<path fill="#FFFFFF" d="M172.5,174.5h9.5v27.6c2.9,0,5.8,0.1,8.7,0.1v-31.5l-3.8-3.8h-26l3.1,3.8v31.5c2.9,0,5.6-0.1,8.5-0.1V174.5
		L172.5,174.5z"/>
	<path fill="#FFFFFF" d="M221.8,195.5c-5.3-0.3-10.7-0.6-16-0.7c0-1.9,0-4,0-5.9c5.3,0.2,10.7,0.4,16,0.6v-8.3
		c-5.3-0.2-10.7-0.3-16-0.4c0-1.6,0-4.3,0-6.3h16v-7.7h-27.9l3.1,3.7v31.8c8.5,0.3,16.8,0.6,24.8,1.1L221.8,195.5L221.8,195.5z"/>
	<path fill="#FFFFFF" d="M242.7,174.5h7.2v-7.7h-23.4v7.7h7.3v29.9c3,0.3,6.1,0.5,9,0.7L242.7,174.5L242.7,174.5z"/>
	<path fill="#FFFFFF" d="M125.7,170.7l-3.8-3.8H96.4l3,3.6v31l3.3,4c7.3-0.7,15-1.4,23-1.8V170.7z M117.4,195.9
		c-3.2,0.2-6.4,0.4-9.5,0.6v-22h9.5V195.9z"/>
	<path fill="#FFFFFF" d="M279.9,190.6c2.6-1.1,5.2-2.3,7.7-3.5c-8.3-3.9-16.6-7.3-24.8-10.5v-9.4h8.8v3.4h8.4v-10.9h-28.6l3.1,3.7
		v19.4l17.1,7.4v10.9c0,0-4-0.5-8.8-1.1v-3.5l-8.3-1v11.1c9,1,17.6,2.3,25.4,3.7C279.9,204.2,279.9,194.9,279.9,190.6"/>
	<polygon fill="#FFFFFF" points="113.4,155.9 113.4,156.9 110.7,156.9 110.7,150.3 113.4,150.3 113.4,151.3 116.5,151.3 
		116.5,147.6 107.8,147.6 107.8,158.3 109.2,159.6 116.5,159.6 116.5,155.9 	"/>
	<path fill="#FFFFFF" d="M38.4,62.5c-5.8-13.7-10.2-23.4-10.2-23.4c48.7,31.6,92,59.9,116.9,76.2c0.9,2.7,2,5.1,3.2,7.3l-98-53.5
		l76.5,55.2l-3.5-0.6l-40.4-3.9c0,0-27.3-2.7-42.5-23.1C33.2,85.7,21,53.6,21,53.6L38.4,62.5z"/>
	<path fill="#A1A1A4" d="M340.1,53c-7.7,20.7-18.1,42.1-23.2,51c-8.7,14.8-26,23.7-36.1,27c0,0-4.9,11.9-10.1,18.4h20.7v28.2
		l19.7,9.4l-19.7,10v23.6l-19.1,11.7c0,0-15.2-1.8-22.7-2.7l-60.6,35c-12.2,54.9-15,70.8-15,70.8s-2.9-15-15-70.8l-60.6-34.9
		c-7.4,0.7-22.7,2.7-22.7,2.7l-19.1-11.7v-23.6l-19.7-10l19.6-9.4v-28.2h20.7c-5-6.3-10.1-18.4-10.1-18.4c-6.1-2-11.9-4.8-17.1-8.1
		c-8.2-5.3-14.8-11.8-19.1-18.9c-8.2-14.6-18-36.4-23.2-51C4.3,44.1,0,30.6,0,30.6s11.2,5.3,14.8,7.1C9.4,21.6,4.8,0,4.8,0
		s77.5,51,132,94.6l0.8-0.6c0-0.9,0-1.8,0-2.8c0-0.6,0-1.7,0.5-3c0.6-1.8,2-4.1,5.2-6c-4-3-11.2-7.9-11.8-8.6
		c-5.3-4.6-6.2-9.7-5.7-12.3l0.9-5.8l29.5,21.9c16-4.6,27.4-2.3,35.8,0l29.5-21.9l0.9,5.8c0.4,2.5-0.5,7.7-5.7,12.3
		c-0.6,0.6-7.8,5.6-11.8,8.6c3.1,1.9,4.5,4.1,5.2,6c0.5,1.3,0.5,2.4,0.5,3c0,0.9,0,1.8,0,2.8l0.8,0.6C267,50,343.3,0,343.3,0
		s-3.8,17.7-10,37.7c3-1.5,14.8-7.1,14.8-7.1C344.6,41.3,340.1,53,340.1,53 M84.8,153H60.1v26.7L45.3,187l14.8,7.7v23.8l16.4,10.1
		c6-0.8,13.7-1.8,22.7-2.7l63.3,36.5l11.5,53.1c0.1-0.1,11.6-53.1,11.6-53.1l63.2-36.5c8.9,0.9,16.6,1.8,22.7,2.7l16.3-10.1v-23.8
		l14.8-7.6l-14.8-7.5v-26.7h-24.6c0,0,3.8-3.7,8.7-12c2-3.5,4-7.8,6.3-12.9c18-5.4,31.3-17,36.9-28.1c15.4-28.2,27-62.6,27-62.6
		s-6.6,3.2-14.7,7.2c6.5-19.8,10.4-36.7,10.4-36.7s-71,46.9-126.2,91.1l-4.8-2.9c0-0.5,0.2-4.5,0.2-4.8c0,0,0.6-4.7-7.7-7.5
		c-0.6-0.2-1-0.4-1.5-0.5c4-3,10.2-7.6,14.8-10.7c7.2-5,6.4-10.4,6.4-10.4l-26.2,19.5c-20.3-6.5-37.2,0-37.2,0l-26.2-19.5
		c0,0-0.8,5.4,6.4,10.4c4.5,3.1,10.8,7.7,14.8,10.7c-0.5,0.2-0.9,0.4-1.5,0.5c-8.3,2.8-7.7,7.5-7.7,7.5c0,0.4,0.1,4.3,0.2,4.8
		l-4.8,2.9c-55.6-44-126.5-91-126.5-91s3.9,16.7,10.4,36.6C12.1,40.3,6,37.3,6,37.3s11.6,34.5,27,62.6c5.7,11.2,18.9,22.7,36.9,28.1
		c0,0,3,6.9,5.6,12C78.7,146.2,84.8,153,84.8,153"/>
</g>
</svg>
