<?xml version="1.0" encoding="utf-8"?>
<!-- Generator: Adobe Illustrator 26.0.1, SVG Export Plug-In . SVG Version: 6.00 Build 0)  -->
<svg version="1.1"
	 id="Layer_1" xmlns:cc="http://creativecommons.org/ns#" xmlns:dc="http://purl.org/dc/elements/1.1/" xmlns:rdf="http://www.w3.org/1999/02/22-rdf-syntax-ns#"
	 xmlns="http://www.w3.org/2000/svg" xmlns:xlink="http://www.w3.org/1999/xlink" x="0px" y="0px" viewBox="0 0 114.6 98.609"
	 enable-background="new 0 0 114.6 98.609" xml:space="preserve">
<g transform="matrix(1.25 0 0 -1.25 -566.16 137.5)">
	<g>
		<path fill="#FFB81C" d="M522.024,109.997c-22.137-0.26-49.547-16.978-60.84-26.318l-7.594-11.758l9.447,2.334
			c-14.507-18.209-9.323-30.133-8.714-31.369c1.526-4.293,5.011-7.728,10.663-9.981c4.29-1.716,9.158-1.927,13.33-1.733
			c18.034,0.845,39.338,12.084,53.105,24.042l0.32,0.276l2.74,13.816l-5.348-2.974c-18.569-8.145-33.506-12.67-33.506-12.67
			c-9.778-3.045-14.271-3.539-17.473-2.798l-0.386,0.119c-0.882,0.342-1.041,1.142-1.041,1.356
			c-0.141,6.115,10.379,19.266,15.677,24.954c4.94,5.305,12.705,11.131,19.272,13.892c4.4,1.851,7.242,2.591,8.57,2.455
			c-0.359-1.138-0.953-2.542-1.824-4.252c0,0-7.04-13.892-7.345-14.448c-0.175-0.315,33.532,19.348,33.532,19.348v6.73l-1.648,1.673
			C537.352,108.032,530.031,110.091,522.024,109.997L522.024,109.997z"/>
		<path fill-rule="evenodd" clip-rule="evenodd" fill="#041342" d="M542.352,99.925L520.246,86.4
			c-0.175-0.398-3.05-5.953-3.322-6.23l25.484,15.415C542.408,95.585,542.352,99.925,542.352,99.925z M517.991,99.381
			c-2.249-0.06-5.435-1.141-9.03-2.658c-6.942-2.924-14.996-8.971-20.131-14.482c-4.982-5.359-16.503-19.339-16.33-26.685
			c0.054-1.928,0.729-3.266,1.839-4.186c-0.044,0.293-0.064,0.599-0.075,0.91c-0.18,7.345,11.349,21.328,16.336,26.692
			c5.129,5.511,13.177,11.562,20.125,14.48c4.579,1.934,8.501,3.151,10.669,2.456C521.552,98.477,520.24,99.441,517.991,99.381z
			 M471.574,82.544c-2.766-0.642-5.822-1.329-8.798-2.026c-0.573-0.746-3.072-4.181-3.41-4.633c2.429,0.598,5.158,1.274,7.854,1.922
			C468.744,79.61,470.235,81.209,471.574,82.544z M531.108,63.142c-13.286-12.768-36.012-25.37-54.666-26.234
			c-4.053-0.196-8.501,0.047-12.308,1.556c-3.484,1.4-5.924,3.207-7.519,5.321c1.224-3.518,4.1-6.52,9.29-8.588
			c3.795-1.524,8.242-1.759,12.294-1.574c17.289,0.815,38.081,11.696,51.613,23.447L531.108,63.142L531.108,63.142z"/>
		<path fill-rule="evenodd" clip-rule="evenodd" fill="#6F263D" d="M523.072,107.536c-21.052,0.291-48.339-15.85-60.166-25.634
			c4.426,1.236,8.95,2.21,13.433,3.234c-49.248-47.092,0.8-65.819,53.828-21.028c-18.734-8.236-33.823-12.803-33.823-12.803
			c-38.82-12.083-26.404,13.144-8.674,32.023c2.178,2.322,9.126,8.768,15.187,11.952c10.656,6.273,26.611,10.345,17.752-7.008
			l20.63,12.65C536.416,105.514,530.089,107.439,523.072,107.536z"/>
	</g>
</g>
</svg>
