<?xml version="1.0" encoding="utf-8"?>
<!-- Generator: Adobe Illustrator 26.0.1, SVG Export Plug-In . SVG Version: 6.00 Build 0)  -->
<svg version="1.1" id="Layer_4" xmlns="http://www.w3.org/2000/svg" xmlns:xlink="http://www.w3.org/1999/xlink" x="0px" y="0px"
	 viewBox="0 0 300.2 300.2" enable-background="new 0 0 300.2 300.2" xml:space="preserve">
<g>
	<path fill="#B3B2B1" d="M300.2,150.1c0,82.9-67.2,150.1-150.1,150.1S0,233,0,150.1C-0.1,67.2,67.1,0,150.1,0
		C233,0,300.2,67.2,300.2,150.1"/>
	<g>
		<path fill="#1D428A" d="M295.9,150.1c0,80.5-65.3,145.8-145.8,145.8S4.3,230.6,4.3,150.1S69.6,4.3,150.1,4.3
			S295.9,69.6,295.9,150.1"/>
		<g>
			<path fill="#C8102E" d="M274.4,150.1c0,68.6-55.6,124.4-124.4,124.4c-68.6,0-124.4-55.6-124.4-124.4
				C25.6,81.5,81.2,25.7,150,25.7S274.4,81.5,274.4,150.1"/>
			<path fill="#FFFFFF" d="M150.1,25.7c-68.5,0-124.4,55.8-124.4,124.4s55.8,124.4,124.4,124.4s124.4-55.8,124.4-124.4
				C274.4,81.6,218.6,25.7,150.1,25.7 M32.9,153.8h22.9v-7.3H32.9c0.1-2.7,0.2-5.5,0.5-8.2C41.5,97.4,90.7,66,150,66
				s108.5,31.5,116.6,72.3c0.3,2.7,0.4,5.5,0.5,8.2h-23v7.3H267c-0.1,2.7-0.2,5.5-0.5,8.2c-8.1,40.8-57.4,72.3-116.6,72.3
				S41.5,202.8,33.4,162C33.2,159.3,33.1,156.5,32.9,153.8 M150.1,32.9c49.6,0,92.2,31,109.2,74.7c-20.8-28.5-61.9-48-109.2-48
				S61.7,79,40.9,107.6C57.9,64,100.4,32.9,150.1,32.9 M150.1,267.4c-49.6,0-92.2-31-109.2-74.7c20.8,28.5,61.9,48,109.2,48
				s88.4-19.4,109.2-48C242.2,236.2,199.7,267.4,150.1,267.4"/>
			<g>
				<g>
					<rect x="97.5" y="153.4" fill="#FFFFFF" width="8.7" height="39.5"/>
					<path fill="#FFFFFF" d="M131.2,153.4h-0.3c-2.4,0-11.5-0.1-13.2,0h-0.4c-2.6,0-4.4,1.2-4.8,3.6c-0.1,0.4-0.1,0.6-0.1,0.6
						c0,0.1-0.6,7.5,0.1,9.6c1.2,3.4,4,4.7,6.4,5.4c0.1,0,0.2,0.1,0.3,0.1c0.2,0,0.3,0.1,0.5,0.2c0.3,0.1,0.5,0.3,0.6,0.4v14.2h-7.2
						v5.3h9.6l0,0c3.4-0.1,5.6-1.6,6.4-4.1c0.2-1.9,0.3-15.2,0.1-17.9c-0.1-1-0.5-1.9-1.5-2.6c-0.4-0.3-0.8-0.6-1.4-0.9
						c-0.5-0.3-1.1-0.5-1.6-0.8c-2-1-4.4-2.1-4.4-4.8v-2.2h6.9c1.4,0,2.5-0.7,3.3-2c0.5-1,0.7-2,0.7-2c0.1-0.6,0-1.2,0-1.6
						L131.2,153.4z"/>
					<path fill="#FFFFFF" d="M171.5,153.4c-1.9,0-4.1,0.1-5.7,0.5c-4.3,1-6.4,3.9-6.4,8.8v23.5c0,6,4.3,7.2,10.8,7.2
						c7.8,0,12.3-2.7,12.3-7.6v-24.5C182.4,153.4,177.4,153.4,171.5,153.4 M168.5,162.3c0-1,0.1-1.8,0.3-2.4l0.2-0.1
						c0.4-0.1,0.8-0.1,1.2-0.1h0.2c2.9,0,3.1,0.9,3.1,6.3v16.5c0,0.5,0,0.9,0,1.4s-0.1,0.9-0.2,1.3l-0.2,0.2c-0.5,0.1-1,0.1-1.5,0.1
						c-1.1,0-1.8-0.2-2.3-0.7c-0.7-0.7-0.7-1.9-0.7-3.4v-16.7C168.5,164.7,168.5,162.9,168.5,162.3"/>
					<path fill="#FFFFFF" d="M202.8,170.1c-4.2-15.3-11-16.9-13.7-16.9c-0.7,0-1.1,0.1-1.2,0.1l-0.2,0.1v39.5h8.9V177l6.2,15.9h9.1
						v-39.5h-9.1V170.1L202.8,170.1z"/>
					<path fill="#FFFFFF" d="M86.8,153.4H64.6h-0.3v0.3c0,0-0.2,4.7,5,5.8V193h9.2v-16.8h7.6c4.1,0,6.4-2.6,6.4-7.3v-1.4
						C92.4,156.2,92,154,86.8,153.4 M83.3,170.9h-5v-11.5c0,0,2.6-0.1,3.1,0c1,0.1,1.8,0.5,1.8,1.7
						C83.3,161.5,83.3,170.9,83.3,170.9"/>
					<path fill="#FFFFFF" d="M156.6,153.5h-20.5v6.2h5.9V193h9.1v-33.4c0.1,0,0.2,0,0.3,0c1.6,0,2.9-0.5,3.9-1.4
						c1.6-1.7,1.5-4.4,1.5-4.5L156.6,153.5z"/>
					<path fill="#FFFFFF" d="M235.8,153.4h-0.3c-2.4,0-11.5-0.1-13.2,0h-0.4c-2.6,0-4.4,1.2-4.8,3.6c-0.1,0.4-0.1,0.6-0.1,0.6
						c0,0.1-0.6,7.5,0.1,9.6c1.2,3.4,4,4.7,6.4,5.4c0.1,0,0.2,0.1,0.3,0.1c0.2,0,0.3,0.1,0.5,0.2c0.3,0.1,0.5,0.3,0.6,0.4v14.2h-7.2
						v5.3h9.6l0,0c3.4-0.1,5.6-1.6,6.4-4.1c0.2-1.9,0.3-15.2,0.1-17.9c-0.1-1-0.5-1.9-1.5-2.6c-0.4-0.3-0.8-0.6-1.4-0.9
						c-0.5-0.3-1.1-0.5-1.6-0.8c-2-1-4.4-2.1-4.4-4.8v-2.2h6.9c1.4,0,2.5-0.7,3.3-2c0.5-1,0.7-2,0.7-2c0.1-0.6,0-1.2,0-1.6V153.4z"
						/>
				</g>
				<g>
					<path fill="#FFFFFF" d="M155.1,128.9h1.5c1.4,0,4,0.5,4,3.2c0,1.2,0.1,5.2,0.2,6.7v0.6c0,0.2,0.1,2.1,0.2,2.5
						c0.6,2.3,2.4,3.7,5.2,4h2.5v-14c0-1.2-0.6-2.8-1.6-4.1l-0.2-0.2c1.4-1.6,1.9-3.2,1.9-5.6v-1.4c0-10.9-0.4-13.1-5.5-13.6h-17.1
						v38.5h8.7v-16.6L155.1,128.9L155.1,128.9z M155.1,112.9h1.5h0.2c2.3,0,3.2,0,3.1,4.1c0,3.3,0,3.5-0.1,5v0.3
						c0,0.5-0.2,1-0.5,1.3c-0.2,0.2-0.4,0.3-0.7,0.3H155v-11L155.1,112.9L155.1,112.9z"/>
					<polygon fill="#FFFFFF" points="209.6,106.8 201,106.8 201,145.3 209.6,145.3 					"/>
					<path fill="#FFFFFF" d="M127.3,145.4h8.8v-32.5c0.1,0,0.2,0,0.3,0c1.6,0,2.8-0.5,3.8-1.4c1.6-1.7,1.5-4.2,1.5-4.4v-0.3h-20.1
						v6.1h5.7V145.4z"/>
					<path fill="#FFFFFF" d="M219.9,145.4h8.8v-32.5c0.1,0,0.2,0,0.3,0c1.6,0,2.8-0.5,3.8-1.4c1.6-1.7,1.5-4.2,1.5-4.4v-0.3h-20.1
						v6.1h5.7V145.4L219.9,145.4z"/>
					<polygon fill="#FFFFFF" points="116.9,139.2 107.7,139.2 107.7,129.8 114,129.8 114,121.4 107.7,121.4 107.7,112.8 
						116.9,112.8 116.9,106.8 99.2,106.8 99,145.3 116.9,145.3 					"/>
					<path fill="#FFFFFF" d="M88,106.8H66v0.2c0,0.1-0.3,2.3,1.1,4c0.9,1.1,2.2,1.6,4.1,1.8v32.4h16.4c3.8,0,6.2-3.2,6.2-7.9v-17.9
						C93.8,109.6,93.8,107,88,106.8 M84.9,139.2H80v-26.3c3.1-0.1,3.7,0.1,3.8,0.2c1.1,0.4,1.1,2.5,1.1,2.6
						C85.1,118.7,84.9,136.8,84.9,139.2"/>
					<path fill="#FFFFFF" d="M185.4,106.8c-1.9,0-4,0.1-5.7,0.5c-4.3,1-6.3,3.9-6.3,8.6v23c0,5.9,4.3,7.1,10.7,7.1
						c7.7,0,12.2-2.7,12.2-7.4v-24C196.4,106.8,191.3,106.8,185.4,106.8 M182.5,115.5c0-1,0.1-1.8,0.3-2.4l0.2-0.1
						c0.4-0.1,0.8-0.1,1.2-0.1h0.2c2.9,0,3.1,0.9,3.1,6.2v16.2c0,0.5,0,0.9,0,1.4s-0.1,0.9-0.2,1.3l-0.2,0.1c-0.5,0.1-1,0.1-1.5,0.1
						c-1.1,0-1.8-0.2-2.3-0.7c-0.7-0.7-0.7-1.9-0.7-3.3V118C182.5,118,182.5,116.1,182.5,115.5"/>
				</g>
			</g>
		</g>
	</g>
</g>
</svg>
