<?xml version="1.0" encoding="utf-8"?>
<!-- Generator: Adobe Illustrator 26.0.1, SVG Export Plug-In . SVG Version: 6.00 Build 0)  -->
<svg version="1.1" id="Layer_2_00000000916200350836567290000010723218328672244154_"
	 xmlns="http://www.w3.org/2000/svg" xmlns:xlink="http://www.w3.org/1999/xlink" x="0px" y="0px" viewBox="0 0 300 300"
	 enable-background="new 0 0 300 300" xml:space="preserve">
<g>
	<path fill="#A0A1A2" d="M293.195,105.3L293.195,105.3l-1.5-4.5C270.795,40.5,213.895,0,149.995,0l0,0c-16.7,0-33.3,2.8-49.2,8.3
		c-78.1,27.2-119.6,112.8-92.5,190.9c21,60.3,77.9,100.8,141.7,100.8c16.7,0,33.3-2.8,49.2-8.3
		C275.795,265.1,317.195,182.2,293.195,105.3"/>
	<g>
		<path fill="#0D2240" d="M149.995,294.8c-61.5,0-116.5-39.1-136.7-97.3c-26.2-75.3,13.9-158,89.3-184.1c15.4-5.3,31.3-8,47.4-8
			c61.6,0,116.5,39,136.7,97.3l0.7,2l0,0c24.8,74.8-15.2,156.3-89.9,182.2C182.095,292.1,166.195,294.8,149.995,294.8"/>
		<g>
			<g>
				<g>
					<path fill="#276092" d="M164.995,85.1c-0.8-0.1-1.7-0.1-2.7-0.2c-5.3-0.4-13.7-1-23.8-4.5c-2.1,2.2-3.7,4.7-5,6.7
						c2.6,2.7,7.5,7.8,10,10.6c4.2,2.5,8.5,5.3,12.7,8.3c6.7-7.5,12.7-13.7,18.5-19.8c-2.9-0.4-5.8-0.7-8.9-1L164.995,85.1z"/>
					<path fill="#276092" d="M102.195,110c-11.2,15.7-19.1,36.2-19.8,60.7c11.9-13.1,21.7-25.3,28.4-31.7c4.7-4.5,9.3-7.5,13.6-9.6
						c-4.5-10.3-10.3-18.6-18.3-22.6C104.695,107.8,103.295,108.9,102.195,110"/>
					<path fill="#276092" d="M133.895,71.8c6.6-2.7,13.8-5.5,20.8-7.7c8.8-3.2,16.6-4.9,22.6-5.9c-0.2,0-0.3-0.1-0.5-0.2
						c-4.3-1.2-8.7-2.2-13-2.8c-11.8-1.8-23.7-1.2-34.9,1.3c-0.7,2.1-1.5,6.2-0.1,9.9C129.795,68.6,131.495,70.4,133.895,71.8"/>
					<path fill="#276092" d="M120.095,98.8c-2.6,1.2-5.5,2.7-8.3,4.3c7.8,5.1,13.6,13.8,18,23.9c6.2-2.1,10.5-2.2,10.5-2.2
						c4.2-5.3,8-10,11.6-14.2c-4.2-2.9-8.4-5.7-12.6-8.1C134.795,100.8,123.895,99.2,120.095,98.8"/>
					<path fill="#276092" d="M143.795,75.7c7.8,2.3,14.3,2.8,18.9,3.1c1.1,0.1,2.1,0.2,2.9,0.2l0.7,0.1c3,0.3,7.3,0.7,12.2,1.6
						c3.7-4.6,8.1-7.4,11.2-8c3.5,1.3,5.3,3.4,6.6,6.3c4.9,2.1,8.2,5.7,10.3,10c11.4,4.9,22.7,12.2,31.5,23.1
						c-9.1-21.2-25.7-38.9-47.6-48.9v0.1c-0.3,0-20.4-0.5-45.4,11.6C144.595,75.1,144.195,75.4,143.795,75.7"/>
					<path fill="#276092" d="M245.595,142.1c-2.4-11.4-10.5-32.3-36.3-45.6c2.9,13-0.4,27.9-0.4,27.9s7.1,4.1,8.9,11.9
						c0,0,0.9,0.4,1.7,1.6c2,2.4,4.5,8,0.5,19c0,0-2.4-5.1-7.5,0.4c-0.5,0.7-0.8,1.2-1.3,1.9c9.7,13.3,17.1,27.3,20.9,40.9
						c4.3-7.1,7.8-14.8,10.3-23.2C245.495,165.2,246.495,153.5,245.595,142.1"/>
					<path fill="#276092" d="M75.995,177.4c-0.3-13.8,1.5-27,5.5-39.7c3.4-10.6,7.9-19.6,12.8-27.1c0.7-1.5,2-3.7,3.4-6.3
						c-18.5-2-35.2,17.7-41.7,26.6c-4.3,20.7-1.4,41.5,7,59.5C67.595,186.2,71.895,181.8,75.995,177.4"/>
					<path fill="#276092" d="M197.595,201.2c-0.2,9.2,4.3,16.2,7.7,27.2c8.3-5.9,15.7-13,21.9-21.4c-2.8-13.7-10-28.2-19.9-42.2
						C200.995,174.9,197.895,184.4,197.595,201.2"/>
					<path fill="#276092" d="M116.195,79.4c3.1-1.4,6.9-3.1,11.1-4.8c-1.9-1.7-3.3-3.7-4.1-6c-1.4-3.6-1.4-7.4-0.9-10.3
						c-13.7,4.2-26.4,11.4-36.9,21c0.5,0,1,0,1.5,0C95.895,78.7,108.795,79.1,116.195,79.4"/>
					<path fill="#276092" d="M100.895,98.7c1.3-2.3,2.6-4.6,3.8-6.6c-5.1-3.4-8.3-5.8-17.1-6.5c-3.6-0.1-6.6,0-8.8,0.2
						c-7.9,8.8-14.4,19.1-18.7,30.8C69.995,106.2,84.695,95.4,100.895,98.7"/>
					<path fill="#77BC1F" d="M131.295,78.1l-6.6,9.6c0,0,5,3.4,9.1,8.2c-7.2-1.5-15.1-2.8-15.1-2.8l-12.6,6.8l5.9-9.8
						c0,0-3.9-3.4-8.5-6.3c5,0.2,14.5,0.9,14.5,0.9L131.295,78.1z"/>
				</g>
				<g>
					<path fill="#77BC1F" d="M136.595,135.6c0,0-1.8,4.8-2,9.3c0,0-10.9,1.6-16.2,5.2C118.495,150,129.395,139.1,136.595,135.6"/>
					<path fill="#FFFFFF" d="M210.195,135c1.2-0.3,2.1-0.4,2.8-0.3c-0.2-0.6-0.6-1.4-1.2-2.2c-0.9-1.2-2.3-2.1-2.3-2.1
						C210.295,131.9,210.295,133.8,210.195,135"/>
					<path fill="#FFFFFF" d="M200.395,140.1c1.4-0.9,2.7-1.8,3.8-2.4c-0.2-0.5-0.6-1.2-1-2.1c-0.9-1.7-3.4-3.2-3.4-3.2
						C200.795,135.3,200.595,138.4,200.395,140.1"/>
					<path fill="#A0A1A2" d="M83.195,213.8c-9.3,3.8-31.2-1.4-31.2-1.4c22.2-1.3,43.9-17.1,43.9-17.1s0,0.1-0.1,0.1
						c-6.5,10-15.5,15.7-15.5,15.7C81.395,212.3,82.395,213.1,83.195,213.8"/>
					<path fill="#77BC1F" d="M193.895,81.4c0,0-5.5-4.3-11.6,2.3C188.895,71.6,192.695,78.6,193.895,81.4"/>
					<path fill="#A0A1A2" d="M215.495,139.9c0,0-0.6-0.4-0.7-0.5c-3.4-1.9-9.7,3.5-13.7,5.8c-4,2.2-10,7-12.8,0.5
						c-2.9-6.5,3.7-16.8,6.1-23.2c5-14.3,5.2-22.6,4.2-27.1c4.7,5.3,6.2,15.4,6.2,15.4s1.8-19-7.5-23.9c0.2,0.7,0,3.1-0.2,4.9l0,0
						c-4.3,0.7-13.9-0.3-17-2c-11.7,12.6-24.5,30.1-34.1,46.1c-4.2,8.5-8.3,18.5-9.3,26.6c0,0-1.3-3.6-1.7-8.6
						c-5.3,2.1-23.4,10.9-27.3,38.2c0,0,11.5-11.8,24.2-16.5c0,0-8,21.1,7.4,58.4c0,0,6.2-22.9,19.2-28.7
						c7.9,39.1,31,39.8,37.7,66.4c0,0,7.1-13.8-1.4-37.3c0,0,2.9,0.8,5.4,3.7c0,0-0.4-6.9-6.8-21.6c-4.2-7.9-5.5-18.6-5.5-18.6
						c-3.7,3.4-4.8,14.9-4.8,14.9c-11.5-31.1,21.1-62,27-66.5c2.9-2.2,4.7-2.2,5.8-1.8C216.895,142.4,216.895,140.9,215.495,139.9"
						/>
				</g>
			</g>
			<g>
				<path fill="#A0A1A2" d="M235.995,84.8c-17.4-23-42.8-37.8-71.3-41.8c-4.9-0.7-10-1-14.9-1c-53.6,0-99.5,40.1-106.9,93.3
					c-3.1,22.1,0.7,44.1,10.6,63.6c1.2-1,2.4-2.1,3.7-3.2c-9-18.4-12.5-39-9.6-59.7c7-50.9,51-89.2,102.2-89.2c4.8,0,9.5,0.4,14.3,1
					c27.3,3.7,51.5,18,68.2,40s23.8,49.2,20,76.5c-4.2,30.1-21.2,55.8-45.2,71.8c0.3,1.6,0.7,3.3,0.8,5c25.9-16.6,44.5-44,49-76.2
					C260.895,136.2,253.595,107.8,235.995,84.8"/>
				<g>
					<path fill="#FFFFFF" d="M81.695,34.6c-5.2,0-9.4,4.2-9.4,9.4s4.2,9.4,9.4,9.4c5.2,0,9.4-4.2,9.4-9.4S86.895,34.6,81.695,34.6
						 M81.695,49.2c-2.8,0-5.1-2.3-5.1-5.1s2.3-5.1,5.1-5.1s5.1,2.3,5.1,5.1S84.495,49.2,81.695,49.2"/>
					<path fill="#FFFFFF" d="M60.595,58.1l-2.2,1.2c-0.8,0.5-1.3,0.5-1.8,0.1c-0.6-0.5-0.5-1.2,0.3-2l0,0c0.8-0.8,1.7-1.3,2.8-1.4
						h0.4l-0.3-4.2h-0.4c-2.1,0.1-4,1-5.8,3c-1.1,1.2-1.8,2.6-2,4c-0.2,1.7,0.5,3.2,1.8,4.3c2,1.9,4.4,2,7.2,0.4l2-1.1
						c1-0.6,1.7-0.8,2.2-0.3c0.7,0.6,0.5,1.4-0.5,2.5l0,0c-1.3,1.4-2.7,1.5-3.7,1.5h-0.4l-0.5,4.6h0.4c1.5,0.1,4.5-0.3,7.4-3.4
						l0.1-0.1c1.4-1.6,2.2-3.2,2.3-4.8c0.1-1.6-0.6-3-2-4.3C65.995,56.4,63.695,56.4,60.595,58.1"/>
					
						<rect x="14.393" y="151.197" transform="matrix(0.9997 -0.0238 0.0238 0.9997 -3.6336 0.6037)" fill="#FFFFFF" width="18.4" height="4.1"/>
					<polygon fill="#FFFFFF" points="49.595,89.6 56.595,79.1 53.095,76.9 48.495,83.8 45.895,82.1 49.995,76.1 46.495,73.9 
						42.495,79.9 39.995,78.2 44.595,71.2 41.295,69 34.395,79.3 					"/>
					<polygon fill="#FFFFFF" points="109.795,40 104.495,26.7 109.195,24.8 107.595,21.1 94.395,26.5 95.895,30.2 100.595,28.2 
						105.995,41.6 					"/>
					<polygon fill="#FFFFFF" points="34.395,100.1 21.395,106 21.195,106.6 38.395,113.6 39.895,109.9 30.995,106.2 43.995,100.3 
						44.295,99.6 27.095,92.6 25.495,96.4 					"/>
					<polygon fill="#FFFFFF" points="25.995,127.6 14.695,136.2 14.595,137 32.895,139.8 33.595,135.8 23.995,134.3 35.295,125.5 
						35.395,124.9 17.095,122 16.495,126.1 					"/>
					
						<rect x="177.335" y="27.402" transform="matrix(0.2842 -0.9588 0.9588 0.2842 105.2867 199.9263)" fill="#FFFFFF" width="18.401" height="4.1"/>
					<polygon fill="#FFFFFF" points="282.595,178 283.595,174 265.695,169.8 262.995,181.7 266.995,182.6 268.895,174.8 					"/>
					<path fill="#FFFFFF" d="M276.195,141.3c-5.2,0-9.4,4.2-9.4,9.4s4.2,9.4,9.4,9.4s9.4-4.2,9.4-9.4
						C285.595,145.6,281.395,141.3,276.195,141.3 M276.195,155.9c-2.8,0-5.1-2.3-5.1-5.1s2.3-5.1,5.1-5.1s5.1,2.3,5.1,5.1
						S279.095,155.9,276.195,155.9"/>
					<polygon fill="#FFFFFF" points="238.995,74.2 246.795,84 249.995,81.4 244.795,74.8 247.195,73 251.695,78.7 254.895,76 
						250.395,70.5 252.795,68.6 257.895,75.1 261.095,72.6 253.395,62.8 					"/>
					<polygon fill="#FFFFFF" points="251.695,208.3 245.095,218.8 248.495,220.9 252.995,214 255.595,215.5 251.695,221.7 
						255.195,223.8 259.095,217.8 261.595,219.4 257.095,226.4 260.595,228.6 267.295,218.1 					"/>
					<polygon fill="#FFFFFF" points="168.095,34.6 169.995,20.4 174.995,21.1 175.595,17.1 161.395,15.2 160.795,19.2 165.895,19.8 
						163.995,34 					"/>
					<polygon fill="#FFFFFF" points="267.395,197.5 277.295,197 278.995,192.8 258.695,193.6 258.495,194.2 272.595,208.9 
						274.295,204.7 					"/>
					<polygon fill="#FFFFFF" points="208.795,38.8 205.595,26.5 205.595,26.4 204.995,26.1 196.395,42.5 200.095,44.5 203.995,36.8 
						205.895,43.9 206.295,44.1 213.195,41.7 209.195,49.2 212.795,51.1 221.395,34.7 220.995,34.4 					"/>
					<polygon fill="#FFFFFF" points="26.695,177.1 19.195,187.4 19.095,187.5 19.195,188.1 37.395,184.2 36.495,180.2 28.095,182 
						32.295,176.1 32.195,175.6 25.995,171.9 34.395,170.2 33.595,166.2 15.395,170 15.595,170.5 					"/>
					<polygon fill="#FFFFFF" points="274.295,125.9 281.995,119.5 281.795,118.8 271.895,116.5 279.795,111.3 278.795,107.1 
						262.395,118 262.595,118.5 273.595,121.1 264.895,128.4 265.095,129.1 284.695,131.3 283.695,127 					"/>
					<path fill="#FFFFFF" d="M262.495,98.9c1.6,1.7,4.2,1.9,6.4,0.7c3.4-1.7,4.5-5.1,2.6-8.9l-3.1-6.2l-16.5,8.1l1.9,3.7l7.6-3.7
						l-5.2,8.7l2.1,4.4C258.495,105.7,262.195,99.3,262.495,98.9 M263.295,94.7l-1.1-2.3l4.6-2.2l1.1,2.3c0.8,1.7,0.5,2.9-1,3.6
						C265.295,96.7,264.095,96.4,263.295,94.7"/>
					<path fill="#FFFFFF" d="M237.295,58.3c1-0.3,2-0.8,2.7-1.8c1.1-1.3,1.6-3,1.3-4.6c-0.3-1.3-0.9-2.5-2.1-3.5l-2.3-2l-3.1-2.7
						l-2.7,3.1l-1.9,2.1l-0.2,0.2l-2.5,2.9l-0.2,0.2l-2.1,2.3l-2.7,3.1l3.1,2.7l2.7,2.3c1.2,1,2.5,1.6,4,1.6c1.7,0.1,3.4-0.7,4.5-2
						C236.895,61.2,237.395,59.8,237.295,58.3 M234.195,49.6l2.3,2c0.9,0.8,1.1,1.6,0.5,2.4c-0.8,0.9-1.9,0.4-2.5-0.2l-2.1-1.9
						L234.195,49.6z M230.195,59.6l-2.7-2.3l2.1-2.5l2.5,2.2c1,0.9,1.3,2,0.7,2.7C232.095,60.4,230.995,60.4,230.195,59.6"/>
					<path fill="#FFFFFF" d="M234.495,230.7c0.7-0.7,1.7-1.4,2.7-2c2.1-0.9,4.9-1,5.3-1v4.2c-0.8,0-2.6,0.2-3.4,0.6
						c-1.3,0.7-2.2,1.6-2.4,2.5c-0.2,0.7,0.1,1.1,0.4,1.4s0.7,0.4,1.1,0.2c0.4-0.1,1-0.5,1.7-0.7c1.5-0.7,3.2-1.6,4.7-1.7
						c1.6-0.2,3,0.3,4.1,1.4c1.3,1.2,1.8,3,1.7,4.2c-0.1,1.3-0.7,3.6-3.7,5.5c-1.8,1.1-4.3,1.4-4.6,1.5l-0.6-4.1
						c0.7-0.1,2.1-0.5,2.9-0.8c2.1-1,2.2-3.4,0.5-3.4c-0.7,0-2.2,0.8-3.3,1.3c-0.8,0.5-1.6,0.7-2.2,1c-2,0.7-3.9,0.2-5.3-1.1
						c-1.5-1.4-2.1-3.5-1.5-5.5C232.795,232.8,233.395,231.7,234.495,230.7"/>
					<polygon fill="#FFFFFF" points="127.495,26.2 133.095,34.4 137.495,33.6 126.195,16.8 125.595,17 120.495,36.6 124.995,35.8 
											"/>
				</g>
			</g>
		</g>
	</g>
</g>
</svg>
