<?xml version="1.0" encoding="utf-8"?>
<!-- Generator: Adobe Illustrator 26.0.1, SVG Export Plug-In . SVG Version: 6.00 Build 0)  -->
<svg version="1.1" id="Layer_1" xmlns="http://www.w3.org/2000/svg" xmlns:xlink="http://www.w3.org/1999/xlink" x="0px" y="0px"
	 viewBox="0 0 148.405 163.5" enable-background="new 0 0 148.405 163.5" xml:space="preserve">
<g>
	<g>
		<path d="M130.705,43.9c-2.4-3.6-5.2-7-8.3-10c-1.3-1.3-2.7-2.6-4.2-3.8l30.2-30.1h-87.7l-33.9,33.9l0,0l-0.1,0.1
			c-3.1,3.1-5.8,6.4-8.3,10c-2.4,3.6-4.5,7.5-6.2,11.5c-3.5,8.3-5.3,17.2-5.3,26.3s1.8,18,5.3,26.3c1.7,4,3.8,7.9,6.2,11.5
			s5.2,7,8.3,10c1.3,1.3,2.7,2.6,4.2,3.8l-30.1,30.1h87.7l34-34l0,0c3-3,5.8-6.4,8.2-9.9c2.4-3.6,4.5-7.5,6.2-11.5
			c3.5-8.3,5.3-17.2,5.3-26.3s-1.8-18-5.3-26.3C135.305,51.4,133.205,47.6,130.705,43.9"/>
		<path fill="#FFFFFF" d="M118.505,37.8c-1.3-1.3-2.7-2.6-4.1-3.8l-36.8,36.9c1.8,0.5,3.5,1.5,5,2.9l0,0c4.4,4.4,4.4,11.7,0,16.1
			l-68.2,68.2h8l64.2-64.2c6.6-6.6,6.7-17.4,0.1-24l4-4c8.8,8.9,8.8,23.2-0.1,32l-60.2,60.2h8l56.2-56.2c11-11,11.1-28.9,0.1-40l4-4
			c13.2,13.3,13.2,34.7-0.1,48l-52.2,52.2h8l48.2-48.2c15.5-15.5,15.5-40.5,0.1-56l4-4c17.6,17.7,17.6,46.3-0.1,64l-44.2,44.2h8
			l40.2-40.2c19.9-19.9,19.9-52.1,0.1-72l4-4c22.1,22.1,22,57.9-0.1,80l-36.2,36.2h8l32.2-32.2l0,0
			C142.805,101.5,142.805,62.1,118.505,37.8"/>
		<path fill="#CF0A2C" d="M30.805,125.8c1.3,1.3,2.7,2.6,4.1,3.8l36.8-36.8c-1.8-0.5-3.5-1.5-5-2.9l0,0c-4.4-4.4-4.4-11.7,0-16.1
			l68.3-68.3h-8l-64.3,64.3c-6.6,6.6-6.7,17.4-0.1,24l-4,4c-8.8-8.9-8.8-23.2,0.1-32l60.3-60.3h-8l-56.3,56.3
			c-11,11-11.1,28.9-0.1,40l-4,4c-13.2-13.3-13.2-34.7,0.1-48l52.3-52.3h-8l-48.3,48.3c-15.5,15.5-15.5,40.5-0.1,56l-4,4
			c-17.6-17.7-17.6-46.3,0.1-64l44.3-44.3h-8l-40.3,40.3c-19.9,19.9-19.9,52.1-0.1,72l-4,4c-22.1-22.1-22-57.9,0.1-80l36.3-36.3h-8
			l-32.3,32.3l0,0C6.505,62.1,6.505,101.5,30.805,125.8"/>
	</g>
</g>
</svg>
