<?xml version="1.0" encoding="utf-8"?>
<!-- Generator: Adobe Illustrator 26.0.1, SVG Export Plug-In . SVG Version: 6.00 Build 0)  -->
<svg version="1.1" id="Layer_1" xmlns="http://www.w3.org/2000/svg" xmlns:xlink="http://www.w3.org/1999/xlink" x="0px" y="0px"
	 viewBox="0 0 130 180.1" style="enable-background:new 0 0 130 180.1;" xml:space="preserve">
<style type="text/css">
	.st0{fill:#FFFFFF;}
	.st1{fill:#0D2B56;}
	.st2{fill:#BD3039;}
</style>
<path class="st0" d="M116.2,106.1c-2.1-7.4-4.4-12.5-8.3-16.1c3.9-3.6,6.2-8.7,8.3-16.1c2.6-9.1,3.8-15.8,13.8-20.3
	c-14.9-6.9-16.4-15.2-20.5-26.3C104.9,15.2,90.1,0,68.7,0c-9,0-17.3,2.7-24.1,7.4c-4.7-4.5-11.1-7.2-18.1-7.2
	C11.9,0.1,0,12.2,0,27.1c0,5.5,1.6,10.6,4.4,14.8c1.6-6.7,6.7-11.8,12.1-11.7c5.6,0.1,10.3,5.5,10.3,12.2l0,27.1
	c0,9.9-10.1,17.8-23.3,20.6c13.1,2.8,23.3,10.7,23.3,20.6l0,27.1c0,6.7-4.7,12.1-10.3,12.2C11.1,150,6,144.8,4.4,138.2
	C1.6,142.4,0,147.5,0,153c0,14.9,11.9,27,26.5,27c7,0,13.3-2.7,18.1-7.2c6.8,4.6,15.1,7.4,24.1,7.4c21.4,0,36.2-15.2,40.8-27.4
	c4.1-11,5.6-19.4,20.5-26.3C120,122,118.7,115.3,116.2,106.1 M81.9,135.6c0,6-5.7,11-12.8,11c-4.8,0-8.8-1.8-11.1-4.6v-32.4
	c2.3-2.9,6.3-4.5,11.1-4.5c7,0,12.8,4.9,12.8,10.9c0,3.9-3.4,7.5-7.3,9.8C78.5,128.2,81.9,131.7,81.9,135.6 M81.9,64
	c0,6-5.7,10.9-12.8,10.9c-4.8,0-8.8-1.6-11.1-4.5V38c2.3-2.9,6.3-4.5,11.1-4.5c7,0,12.8,4.9,12.8,10.9c0,3.9-3.4,7.5-7.3,9.8
	C78.5,56.5,81.9,60.1,81.9,64"/>
<path class="st1" d="M68.7,25.1c-8.2,0-15.4,4.1-19,10.1v37.9c3.6,6,10.8,10.1,19,10.1c11.9,0,21.5-8.5,21.5-19
	c0-3.7-1.2-7.1-3.3-10.1c2.1-2.9,3.3-6.4,3.3-10.1C90.2,33.6,80.6,25.1,68.7,25.1 M84.9,64.2c0,7.5-7.2,13.6-16.2,13.6
	c-5.7,0-10.8-2.5-13.7-6.3V36.8c2.9-3.8,7.9-6.3,13.7-6.3c8.9,0,16.2,6.1,16.2,13.6c0,4-2,7.6-5.3,10.1
	C82.8,56.6,84.9,60.2,84.9,64.2"/>
<path class="st1" d="M114.3,110.5c-1.6-4.8-2.2-14-11.4-20.4c9.2-6.4,9.8-15.6,11.4-20.4c2.7-7.8,4.4-12.6,10.1-15.9
	c-20.2-11.7-10.4-22.3-27.1-39C82.8,0.3,60.1-0.9,44.3,11.3c-4.3-4.9-10.7-8-17.7-8C13.5,3.3,2.9,13.9,2.9,27c0,2.8,0.5,5.5,1.4,8.1
	c2.3-4.7,6.8-7.9,11.9-7.9c7.4,0,13.5,6.6,13.5,14.7v27c0,2.8-0.9,15.4-17.1,21.1c16.2,5.7,17.1,18.3,17.1,21.1v27
	c0,8.1-6,14.7-13.5,14.7c-5.2,0-9.7-3.2-11.9-7.9c-0.9,2.5-1.4,5.3-1.4,8.1c0,13.1,10.6,23.7,23.7,23.7c7,0,13.4-3.1,17.7-8
	c15.7,12.1,38.4,11,52.9-3.4c16.7-16.7,7-27.3,27.1-39C118.7,123,116.9,118.2,114.3,110.5 M103.8,144.1c-1.9,5.6-3.7,10.9-10.4,17.5
	c-13.6,13.6-36.1,13.1-49.7-0.4c-2.9,6.3-9.7,10.3-17.1,10.3c-9,0-16.5-6.5-18.1-15c2.3,1.1,5,1.8,7.7,1.8c10.4,0,18.8-9,18.8-20.1
	v-27c0-4.7-1.8-14.2-11-21.1c9.2-6.9,11-16.4,11-21.1V42c0-11-8.4-20.1-18.8-20.1c-2.7,0-5.4,0.6-7.7,1.7c1.6-8.5,9.1-15,18.1-15
	c7.4,0,14.2,3.9,17.1,10.3c13.6-13.6,36.1-14,49.7-0.4c6.7,6.7,8.5,12,10.4,17.5c2.1,6,4.2,12.2,11.9,18.3
	c-3.1,3.9-4.7,8.5-6.4,13.6c-0.4,1.1-0.7,2.3-1,3.6c-0.9,3.7-4.6,13.4-12.6,18.5c8,5.1,11.7,14.8,12.6,18.5c0.3,1.3,0.6,2.5,1,3.6
	c1.8,5.1,3.3,9.8,6.4,13.7C108,131.9,105.9,138.1,103.8,144.1"/>
<path class="st1" d="M68.7,96.9c-8.2,0-15.4,4.1-19,10v38c3.6,6,10.8,10.1,19,10.1c11.9,0,21.5-8.5,21.5-19c0-3.7-1.2-7.1-3.3-10.1
	c2.1-2.9,3.3-6.4,3.3-10.1C90.2,105.4,80.6,96.9,68.7,96.9 M84.9,136c0,7.5-7.2,13.6-16.2,13.6c-5.7,0-10.8-2.5-13.7-6.3v-34.7
	c2.9-3.8,7.9-6.3,13.7-6.3c8.9,0,16.2,6.1,16.2,13.6c0,4-2,7.6-5.3,10.1C82.8,128.4,84.9,132,84.9,136"/>
<path class="st2" d="M108.2,108.6c-0.9-3.7-4.6-13.4-12.6-18.5c8-5.1,11.7-14.8,12.6-18.5c0.3-1.2,0.6-2.5,1-3.6
	c1.7-5.1,3.3-9.8,6.4-13.6C108,48.2,105.9,42,103.8,36c-1.9-5.6-3.7-10.9-10.4-17.5C79.9,4.9,57.3,5.4,43.8,18.9
	C40.8,12.6,34,8.7,26.6,8.7c-9,0-16.5,6.5-18.1,15c2.3-1.1,5-1.7,7.7-1.7c10.4,0,18.8,9,18.8,20.1v27c0,4.7-1.8,14.2-11,21.1
	c9.2,6.9,11,16.4,11,21.1v27c0,11.1-8.4,20.1-18.8,20.1c-2.7,0-5.4-0.6-7.7-1.8c1.6,8.5,9.1,15,18.1,15c7.4,0,14.2-3.9,17.1-10.3
	c13.6,13.6,36.1,14,49.7,0.4c6.7-6.7,8.5-12,10.4-17.5c2.1-6,4.2-12.2,11.9-18.3c-3.1-3.9-4.7-8.5-6.4-13.7
	C108.9,111.1,108.6,109.9,108.2,108.6 M90.2,136c0,10.5-9.6,19-21.5,19c-8.2,0-15.4-4.1-19-10.1v-38c3.6-6,10.8-10,19-10
	c11.9,0,21.5,8.5,21.5,19c0,3.7-1.2,7.1-3.3,10.1C89,128.8,90.2,132.3,90.2,136 M90.2,64.2c0,10.5-9.6,19-21.5,19
	c-8.2,0-15.4-4.1-19-10.1V35.2c3.6-6,10.8-10.1,19-10.1c11.9,0,21.5,8.5,21.5,19c0,3.7-1.2,7.2-3.3,10.1
	C89,57.1,90.2,60.5,90.2,64.2"/>
</svg>
