<?xml version="1.0" encoding="utf-8"?>
<!-- Generator: Adobe Illustrator 26.0.1, SVG Export Plug-In . SVG Version: 6.00 Build 0)  -->
<svg version="1.1" id="Layer_1" xmlns="http://www.w3.org/2000/svg" xmlns:xlink="http://www.w3.org/1999/xlink" x="0px" y="0px"
	 viewBox="0 0 488.4 750.2" style="enable-background:new 0 0 488.4 750.2;" xml:space="preserve">
<style type="text/css">
	.st0{fill:#002B5C;}
	.st1{fill:#E31937;}
</style>
<path class="st0" d="M319.1,474.1v100.3c-26,9-52.3,16.7-80.1,23.1c-25.9-7.9-50.9-16.4-75-25.8c-0.1-130.7,1.4-261.5,3.8-392.2
	c24.7-10.3,51.8-20.7,75.1-28.4c25.1,7.8,48.5,16.2,72.5,25.3c1,23.7,0.5,58.9-0.1,118.1c23.9,4.5,74.9,0.6,131.8-7.1
	c2.6-19.4,5.8-38.8,9-58.1c11.6-69.8,22.6-138.3,32.3-202.2C438,19.3,383.1,14.8,356,18.7l-10.4,27.9c-32.9-16.4-66.5-32-102.7-46.6
	C159.6,32.3,83.3,67.2,5.8,107.3c14.9,73,20.7,130.5,20.7,226.8C26.5,474.3,16.8,581.6,0,652c78.8,37.5,155.1,69.8,237.8,98.2
	c78.2-27.1,156.4-56.9,245.5-99.5c-7.7-49.7-23.9-134.4-36.2-187.4C405.6,464.4,363,468.3,319.1,474.1"/>
<path class="st1" d="M341,493.5v96.6c-33,12-66.8,22.4-103.4,30.1c-32.6-10-64.8-20.9-95.7-33.6c-0.3-140.4,1.3-281.3,4-421.7
	c30.7-13.4,67.3-27.3,96.2-37.1c33.2,9.9,63.1,21,93.9,33c2.1,23.2,1.8,56.3,1,113.7c22.6,0.6,54.3-2,90.4-6.5
	c12.3-76.2,24.6-151.8,35.5-222.3c-34.9-4.5-68.5-7.1-91.8-6.5l-14,37.9C320,58,282.7,40.4,242.5,23.7
	C168.2,52.8,99.7,83.8,29.9,119.3C42.8,185.9,48,244,48,333.8c0,130.5-8.4,233.9-23.3,305.6c70.4,32.9,138.9,61.4,212.6,87.2
	c75.6-26.5,149.9-54.9,220.3-88.5c-3.9-29.7-16.8-100.1-28.4-152.5C400.5,487,371.4,489.6,341,493.5"/>
</svg>
