<?xml version="1.0" encoding="utf-8"?>
<!-- Generator: Adobe Illustrator 26.0.1, SVG Export Plug-In . SVG Version: 6.00 Build 0)  -->
<svg version="1.1" id="Layer_1" xmlns="http://www.w3.org/2000/svg" xmlns:xlink="http://www.w3.org/1999/xlink" x="0px" y="0px"
	 viewBox="0 0 129.5 185.7" style="enable-background:new 0 0 129.5 185.7;" xml:space="preserve">
<style type="text/css">
	.st0{fill:#005A9C;}
</style>
<g>
	<path class="st0" d="M110.4,102.6v19l-8.4,0c-0.4-1.7-18.3-76.4-18.3-76.4H56.9c0,0-17.9,74.8-18.2,76.4h-6.4V18h14V0L0.7,0.1V18
		h13.2v104.5H0v18.2h34.1c-0.6,2.4-5.8,24.4-6.2,25.9H14.1v19.1l47.4-0.1v-19H48.1c0.5-2.3,5.6-24.4,5.9-25.9h32.7
		c0.4,1.5,5.4,23.5,5.9,25.9H79.2v19l47.4,0.1l0-19.1h-13.8c-0.3-1.5-5.6-23.5-6.2-25.9h22.9v-38.1L110.4,102.6L110.4,102.6z
		 M58.3,121.6c0.6-2.4,10.6-46.2,12-52.3c1.4,6,11.4,49.9,12,52.3L58.3,121.6L58.3,121.6z"/>
</g>
</svg>
