<?xml version="1.0" encoding="utf-8"?>
<!-- Generator: Adobe Illustrator 26.0.1, SVG Export Plug-In . SVG Version: 6.00 Build 0)  -->
<svg version="1.1" id="Layer_1" xmlns="http://www.w3.org/2000/svg" xmlns:xlink="http://www.w3.org/1999/xlink" x="0px" y="0px"
	 viewBox="0 0 175.4 196" style="enable-background:new 0 0 175.4 196;" xml:space="preserve">
<style type="text/css">
	.st0{fill:#132448;}
</style>
<g>
	<path class="st0" d="M175.4,167c-2.8,3.3-19.1,19.4-33.2,29c-2.3-33.7-18.6-55.4-45.1-73.9v0c-0.8,18-0.9,33.8-0.3,44.8
		c0.6,9.6,5.1,15.4,12.6,21.4c-9.7,2.2-38,1.8-47.7-1.2c1.1-0.8,13.1-7.5,14.1-29.1c0.7-15.5,0.8-27,0.3-45.9l-1.1-4.9
		C62,97.8,50.7,88,36.2,72.3c13.3,35.1-3.6,78.8-5.5,94.9c-0.7,5.4-2.4,16.3-1.8,27.5C24.8,192.3,8,181.3,0,170.8
		c23.4-40,40.2-79.2,3.6-114.9c6.9-10.4,17.2-19.6,25.3-23.7c8.6,24.8,27.4,44.4,41,53c-10.4-38.5-23.7-51-32.1-55.3
		C43.3,16.9,61.5,3.4,71.2,0c-4.4,14.4-4.8,23.8-0.4,39.1c4.4,15.5,11.4,34.3,19.1,48.4c4.2-7.2,18.8-37.6,22.7-50.9
		c3.9-13.3,3.9-25.2,2.2-33.8c8.4,4.3,26.6,21.3,30.7,29.6c-8.9,1.9-13,6.5-18.3,15.5c-5.4,9.3-19.1,44.3-26.7,59.3
		c8,6.9,22,15.6,33,28.9c-12.2-47.9,0.3-84.3,16.3-95.2c7.5,2.2,17,8.3,23.9,15.5c-26,10.9-24.3,44.1-24.5,46.6
		c-1.2,19,6.5,52.9,20.9,61.1C173.4,166.1,173.7,166.2,175.4,167c-2.8,3.3-19.1,19.4-33.2,29"/>
</g>
</svg>
