<?xml version="1.0" encoding="utf-8"?>
<!-- Generator: Adobe Illustrator 26.0.1, SVG Export Plug-In . SVG Version: 6.00 Build 0)  -->
<svg version="1.1" id="Layer_1" xmlns="http://www.w3.org/2000/svg" xmlns:xlink="http://www.w3.org/1999/xlink" x="0px" y="0px"
	 viewBox="0 0 213.2 182.7" style="enable-background:new 0 0 213.2 182.7;" xml:space="preserve">
<style type="text/css">
	.st0{fill:#E3D4AD;}
	.st1{fill:#A71930;}
</style>
<path class="st0" d="M78,155.3l28.1-47.2c0.7,2.9,2.2,8.7,2.4,9.6c-1.4,2.5-23.2,40.1-23.2,40.1s32.1-26.5,33.6-27.7
	c0.5,0.6,23.8,28.8,23.8,28.8s-10.9-36.5-11.7-39c0.6-0.9,4.2-6.7,6.5-10.4l10,45.9l-19.9,27.4h85.5L172.3,0l-56.9,0L0,182.7h91.1
	L78,155.3L78,155.3z M107.2,106.3l17.9-30.1h5.3l6.5,30.1C137,106.3,107.2,106.3,107.2,106.3z"/>
<path d="M124,7.2h42.3l37.5,168.3h-60.9l13.6-18.4L137,69.7l-16.1,0l-52.1,85.7l9.7,20H18.1l-5.9,3.7h72.8l-11.5-23.7l49.4-82.4
	h10.8l18.7,83.2l-16.8,22.9h73L169.4,3.5l-47.9,0"/>
<path d="M61,144.8l6.3-4l-11.2-26.7l35.8-22.4l-12.3-22L114.1,53L103,33.3l26.6-11.8l-9.7-14.3l-2.3-3.3L6.6,179"/>
<path class="st1" d="M112.6,118.2L99,141.7c0,0,18-14.9,20.5-17c1.8,2.1,14.5,17.5,14.5,17.5s-6.3-21-6.9-23l5.8-9.2h-22.3
	C110.5,110.1,112.2,116.7,112.6,118.2L112.6,118.2z"/>
<path class="st1" d="M68.7,155.4l52.1-85.7l16.1,0l19.5,87.4l-13.6,18.4h60.9L166.3,7.2H124l10.4,16L108.1,35l11.3,19.6L84.9,71.2
	l11.6,21.4l-35.8,22.5l11,27l-53.6,33.2h60.3"/>
</svg>
