<?xml version="1.0" encoding="utf-8"?>
<!-- Generator: Adobe Illustrator 26.0.1, SVG Export Plug-In . SVG Version: 6.00 Build 0)  -->
<svg version="1.1" id="Layer_1" xmlns="http://www.w3.org/2000/svg" xmlns:xlink="http://www.w3.org/1999/xlink" x="0px" y="0px"
	 viewBox="0 0 168.5 245.6" style="enable-background:new 0 0 168.5 245.6;" xml:space="preserve">
<style type="text/css">
	.st0{fill:#0C2C56;}
</style>
<path class="st0" d="M157.8,164.4V66.6c0.6-8.4,2.7-11,8.8-16.7C153,44.8,137.5,29,129.1,12.3C87.4,33.8,40.8,33.8,5.7,2.8
	C2.2-0.3-1.8-1.9,0.9,3.9c9.9,21.6,30.6,35,53.8,41c-13.3,11.6-21.2,18.4-23,33C20.2,78.8,8,87.2,4.2,94.9c-4.4,8.8,2.1,9,6.6,6
	c5.7-3.9,13.7-5.4,20.6-5.1l0,11.1c-11.4,0.9-22.7,9.2-26.5,17c-4.4,8.8,2.1,9,6.6,6c5.7-3.9,13.1-6,20-5.7v33.4
	c0,13.1-6.6,19.7-10.4,23.3c-3.9,3.6-1.7,7.3,3.9,5.1c11.8-4.7,24-15.9,26.8-32.9c4.5,0.6,9.9,0.6,13.7,0l0,4.6
	c0,13.1-6.6,19.7-10.4,23.3c-0.1,0.1-0.1,0.1-0.2,0.2c-12.5,1.1-23.8,5.3-32.7,12.3C1.6,209.2-1.5,239,1.6,245.6
	c0.2,0.4,11.5-36.9,44.9-40.8c19.4-2.3,43.2,3.5,63.5,21.1c12.5-20.9,33.7-32.8,58.5-37C160.2,179.4,158.1,175.2,157.8,164.4
	 M130.9,54.7V84c-13.4,4-32.7,3.9-44.7-0.4v-3.8c0-10.4,0.9-23.5,9.4-31.8c8.2-0.9,16.1-2.6,23.4-5.2L130.9,54.7L130.9,54.7z
	 M86.2,93.7c12,4.3,31.4,4.5,44.7,0.4v28.5c-13.4-4-32.7-3.9-44.7,0.4V93.7L86.2,93.7z M85.4,48.5C79.1,54,73.7,59.1,70.1,65.1
	c-4.8-1.6-9.2-2.5-13.4-2.8c2.8-5.5,6.7-10.7,11.5-14.7C73.9,48.3,79.7,48.6,85.4,48.5 M52.2,144.5V79.7c0-2.8,0.5-5.9,1.3-8.9
	c4.7-0.5,9.4-0.1,13.5,1.4c-0.9,3-1.6,6.3-1.5,10l-0.1,62C62,144.9,56.8,145,52.2,144.5 M103.5,191.3c-13-6.4-25.7-9.7-37.6-10.4
	c10.7-7.2,20.3-19.9,20.3-36.7v-11c12-4.3,31.4-4.5,44.7-0.4v42.4C122.6,177.6,112.4,183.5,103.5,191.3"/>
</svg>
