<?xml version="1.0" encoding="utf-8"?>
<!-- Generator: Adobe Illustrator 26.0.1, SVG Export Plug-In . SVG Version: 6.00 Build 0)  -->
<svg version="1.1" id="Layer_1" xmlns="http://www.w3.org/2000/svg" xmlns:xlink="http://www.w3.org/1999/xlink" x="0px" y="0px"
	 viewBox="0 0 157.3 171.7" style="enable-background:new 0 0 157.3 171.7;" xml:space="preserve">
<style type="text/css">
	.st0{fill:#FFC52F;}
	.st1{fill:#12284B;}
	.st2{fill:#FFFFFF;}
</style>
<path class="st0" d="M157.3,50v21.7c0,18.1-3,29-17.1,59c-14.9,31.6-33.4,41-55.4,41c-14.5,0-28.1-4.8-39.1-13.6l-0.1,0l-2.5-2.2
	l-0.5-0.4c-3.1-2.8-5.8-5.8-8.1-8.9c-0.2-0.3-0.4-0.5-0.6-0.8c0,0-0.1-0.1-0.1-0.1c-0.1-0.2-0.3-0.4-0.4-0.6
	c-1.3-1.9-2.5-3.8-3.6-5.8c-0.1-0.2-0.2-0.4-0.4-0.6c-3.6-6.5-6-13-8-18.5c-0.6-1.6-1.1-3-1.6-4.4C15.6,105.2,7.5,84.3,3.6,73.8
	C-0.4,62.9-1,55.1,1.6,47.9c2.8-7.8,9-14,17.5-20.9C27.5,20,34.8,14.2,44.9,7c6.3-4.6,13.1-7,19.6-7c2.7,0,5.3,0.4,7.7,1.3
	c0.4,0.2,0.9,0.3,1.5,0.6c2.2,0.8,4.1,2,5.8,3.3C79.6,5.1,79.8,5,80,4.9c4.6-2.7,9.8-4.1,15-4.1c4.1,0,8.1,0.9,11.7,2.6
	c0.8,0.4,1.2,0.6,1.7,0.9l0.9,0.5c2.8,1.4,5.1,3.2,7.1,5.3c3.1-1,6.1-1.6,8.9-1.6c4.3,0,8.4,1.2,12.1,3.5l0.9,0.6
	c1.7,1.1,2.5,1.6,3.8,2.5C151.9,21.9,157.3,29.5,157.3,50"/>
<path class="st1" d="M138.3,20.3c-1.4-1-2.2-1.5-4.5-2.9c-4.4-2.8-10.3-3.8-18.3-0.2c-0.5,0.2-1,0.5-1.5,0.7
	c-1.8-3.7-4.9-6.1-7.7-7.5c-1.1-0.6-1.4-0.8-2.4-1.2c-5.4-2.6-13.3-3-20.6,1.3c-1.5,0.9-3.4,2-5.1,3c-1.7-2.9-4.3-4.6-6.8-5.6
	c-0.6-0.2-1-0.4-1.5-0.5c-5.4-2-13.3-0.9-21.3,4.8C39.2,19,32.2,24.5,23.1,31.9C6.5,45.6,2.9,53.4,9.7,71.6
	c3.7,10,11.6,30.4,16.1,42c2.6,6.6,5.3,15.3,10.2,23.6h0c0.4,0.8,0.9,1.5,1.4,2.3c0.1,0.2,0.3,0.4,0.4,0.6c2.2,3.4,4.8,6.6,8,9.6
	c0.3,0.2,0.5,0.5,0.8,0.7c0.1,0.1,0.2,0.2,0.4,0.4l0,0c9.9,9,23.1,14.5,37.8,14.5c27.1,0,49-22,49-49v-0.1
	c0-25.8-20.9-46.8-46.8-46.8c-14,0-28.1,8.1-36.5,20.9c-5.6-13.7-11.2-27.4-16.8-41.1C30.6,41.7,31.3,38,36,33.6
	c2.4-2.2,5.3-4.4,8.5-6.6c3.3-2.2,7-0.9,7,3.4v46.2c7.5-7.6,16.8-12.6,28.6-14.8L80,23.8c0.8-0.5,1.6-1,2.2-1.3c3-1.8,5.2,0.2,5.2,3
	v35.5c0.2,0,0.4,0,0.6,0c9.6,0,19.1,2.6,27.4,7.4V28.5c0.8-0.3,1.5-0.6,2-0.8c3-1.2,5.1,0.7,5.1,3.4s-0.2,42.2-0.2,42.2
	c11.1,9.2,18.3,22.7,19.5,37.9c5.3-11.3,9.1-21.8,9.1-39.6V50C150.8,32,146.7,26.2,138.3,20.3 M86.5,88.6
	c15.6,0,28.3,12.7,28.3,28.3s-12.7,28.3-28.3,28.3c-15.6,0-28.3-12.7-28.3-28.3S70.9,88.6,86.5,88.6"/>
<path class="st2" d="M65.1,116.8c0-5.1,1.8-9.8,4.8-13.5c6,8,6,19.1,0,27.1C66.8,126.5,65.1,121.8,65.1,116.8 M73.6,134
	c7.9-10,7.9-24.3,0-34.3c3.7-2.8,8.2-4.3,12.9-4.3c4.6,0,9.2,1.5,12.9,4.3c-7.9,10-7.9,24.3,0,34.3c-3.7,2.8-8.2,4.3-12.9,4.3
	C81.9,138.3,77.4,136.8,73.6,134 M103.1,130.4c-6-8-6-19.1,0-27.1c3,3.7,4.8,8.4,4.8,13.5S106.1,126.7,103.1,130.4"/>
</svg>
