<?xml version="1.0" encoding="utf-8"?>
<!-- Generator: Adobe Illustrator 26.0.1, SVG Export Plug-In . SVG Version: 6.00 Build 0)  -->
<svg version="1.1" id="Layer_1" xmlns="http://www.w3.org/2000/svg" xmlns:xlink="http://www.w3.org/1999/xlink" x="0px" y="0px"
	 viewBox="0 0 114.5 181" style="enable-background:new 0 0 114.5 181;" xml:space="preserve">
<style type="text/css">
	.st0{fill:#005C5C;}
	.st1{fill:#C4CED4;}
	.st2{fill:#FFFFFF;}
	.st3{fill:#D50032;}
	.st4{fill:#0C2C56;}
</style>
<path class="st0" d="M63.3,65.6c1.4,0.4,2.7,0.9,4,1.5l3.4-2.2c-2.7-1.5-5.6-3.1-8.2-4.8L63.3,65.6L63.3,65.6z M48.1,109L48.1,109
	L48.1,109L48.1,109z M46.4,108.1L46.4,108.1C46.4,108.1,46.4,108.1,46.4,108.1L46.4,108.1z"/>
<path class="st0" d="M99.8,91.2c-1.4,0.2-3,0.5-4.6,0.8l-0.2,0c3.9,7.1,6.3,15.9,6.3,26.8c0,32.9-21.4,56.2-46.1,56.2
	c-15.8,0-22-6.2-25.9-7.4l-17.1,6.2v-54c4.1,0.5,7.6,4.2,9.5,8c7.6,15.2,16.2,28.1,32.5,28.1c9.6,0,16-8.9,16-21.4
	c0-7-3.1-12.6-7.8-17.3c0,0.3-0.1,0.5-0.1,0.8c-0.4,2.3-0.7,4.4-1,5.9c2.7,3.9,4.1,7.7,4.1,11.4c0,4.7-1.2,15.6-12.4,15.6
	c-15.4,0-24-19.4-27.8-27.7c-2.9-6.4-10.9-10.6-15.6-11.1l-2.5-0.3V181c0,0,20-7.2,21.5-7.7c0.5,0.2,1,0.4,1,0.4
	c6,2.5,15,6.4,24.5,6.4c25.6,0,52.1-22.7,52.1-60.8C106.3,108.8,104.1,99.4,99.8,91.2L99.8,91.2z M79.4,69.7
	c-0.4,0.8-0.7,1.6-1.2,2.5c0,0-0.3,0.6-0.7,1.5c0,0.1-0.1,0.2-0.1,0.3c4.3,2.7,8.3,5.9,11.7,9.8c0.1,0,0.2,0,0.2,0
	c2.2,0.4,4.4,0.7,6.6,1.1C91.7,79.1,86.2,74,79.4,69.7L79.4,69.7z M77.2,8.4C71.7,4.2,62.8,0,52.9,0C34.3,0,6.6,17.2,6.6,54
	c0,12.5,2.7,22.8,8.5,31.5c1.5-0.2,3.1-0.5,4.8-0.8l0.6-0.1c-5.4-7.5-8.8-17.4-8.8-31.7c0-27.6,22.1-48.2,41.7-48.2
	c8,0,17.8,5.4,23.1,9.6c3.1-1.1,14.5-5.7,14.5-5.7v49.1c-3.4-0.8-7.2-3.4-8.9-6.4c-7.4-12.7-12.1-27.1-24.6-27.1
	c-9.6,0-14.2,6.9-14.2,16.5c0,6.7,3.5,12.7,9.1,17.9c0-0.1,0-0.3,0.1-0.4c0.3-2.1,0.6-4,0.8-5.4c-3.2-3.4-5.2-7.3-5.2-11.6
	c0-3.6,0.8-11.8,8.5-11.8c8.4,0,12.6,7.9,14.4,12.6c1.7,4.5,5.6,11.7,11.1,16.6l3-1.8l-1.4,3c0,0,0,0,0,0c2.9,2.2,6.2,3.8,9.8,4.2
	l2.4,0.2V1.4C96,1.4,79.1,7.7,77.2,8.4L77.2,8.4z"/>
<path class="st1" d="M46.2,68.4L46.2,68.4L46.2,68.4 M66.3,108.9L66.3,108.9L66.3,108.9 M73.5,134.6c0,16.5-9.1,25-18.8,25
	c-28.2,0-34.4-30.9-39.1-33.8v43c4-0.9,12.8-5.5,12.8-5.5c3.9,0,11.4,8.5,25.5,8.5c21.3,0,43.8-20.9,43.8-52.2
	c0-11.6-2.7-20.2-6.9-26.9c-3,0.5-7.4,1.2-11,1.8c-0.7,2.4-1.7,4.6-3,6.6c0.3,0.8,0.6,1.3,0.6,1.3c0.6,1.3,7.6,18.3,7.6,18.3
	s-11.6-7.3-17.8-11.2c-1.2,0.6-2.5,1.1-3.8,1.4c-0.1,0.7-0.2,1.5-0.4,2.4C69.2,118.5,73.5,124.9,73.5,134.6L73.5,134.6z M75.3,101.7
	L75.3,101.7 M34.5,94.3c-0.1,0-0.1,0-0.2,0c0.1,0.1,0.2,0.1,0.2,0.2C34.5,94.5,34.5,94.4,34.5,94.3L34.5,94.3z M36.5,73.2
	c-4.8-10.8-6.4-16.7-6.4-16.7S40.9,63.2,47,67c1.3-0.6,2.7-1.2,4.2-1.5c0.1-0.8,0.3-1.7,0.4-2.6c-7-5.3-11.9-11.8-11.9-22.2
	c0-12.6,7.7-20.2,16.1-20.2c20.3,0,22.8,25.2,31.6,31.5V13.5c-3.3,1.3-10.6,4.6-10.6,4.6c-1.9,0-4.4-2.4-8.1-5
	c-3.8-2.4-8.8-4.8-15.3-4.8c-18,0-38.4,18-38.4,44.8C15,66.9,18.6,76.6,24,84c2.8-0.4,6.9-1.1,10.4-1.7c0.7-2.5,1.7-4.9,3.1-7
	C36.9,74.1,36.5,73.2,36.5,73.2L36.5,73.2z M63.5,109.9L63.5,109.9L63.5,109.9 M79.9,82.3c0.7,0.1,1.4,0.2,2.2,0.4
	c-0.9-0.8-1.8-1.5-2.8-2.3C79.5,81,79.7,81.6,79.9,82.3L79.9,82.3z M35.3,82.2L35.3,82.2L35.3,82.2"/>
<path class="st1" d="M42.2,71.3c-0.3,0.3-0.6,0.6-0.9,0.9C41.6,71.8,41.9,71.5,42.2,71.3C42.2,71.2,42.2,71.2,42.2,71.3z"/>
<path class="st2" d="M50.9,77.7c-0.2,0.1-0.4,0.2-0.4,0.2c0,0-0.4-0.1-0.6-0.2h0h0c0,0-0.1-0.1-0.1-0.1c0,0,0.8-0.5,1.2-0.8
	c0.2-1.4,0.5-3.1,0.7-4.9c0.3-1.8,0.6-3.8,0.9-5.9c-0.6,0.1-1.1,0.2-1.7,0.4c-1.1,0.3-2.1,0.7-3.2,1.2c-0.6,0.3-1.1,0.5-1.7,0.8h0
	c-0.3,0.2-0.6,0.3-0.9,0.5l-0.1,0c-0.3,0.2-0.5,0.3-0.8,0.5c0,0-0.1,0.1-0.1,0.1c-0.2,0.2-0.5,0.3-0.7,0.5c-0.1,0.1-0.1,0.1-0.2,0.1
	c-0.3,0.2-0.6,0.4-0.8,0.7c0.1,0.1,0.3,0.3,0.3,0.3c0,0-0.4,1.5-0.6,1.6c0,0-0.2-0.2-0.3-0.3c-0.2,0.1-1.2,0.4-1.6,0.5
	c-0.2,0.3-0.5,0.6-0.7,0.8c0,0,0,0,0,0c-0.2,0.3-0.4,0.6-0.7,0.9c-0.4,0.5-0.7,1-1.1,1.6c-0.3,0.4-0.5,0.8-0.7,1.3
	c0,0.1-0.1,0.1-0.1,0.2c-0.2,0.4-0.4,0.9-0.7,1.3c0,0,0,0,0,0c-0.2,0.5-0.4,1-0.6,1.4c0,0,0,0,0,0c-0.2,0.5-0.3,1-0.5,1.5v0
	c-0.2,0.5-0.3,1.1-0.4,1.7c2.7-0.4,5.3-0.8,7.6-1.2c3.9-0.6,6.9-1,7.9-1.1c0-0.1,0-0.3,0.1-0.5C50.6,80.3,50.7,79.2,50.9,77.7
	L50.9,77.7z M41.6,74.1c0,0-0.5-0.3-0.4-0.5c0,0,1.8-0.6,1.9-0.5l0.4,0.2l0.4-1.4l0-0.1l0.1,0.1c0,0,0.5,0.3,0.5,0.4
	c0,0-0.4,1.6-0.6,1.7c0,0-0.3-0.2-0.4-0.3C43.4,73.6,41.7,74.1,41.6,74.1L41.6,74.1z M43,74.8c0,0,1.8-0.7,1.8-0.6l0.4,0.2l0.2-1.5
	l0-0.2l0.1,0.1c0,0,0.5,0.2,0.5,0.3c0,0-0.3,1.6-0.4,1.7c0,0-0.3-0.1-0.4-0.3c-0.1,0-1.7,0.6-1.8,0.6C43.5,75.3,42.9,75,43,74.8
	L43,74.8z M45,75.9c0,0,1.7-0.7,1.8-0.7l0.5,0.2l0.1-1.5l0-0.2l0.1,0.1c0,0,0.5,0.2,0.6,0.3c0,0-0.1,1.6-0.3,1.7
	c0,0-0.3-0.1-0.5-0.2c0,0-1.7,0.7-1.8,0.7C45.6,76.3,45,76.1,45,75.9L45,75.9z M47.9,77.2c0,0-0.4-0.1-0.6-0.3h0
	c0,0-0.1-0.1-0.1-0.1c0,0,1.5-0.9,1.6-0.9l0.5,0.1l-0.2-1.4l0-0.2l0.2,0.1c0,0,0.6,0.2,0.7,0.2c0,0,0.2,1.6,0,1.7
	c0,0-0.4-0.1-0.5-0.2C49.5,76.4,48,77.2,47.9,77.2L47.9,77.2z"/>
<path class="st2" d="M41.9,72.3l0.3-1c-0.3,0.3-0.7,0.6-1,0.9c0.2-0.1,0.4-0.1,0.4-0.1L41.9,72.3L41.9,72.3z M35,92.8
	c0.1,0.6,0.3,1.1,0.4,1.7c0.6,2.1,1.5,4,2.6,5.8c0.3,0.5,0.7,1.1,1.1,1.6c0.3,0.3,0.5,0.7,0.8,1c0,0.1,0.1,0.1,0.1,0.1
	c0.3,0.3,0.6,0.6,0.9,1c0-0.2-0.1-0.3-0.1-0.3c0,0,0.4-0.3,0.6-0.3c0,0,0.5,1.3,0.5,1.4l-0.1,0.1c0.2,0.2,0.3,0.3,0.5,0.5l1,0.4
	l-0.2,0.1c0,0-0.1,0-0.1,0.1c0.3,0.2,0.5,0.4,0.8,0.6c0,0,0.1,0.1,0.1,0.1c0.2,0.2,0.5,0.3,0.7,0.5l0.1,0c0.3,0.2,0.5,0.3,0.8,0.5
	c0,0,0,0,0,0c0.3,0.2,0.6,0.3,0.9,0.5c0,0,0,0,0,0c0.6,0.3,1.1,0.6,1.7,0.8l0,0c0.9,0.4,1.9,0.8,2.9,1c0.6,0.2,1.1,0.3,1.7,0.4
	c-0.3-2-0.6-3.9-0.9-5.7c-0.2-1.1-0.3-2.1-0.5-3.1c-0.2,0-0.3,0.1-0.4,0.1c0,0-1-0.9-1.3-1.2l0,0l0,0c0,0,0-0.1,0-0.1
	c0,0,0.4-0.1,0.6-0.1c0-0.2,0.2-1.3,0.3-1.4c0,0,0.2-0.1,0.5-0.1c-0.1-0.9-0.2-1.7-0.3-2.4l0,0c0,0,0,0,0,0
	c-0.1-0.5-0.1-0.9-0.1-1.1c-1-0.1-3.9-0.5-7.8-1.1C40.3,93.7,37.7,93.3,35,92.8L35,92.8z M43.2,103.6l-0.3,0.2l1.7,0.7l-0.1,0.1
	c0,0-0.3,0.3-0.5,0.3c0,0-1.3-0.5-1.7-0.8h0c0,0-0.1-0.1-0.1-0.1c0,0,0.2-0.2,0.3-0.3c-0.1-0.3-0.4-1.2-0.4-1.3c0,0,0.4-0.3,0.6-0.3
	C42.8,102.2,43.2,103.4,43.2,103.6L43.2,103.6z M47.7,101c0-0.2,0.2-1.3,0.3-1.4c0,0,0.6-0.2,0.7-0.1c0,0-0.2,1.4-0.3,1.5l-0.4,0.1
	l1.6,1l-0.2,0.1c0,0-0.5,0.2-0.6,0.2c0,0-1.2-0.8-1.5-1.1l0,0h0c0,0-0.1-0.1-0.1-0.1C47.2,101.2,47.5,101,47.7,101L47.7,101z
	 M45.9,100.4c0,0,0.5-0.3,0.7-0.2c0,0,0,1.4,0,1.5l-0.3,0.2l1.6,0.9l-0.2,0.1c0,0-0.5,0.2-0.6,0.2c0,0-1.2-0.7-1.5-1l0,0l0,0
	c0,0-0.1-0.1-0.1-0.1c0,0,0.2-0.1,0.4-0.2C45.9,101.6,45.8,100.5,45.9,100.4L45.9,100.4z M44.8,101.1c0,0,0.2,1.3,0.1,1.5l-0.3,0.2
	l1.7,0.8l-0.2,0.1c0,0-0.4,0.3-0.6,0.3c0,0-1.3-0.6-1.6-0.9l0,0h0c0,0-0.1-0.1-0.1-0.1c0,0,0.2-0.1,0.4-0.2c0-0.2-0.1-1.3-0.1-1.4
	C44.1,101.3,44.6,101,44.8,101.1L44.8,101.1z"/>
<path class="st2" d="M50.4,100.3l0.8,0.7L51,99.6c0,0.3-0.1,0.5-0.1,0.5L50.4,100.3L50.4,100.3z M64.1,95.2c0,0.2,0,0.4-0.1,0.6
	c-0.1,0.7-0.2,1.8-0.4,3.1c0.2-0.1,0.2-0.2,0.3-0.2c0,0,0.4,0.1,0.6,0.2l0,0c0,0,0.1,0.1,0.1,0.1c0,0-0.7,0.4-1.1,0.7
	c-0.2,1.4-0.5,3.1-0.8,5c-0.3,1.8-0.6,3.7-0.9,5.6h0c0.6-0.1,1.1-0.3,1.7-0.4h0c1-0.3,1.9-0.6,2.8-1h0c0.6-0.3,1.1-0.5,1.7-0.8
	c0.3-0.2,0.6-0.4,0.9-0.6c0,0,0,0,0,0c0.3-0.2,0.6-0.3,0.8-0.5l0.1-0.1c0.2-0.2,0.5-0.3,0.7-0.5c0.1,0,0.1-0.1,0.2-0.1
	c0.3-0.2,0.6-0.4,0.8-0.7c-0.1-0.1-0.1-0.1-0.1-0.2c0,0,0.4-1.5,0.6-1.6c0,0,0.2,0.2,0.3,0.3c0.1,0,0.7-0.2,1.2-0.3
	c0.3-0.3,0.6-0.6,0.9-1c0-0.1,0.1-0.1,0.1-0.1c0.3-0.3,0.5-0.7,0.8-1h0c0.4-0.5,0.7-1,1.1-1.6c0.5-0.9,1-1.8,1.4-2.7c0,0,0,0,0,0
	c0.2-0.4,0.4-0.9,0.5-1.3c0,0,0-0.1,0-0.1c0.2-0.5,0.3-0.9,0.5-1.4c0.2-0.5,0.3-1.1,0.4-1.7c-2.7,0.4-5.2,0.8-7.4,1.2
	C68.1,94.7,65.2,95.1,64.1,95.2L64.1,95.2z M65.2,102.2l-0.2,0c0,0-0.6-0.2-0.7-0.2c0,0-0.2-1.6-0.1-1.7c0,0,0.4,0.1,0.6,0.2
	c0,0,1.5-0.9,1.6-0.9c0,0,0.4,0.1,0.6,0.3h0h0c0,0,0.1,0.1,0.1,0.1c0,0-1.5,0.9-1.6,0.9l-0.5-0.2L65.2,102.2L65.2,102.2z
	 M67.6,101.5l-0.5-0.2l-0.1,1.6l-0.1-0.1c0,0-0.5-0.2-0.6-0.3c0,0,0.1-1.6,0.3-1.7c0,0,0.3,0.1,0.5,0.2c0,0,1.7-0.7,1.8-0.7
	c0,0,0.6,0.2,0.6,0.4C69.4,100.8,67.7,101.5,67.6,101.5L67.6,101.5z M69.6,102.5l-0.4-0.2l-0.3,1.6l-0.1-0.1c0,0-0.5-0.2-0.6-0.4
	c0,0,0.3-1.6,0.4-1.7c0,0,0.3,0.1,0.4,0.2c0.1,0,1.8-0.6,1.8-0.6c0,0,0.3,0.2,0.5,0.3h0h0c0,0.1,0,0.1,0,0.1
	C71.5,101.9,69.7,102.5,69.6,102.5L69.6,102.5z M73.3,103c0,0-1.8,0.6-1.9,0.5l-0.4-0.2l-0.4,1.6l-0.1-0.1c0,0-0.4-0.3-0.5-0.4
	c0,0,0.4-1.6,0.6-1.7c0,0,0.3,0.2,0.4,0.3c0.1,0,1.8-0.5,1.9-0.5C72.8,102.5,73.3,102.8,73.3,103L73.3,103z"/>
<path class="st2" d="M72.3,105c0.1-0.1,0.3-0.3,0.4-0.4l-0.2-0.2L72.3,105z M62.7,71.9c0.2,1.1,0.3,2.2,0.5,3.2c0.1,0,0.3-0.1,0.3,0
	c0,0,1,0.8,1.3,1.2l0.1,0l0,0c0,0,0.1,0.1,0,0.1c0,0-0.4,0.1-0.6,0.1c0,0.2-0.2,1.3-0.3,1.4c0,0-0.2,0.1-0.4,0.1
	c0.1,1,0.3,1.8,0.3,2.4c0.1,0.5,0.1,0.9,0.1,1.2c1,0.1,3.9,0.5,7.7,1.1c2.3,0.3,4.8,0.7,7.5,1.2c-0.1-0.3-0.1-0.6-0.2-0.9
	c-0.1-0.3-0.1-0.5-0.2-0.8c-0.6-2-1.4-4-2.5-5.7c-0.3-0.5-0.7-1.1-1.1-1.6c-0.3-0.3-0.5-0.7-0.8-1c0-0.1-0.1-0.1-0.1-0.1
	c-0.3-0.3-0.6-0.7-0.9-1c0.1,0.2,0.1,0.3,0.1,0.4c0,0-0.4,0.3-0.6,0.3c0,0-0.5-1.3-0.4-1.4l0.1-0.1l-0.4-0.4L71.2,71l0.1-0.1
	c0,0,0.1-0.1,0.2-0.2c-0.3-0.2-0.5-0.4-0.8-0.6c0,0-0.1-0.1-0.1-0.1c-0.2-0.2-0.5-0.4-0.7-0.5c0,0,0,0,0,0c-0.6-0.4-1.1-0.7-1.7-1.1
	c-0.5-0.3-1.1-0.6-1.7-0.8c-1-0.4-1.9-0.8-3-1.1c-0.6-0.2-1.1-0.3-1.7-0.4C62.1,68.1,62.4,70.1,62.7,71.9L62.7,71.9z M66.7,75.7
	c0,0.2-0.2,1.3-0.3,1.4c0,0-0.6,0.2-0.7,0.1c0,0,0.2-1.4,0.3-1.5l0.4-0.1l-1.6-1l0.2-0.1c0,0,0.5-0.2,0.6-0.2c0,0,1.2,0.8,1.5,1.1
	l0,0l0,0c0,0,0.1,0.1,0.1,0.1C67.2,75.5,66.9,75.6,66.7,75.7L66.7,75.7z M68.5,76.3c0,0-0.5,0.3-0.7,0.2c0,0,0-1.4,0-1.5l0.3-0.2
	l-1.6-0.9l0.2-0.1c0,0,0.5-0.2,0.6-0.2c0,0,1.2,0.7,1.5,1l0,0l0,0c0,0,0.1,0.1,0.1,0.1c0,0-0.2,0.1-0.4,0.2
	C68.5,75.1,68.6,76.2,68.5,76.3L68.5,76.3z M70.3,75.4c0,0-0.5,0.3-0.6,0.2c0,0-0.2-1.3-0.1-1.5l0.3-0.2l-1.7-0.8l0.2-0.1
	c0,0,0.4-0.2,0.5-0.3c0,0,1.3,0.6,1.6,0.9h0l0,0c0,0,0.1,0.1,0.1,0.1c0,0-0.2,0.1-0.4,0.2C70.2,74.2,70.4,75.3,70.3,75.4L70.3,75.4z
	 M72,72.5L72,72.5C72.1,72.6,72.1,72.6,72,72.5c0.1,0.1-0.1,0.2-0.3,0.3c0.1,0.2,0.4,1.2,0.4,1.3c0,0-0.4,0.3-0.6,0.3
	c0,0-0.5-1.3-0.5-1.4l0.3-0.2l-1.7-0.7l0.1-0.1c0,0,0.4-0.3,0.5-0.3C70.4,71.8,71.7,72.3,72,72.5z"/>
<path class="st2" d="M64,76.4l-0.7-0.6c0.1,0.4,0.1,0.8,0.2,1.1c0-0.2,0.1-0.4,0.1-0.4C63.5,76.5,64,76.4,64,76.4z"/>
<path class="st3" d="M72.1,103.8c-0.2,0.1-0.6,1.6-0.6,1.6c0,0,0.1,0.1,0.1,0.2c0.1-0.1,0.1-0.1,0.2-0.1c0.1-0.1,0.1-0.1,0.2-0.2
	c0,0,0.1-0.1,0.1-0.1c0.1-0.1,0.2-0.1,0.2-0.2l0.2-0.6l0.2,0.2c0.1-0.1,0.2-0.2,0.2-0.2c0.1-0.1,0.2-0.2,0.3-0.3
	c0.1-0.1,0.2-0.2,0.3-0.3c-0.5,0.1-1,0.3-1.2,0.3C72.3,104,72.1,103.8,72.1,103.8L72.1,103.8z"/>
<path class="st3" d="M70.5,102.8c-0.2,0.1-0.6,1.7-0.6,1.7c0.1,0.1,0.5,0.4,0.5,0.4l0.1,0.1l0.4-1.6l0.4,0.2c0.1,0,1.9-0.5,1.9-0.5
	c0-0.2-0.5-0.5-0.5-0.5c-0.1,0-1.8,0.5-1.9,0.5C70.8,102.9,70.5,102.8,70.5,102.8L70.5,102.8z M71.4,101.7L71.4,101.7L71.4,101.7
	c-0.1-0.2-0.5-0.3-0.5-0.3c-0.1,0-1.7,0.6-1.8,0.6c-0.2-0.1-0.4-0.2-0.4-0.2c-0.2,0.1-0.4,1.7-0.4,1.7c0.1,0.1,0.6,0.4,0.6,0.4
	l0.1,0.1l0.3-1.6l0.4,0.2c0.1,0,1.8-0.6,1.8-0.6C71.5,101.8,71.4,101.8,71.4,101.7L71.4,101.7z M68.8,100.3c-0.1,0-1.7,0.7-1.8,0.7
	c-0.2-0.1-0.5-0.2-0.5-0.2c-0.2,0.1-0.3,1.7-0.3,1.7c0.1,0.1,0.6,0.3,0.6,0.3l0.1,0.1l0.1-1.6l0.5,0.2c0.1,0,1.8-0.7,1.8-0.7
	C69.4,100.6,68.8,100.3,68.8,100.3z M67.2,99.8C67.2,99.8,67.2,99.7,67.2,99.8L67.2,99.8L67.2,99.8c-0.2-0.3-0.6-0.4-0.6-0.4
	c-0.1,0-1.6,0.9-1.6,0.9c-0.2-0.1-0.6-0.2-0.6-0.2c-0.1,0.1,0.1,1.7,0.1,1.7c0.1,0.1,0.7,0.2,0.7,0.2l0.2,0l-0.2-1.6l0.5,0.1
	C65.7,100.7,67.2,99.8,67.2,99.8L67.2,99.8z M64.5,98.9L64.5,98.9c-0.2-0.2-0.6-0.2-0.6-0.2c0,0-0.1,0.1-0.3,0.2
	c0,0.3-0.1,0.6-0.1,0.9C63.9,99.5,64.6,99,64.5,98.9C64.6,99,64.5,99,64.5,98.9z M50.1,100.2c-0.2,0-0.6,0.1-0.6,0.1
	c0,0,0,0.1,0,0.1l0,0l0,0c0.3,0.4,1.3,1.2,1.3,1.2c0.1,0,0.2,0,0.4-0.1c0-0.2-0.1-0.4-0.1-0.6l-0.8-0.7l0.5-0.1c0,0,0.1-0.3,0.1-0.5
	c0-0.3-0.1-0.6-0.1-1c-0.2,0-0.5,0.1-0.5,0.1C50.3,98.8,50.2,99.9,50.1,100.2L50.1,100.2z M47.3,101.3L47.3,101.3
	c0.4,0.4,1.5,1.1,1.5,1.1c0.1,0,0.6-0.2,0.6-0.2l0.2-0.1l-1.6-1l0.4-0.1c0.1-0.1,0.3-1.5,0.3-1.5c-0.2-0.1-0.7,0.1-0.7,0.1
	c-0.1,0.1-0.3,1.2-0.3,1.4C47.5,101,47.2,101.2,47.3,101.3C47.2,101.2,47.2,101.2,47.3,101.3L47.3,101.3L47.3,101.3z M45.5,102
	C45.5,102,45.5,102,45.5,102l0,0.1l0,0c0.3,0.3,1.5,1,1.5,1c0.1,0,0.6-0.2,0.6-0.2l0.2-0.1l-1.6-0.9l0.3-0.2c0.1-0.1,0-1.5,0-1.5
	c-0.2-0.1-0.7,0.2-0.7,0.2c-0.1,0.1,0,1.2,0,1.4C45.7,101.9,45.5,102,45.5,102L45.5,102z M44.1,101.3c0,0.1,0.1,1.2,0.1,1.4
	c-0.2,0.1-0.4,0.2-0.4,0.2c0,0,0,0.1,0.1,0.1h0l0,0c0.3,0.3,1.6,0.9,1.6,0.9c0.1,0,0.6-0.3,0.6-0.3l0.2-0.1l-1.7-0.8l0.3-0.2
	c0-0.1-0.1-1.5-0.1-1.5C44.6,101,44.1,101.3,44.1,101.3L44.1,101.3z M42.2,102.4c0,0.1,0.3,1.1,0.4,1.3c-0.1,0.1-0.3,0.3-0.3,0.3
	c0,0,0,0.1,0.1,0.1h0c0.3,0.3,1.7,0.8,1.7,0.8c0.1,0,0.5-0.3,0.5-0.3l0.1-0.1l-1.7-0.7l0.3-0.2c0-0.1-0.4-1.4-0.4-1.4
	C42.6,102.1,42.2,102.4,42.2,102.4L42.2,102.4z M41.3,103.3c-0.2,0-0.6,0.3-0.6,0.3c0,0,0,0.2,0.1,0.3c0.1,0.1,0.2,0.2,0.3,0.3
	c0.1,0.1,0.3,0.3,0.4,0.4c0,0.1,0.1,0.1,0.1,0.1l0.1-0.1C41.8,104.6,41.3,103.3,41.3,103.3z M43.2,105.6l-1-0.4
	c0.1,0.1,0.2,0.2,0.2,0.2c0.1,0.1,0.2,0.2,0.2,0.2l0.1,0c0.1,0.1,0.1,0.1,0.2,0.1c0.1-0.1,0.1-0.1,0.1-0.1L43.2,105.6L43.2,105.6z
	 M42.3,72.8c0.2-0.1,0.6-1.6,0.6-1.6c0-0.1-0.2-0.2-0.3-0.3c-0.1,0.1-0.2,0.2-0.3,0.3l-0.3,1L41.7,72c0,0-0.2,0-0.4,0.1
	c-0.1,0.1-0.2,0.2-0.3,0.3c-0.1,0.1-0.2,0.2-0.3,0.3c-0.1,0.1-0.2,0.2-0.3,0.3c0.4-0.1,1.4-0.4,1.6-0.5
	C42.1,72.7,42.3,72.8,42.3,72.8z"/>
<path class="st3" d="M43.9,73.9c0.2-0.1,0.6-1.7,0.6-1.7c0-0.1-0.5-0.4-0.5-0.4l-0.1-0.1l0,0.1l-0.4,1.4L43,73.1
	c-0.1,0-1.9,0.5-1.9,0.5c0,0.2,0.4,0.5,0.4,0.5c0.1,0,1.8-0.5,1.9-0.5C43.6,73.7,43.9,73.9,43.9,73.9L43.9,73.9z M45.7,74.9
	c0.2-0.1,0.4-1.7,0.4-1.7c-0.1-0.1-0.5-0.3-0.5-0.3l-0.1-0.1l0,0.2l-0.2,1.5l-0.4-0.2c-0.1,0-1.8,0.6-1.8,0.6c0,0.2,0.5,0.5,0.5,0.5
	c0.1,0,1.8-0.6,1.8-0.6C45.5,74.8,45.7,74.9,45.7,74.9L45.7,74.9z M47.9,75.8c0.2-0.1,0.3-1.7,0.3-1.7c-0.1-0.1-0.6-0.3-0.6-0.3
	l-0.1-0.1l0,0.2l-0.1,1.5l-0.5-0.2c-0.1,0-1.8,0.7-1.8,0.7c0,0.2,0.6,0.4,0.6,0.4c0.1,0,1.8-0.7,1.8-0.7
	C47.6,75.7,47.9,75.8,47.9,75.8L47.9,75.8z M50,74.8c-0.1-0.1-0.7-0.2-0.7-0.2l-0.2-0.1l0,0.2l0.2,1.4L48.9,76
	c-0.1,0-1.6,0.9-1.6,0.9c0,0,0,0.1,0.1,0.1h0c0.2,0.2,0.6,0.3,0.6,0.3c0.1,0,1.6-0.9,1.6-0.9c0.2,0.1,0.5,0.2,0.5,0.2
	C50.2,76.4,50,74.8,50,74.8L50,74.8z M49.9,77.7L49.9,77.7L49.9,77.7c0.2,0.2,0.6,0.2,0.6,0.2c0,0,0.2-0.1,0.4-0.2
	c0-0.3,0.1-0.6,0.1-0.9C50.6,77.1,49.8,77.6,49.9,77.7C49.9,77.7,49.9,77.7,49.9,77.7L49.9,77.7z M64.3,76.5c0.2,0,0.6-0.1,0.6-0.1
	c0,0,0-0.1,0-0.1l0,0l-0.1,0c-0.3-0.4-1.3-1.2-1.3-1.2c0,0-0.2,0-0.3,0c0,0.2,0.1,0.5,0.1,0.7l0.7,0.6l-0.5,0.1c0,0-0.1,0.2-0.1,0.4
	c0.1,0.4,0.1,0.8,0.2,1.1c0.2,0,0.4-0.1,0.4-0.1C64.1,77.8,64.2,76.8,64.3,76.5L64.3,76.5z M67.2,75.4L67.2,75.4
	c-0.4-0.4-1.5-1.1-1.5-1.1c-0.1,0-0.6,0.2-0.6,0.2l-0.2,0.1l1.6,1L66,75.7c-0.1,0.1-0.3,1.5-0.3,1.5c0.1,0.1,0.7-0.1,0.7-0.1
	c0.1-0.1,0.3-1.2,0.3-1.4c0.2-0.1,0.5-0.2,0.5-0.2C67.2,75.5,67.2,75.5,67.2,75.4L67.2,75.4L67.2,75.4z M68.9,74.6L68.9,74.6
	L68.9,74.6c-0.4-0.3-1.6-1-1.6-1c-0.1,0-0.6,0.2-0.6,0.2l-0.2,0.1l1.6,0.9L67.9,75c-0.1,0.1,0,1.5,0,1.5c0.2,0.1,0.7-0.2,0.7-0.2
	c0.1-0.1,0-1.2,0-1.4C68.7,74.8,69,74.7,68.9,74.6C69,74.7,68.9,74.6,68.9,74.6L68.9,74.6z M70.6,73.8
	C70.6,73.7,70.6,73.7,70.6,73.8L70.6,73.8L70.6,73.8c-0.4-0.4-1.7-1-1.7-1c-0.1,0-0.5,0.3-0.5,0.3l-0.2,0.1l1.7,0.8l-0.3,0.2
	c-0.1,0.1,0.1,1.5,0.1,1.5c0.2,0.1,0.6-0.2,0.6-0.2c0-0.1-0.1-1.2-0.1-1.4C70.4,73.9,70.6,73.8,70.6,73.8L70.6,73.8z M69.9,72.1
	l-0.1,0.1l1.7,0.7l-0.3,0.2c0,0.1,0.5,1.4,0.5,1.4c0.2,0.1,0.6-0.3,0.6-0.3c0-0.1-0.3-1.1-0.4-1.3c0.1-0.1,0.3-0.3,0.3-0.3
	s0-0.1-0.1-0.1h0c-0.3-0.3-1.7-0.8-1.7-0.8C70.3,71.8,69.9,72.1,69.9,72.1z M73.1,73.3c0.2,0.1,0.6-0.3,0.6-0.3c0,0,0-0.2-0.1-0.4
	l-0.3-0.4c-0.1-0.1-0.2-0.2-0.3-0.3c0-0.1-0.1-0.1-0.1-0.1l-0.1,0.1C72.6,72.1,73.1,73.3,73.1,73.3L73.1,73.3z M71.2,71l1.1,0.4
	c-0.1-0.1-0.2-0.2-0.3-0.3c-0.1-0.1-0.1-0.1-0.2-0.2c-0.1-0.1-0.1-0.1-0.2-0.2c-0.1,0-0.1-0.1-0.2-0.1c-0.1,0.1-0.2,0.2-0.2,0.2
	L71.2,71L71.2,71z"/>
<path class="st4" d="M50.5,96.3C50.5,96.3,50.5,96.3,50.5,96.3C50.5,96.3,50.5,96.3,50.5,96.3L50.5,96.3L50.5,96.3z M36.5,73.2
	c0,0,0.4,0.9,1,2.2c0.3-0.5,0.7-1,1.1-1.5c-3.2-7-6.3-14-6.2-14.1c0,0,6.6,4.1,13,8.1c0.5-0.3,1.1-0.6,1.6-0.9
	c-6.1-3.8-16.9-10.5-16.9-10.5S31.7,62.5,36.5,73.2z M82,116.8c0,0-6.5-4.1-13.1-8.2c-0.5,0.3-1.1,0.6-1.7,0.9
	c6.2,3.9,17.8,11.2,17.8,11.2s-7-17-7.6-18.3c0,0-0.2-0.5-0.6-1.3c-0.3,0.5-0.7,1-1.1,1.5C78.9,109.8,82.1,116.7,82,116.8L82,116.8z
	"/>
<path class="st1" d="M41.6,70.6c1.2-1,2.4-1.9,3.8-2.7c-6.5-4-13-8.1-13-8.1L41.6,70.6L41.6,70.6z M72.6,70.6c1.2,1,2.2,2.1,3.2,3.4
	c3.2-6.9,6.6-13.9,6.5-14.2L72.6,70.6L72.6,70.6z M41.9,106.1c-1.2-1-2.3-2.1-3.2-3.3c-3.2,7-6.3,14-6.2,14L41.9,106.1L41.9,106.1z
	 M72.6,105.9c-1.2,1-2.4,1.9-3.8,2.7c6.6,4.2,13.1,8.2,13.1,8.2L72.6,105.9z"/>
<path class="st2" d="M63.9,81.5c-0.2,0.2-0.8,0.8-1.6,1.6c-1.9,1.9-4.8,5-5.1,5.3c-0.2,0.2-0.8,0.9-1.6,1.8c0.8-0.9,1.5-1.5,1.6-1.8
	c0.2-0.3,3.2-3.3,5.1-5.3C63.1,82.3,63.7,81.7,63.9,81.5L63.9,81.5z"/>
<path class="st2" d="M57.2,88.4C57.2,88.4,57.3,88.4,57.2,88.4C57.3,88.4,57.3,88.4,57.2,88.4C57.2,88.4,57.2,88.4,57.2,88.4z"/>
<path class="st1" d="M63.9,81.5c0,0,0.1,0,0.2,0c0-0.2-0.1-0.6-0.1-1.2c-0.1-0.6-0.2-1.4-0.3-2.4c0-0.3-0.1-0.7-0.2-1.1
	c-0.1-0.4-0.1-0.7-0.2-1.1c0-0.2-0.1-0.5-0.1-0.7c-0.2-1-0.3-2-0.5-3.2c-0.3-1.8-0.6-3.8-0.9-5.8c0-0.3-0.1-0.6-0.1-0.9
	C59.7,53.1,57.4,39,57.2,39v49.3c0.3-0.3,3.2-3.3,5.1-5.3C63.1,82.3,63.7,81.7,63.9,81.5L63.9,81.5z"/>
<path class="st0" d="M34.9,83.9c0.1-0.6,0.2-1.1,0.4-1.7v0c0.1-0.5,0.3-1,0.5-1.5c0,0,0,0,0-0.1c0.2-0.5,0.4-1,0.6-1.4c0,0,0,0,0,0
	c0.2-0.4,0.4-0.9,0.7-1.3c0-0.1,0.1-0.1,0.1-0.2c0.2-0.4,0.5-0.9,0.7-1.3c0.3-0.5,0.7-1.1,1.1-1.6c0.2-0.3,0.4-0.6,0.7-0.9
	c0,0,0,0,0,0c0.2-0.3,0.5-0.6,0.7-0.8c0.1-0.1,0.2-0.2,0.3-0.3c0.1-0.1,0.2-0.2,0.3-0.3c0.1-0.1,0.2-0.2,0.3-0.3
	c0.3-0.3,0.6-0.6,0.9-0.9c0,0,0-0.1,0.1-0.1c0.1-0.1,0.2-0.2,0.3-0.3c0.3-0.2,0.5-0.4,0.8-0.7c0,0,0.1-0.1,0.2-0.1
	c0.2-0.2,0.5-0.3,0.7-0.5c0,0,0.1-0.1,0.1-0.1c0.3-0.2,0.5-0.4,0.8-0.5l0.1,0c0.3-0.2,0.6-0.4,0.9-0.5h0c0.5-0.3,1.1-0.6,1.7-0.8
	c1-0.5,2.1-0.8,3.2-1.2c0.6-0.2,1.1-0.3,1.7-0.4c-0.3,2.1-0.6,4.1-0.9,5.9c-0.3,1.8-0.5,3.5-0.7,4.9c0,0.3-0.1,0.6-0.1,0.9
	c-0.2,1.4-0.4,2.6-0.5,3.3c0,0.2,0,0.4-0.1,0.5c0,0,0.1,0,0.1,0c1.7,1.6,6.2,6.2,6.7,6.8V39c-0.1,0-2.5,14.1-4.4,26.1
	c-0.6,0.1-1.1,0.2-1.7,0.4c-1.5,0.4-2.9,0.9-4.2,1.5c-0.6,0.3-1.1,0.6-1.6,0.9c-1.3,0.8-2.6,1.7-3.8,2.7l-9.2-10.9
	c-0.1,0,3.1,7.1,6.2,14.1c-0.4,0.5-0.7,1-1.1,1.5c-1.4,2.1-2.4,4.4-3.1,7c-0.1,0.5-0.3,1.1-0.4,1.7C34.3,83.9,34.6,83.9,34.9,83.9
	L34.9,83.9z"/>
<path class="st1" d="M57.2,88.4L57.2,88.4c-0.2,0.2-0.8,0.9-1.6,1.7c-0.1,0.1-0.2,0.2-0.4,0.4c-0.3,0.3-0.7,0.7-1,1.1
	c-0.7,0.7-1.3,1.4-2,2c-0.7,0.7-1.3,1.2-1.7,1.6c0,0-0.1,0-0.1,0c0,0.2,0.1,0.6,0.1,1.1l0,0c0.1,0.6,0.2,1.4,0.3,2.4
	c0,0.3,0.1,0.6,0.1,1c0.1,0.4,0.1,0.9,0.2,1.3c0,0.2,0.1,0.4,0.1,0.6c0.2,1,0.3,2,0.5,3.1c0.3,1.8,0.6,3.7,0.9,5.7
	c0.1,0.3,0.1,0.6,0.1,0.9c1.9,12.1,4.3,26.4,4.4,26.4L57.2,88.4L57.2,88.4z"/>
<path class="st0" d="M68.8,108.6c1.4-0.8,2.6-1.7,3.8-2.7l9.3,10.9c0.1-0.1-3-7-6.2-14.2c0.4-0.5,0.7-1,1.1-1.5c1.3-2,2.3-4.2,3-6.6
	c0.1-0.5,0.3-1.1,0.4-1.7l-0.9,0.2c-0.1,0.6-0.3,1.1-0.4,1.7c-0.1,0.5-0.3,1-0.5,1.4c0,0,0,0.1,0,0.1c-0.2,0.4-0.3,0.9-0.5,1.3
	c0,0,0,0,0,0c-0.4,0.9-0.9,1.8-1.4,2.7c-0.3,0.5-0.7,1.1-1.1,1.6h0c-0.3,0.3-0.5,0.7-0.8,1c0,0-0.1,0.1-0.1,0.1
	c-0.3,0.3-0.6,0.6-0.9,1c-0.1,0.1-0.2,0.2-0.3,0.3c-0.1,0.1-0.2,0.2-0.3,0.3c-0.1,0.1-0.2,0.2-0.2,0.2c-0.1,0.1-0.3,0.3-0.4,0.4
	c-0.1,0.1-0.2,0.1-0.2,0.2c0,0-0.1,0-0.1,0.1c-0.1,0.1-0.1,0.1-0.2,0.2c-0.1,0.1-0.1,0.1-0.2,0.1c-0.3,0.2-0.6,0.4-0.8,0.7
	c-0.1,0-0.1,0.1-0.2,0.1c-0.2,0.2-0.5,0.4-0.7,0.5c0,0-0.1,0.1-0.1,0.1c-0.3,0.2-0.6,0.4-0.8,0.5c0,0,0,0,0,0
	c-0.3,0.2-0.6,0.4-0.9,0.6c-0.5,0.3-1.1,0.6-1.7,0.8h0c-0.9,0.4-1.8,0.8-2.8,1h0c-0.6,0.2-1.1,0.3-1.7,0.4h0c0.3-2,0.6-3.9,0.9-5.6
	c0.3-1.8,0.5-3.5,0.8-5c0-0.3,0.1-0.6,0.1-0.9c0.2-1.3,0.3-2.4,0.4-3.1c0-0.2,0.1-0.5,0.1-0.6c-0.1,0-0.1,0-0.2,0
	c-1.7-1.5-5.9-5.9-6.6-6.7c0,0-0.1-0.1-0.1-0.1l0,49.3c0.1,0,2.5-14.3,4.5-26.4c0.6-0.1,1.1-0.2,1.7-0.4c1.3-0.4,2.6-0.8,3.8-1.4
	C67.7,109.2,68.3,108.9,68.8,108.6L68.8,108.6z"/>
<path class="st1" d="M57.2,88.3c-0.5-0.7-5-5.3-6.7-6.8c0,0-0.1,0-0.1,0c-1,0.1-4,0.5-7.9,1.1c-2.3,0.3-4.9,0.8-7.6,1.2
	c-0.3,0.1-0.6,0.1-0.9,0.1c-11.8,1.9-25.5,4.2-25.5,4.4L57.2,88.3L57.2,88.3z"/>
<path class="st4" d="M95.1,92c1.6-0.3,3.2-0.5,4.6-0.8c9.6-1.7,14.7-3,14.7-3S105.7,86.7,96,85c-2.2-0.4-4.4-0.8-6.6-1.1l-0.2,0
	c-3.4-3.9-7.4-7.1-11.7-9.8c0-0.1,0.1-0.2,0.1-0.3c0.4-0.9,0.7-1.5,0.7-1.5c0.4-0.9,0.8-1.8,1.2-2.5c3.5-7.7,4.3-10,4.3-10l1.4-3
	l-14.4,8.2l-3.4,2.2c0.6,0.3,1.1,0.6,1.6,0.9c6.5-4.1,13.2-8.4,13.4-8.2c0,0.3-3.4,7.3-6.5,14.2c0.4,0.5,0.7,1,1.1,1.5
	c1,1.5,1.8,3.2,2.4,4.9c0.9,0.7,1.9,1.5,2.8,2.3c-0.7-0.1-1.5-0.2-2.2-0.4c0.1,0.6,0.3,1.1,0.4,1.7c10.7,1.7,23.2,3.8,25.8,4.3
	c0.3,0.1,0.5,0.1,0.5,0.1c0,0.1-14.3,2.5-26.4,4.4c-0.1,0.6-0.2,1.1-0.4,1.7c3.6-0.6,8-1.3,11-1.8c4.2,6.7,6.9,15.3,6.9,26.9
	c0,31.3-22.5,52.2-43.8,52.2c-14.1,0-21.6-8.5-25.5-8.5c0,0-8.9,4.7-12.8,5.5v-43c4.7,2.9,10.9,33.8,39.1,33.8
	c9.7,0,18.8-8.5,18.8-25c0-9.7-4.3-16.1-10.5-21.3c0.1-0.8,0.3-1.6,0.4-2.4c-0.6,0.1-1.1,0.3-1.7,0.4c-1.9,12.1-4.3,26.4-4.5,26.4
	c-0.1,0-2.5-14.3-4.4-26.4c-0.6-0.1-1.1-0.2-1.7-0.4c0.2,1,0.3,2.1,0.5,3.2l1.9,12c2,12.4,3.6,20,3.6,20s1.6-7.6,3.7-20l0.4-2.3
	c0.3-1.5,0.6-3.7,1-5.9c0-0.3,0.1-0.5,0.1-0.8c4.6,4.7,7.8,10.3,7.8,17.3c0,12.6-6.4,21.4-16,21.4c-16.3,0-24.9-12.9-32.5-28.1
	c-1.9-3.8-5.4-7.6-9.5-8v54l17.1-6.2c3.8,1.2,10,7.4,25.9,7.4c24.7,0,46.1-23.3,46.1-56.2c0-10.9-2.3-19.7-6.3-26.8L95.1,92L95.1,92
	z"/>
<path class="st4" d="M28,93.3c0.2,0.1,0.5,0.1,0.7,0.1c2.4,2,4.9,3.9,7.6,5.6c-0.7-1.4-1.4-2.9-1.8-4.5c-0.1-0.1-0.2-0.1-0.2-0.2
	c0.1,0,0.1,0,0.2,0c-0.2-0.5-0.3-1.1-0.4-1.7c-11.8-1.9-25.5-4.2-25.5-4.3C8.5,88.2,22.2,85.9,34,84c0.1-0.6,0.2-1.1,0.4-1.7
	c-3.5,0.5-7.6,1.2-10.4,1.7C18.6,76.6,15,66.9,15,53.1C15,26.4,35.3,8.3,53.3,8.3c6.6,0,11.6,2.4,15.3,4.8c3.7,2.6,6.2,5,8.1,5
	c0,0,7.3-3.2,10.6-4.6V52c-8.8-6.4-11.3-31.5-31.6-31.5c-8.5,0-16.1,7.6-16.1,20.2c0,10.5,4.9,17,11.9,22.2
	c-0.1,0.9-0.3,1.8-0.4,2.6c0.5-0.1,1.1-0.3,1.7-0.4c1.9-12,4.2-26.1,4.4-26.1c0.2-0.1,2.5,14.1,4.4,26.1c0.6,0.1,1.1,0.2,1.7,0.4
	c-0.3-1.7-0.6-3.6-0.9-5.5l-1.5-9.6c-2-12.4-3.8-18.9-3.8-18.9s-1.5,6.5-3.5,18.9c0,0-0.1,0.8-0.3,2.2c-0.2,1.4-0.5,3.3-0.8,5.4
	c0,0.1,0,0.3-0.1,0.4c-5.6-5.2-9.1-11.2-9.1-17.9c0-9.6,4.6-16.5,14.2-16.5c12.5,0,17.2,14.3,24.6,27.1c1.7,3,5.5,5.5,8.9,6.4V8.4
	c0,0-11.4,4.7-14.5,5.7C71.1,10,61.3,4.6,53.3,4.6c-19.6,0-41.6,20.6-41.6,48.2c0,14.3,3.4,24.2,8.8,31.7l-0.6,0.1
	c-1.7,0.3-3.3,0.6-4.8,0.8C5.5,87.1,0,88.2,0,88.2s7.5,1.7,20.3,3.8c0.2,0,0.3,0.1,0.5,0.1C20.8,92.1,24.1,92.7,28,93.3z
	 M45.6,108.7c-6.5,4.2-13,8.3-13,8.2c-0.1-0.1,3-7,6.2-14c-0.4-0.5-0.8-1-1.1-1.5c-0.5,1.1-0.8,1.8-0.8,1.8l-0.6,1.2
	c-4.6,10.2-7.6,16.2-7.6,16.2s4.3-1.9,16-9.4c0,0,0.6-0.4,1.5-1c0.3-0.2,0.7-0.4,1-0.6C46.7,109.3,46.1,109,45.6,108.7L45.6,108.7z"
	/>
<path class="st0" d="M52.8,111.3c0-0.3-0.1-0.6-0.1-0.9c-0.6-0.1-1.1-0.2-1.7-0.4c-1-0.3-2-0.6-2.9-1h0v0c-0.6-0.3-1.1-0.5-1.7-0.8
	l0,0h0c-0.3-0.2-0.6-0.3-0.9-0.5c0,0,0,0,0,0c-0.3-0.2-0.5-0.3-0.8-0.5c0,0-0.1,0-0.1,0c-0.2-0.2-0.5-0.3-0.7-0.5
	c0,0-0.1-0.1-0.1-0.1c-0.3-0.2-0.5-0.4-0.8-0.6c-0.1-0.1-0.1-0.1-0.2-0.1l-0.1,0c-0.1-0.1-0.2-0.2-0.2-0.2c-0.1-0.1-0.2-0.1-0.2-0.2
	c-0.2-0.2-0.3-0.3-0.5-0.5c0,0-0.1-0.1-0.1-0.1c-0.1-0.1-0.3-0.2-0.4-0.4c-0.1-0.1-0.2-0.2-0.3-0.3c-0.3-0.3-0.6-0.6-0.9-1
	c0,0,0-0.1-0.1-0.1c-0.3-0.3-0.5-0.6-0.8-1c-0.4-0.5-0.7-1-1.1-1.6c-1.1-1.8-2-3.8-2.6-5.8c-0.2-0.5-0.3-1.1-0.4-1.7
	c2.7,0.4,5.4,0.9,7.6,1.2c3.9,0.6,6.8,1,7.8,1.1c0,0,0.1,0,0.1,0c0.4-0.4,1-1,1.7-1.6c0.6-0.6,1.3-1.3,2-2c0.4-0.4,0.7-0.7,1-1.1
	c0.1-0.1,0.2-0.2,0.4-0.4c0.8-0.9,1.5-1.5,1.6-1.8H8.6c0,0.1,13.7,2.4,25.5,4.3c0.1,0.6,0.2,1.1,0.4,1.7c0,0.1,0,0.1,0,0.2
	c0.4,1.6,1,3.1,1.8,4.5c-2.6-1.8-5.2-3.6-7.6-5.6c-0.2,0-0.5-0.1-0.7-0.1l-7.2-1.2c-0.2,0-0.3-0.1-0.5-0.1c4.3,4.5,9.6,8.6,16,12.3
	l0.6-1.2c0,0,0.3-0.7,0.8-1.8c0.3,0.5,0.7,1,1.1,1.5c1,1.2,2,2.3,3.2,3.3l-9.4,10.7c0.1,0.1,6.5-4,13-8.2c0.5,0.3,1.1,0.6,1.7,0.9
	c-0.4,0.2-0.7,0.4-1,0.6c2,1.3,3.8,2.6,5.5,3.9c-0.2-1.1-0.3-2.2-0.5-3.2C51.7,111.1,52.3,111.2,52.8,111.3L52.8,111.3z"/>
<path class="st1" d="M57.2,88.4C57.3,88.4,57.3,88.4,57.2,88.4c0.8,0.9,5,5.3,6.7,6.8c0.1,0,0.1,0,0.2,0c1-0.1,3.9-0.5,7.8-1.1
	c2.2-0.3,4.7-0.7,7.4-1.2l0.9-0.2c12.1-1.9,26.4-4.3,26.4-4.4C106.6,88.3,57.2,88.4,57.2,88.4z"/>
<path class="st0" d="M61.6,65.2c0,0.3,0.1,0.6,0.1,0.9c0.6,0.1,1.1,0.3,1.7,0.4c1,0.3,2,0.7,3,1.1c0.6,0.2,1.1,0.5,1.7,0.8
	c0.6,0.3,1.2,0.7,1.7,1.1c0,0,0,0,0,0c0.2,0.2,0.5,0.3,0.7,0.5c0,0,0.1,0.1,0.1,0.1c0.3,0.2,0.5,0.4,0.8,0.6
	c0.1,0.1,0.1,0.1,0.2,0.1c0.1,0.1,0.1,0.1,0.2,0.2c0.1,0.1,0.1,0.1,0.2,0.2c0.1,0.1,0.2,0.2,0.3,0.3c0.1,0.1,0.3,0.2,0.4,0.4
	c0,0,0.1,0.1,0.1,0.1c0.1,0.1,0.2,0.2,0.3,0.3c0.1,0.1,0.2,0.2,0.3,0.4c0.3,0.3,0.6,0.6,0.9,1c0,0,0.1,0.1,0.1,0.2
	c0.3,0.3,0.5,0.7,0.8,1c0.4,0.5,0.7,1,1.1,1.6c1.1,1.8,1.9,3.7,2.5,5.7c0.1,0.3,0.2,0.5,0.2,0.8c0.1,0.3,0.1,0.6,0.2,0.9
	c-2.7-0.4-5.3-0.8-7.5-1.2c-3.8-0.6-6.7-1-7.7-1.1c-0.1,0-0.1,0-0.2,0c-0.2,0.2-0.8,0.8-1.6,1.6c-1.9,1.9-4.9,5-5.1,5.3l0,0h0
	l49.3,0c0,0-0.2-0.1-0.5-0.1c-2.6-0.5-15.1-2.6-25.8-4.3c-0.1-0.6-0.2-1.1-0.4-1.7c-0.2-0.6-0.4-1.3-0.6-1.9
	c-0.6-1.8-1.4-3.4-2.4-4.9c-0.3-0.5-0.7-1-1.1-1.5c-0.9-1.2-2-2.3-3.2-3.4l9.7-10.8c-0.1-0.2-6.9,4-13.4,8.2
	c-0.5-0.3-1.1-0.6-1.6-0.9c-1.3-0.6-2.6-1.1-4-1.5C62.8,65.4,62.2,65.3,61.6,65.2L61.6,65.2z"/>
</svg>
