<?xml version="1.0" encoding="utf-8"?>
<!-- Generator: Adobe Illustrator 26.0.1, SVG Export Plug-In . SVG Version: 6.00 Build 0)  -->
<svg version="1.1" id="Layer_1" xmlns="http://www.w3.org/2000/svg" xmlns:xlink="http://www.w3.org/1999/xlink" x="0px" y="0px"
	 viewBox="0 0 132.3 165.9" style="enable-background:new 0 0 132.3 165.9;" xml:space="preserve">
<style type="text/css">
	.st0{fill:none;}
	.st1{fill:#BE0A14;}
</style>
<path class="st0" d="M15,56c0,9.3,5.4,16.5,13.6,18.2v-36C20.5,40.6,15,47.8,15,56z M110.9,105.9c0-5.6-3.1-9.9-9.2-12.8
	s-13.1-3.5-16-3.5v9.8c0,0.4,0.1,0.8,0.2,1.2l1.6,3.6c0.3,0.7,0.3,1.5-0.2,2.1c-0.4,0.6-1.1,1-1.9,1H70.8c-0.7,0-1.4-0.4-1.9-1
	c-0.4-0.6-0.5-1.4-0.2-2.1l1.5-3.6c0.1-0.3,0.2-0.7,0.2-1.1v-9.9H44.9V119c11.3,3.2,22.6,4.9,32.6,4.9
	C98.1,123.8,110.9,117,110.9,105.9z"/>
<g>
	<path class="st1" d="M131.6,151.4l-7.7-8.3c-0.5-0.6-1.3-0.9-2.1-0.9s-1.5,0.3-2,0.8c-6.1,6.1-13,6.6-14.9,6.6H49.1
		c-2.5,0-4.1-1.1-4.1-3.1v-12c8,2.1,14.5,3.4,21.6,4.1c3.9,0.4,7.7,0.6,11.4,0.6c13.8,0,25.5-2.8,34-8.1c9.5-6,14.5-15.1,14.5-26.4
		c0-7.4-4.2-15-11.6-20.7c-7.7-6-18-9.5-29.1-9.8v-8.8h0.1c6.4,0,10,1.5,10.1,1.5h0.1c0,0,0.7,0.2,1,0.2c0.6,0,1.2-0.2,1.6-0.6
		c0.8-0.8,0.8-2.2,0.8-3v-8.3c-0.1-1.4-1.2-2.1-2.2-2.1H59.1c-1,0-2.1,0.7-2.2,2.1v8.3c0,0.8,0,2.2,0.8,3c0.4,0.4,1,0.6,1.6,0.6
		c0.3,0,1-0.2,1-0.2h0.1c0,0,3.7-1.5,10.1-1.5h0.1v8.7H44.9V37.5h1.3c15.9,0,39.6,2.3,58.3,8.9c0.3,0.1,0.6,0.2,0.9,0.2
		c1,0,1.9-0.5,2.4-1.3l1.2-2c1.6-2.6,3.5-5.8,6.1-10.3c0.5-0.9,0.5-1.8,0.1-2.6c-0.5-0.8-1.4-1.3-2.5-1.3c-0.3,0-0.7,0-1,0.1
		c-3.9,1-5.9,1.4-7.7,1.4s-3.3-0.4-5.9-1.1c-0.9-0.2-1.8-0.5-2.9-0.8c-7.6-1.9-27.6-6.4-48.5-6.4H45v-4.7c0-2.9,2.4-5.3,5.3-5.3h1.5
		c1.6,0,2.8-1.3,2.8-2.8V2.8c0-1.6-1.3-2.8-2.8-2.8h-30C20.3,0,19,1.3,19,2.8v6.7c0,1.6,1.3,2.8,2.8,2.8h1.5c2.9,0,5.3,2.4,5.3,5.3
		v5.2C12.3,25.7,0,40.1,0,56.7s12,30.3,28.6,33v23.5c-3.7-1.6-7.3-3.2-10.6-4.9c-1.6-0.9-3-1.6-4.1-2.4c-0.4-0.3-0.9-0.4-1.4-0.4
		h-0.2c-0.8,0-1.5,0.3-2.1,0.9l-1.5,1.7c-1.1,1.2-2.3,2.6-3.7,4.2c-1.2,1.4-2.6,2.9-4.2,4.6c-0.5,0.6-0.8,1.2-0.7,1.9
		c0,0.6,0.2,1.3,0.7,1.7c0.6,0.6,1.4,1,2.4,1h0.3c2.3-0.2,4-0.3,5.4-0.3c3.2,0.2,4.6,0.9,8,2.6c0.8,0.4,1.7,0.8,2.7,1.3
		c2,1,5.2,2.5,9.2,4.2v17.1c0,3-4.7,3.3-6.7,3.3h-1.3c-1,0.2-1.6,1.2-1.6,2.2v11c0,1.6,1.3,2.8,2.8,2.8h83.1
		c10.8,0,19.5-3.5,26.6-10.6C132.5,154.2,132.6,152.5,131.6,151.4z M44.9,89.6h25.5v9.9c0,0.4-0.1,0.7-0.2,1.1l-1.5,3.6
		c-0.3,0.7-0.2,1.5,0.2,2.1s1.1,1,1.9,1h14.7c0.8,0,1.5-0.4,1.9-1s0.5-1.4,0.2-2.1l-1.6-3.6c-0.2-0.4-0.2-0.8-0.2-1.2v-9.8
		c2.9,0.1,9.9,0.6,16,3.5s9.2,7.2,9.2,12.8c0,11-12.8,17.9-33.4,17.9c-10,0-21.3-1.7-32.6-4.9L44.9,89.6L44.9,89.6z M28.6,74.2
		C20.4,72.5,15,65.3,15,56c0-8.2,5.6-15.3,13.6-17.7V74.2z"/>
</g>
</svg>
