<?xml version="1.0" encoding="utf-8"?>
<!-- Generator: Adobe Illustrator 26.0.1, SVG Export Plug-In . SVG Version: 6.00 Build 0)  -->
<svg version="1.1" id="Layer_1" xmlns="http://www.w3.org/2000/svg" xmlns:xlink="http://www.w3.org/1999/xlink" x="0px" y="0px"
	 viewBox="0 0 149.1 138.1" style="enable-background:new 0 0 149.1 138.1;" xml:space="preserve">
<style type="text/css">
	.st0{fill:#8FBCE6;}
	.st1{fill:#092C5C;}
</style>
<path class="st0" d="M38.2,8.3H15.4l-0.1,0.1c-8.1,3.2-10.9,14.4-11.4,17c0,0,0,0.1,0,0.1l-3.5-0.2l-0.4,3l6.5,0.3l0.3-1.3
	c0.4-2.1,3-12.9,10.4-15.9h21L38.2,8.3L38.2,8.3z M96.1,41v88.2h0c0.7,0,4.5,0,9.3,0c-2,0-5,0-6.3,0V44c1.3,0,3.9-0.1,3.9-0.1
	c0.2,0,8.8-0.4,14.6,5c3.4,3.2,5.2,7.9,5.3,13.9c0-0.3,0-0.7,0-1c0-22.3-21.4-21.1-21.4-21.1c-1.1,0-3.6,0-4.8,0.1L96.1,41L96.1,41z
	 M102.3,83.2V89l1.4,0.1c2.6,0.2,24.9,2.5,25.3,19.6c0-0.4,0-0.7,0-1c0-19.1-24.6-21.4-26.7-21.6L102.3,83.2L102.3,83.2L102.3,83.2z
	 M73.4,93.8c0,0-13-2.4-15.1-2.8V11.3h21.1c6.9,2.9,9.9,15.2,10.7,19l0.3,1.3l6.5-0.3L93.1,0h-2.7l3.3,28.3l-0.3,0l-0.7,0l-2.5,0.1
	c-0.5-2.5-3.6-16.9-11.7-20.1l-0.1,0H55.4v82.4c0,0,14.2,2.6,15.2,2.8V98H23.1l0,3h50.3V93.8z M79.1,42.8c0,0-14.8-2.4-15.8-2.6
	v-4.5h0V43c0,0,13.6,2.2,15.8,2.6L79.1,42.8L79.1,42.8z M142.3,90.9c-4.9-4.8-11.4-6.8-16.2-7.6c6.7-3.3,16.7-10.6,16.7-24.2
	c0-16.1-10.8-23.5-34.1-23.5h-1.3c21.4,0,32.3,6.5,32.3,22c0,19.5-21.6,25.1-21.6,25.1v0c0,0,27.9-0.7,27.9,24.2
	c0,18.9-12.1,28.1-32.9,28.1H63.3v-4.3c0,0,0,0,0,0l0,1.3v6.1h51.4c22.2,0,34.4-10.5,34.4-29.6C149.1,101.2,146.8,95.3,142.3,90.9"
	/>
<path class="st1" d="M63.3,135h49.9c20.8,0,32.9-9.2,32.9-28.1c0-24.9-27.9-24.2-27.9-24.2v0c0,0,21.6-5.6,21.6-25.1
	c0-15.6-10.9-22-32.3-22c-0.1,0-0.2,0-0.2,0h-44v4.6c0.9,0.2,15.8,2.6,15.8,2.6v85h0c-0.4,0.1-14.9,2.6-15.8,2.8L63.3,135L63.3,135z
	 M122.8,61.9c0,0.3,0,0.7,0,1c-0.7,18.2-20.5,20.2-20.5,20.2v3c2.1,0.2,26.7,2.5,26.7,21.6c0,0.3,0,0.7,0,1
	c-0.4,10.3-7.1,20.6-23.2,20.6h-0.5c-4.8,0-8.6,0-9.3,0h0V41l0.5-0.1c1.3-0.1,3.7-0.1,4.8-0.1C101.5,40.8,122.8,39.6,122.8,61.9"/>
<path class="st1" d="M23.1,93.5V98h47.4v-4.5c-0.9-0.2-15.2-2.8-15.2-2.8V8.3h22.9l0,0l0.1,0c8.2,3.3,11.2,17.6,11.7,20.1l2.5-0.1
	l0.7,0l0.3,0L90.4,0v0l-87,0l-3,25.2l3.5,0.2c0,0,0-0.1,0-0.1c0.5-2.7,3.3-13.8,11.4-17l0.1-0.1h22.7v82.4
	C38.2,90.8,24.2,93.3,23.1,93.5"/>
</svg>
