<?xml version="1.0" encoding="utf-8"?>
<!-- Generator: Adobe Illustrator 26.0.1, SVG Export Plug-In . SVG Version: 6.00 Build 0)  -->
<svg version="1.1" id="Layer_1" xmlns="http://www.w3.org/2000/svg" xmlns:xlink="http://www.w3.org/1999/xlink" x="0px" y="0px"
	 viewBox="0 0 130.1 148.2" style="enable-background:new 0 0 130.1 148.2;" xml:space="preserve">
<style type="text/css">
	.st0{fill:#003278;}
	.st1{fill:#C0111F;}
</style>
<path class="st0" d="M17.1,42.6l0,4.3H0l6.3,7.9h18.3l0-3.1c0-17.4,1.6-28.4,19.8-30.4v-2.3C24.8,19.1,17.1,25.7,17.1,42.6 M75.9,73
	v38.2c0,2,0.5,3.9,5.8,3.9h2.7V76.6c0-7.8,10.8-10.8,10.8-10.8s-2.7-1.1-5.3-3l-4.7,1.3C85.1,64.2,75.9,66.9,75.9,73 M122,0.3v46.6
	h-12.7l6.8,8.5h14V8.8 M75.9,50.8c0,4.7,6.9,8.5,9.5,9.5l2.6,1c-2-1.8-3.6-4.1-3.6-6.9V21.9L86,22c4.6,0,8.9,1.6,12.6,4.2
	c-4.9-4.5-12.5-6.9-22.6-7V50.8L75.9,50.8z M32.3,139.4L32.3,139.4l6.7,8.8h60.2v-20.1l-7.1-8.3v19.6"/>
<path class="st1" d="M0.4,42.8h12.6c0-0.1,0-0.2,0-0.3c0-0.3,0-0.4-0.1-0.1c0-19,9.7-27.4,31.6-27.4h3.9v35.8c0,5.9-4,9.3-7.1,11.3
	c3.2,1.8,7.2,5,7.2,10.9v37.9c0,5.1-3.7,8.3-9.5,8.3h-6.5v16.1h55.4v-16.1h-6.1c-8.2,0-9.9-4.3-9.9-8V73c0-5.9,4.6-9.2,8.2-11
	c-3.6-2.1-8.2-5.8-8.2-11.2V17l1.5-2h2c21.2,0,33.3,9.6,33.3,26.4c0,0,0,0.8,0,1.4h9.2V0H0.4V42.8z"/>
</svg>
