<svg width="139" height="32" viewBox="0 0 139 32" fill="none" xmlns="http://www.w3.org/2000/svg">
<path d="M39.9779 15.4275C39.9779 20.4717 43.602 23.9299 48.3993 23.9299C53.4313 23.9299 56.1168 20.7578 56.4296 16.6755L52.1798 16.4935C51.9191 18.3136 50.9283 20.0037 48.3732 20.0037C45.9485 20.0037 44.5406 18.2096 44.5406 15.4275C44.5406 12.6453 45.9485 10.8512 48.3732 10.8512C50.9283 10.8512 51.9191 12.5413 52.1798 14.3614L56.4296 14.2054C56.1168 10.1232 53.4313 6.92505 48.3993 6.92505C43.602 6.92505 39.9779 10.3832 39.9779 15.4275Z" fill="#F6F6F6"/>
<path d="M74.9097 15.4275C74.9097 10.3832 71.1552 6.92505 66.384 6.92505C61.6127 6.92505 57.8582 10.3832 57.8582 15.4275C57.8582 20.4717 61.6127 23.9299 66.384 23.9299C71.1552 23.9299 74.9097 20.4717 74.9097 15.4275ZM70.347 15.4275C70.347 18.2096 68.8087 20.0297 66.384 20.0297C63.9592 20.0297 62.4209 18.2096 62.4209 15.4275C62.4209 12.6453 63.9592 10.8252 66.384 10.8252C68.8087 10.8252 70.347 12.6453 70.347 15.4275Z" fill="#F6F6F6"/>
<path d="M85.5402 23.6179L91.8497 7.23706H87.4435L83.3762 18.1316H83.2719L79.2046 7.23706H74.5637L80.8732 23.6179H85.5402Z" fill="#F6F6F6"/>
<path d="M106.185 19.9777H97.6068V17.1436H104.047V13.5554H97.6068V10.8772H105.95V7.23706H93.2527V23.6179H106.185V19.9777Z" fill="#F6F6F6"/>
<path d="M122.81 23.6179C122.263 23.0199 122.185 22.2918 121.95 19.8477C121.767 17.9496 120.777 16.9876 119.082 16.6495C121.089 16.3895 122.576 14.8294 122.576 12.4373C122.576 9.23917 120.464 7.23706 116.214 7.23706H107.923V23.6179H112.277V18.1836H115.223C116.709 18.1836 117.518 18.5996 117.648 20.4717C117.778 22.1618 117.987 23.1759 118.326 23.6179H122.81ZM112.277 14.7774V10.7732H115.432C117.309 10.7732 118.248 11.4753 118.248 12.8013C118.248 14.3094 117.309 14.7774 115.432 14.7774H112.277Z" fill="#F6F6F6"/>
<path d="M124.17 17.8196C124.17 21.7718 127.351 23.9299 131.81 23.9299C135.642 23.9299 138.667 22.1878 138.667 18.7036C138.667 16.0255 137.102 14.2314 133.661 13.6334L130.558 13.0874C129.541 12.9054 128.916 12.6193 128.916 11.8653C128.916 10.9553 129.75 10.3832 131.21 10.3832C132.905 10.3832 134.13 11.1633 134.26 12.8533L138.328 12.7753C138.249 9.13516 135.799 6.92505 131.262 6.92505C127.169 6.92505 124.561 8.92715 124.561 12.2553C124.561 15.1155 126.439 16.6235 129.124 17.1176L132.122 17.6376C133.374 17.8716 134.339 18.0276 134.339 18.9897C134.339 19.8997 133.348 20.4457 131.81 20.4457C129.984 20.4457 128.394 19.7437 128.238 17.6896L124.17 17.8196Z" fill="#F6F6F6"/>
<path fill-rule="evenodd" clip-rule="evenodd" d="M0 16C0 24.7869 7.16711 32 16.0438 32C24.9205 32 32.0876 24.7869 32.0876 16C32.0876 7.21312 24.9205 0 16.0438 0C7.23286 0 0 7.21312 0 16ZM29.3921 11.2791H30.1154C30.5757 12.7217 30.9044 14.2955 30.8387 16.0004C30.8387 17.7053 30.5757 19.3446 30.0496 20.8528H29.3921C26.0193 20.9355 23.1231 21.7022 20.4786 22.4022C16.8335 23.3671 13.6666 24.2053 10.3894 22.9512C6.97022 21.6397 5.52365 18.8856 5.52365 16.066C5.52365 13.2463 7.03597 10.4266 10.3894 9.1807C13.6666 7.92659 16.8335 8.76485 20.4786 9.72973C23.1231 10.4297 26.0193 11.1964 29.3921 11.2791ZM8.08776 28.2622C7.99149 28.2622 7.93046 28.227 7.85308 28.1825L7.85304 28.1825C7.82472 28.1662 7.79422 28.1486 7.759 28.131C10.1261 29.7704 13.0193 30.6884 16.1097 30.6884C21.3042 30.6884 25.9069 27.9999 28.537 23.9343C26.2333 24.602 24.2597 25.4519 22.3903 26.257C18.0171 28.1403 14.2141 29.7781 8.08776 28.2622ZM16.0448 1.18072C21.3709 1.18072 25.9736 4.0004 28.6037 8.13155C26.2631 7.47318 24.2573 6.60845 22.3511 5.78665C17.9918 3.90731 14.1532 2.25248 8.02295 3.80368C7.92432 3.83646 7.80925 3.86925 7.69418 3.90204C7.57911 3.93482 7.46404 3.96761 7.36541 4.0004C9.79828 2.22991 12.8229 1.18072 16.0448 1.18072Z" fill="#FF5100"/>
</svg>
