<svg width="142" height="35" viewBox="0 0 142 35" fill="none" xmlns="http://www.w3.org/2000/svg">
<path fill-rule="evenodd" clip-rule="evenodd" d="M0 34.9998H142V29.1592H0V34.9998Z" fill="#FF5B00"/>
<path fill-rule="evenodd" clip-rule="evenodd" d="M111.571 1.41602H117.106V19.4344H126.061V24.7786H111.571V1.41602Z" fill="#071426"/>
<path fill-rule="evenodd" clip-rule="evenodd" d="M127.51 1.41602V24.7786H142V19.595H132.842V15.638H142V10.4544H132.842V6.59958H142V1.41602H127.51Z" fill="#071426"/>
<path fill-rule="evenodd" clip-rule="evenodd" d="M5.54959 6.65822V13.7108H8.56347C10.5631 13.7108 12.0555 12.309 12.0555 10.2064C12.0555 8.10378 10.5631 6.65822 8.56347 6.65822H5.54959ZM0 1.48926H8.78082C14.2 1.48926 17.6486 5.41708 17.6486 10.1626C17.6486 14.9373 14.229 18.9674 8.73735 18.9674H5.54959V25.2022H0V1.48926Z" fill="#071426"/>
<path fill-rule="evenodd" clip-rule="evenodd" d="M19.083 25.2022H24.6616V1.48926H19.083V25.2022Z" fill="#071426"/>
<path fill-rule="evenodd" clip-rule="evenodd" d="M26.3135 1.48926H32.1963L41.9914 15.682V1.48926H47.4686V25.2022H41.9914L31.8196 10.0604V25.2022H26.3135V1.48926Z" fill="#071426"/>
<path fill-rule="evenodd" clip-rule="evenodd" d="M78.2735 17.7117L80.36 13.0538L82.4465 17.7117H78.2735ZM85.7792 25.2023H92.2271L80.5484 0H80.1571L68.4639 25.2023H74.9118L76.071 22.6033H84.62L85.7792 25.2023Z" fill="#071426"/>
<path fill-rule="evenodd" clip-rule="evenodd" d="M106.123 16.047C105.166 18.2957 103.268 19.9165 100.515 19.9165C96.8348 19.9165 94.3426 16.9669 94.3426 13.3603C94.3426 9.69534 96.9073 6.73122 100.588 6.73122C103.123 6.73122 104.964 8.05996 106.007 10.1772L110.861 7.02325C108.803 3.51887 105.036 1.18262 100.559 1.18262C93.7485 1.18262 88.7061 6.43919 88.7061 13.3603C88.7061 13.3749 88.7061 13.4041 88.7061 13.4187L93.2124 23.1142C95.154 24.6328 97.6608 25.5381 100.559 25.5381C105.5 25.5381 109.267 22.7784 111.238 18.8505L106.123 16.047Z" fill="#071426"/>
<path fill-rule="evenodd" clip-rule="evenodd" d="M66.783 24.662L70.362 16.9669V1.48926H64.8703V15.682L55.0897 1.48926H49.1924V25.2022H54.713V10.0604L64.8703 25.2022H66.5367L66.783 24.662Z" fill="#071426"/>
</svg>
