<?xml version="1.0" encoding="utf-8"?>
<!-- Generator: Adobe Illustrator 26.0.1, SVG Export Plug-In . SVG Version: 6.00 Build 0)  -->
<svg version="1.1" id="Layer_1" xmlns="http://www.w3.org/2000/svg" xmlns:xlink="http://www.w3.org/1999/xlink" x="0px" y="0px"
	 viewBox="0 0 132.871 132.871" enable-background="new 0 0 132.871 132.871" xml:space="preserve">
<g>
	<circle cx="66.436" cy="66.436" r="66.436"/>
	<g>
		<path fill="#FFFFFF" d="M117.798,59.018c0.9-1,1.7-2,2.2-3.1c4.3-8.3,0.5-17.6-1.2-20.8c-12-19.8-34.7-31.5-58.3-29.2
			C84.998,7.218,108.698,29.118,117.798,59.018 M37.798,34.718c5.9,2.5,13.6,6.6,21.8,11c12.9,6.9,26.3,14.1,35.3,16.4
			c8.1,2,14.7,1.8,19.3-0.5c0-0.1,0-0.2-0.1-0.3c-0.1-0.3-0.1-0.7-0.2-1c-3.9-16.5-24.6-52.6-60.3-52.6c-1.5,0-3,0.1-4.6,0.2
			c-13.8,4-25.2,12.5-32.9,23.5c1.3-0.4,3-0.8,5.3-0.8C25.998,30.718,31.398,32.118,37.798,34.718 M28.898,84.518
			c14.5,4.8,22.6,6.3,33.1,6.3c3.9,0,8.3-0.2,13.8-0.7c15.5-1.3,31.8-6.4,40.6-10.7c0-4.2-0.4-8.6-1.2-12.9
			c-2.6,1.6-5.5,2.3-9.2,2.3c-3.6,0-8-0.7-15.2-2.4c-8.4-2-20.5-9.2-31.2-15.5c-5.8-3.5-11.4-6.8-15.9-9
			c-17.4-8.6-27.3-7.4-29.9-6.8c-6.2,10.3-9.3,22.5-8.5,35C6.598,71.718,12.598,79.118,28.898,84.518 M120.598,77.118
			c0.2-0.1,0.3-0.2,0.4-0.3c5.1-3.6,6.5-9.4,6.7-10.3c0-4.9-0.6-9.8-1.9-14.7c0-0.2-0.1-0.4-0.2-0.6c-0.5,4.5-2.7,8.7-6.6,12.5
			C120.098,68.118,120.598,72.618,120.598,77.118 M122.098,80.418c-0.2,0.2-0.4,0.3-0.6,0.5c-0.3,0.2-0.7,0.5-1,0.7
			c-0.3,3.9-1,7.7-2.1,11.4c1.9-0.7,2.6,0.1,2.8,0.6c0,0.1,0,0.1,0.1,0.2c3.2-6.2,5.3-13,6.1-20
			C126.298,76.118,124.698,78.618,122.098,80.418 M119.698,95.618c-0.1-0.2-0.1-0.3-0.2-0.3c-0.2,0-0.6,0.1-1.5,0.6
			c-0.2,0.1-0.3,0.2-0.5,0.3c-0.1,0.1-0.3,0.2-0.4,0.3c-1.5,4-3.5,7.9-5.9,11.3c3.4-3.6,6.3-7.5,8.7-11.8h-0.1L119.698,95.618z
			 M56.998,121.418c7-0.8,12.8-2.6,19.3-5.9c1-0.5,1.9-1,2.8-1.5c0.8-0.4,1.6-0.8,2.4-1.2c5.6-2.9,11.6-6.1,18.8-10
			c2.6-1.4,5.1-2.8,7.6-4.2l2.9-1.6c1.1-0.6,2.2-1.2,3.2-1.8c0.1-0.1,0.2-0.1,0.4-0.2c0.9-3.4,1.5-7.1,1.8-11
			c-7.1,3.6-17.8,6.7-33.5,9.9c-20.1,4-39.8,2.2-57.3-5.2c-11.8-5-17.4-11.9-19.7-15.6c0.3,2.7,0.8,5.4,1.5,8.1
			c3.9,15.3,13.3,27.8,25.6,35.9l-0.1-0.1l1.7,1c1.4,0.8,3.1,1.5,5.2,2.1c3.8,1.1,7.6,1.7,11.6,1.7
			C52.998,121.718,54.998,121.618,56.998,121.418 M112.698,99.718c-0.8,0.6-1.6,1.1-2.5,1.7c-2.3,1.6-4.6,3-6.9,4.4
			c-1.1,0.7-2.3,1.4-3.4,2.1c-8.2,5.1-18,10.7-28.5,13.9c-3.1,1-5.9,1.6-8.6,2.1c-2.5,0.4-4.9,0.6-7.3,0.6h-0.5
			c-3.1,0-6.1-0.3-9-0.8c11,3.9,23.2,4.7,35.4,1.7c7-1.7,13.4-4.6,19-8.3c5.4-4.2,9.8-10.3,12.6-17.6
			C112.898,99.518,112.798,99.618,112.698,99.718"/>
		<path fill="#FFFFFF" d="M90.698,78.818c0-4.5,0-11.1-5.3-16.2c0.6-1,1.1-2.1,1.4-3.3c0.9-2.7,1-5.6,0.9-7.5v-12.3v-0.2
			c-0.1-4.6-0.8-9.4-4.6-13.6c-3.4-3.8-8.4-5.8-14.6-5.8h-16.6c-1.8,0-3.6,0.7-4.9,2c-1.3,1.3-2,3.1-2,4.9l0.2,80.6
			c0,2.4,1.2,4.6,3.3,5.9c1.1,0.7,2.4,1.1,3.8,1.1h16.9c6.1,0,11.2-1.8,15.2-5.2h0.1c5.6-5,6.2-10.9,6.3-16.6v-0.1L90.698,78.818z"
			/>
		<path d="M86.398,79.318c0-4.5,0-10-4.7-13.9c-1-0.8-2.2-1.5-3.5-2.1c2.2-1.5,3.7-3.5,4.5-6c0.7-2.3,0.7-5,0.7-6.1v-12.8
			c-0.1-3.5-0.5-7.6-3.4-10.8c-2.5-2.8-6.4-4.3-11.3-4.2h-17.4c-0.5,0-1,0.2-1.4,0.6s-0.6,0.9-0.6,1.4l0.1,84.1
			c0,0.7,0.4,1.3,0.9,1.7c0.3,0.2,0.7,0.3,1.1,0.3h17.7c1.9,0,7.6,0,12.4-4.1c4.2-3.9,4.7-8.4,4.8-13.5L86.398,79.318z
			 M74.098,100.718c-1.2,0.9-2.8,1.4-6.6,1.5c0,0-6.7,0-7.2,0c-0.6,0-0.8-0.4-0.8-0.9c0-4.9-0.1-31.9-0.1-32.1s0.1-0.6,0.6-0.6
			s3.3,0,3.3,0c3.5,0.2,7.2,0.4,9.6,2c1.4,0.8,2.3,2,2.9,3.6c0.5,1.6,0.6,3.4,0.6,5.1v11.9
			C76.498,96.518,76.198,99.118,74.098,100.718 M68.298,58.918c-1.4,0.4-2.1,0.5-5.2,0.6h-3.1c-0.5,0-0.7-0.2-0.7-0.6
			c0-0.2,0-25.9,0-25.9c0-0.4,0.2-0.7,0.6-0.7h4.8h0.4c2.3,0.1,4.8,0.2,6.5,1.2c0.8,0.5,1.2,1,1.5,1.8c0.2,0.8,0.4,2.1,0.6,4.4v10
			c0,0.2,0,0.4,0,0.8C73.498,53.018,73.398,57.318,68.298,58.918"/>
	</g>
</g>
</svg>
