<?xml version="1.0" encoding="utf-8"?>
<!-- Generator: Adobe Illustrator 26.0.1, SVG Export Plug-In . SVG Version: 6.00 Build 0)  -->
<svg version="1.1" id="Layer_1" xmlns="http://www.w3.org/2000/svg" xmlns:xlink="http://www.w3.org/1999/xlink" x="0px" y="0px"
	 viewBox="0 0 194.148 194.017" enable-background="new 0 0 194.148 194.017" xml:space="preserve">
<g>
	<path fill="#061922" d="M177.946,47.617c-0.6-0.6-1.9-1.4-1.9-1.4c-0.5-0.2-0.6-0.6-0.6-0.6c-0.3-1.6-0.6-2.2-0.6-2.2
		c-8.4-10.8-19.1-19.8-31.4-26.2c-2.2-1-4.2-1.1-4.2-1.1c-0.4,0-0.7-0.3-0.7-0.3c-0.7-1-2.9-2.1-3.7-2.5
		c-11.4-4.6-23.8-7.2-36.9-7.2c-4,0-7.9,0.2-11.7,0.7l5.1-6.8c-20.2-0.6-34.7,15.2-34.7,15.2l0,0c-4.9,2.3-9.5,4.9-13.8,7.9l0,0
		c-10.5,3.8-13.6,12.3-13.6,12.3c-2.7,2.2-7.9,9.3-7.9,9.3c-1.5,0.9-3.1,2.3-3.6,2.8c-2.4,2.5-6.9,8.2-9.2,18
		c-0.1,0.2-0.1,0.3-0.2,0.5c-0.1,0.5-0.2,1.2-0.3,1.8c-0.2,1.2-0.4,2.4-0.6,3.6l0.1-0.1c0,0.3-0.1,0.4-0.1,0.4
		c-0.3,0.2-1.8,6.2-1.8,6.2c-0.3,0.8-3,9-3,9l0,0c0,0,0,0,0,0.1c-7.2,25.3,2.4,40.6,4,43c12.8,37.2,48.8,64,91.3,64
		c32.4,0,61.1-15.6,78.5-39.5l0,0c0.5-0.8,0.7-2.4,0.7-2.4c0-0.5,0.4-0.8,0.4-0.8c1.3-0.7,1.8-1.2,1.9-1.3
		c9.3-14.4,14.7-31.5,14.7-49.9C194.246,80.417,188.246,62.517,177.946,47.617z"/>
	<path fill="#FFFFFF" d="M57.546,29.217c0.3-0.3,0.5-0.5,0.7-0.7c0.3-0.3,0.4-0.4,0.5-0.4l0.1-0.1c0.1-4.8,1.2-8.7,1.2-8.7
		c8.8-12.2,23.2-15.5,23.2-15.5c1.8-0.5,0.6,0.3,0.6,0.3c-9.1,10.2-8.1,18.6-8.1,18.6l8.7,31.7c0,0-7-2.5-12.5-13.6
		c-2.5,22.2,18.4,40.2,18.4,40.2c0.9,0.8-0.5-0.1-0.5-0.1c-5.2-2.6-11.3-8.1-12.9-9.7c0.4,1.7,10.6,52.9,10.7,53.1
		c0,0.2,0.2,0.7,0.3,1.1l3.5-8.8l2.9,25.9c-13.3,12.3-27.4,7.5-28.3,7.1c0.4,0.6,0.6,1,0.6,1s11.5,22.5,58.2,20.1c0,0,1.1,0,1,0.1
		c0,0,0,0.1-0.3,0.2c-0.9,0.3-2.3,0.5-2.3,0.5c-56.4,15.1-85.7-33-86.9-35.2c-0.4-0.5-3.1-4.3-4.6-8.2c-0.1-0.1-0.1-0.5,0.1-0.2
		c0,0,6,6.2,22.9,7.8c0.1,0,0.2,0,0.2,0c-13.1-14.6-18.7-25.2-19.5-26.8l0,0c0,0-1.6-2.4-3.4-9.1c0,0,0-0.3,0.2,0
		c0.6,1.3,5,7.7,10.2,9.2l0,0c-4.5-7.2-7.3-18.6-7.6-20.3c6.1,8.5,16.9,9.2,16.9,9.2s0-0.1-0.1-0.1v0.1c-17.8-17.7-13.9-37-6.7-51
		C49.346,38.617,54.746,32.317,57.546,29.217z"/>
	<g>
		<g>
			<path fill="#BBC4CA" d="M110.746,146.617l-11.7,12.3l0,0l0,0l14.4-11l-7.4-25.7l3.3-30.9l-5.7,29.5L110.746,146.617
				L110.746,146.617z"/>
		</g>
		<g>
			<path fill="#BBC4CA" d="M107.846,84.117c0.2-0.1,0.5-0.2,0.7-0.4l0,0c0.9-0.5,2-1.3,3.2-2.5l0,0c2.3-2.4,4.6-6.3,4.6-12.5l0,0
				c0-2.8-0.5-6-1.6-9.7l0,0C114.546,63.317,113.346,79.317,107.846,84.117L107.846,84.117z"/>
		</g>
		<g>
			<path fill="#BBC4CA" d="M113.246,31.517c4.1-6.1,10.7-6.7,13.6-6.7l0,0c-2.4-0.7-4.7-1-6.7-1l0,0c-2.9,0-5.2,0.5-6.9,1.1l0,0
				c-1.2,0.4-2,0.8-2.4,0.9l0,0C111.846,27.317,112.846,30.417,113.246,31.517L113.246,31.517z"/>
		</g>
		<g>
			<path fill="#BBC4CA" d="M108.046,44.417c0.1,0,0.2,0.1,0.2,0.2l0,0c0,0.6,0,1.2,0,1.7l0,0c0,13.3-3.5,27.8-4.9,32.7l0,0
				c5.1-11.6,6.4-22.4,6.4-30.7l0,0c0-4.9-0.5-8.9-0.9-11.7l0,0c-0.2-1.4-0.5-2.6-0.7-3.3l0,0c-1.3,9.9-5.1,14.5-5.1,14.5l0,0
				c0,0.1-0.1,0.1-0.2,0.1l0,0c-0.1,0-0.1,0-0.2-0.1l0,0c-4.1-7.7-9.6-13.3-14-17.1l0,0c-3.4-2.9-6.1-4.6-7.2-5.3l0,0
				c11.8,25.7,15.3,45.6,16.2,52.1l0,0c0-0.8,0-1.5,0-2.3l0,0c0-7.8-1.3-16.7-2.7-23.7l0,0c-1.3-7-2.7-11.9-2.7-11.9l0,0
				c0-0.1,0-0.2,0.1-0.2l0,0c0.1-0.1,0.2,0,0.2,0l0,0c5.3,4.1,9.1,15.9,9.7,18.1l0,0c1-1.2,2.3-4.3,3.4-7.1l0,0c1.1-3.1,2-5.9,2-5.9
				l0,0C107.946,44.517,107.946,44.417,108.046,44.417L108.046,44.417L108.046,44.417L108.046,44.417z M103.046,47.817l0.2-0.1
				L103.046,47.817L103.046,47.817z"/>
		</g>
		<g>
			<path fill="#BBC4CA" d="M8.446,97.917c0,12.2,2.1,25,12.7,41.4l0,0c9.9,21,28.3,32.2,36.8,36.6l0,0c2.8,1.4,4.6,2.1,4.6,2.1l0,0
				c13.6,6.4,26.4,8.8,37.8,8.8l0,0c24,0,42.2-10.3,49.7-15.5l0,0c2.5-1.7,3.9-2.9,3.9-2.9l0,0l0.1,0.2l-0.1-0.2
				c0.5-0.4,0.9-0.7,1.2-1l0,0c-0.1,0.1-0.3,0.2-0.5,0.3l0,0c-0.5,0.3-1,0.6-1,0.7l0,0c-18.6,10.9-35.8,14.3-49.8,14.3l0,0
				c-21.9,0-36.2-8.2-36.2-8.2l0,0c-46.6-24.4-47.2-66.7-47.2-66.8l0,0c0-0.1,0.1-0.2,0.2-0.2l0,0c0.1,0,0.2,0,0.2,0.1l0,0
				c6,11.6,13.3,15.6,16.5,16.9l0,0c0.5,0.2,0.8,0.3,1.1,0.4l0,0c-13.5-17.1-17.4-31.4-17.4-42.2l0,0c0-14.3,6.8-22.5,6.8-22.5l0,0
				c0.1-0.1,0.2-0.1,0.2-0.1l0,0c0.1,0,0.1,0.1,0.1,0.2l0,0c-1,5.1-1.3,9.5-1.3,13.4l0,0c0,6.3,1,11,2,14.1l0,0
				c0.5,1.7,1.1,2.9,1.4,3.7l0,0c-0.4-3.4-0.6-6.8-0.6-10l0,0c0-31.9,18.7-51.6,22.7-55.4l0,0c-3,1.2-6.5,4.4-9.5,7.4l0,0
				c-3.2,3.3-5.7,6.4-5.7,6.4l0,0c-0.1,0.1-0.1,0.1-0.2,0.1l0,0c-0.1,0-0.1-0.1-0.1-0.2l0,0c0-2.5,1.5-5.7,2.3-7.3l0,0
				c-2.4,2.2-4.4,5.6-5.8,8.6l0,0c-1.6,3.3-2.4,6.1-2.4,6.1l0,0v0.1c-4.9,5.6-8.2,11.4-10.2,15.9l0,0c-2,4.4-2.8,7.5-2.8,7.5l0,0
				c-0.2,0.7-0.3,1-0.4,1.2l0,0c0,0,0,0.1-0.2,0.2l0,0c-0.3-0.1-0.2-0.2-0.2-0.3l0,0c0-0.1,0-0.2,0-0.3l0,0c0-0.4,0.1-0.9,0.1-0.9
				l0,0c0.1-6,2.6-12.8,3.6-15.3l0,0c-7.1,7.6-8.8,18-8.8,26.2l0,0c0,7.8,1.5,13.8,1.6,13.8l0,0l0,0c0,4.9,1,10.9,1.9,15.7l0,0
				c0.9,4.8,1.9,8.4,1.9,8.4l0,0c0.3,0.9,0.4,1.4,0.4,1.6l0,0v0.1l0,0c0,0.1-0.1,0.1-0.2,0.1l0,0c-0.3-0.1-0.2-0.2-0.4-0.3l0,0
				c-0.1-0.1-0.2-0.3-0.3-0.5l0,0c-0.2-0.3-0.4-0.7-0.4-0.7l0,0c-5-7.6-7.4-20.2-7.9-23.3l0,0
				C8.446,96.817,8.446,97.317,8.446,97.917L8.446,97.917z"/>
		</g>
	</g>
	<g>
		<g>
			<path fill="#0064B1" d="M165.546,44.017c0,0-22.7-30.5-65.3-30.5c-0.1,0-0.3,0-0.5,0s-0.4,0-0.6,0c-0.2,0-0.4,0.1-0.5,0.4
				c0,0.3,0.2,0.4,0.5,0.5c0,0,5.9,4.5,9.6,9.1l0.1,0.1l0.1-0.1c0,0,1-0.5,2.8-1s4.3-1,7.3-1c4,0,8.7,0.8,13.7,3.6
				c-2.1,1-12.8,6.4-15,12.5v0.1l0.1,0.1c0,0,10.8,9.8,32.9,9.8c3.5,0,7.3-0.2,11.5-0.8c0,0,0.9-0.1,1.9-0.4c0.9-0.3,2-0.7,2-1.7
				C165.946,44.617,165.846,44.317,165.546,44.017z"/>
		</g>
		<g>
			<path fill="#0064B1" d="M119.646,86.717c-0.1-0.1-0.2-0.1-0.3,0s-0.1,0.2,0,0.3c0,0,0.3,0.3,0.7,0.8c1.2,1.7,3.7,6,3.7,13.2
				c0,5.1-1.2,11.7-5,19.9c0-1.4-0.2-4.2-0.8-7.2c-0.8-4.1-2.3-8.6-5.6-9.6c-0.1,0-0.1,0-0.2,0l-0.1,0.1l-2,18v0.1l7.3,26.9
				l-14.3,11.5c-0.1,0-0.1,0.1-0.1,0.2c0,0.1,0.1,0.1,0.1,0.2c0,0,5.6,1.8,15,1.8c5,0,11.1-0.5,18.1-2c0,0,1.7-0.4,2.3-2.1
				c0,0,1.6-7.4,1.6-17.9C140.146,125.417,136.646,102.817,119.646,86.717z"/>
		</g>
		<g>
			<path fill="#0064B1" d="M143.146,159.317c-0.3-0.2-0.4-0.6-0.4-1.1l0,0c0-0.2,0-0.5,0.1-0.8l0,0c0,0,0.6-2.1,1.1-5.8l0,0
				c0.6-3.7,1.1-8.9,1.1-15l0,0c0-16.2-3.9-38.9-22-56.5l0,0c0,0-0.1-0.1-0.3-0.2l0,0c-0.1-0.1-0.3-0.2-0.3-0.5l0,0
				c0-0.1,0.1-0.2,0.2-0.2l0,0c0.1,0,0.1,0,0.2,0l0,0c0.2,0,0.4,0,0.8,0.1l0,0c0,0,4.8,1.5,8.2,5.3l0,0c-0.1-0.9-0.4-2.6-1-4.8l0,0
				c-0.9-3.2-2.6-7.2-5.6-10.7l0,0c0,0-0.2-0.2-0.4-0.4l0,0c-0.2-0.3-0.4-0.4-0.4-0.7l0,0c0,0,0-0.1,0.1-0.2l0,0
				c0.1-0.1,0.1-0.1,0.2-0.1l0,0c0.2,0,0.4,0.2,0.9,0.5l0,0c1.1,0.5,46.5,22.5,48.1,66.9l0,0c0,0,0,0.3,0,0.7l0,0
				c0,1.1-0.2,3.2-1.6,4.5l0,0c-0.4,0.6-11.2,13.9-27,19.1l0,0c0,0-0.5,0.2-1,0.2l0,0
				C143.746,159.617,143.446,159.517,143.146,159.317L143.146,159.317z M122.846,79.417L122.846,79.417L122.846,79.417
				L122.846,79.417L122.846,79.417L122.846,79.417z"/>
		</g>
		<g>
			<path fill="#0064B1" d="M177.146,126.717c-0.9-36.6-35.4-61.6-52.6-71.8l0,0c-5.7-3.4-9.5-5.1-9.5-5.2l0,0l-0.8-0.4h0.9h0.1l0,0
				c6.1,0,9.9,3.7,11,5l0,0c0-2.2-0.9-4.7-0.9-4.7l0,0l-0.2-0.4l0.4,0.2c4.9,1.9,11.2,2.5,17.4,2.5l0,0c6,0,11.9-0.6,16.2-1.2l0,0
				c4.4-0.6,7.2-1.2,7.3-1.2l0,0c0.2,0,0.4,0,0.6,0l0,0c2.5,0,3.3,1.4,3.4,1.6l0,0c5.9,6.5,13.1,21.7,14.3,39.8l0,0
				c0.2,2.3,0.2,4.5,0.2,6.6l0,0c0,13.7-2.8,24.2-5,28.6l0,0c-0.8,1.5-1.3,2.3-2,2.4l0,0
				C177.346,128.517,177.246,127.917,177.146,126.717L177.146,126.717"/>
		</g>
	</g>
	<path fill="#061922" d="M77.646,8.417l0.1-0.1l0,0l0,0c-0.5,0.1-9.8,2.9-12.6,17.1c0,0,0,0.3,0.1,0c0.8-1.4,3.8-5.8,6.4-4.5
		c0,0,0-0.1,0-0.3C71.946,19.417,72.746,14.517,77.646,8.417z"/>
	<g>
		<path fill="#061922" d="M70.546,136.917c-2-4.1-15-32.3-15-32.3c-4,1.3-9-2-9-2l0,0c6.4,16.9,21.4,31.7,23.8,34.4l0,0
			c0.4,0.4,0.4,0.3,0.4,0.3C70.746,137.217,70.646,137.117,70.546,136.917z"/>
	</g>
	<g>
		<path fill="#061922" d="M57.746,44.817c-11.7,26.7,14.6,37.7,15,37.9l0,0l-1.4-6.2l-0.8-3.5c-0.7-0.2-1.3-0.5-1.9-0.7
			c-0.2-0.1-0.4-0.2-0.6-0.3c-0.2-0.1-0.5-0.2-0.7-0.4c-11.5-6.1-10.4-20.7-9.7-25.5v-0.1c0-0.1,0-0.3,0.1-0.4
			c0.1-0.4,0.1-0.8,0.2-0.9c0-0.1,0-0.1,0-0.1l0,0C57.946,44.317,57.746,44.717,57.746,44.817z"/>
	</g>
	<path fill="#BBC4CA" d="M75.046,120.017l-1.9-33.6l11.3,37.4C84.446,123.917,80.746,115.017,75.046,120.017z"/>
	<g>
		<path fill="#BBC4CA" d="M84.346,54.417l-8.7-31.7c0,0.2,0,0.2,0,0.7l2.5,20.1c0,0,0.1,0.3,0.1,0.7c0,1.1-0.7,2.6-6-3
			c-0.3-0.3-0.4-0.4-0.4-0.4C77.346,52.017,84.346,54.417,84.346,54.417z"/>
	</g>
	<path fill="#BBC4CA" d="M63.746,60.117c-0.7-1.7-1-3.2-1-4.5c0-4.9,3.6-7.6,3.6-7.6l0.1-0.1c0,0.1-0.2-3.1,0.1-8.1
		c-2.9,4.2-9,14.3-1.7,22.2c-0.1-0.2-0.2-0.3-0.3-0.5C64.146,61.017,63.946,60.517,63.746,60.117z"/>
	<path fill="#061922" d="M71.346,64.217c-1.2-2.2-4.4-9.1-4.9-16.2v-0.1l-0.1,0.1c0,0-3.6,2.8-3.6,7.6c0,1.3,0.3,2.9,1,4.5
		c0.2,0.4,0.5,0.8,0.8,1.4c0.1,0.1,0.2,0.3,0.3,0.5s0.3,0.3,0.5,0.5c1.2,1.3,3.3,2.7,6.7,2.9
		C72.046,65.417,71.746,65.017,71.346,64.217z"/>
	<g>
		<path fill="#BBC4CA" d="M81.846,124.317c0,0-5.5-1.4-5.2,10.1l0,0c0-0.3,0.1-0.6,0.3-1c1.7-3.8,3.2-5.3,4.6-5.4
			c1.2,0,2.1,1.1,2.8,2.6s1.3,3.5,1.8,5.4c0.4,1.6,0.7,3.2,0.9,4.5c0.1,0.8,0.2,1.8,0.2,3.1c0,0.1,0,0.1,0,0.1l0,0l0,0
			C87.446,142.517,89.946,126.517,81.846,124.317z"/>
		<path fill="#061922" d="M87.246,143.817c0,0,0,0,0-0.1c-0.1-1.3-0.1-2.3-0.2-3.1c-0.2-1.3-0.5-2.9-0.9-4.5c-0.5-2-1-3.9-1.8-5.4
			c-0.7-1.5-1.6-2.5-2.8-2.6c-1.4,0-2.9,1.6-4.6,5.4c-0.1,0.3-0.2,0.7-0.3,1l0,0l2.8,6
			C79.446,140.517,81.046,124.317,87.246,143.817L87.246,143.817L87.246,143.817L87.246,143.817z"/>
	</g>
</g>
</svg>
