<?xml version="1.0" encoding="utf-8"?>
<!-- Generator: Adobe Illustrator 26.0.1, SVG Export Plug-In . SVG Version: 6.00 Build 0)  -->
<svg version="1.1" id="Layer_1" xmlns="http://www.w3.org/2000/svg" xmlns:xlink="http://www.w3.org/1999/xlink" x="0px" y="0px"
	 viewBox="0 0 290.908 291.025" enable-background="new 0 0 290.908 291.025" xml:space="preserve">
<g>
	<path fill="#FFFFFF" d="M152.254,272.347c-1.2,0.1-2.4,0-3.6-0.2c-1.2-0.2-2.2-0.6-3.2-1.1l-1.1-19.4c0.9-0.6,1.9-1.1,3.1-1.4
		c1.2-0.3,2.4-0.6,3.6-0.6c1.2-0.1,2.4,0,3.6,0.2c0.6,0.1,1.1,0.2,1.7,0.4c0.3,0.1,0.6,0.1,0.8,0.1c0.1,0,0.2,0,0.3,0l0.5-0.1v0.5
		l0.3,5.5l-5.2,0.3l-0.1-2.4c0-0.6-0.6-1.2-1.4-1.2c-0.1,0-0.2,0-0.3,0c-0.9,0.1-1.6,0.7-1.5,1.4l0.7,13.9c0,0.3,0.2,0.6,0.4,0.8
		c0.3,0.3,0.8,0.4,1.3,0.4c0.9,0,1.6-0.7,1.5-1.4l-0.3-5.9l-1.8-0.2l0.6-3.1l6.1-0.3l0.7,11.8c-0.9,0.6-1.9,1.1-3.1,1.4
		C154.754,272.047,153.454,272.247,152.254,272.347"/>
	<g>
		<path fill="#8B2332" d="M145.454,291.025c80.296,0,145.454-65.306,145.454-145.602c0-80.148-65.306-145.454-145.454-145.454
			S0,65.423,0,145.422C-0.148,225.719,65.158,291.025,145.454,291.025"/>
		<path fill="#0D2240" d="M9.499,145.422c0-74.953,60.853-135.806,135.806-135.806s135.806,60.853,135.806,135.806
			s-60.853,135.806-135.806,135.806C70.649,281.229,9.499,220.376,9.499,145.422"/>
		<path fill="#FFC627" d="M264.934,175.997c0.148-23.302-12.467-55.213-23.599-76.437l-16.475,9.202l-1.633-2.672l0,0l0,0
			l-4.156,2.672L55.213,211.767v0.148l-7.57,9.054l-0.148-0.297c-2.375-0.445-5.343-2.82-7.718-6.827
			c-2.523-3.711-3.414-7.718-2.82-9.647l-0.148-0.297l11.28-2.968l0.148,0.148l84.304-54.916l-56.846-35.77l0,0l-7.124-4.453l0,0
			l0,0l-1.781,2.672l-16.475-9.202c-11.28,21.373-23.599,53.284-23.599,76.437c-8.608-27.013,0.297-63.822,12.467-87.569
			l0.148-0.148l-2.968-1.781l9.796-15.139l2.82,2.078c16.475-20.928,45.862-44.23,73.914-47.792
			c-21.076,9.647-44.823,34.137-59.517,53.284l15.287,11.132l-1.929,2.672l0,0l0,0l3.859,2.672l64.86,42.152l63.97-41.558
			l4.898-3.117l0,0l0,0l-1.929-2.672l15.287-11.132c-14.545-18.85-38.293-43.636-59.369-53.284
			c28.052,3.562,57.439,26.864,74.063,47.792l2.672-2.078l9.796,15.139l-2.968,1.781
			C264.637,112.473,273.542,149.281,264.934,175.997 M243.709,201.081L243.709,201.081l-77.773-50.315l-13.506,8.015l84.304,53.135
			l-0.148,0.148l7.57,9.054l0.297-0.297c2.375-0.445,5.343-2.82,7.718-6.827c2.375-3.711,3.414-7.718,2.82-9.647l0.148-0.297
			L243.709,201.081z"/>
		<polygon fill="#FFC627" points="159.257,39.301 153.469,47.019 145.306,27.872 145.306,116.777 172.467,82.046 199.777,89.17 		
			"/>
		<polygon fill="#FFFFFF" points="159.257,60.377 159.257,39.449 153.469,47.019 		"/>
		<polygon fill="#FFFFFF" points="145.306,27.872 96.178,87.686 117.847,82.195 145.306,116.777 		"/>
		<path fill="#FFC627" d="M115.176,254.068c7.124-6.827,16.178-10.983,25.974-12.022V228.39h-37.551
			C104.489,238.483,108.645,247.24,115.176,254.068"/>
		<path fill="#FFC627" d="M141.15,266.683v-16.178c-7.421,0.891-13.952,3.859-19.592,8.905
			C127.346,263.418,134.174,265.793,141.15,266.683"/>
		<path fill="#FFFFFF" d="M149.61,183.122v16.03c7.273-0.891,14.1-3.859,19.443-8.905
			C163.413,186.387,156.734,183.864,149.61,183.122"/>
		<path fill="#FFFFFF" d="M175.584,195.886c-7.124,6.827-16.178,10.983-25.974,11.874v12.467h37.551
			C185.973,210.728,181.669,202.12,175.584,195.886"/>
		<path fill="#FFFFFF" d="M141.15,199.151v-16.03c-7.273,0.742-13.803,3.265-19.443,7.273
			C127.198,195.292,134.025,198.261,141.15,199.151"/>
		<path fill="#FFC627" d="M149.61,228.39v13.506c9.796,0.891,18.85,5.046,25.974,12.022c6.531-6.827,10.835-15.584,11.725-25.529
			L149.61,228.39L149.61,228.39z"/>
		<path fill="#FFFFFF" d="M103.747,220.079h37.551v-12.467c-9.796-0.891-18.701-5.195-25.974-11.874
			C108.942,202.12,104.786,210.728,103.747,220.079"/>
		<path fill="#FFC627" d="M149.61,266.683c7.273-0.742,13.803-3.265,19.443-7.124c-5.492-5.046-12.319-8.015-19.443-8.905V266.683z"
			/>
	</g>
</g>
</svg>
