<?xml version="1.0" encoding="utf-8"?>
<!-- Generator: Adobe Illustrator 26.0.1, SVG Export Plug-In . SVG Version: 6.00 Build 0)  -->
<svg version="1.1" id="Layer_1" xmlns="http://www.w3.org/2000/svg" xmlns:xlink="http://www.w3.org/1999/xlink" x="0px" y="0px"
	 viewBox="0 0 117.659 107" enable-background="new 0 0 117.659 107" xml:space="preserve">
<g>
	<path fill="#BEC0C2" d="M23.3,1.1L0,107h46.1c0,0,5.2-21,5.6-23c2,0,20,0,20,0c15,0.1,27.2-5,35.5-14.7c15.1-16.4,12.4-40.4,1.1-54
		C100.2,5.5,88.5,0,75.4,0H23.5L23.3,1.1z"/>
	<path fill="#002D62" d="M48.4,79.8l-5.6,23H5.2L27,4.3h48.5c12,0,22.5,5,29.8,13.8c10.7,13,11.8,34.6-1.1,48.6
		C96.3,75.9,84.7,80.1,71.9,80L48.4,79.8z"/>
	<path fill="#FDBB30" d="M21.9,26.8h21.3c2.4,0,5.1,2,3.9,5.2c-0.7,1.9-1.2,4.1-1.5,6.3c-0.2,1.6,1.6,2.6,2.6,2.6h43.3
		c0.8,0,1.2-0.2,1.2-0.6s0-1.8-0.2-2.8c-0.2-0.9-0.3-1.1-1.1-1.1c-5.4,0-7.6-2.4-13.3-6.1s-14-5.8-21.2-5.8H22.1L21.9,26.8z"/>
	<path fill="#FDBB30" d="M48.2,54.8c-0.8-1.6-1.4-3.5-1.9-5.3c-0.5-2.2-2.4-4-5.8-4H17.7l0.6-2.5l73.9,0.1c0.7,0,0.6,0.3,0.5,1.1
		c0,0.8-0.2,2.3-0.3,3.2s-0.8,0.7-1.5,0.7c-1.7,0-4.8,0.4-6.6,1.8c-3,2.3-9.6,6.4-13.3,7.5C67.1,58.6,52.4,63.1,48.2,54.8"/>
	<path fill="#FDBB30" d="M13.7,64.1h38.6c1.7,0,3.1,0.4,4.4,1.3c3.2,2.6,7.5,4.7,11.9,6c2,0.6,5.5-0.2,8.6-1.9
		c7.7-4.4,12.6-12.6,14.4-18c0.4-1.4-0.4-1.3-1.4-1.2c-3.2,0.2-6.7,3.1-11.1,6.1C74.5,59.2,65.4,62,56.7,62H14.4L13.7,64.1z"/>
	<path fill="#FDBB30" d="M70.3,12.4c0.5-0.1,2.5-0.2,3.5,0.2c7.4,2.9,14.3,10.5,17.2,18.6c0.6,1.6,0.7,2.5,0,2.6
		c-3.3,0.4-4.9-1.3-8.9-3.9c-3.9-2.6-7.6-4.5-12.5-6.1c-5-1.5-14-1.8-15.1-1.8s-1-0.5-0.5-1C58.3,16.7,64.1,13.5,70.3,12.4z"/>
	<path fill="#FDBB30" d="M105.4,40.3c0,0.3-0.3,0.7-0.7,0.7h-8.5c-1.1,0-1.1-0.5-1.1-1.1c-0.1-0.6-0.2-1.8-0.2-2.6
		c0-0.7-0.3-1.5,0.6-1.9c2.3-1,4.6-3.3,5.6-5.3c0.3-0.7,0.8-1.7,1.4-0.8C104.6,32.4,105.2,36.3,105.4,40.3z"/>
	<path fill="#FDBB30" d="M102.4,55.4c-0.1,0.3-0.7,0.5-0.8,0c-1.2-3.3-4.1-5.6-6.2-6.7c-0.6-0.3-0.6-0.7-0.6-1.3
		c0.1-0.6,0.3-2.5,0.4-3.3c0-0.6,0.3-1.1,0.8-1.1h8.8c0.3,0,0.7,0.3,0.7,0.5C105.4,47.7,104.2,51.9,102.4,55.4z"/>
	<path fill="#FDBB30" d="M79.5,71.9c-0.6,0.1-2-0.1,0.1-1.3c6.4-3.7,12.1-12.4,13.7-17.5c0.6-1.9,0.6-2,1.4-1.8
		c1,0.3,2.5,1.6,3.7,3.2c1.2,1.6,1.7,4.9,1,5.7C94.8,66.5,87.5,70.8,79.5,71.9z"/>
	<path fill="#FDBB30" d="M95.8,32.5c-1.5,0.8-1.8,0.6-2.1-0.5c-2.8-9.7-11-17-14.4-19.1c-0.6-0.4-0.5-0.7,0-0.6
		c8,1.1,15.9,5.5,19.8,11.4C101.5,27.1,97.2,31.7,95.8,32.5z"/>
</g>
</svg>
