<?xml version="1.0" encoding="utf-8"?>
<!-- Generator: Adobe Illustrator 26.0.1, SVG Export Plug-In . SVG Version: 6.00 Build 0)  -->
<svg version="1.1" id="Layer_3" xmlns="http://www.w3.org/2000/svg" xmlns:xlink="http://www.w3.org/1999/xlink" x="0px" y="0px"
	 viewBox="0 0 388.801 240.5" enable-background="new 0 0 388.801 240.5" xml:space="preserve">
<path fill="#FFFFFF" d="M84.6,54.1c0,0,33.1-54.1,100.8-54.1s99.3,52.5,99.3,52.5h91.9L373,75.1c0,0-2.7,9-6.8,9.9h6.3
	c0,0,2.1,7.9-10.5,35.2h26.8c0,0,1.1,47.8-56.7,70.4c0,0-29.9,9.5-45.2-6.8c0,0-30.4,56.7-101.3,56.7S82.5,182.2,82.5,182.2H0
	l13.1-23.6H4.2l10.5-19.4h17.9l3.2-7.4h-8.4L47.9,94h11.5l4.7-11.5h-10l15.3-28.4H84.6z"/>
<path fill="#FAB624" d="M186.4,227.9c58,0,105-47.7,105-106.6s-47-106.6-105-106.6s-105,47.7-105,106.6S128.4,227.9,186.4,227.9"/>
<g>
	<path fill="#0B1A23" d="M268.9,52.4c-1.3-1.5-3.2-4.7-16.1-16c-19-16.5-44.1-24.1-67.8-24.1c-17.4,0-32.7,3.9-49.5,13.2
		c-21.6,11.8-30.4,25.5-32.6,28.3c-1.6,2.1-1.9,3.2-0.8,3.8c0.8,0.4,2.2-1.2,3.5-3c6.4-8.5,14.8-16.8,23.6-21.8
		c2.8,0.4,6.6,4.2,8.1,6.3c-5.7,3.1-15.1,10.2-18.6,13c-3.1,2.4-4.1,3.7-3.3,4.7c0.7,0.8,3.1-0.8,5-2.4c3.4-2.8,13.5-9.9,18.5-12.6
		c3.4,3.9,2.3,11.3,1.1,13c-0.7,0.9-0.7,1.8,0,2.2s1.5-0.6,2.5-2.1c2.4-3.3,1.4-11.5-0.6-14.4c6.1-3.7,14.9-6.3,20.2-7.5
		c0.5,0.9,6.9,19.7,8.1,23c0.7,1.9,1.4,4.1,2.7,3.6c0.9-0.3,0.3-2.4-0.5-4.4c-1-2.6-5.8-18.3-7.3-23c1.8-1,12.3-3.1,15-3
		c-1.3,6.9,3.5,9.7,9.1,13.3c3,1.9,21.5,12.6,25.4,15c2.2,1.4,3.9,2.3,4.4,1.6c0.5-0.8-1-2.3-3.1-3.4c-1.7-1-18.9-11-26.1-15.6
		c-5.2-3.2-8-6.8-6.7-11.3c1.7-0.5,6.9-0.5,12.3-0.5c36.8,0.3,66.4,21.5,69.7,24.8c1.7,1.7,4,3.2,4.9,2.5
		C270.7,55.3,269.7,53.3,268.9,52.4 M140.4,37.8c-1-1.7-5.7-5.9-8.2-6.8c5.9-4.3,19.6-10.6,24.8-11.7c0.9,1.5,3.3,7.9,4.1,10.5
		C156.6,30.8,144.4,35.3,140.4,37.8 M180.7,26c-4.8,0.3-13.5,2.2-16.6,3.1c-0.8-2.1-3-8.6-3.7-10.6c8.9-2.5,19.1-3.3,27.1-2.7
		C185.2,17.4,181.5,24,180.7,26 M204.6,25.7c-8-0.6-14.5-0.8-20.2-0.2c1.7-4.1,4.9-8.1,7.5-9.7c5.4,0.2,11,1,15.6,1.9
		c14.3,2.9,36.4,11.5,46,24.3C240.7,33.4,219.5,26.7,204.6,25.7"/>
	<path fill="#0B1A23" d="M276.9,178.6c1.4-2.5,2.5-3.9,1.3-4.6c-1.1-0.6-2.1,1.8-3.4,3.9c-4.3,7.5-9,13.7-19.6,23.3
		c-11.7,10.7-25.3,16.9-30,18.5c-4-11.2-19.3-59.2-19.7-60.6c-0.6-2.1-1.1-2.7-1.8-2.4c-0.8,0.3-0.3,1.4,0.1,3.2
		c0.4,1.8,18.6,58.5,19.2,60.6c-3.6,1.8-18.2,5.9-28.5,6.2c-9.2,0.3-19.8,0-25.2-1.3c-6.3-5.1-20.8-25.5-26.2-36.3
		c-6.5-12.8-10.7-24.5-11.8-29.5c-0.5-2.4-1.2-4.1-2.4-3.8c-1.3,0.3-0.6,2.2,0.2,4.7c2,6.6,5.1,15.9,11.8,29.2
		c7.1,14.1,19.8,30.5,23.5,35.1c-11.6-2.5-25.7-7.9-39.1-17.8c-11.5-8.6-21.5-19.6-26.5-27.6c-0.9-1.4-1.9-3.3-3.1-2.5
		c-0.6,0.4,0.1,2,1,3.4c7.3,13,24.9,31.4,47.6,41.6c26.4,11.8,55.1,11.1,81,1.2C247.7,214.2,267.2,196.3,276.9,178.6"/>
</g>
<g>
	<path fill="#542C81" d="M234.3,132.3c-9.8,11.9-15.4,16-25.3,16c-3.3,0-5.1-0.8-4.2-2.4l11.8-23.7h4.5c5,0,4.3,4.2,3,9.9
		c-0.3,0.8,0.4,0.9,1,0.2l11.2-19.7c0.6-1.3-0.9-1.5-1.6-0.6c-5.6,7.7-11.5,7.1-14.1,7.1h-2.1L231.1,95h5.1
		c6.4,0.4,9.4,5.8,7.6,18.9h2.7l9.3-18.3c0.8-1.6-0.9-3-2.6-3h-62.9c-3.6,0-3.8,2.8-0.3,2.8c2.9,0,2.7,4,0.1,6l-26.7,21.2l5.4,25
		c0.4,1.9,1.6,2.8,3.7,2.8h52.1c2.2,0,3.1-0.9,3.7-1.8l9.5-16.2C238.9,130.1,235.9,130.3,234.3,132.3 M197.9,120.8h-4.6
		c-0.3,0-0.6,0.3-0.6,0.6s0.3,0.6,0.6,0.6h4.6c1.6,0,3.1,0.2,2.7,0.9l-12,22.8c-1.5,2.8-4.6,2.1-5.1-0.1l-6-30.8l21-16.2
		c2.1-1.8,6.1-4.7,8.2-4.6h4.5c2.8,0,3.7,1.3,3.2,3l-0.8,1.6c-0.5,0.9-2.2,1-3.5,1h-2.7c-0.3,0-0.6,0.3-0.6,0.6s0.3,0.6,0.6,0.6h2.6
		c1.1,0,2.6,0,2,0.9l-9.7,18.5C201.7,120.7,199.7,120.8,197.9,120.8"/>
	<path fill="#542C81" d="M154.8,147.7c-1.4,0-2.4-1-2.7-2c-0.5-1.4-0.4-3.7,0.1-4.7l24.3-43c0.4-0.8,1.4-2.5,2.6-2.5
		c2.2,0,3.1-2.9-0.6-2.9h-19.4c-3.6,0-3.6,2.8-0.2,2.8c1.4,0,2,1.4,1.6,2.3l-5.4,9.7c-0.7,1.1-2.2,1.2-3.7,1.2h-4.6
		c-0.3,0-0.6,0.3-0.6,0.6s0.3,0.6,0.6,0.6h4.6c1.3,0,2.3,0.4,1.5,1.9L135,144.4c-1.3,1.8-3.8,2.2-3.7-1.3l6.4-47.9
		c0.3-1.5-0.1-2.5-1.8-2.5h-9.7c-1.2,0-1.9,0.6-2.4,1.3l-3.4,4.3c-0.5,0.5-1.4,0.5-2.5,0.5h-8.1c-0.3,0-0.6,0.3-0.6,0.6
		s0.3,0.6,0.6,0.6h6.6c1.2,0,2.6,0.3,2.1,0.8l-9.3,11.6c-0.3,0.3-1.2,0.4-1.8,0.4h-2.7c-0.3,0-0.6,0.3-0.6,0.6s0.3,0.6,0.6,0.6h2.2
		c0.7,0,0.7,0.3,0.4,0.6l-8.7,10.9c-0.5,0.4-1.3,0.5-2.2,0.5h-7.7c-0.3,0-0.6,0.3-0.6,0.6s0.3,0.6,0.6,0.6h6.6c1,0,1.8,0.2,1.3,0.9
		l-12.3,15.5c-2.4,3-13.5,4.4-15.7,4.4l41.8-78.2c0.4-0.9,2-2.3,3.5-2.3h8.9c4.1,0,4-2.8,0.4-2.8H78.8c-3.6,0-3.7,2.8,0.4,2.8h8.3
		c2.4,0,3.1,1.4,2.5,2.6l-1.2,2.2c-0.4,0.7-1,1-3.2,1H70.9c-0.3,0-0.6,0.3-0.6,0.6s0.3,0.6,0.6,0.6h14.6c0.8,0,2,0.2,1.3,1.7
		L84.7,80c-0.4,0.6-1.3,0.9-2.3,0.9h-6.6c-0.3,0-0.6,0.3-0.6,0.6s0.3,0.6,0.6,0.6h6.6c1,0,1,0.6,0.4,1.5l-4.7,8.8
		c-0.4,0.8-1.2,0.9-2.7,0.9h-2.7c-0.3,0-0.6,0.3-0.6,0.6s0.3,0.6,0.6,0.6h2.7c1,0,1.3,0.6,0.8,1.5l-3.8,7.2c-0.6,1-1.4,1.5-3.9,1.5
		H53.9c-0.3,0-0.6,0.3-0.6,0.6s0.3,0.6,0.6,0.6h14.6c1.7,0,2.3,0.8,1.6,2l-7.5,14.2c-0.5,0.6-1.7,0.7-3.7,0.7H44.2
		c-0.3,0-0.6,0.3-0.6,0.6s0.3,0.6,0.6,0.6h14.5c1.8,0,2.9,0.1,2.3,1l-4.3,8.2c-0.8,1.3-3.1,1.3-3.9,1.3h-4.6c-0.3,0-0.6,0.3-0.6,0.6
		c0,0.3,0.3,0.6,0.6,0.6h4.6c1.6,0,2.5,0.3,2.1,1.2l-5.8,10.9c-0.5,1-2.8,1-4.5,1H21.9c-0.3,0-0.6,0.3-0.6,0.6
		c0,0.3,0.3,0.6,0.6,0.6h22.6c1.5,0,3.3,0.2,2.7,1.4l-3.7,7c-0.4,0.6-1.6,0.6-3.4,0.6h-4.6c-0.3,0-0.6,0.3-0.6,0.6
		c0,0.3,0.3,0.6,0.6,0.6h4.6c1.1,0,2.5,0.1,2,1l-2.3,4.4c-0.8,1.1-1.5,2.1-3.2,2.1H24.9c-4.1,0-4,2.8-0.4,2.8H91c2,0,2-0.3,3-1.7
		l9.8-17.2h50.4C157.9,150.6,156.9,147.8,154.8,147.7 M115.2,142.6c-0.5,2.9-3.3,4.7-6.9,5.6l-3.7,0.9l3.1-5.5
		c0.8-1.5-1-2.4-2.9-0.2c-12.9,15-16.9,22.2-36.8,22.3h-5.4c-1.6,0-3.3-0.6-2.3-2.2l7-13.1H94c3.6,0,2.7-2.8,0.6-2.9
		c-1.4,0-3-0.9-4-2.6c-0.3-0.5-1-2.4,0.1-3.8l10.2-13.6h16.8L115.2,142.6z M119.1,125.5h-16.5l21-27.7L119.1,125.5z"/>
	<path fill="#542C81" d="M371.2,134c-0.3-1.4-0.8-0.5-1.7,1.2c-0.3,0.5-1.2,0.5-2,0.5h-2.7c-0.3,0-0.6,0.3-0.6,0.6
		c0,0.3,0.3,0.6,0.6,0.6h2.7c1,0,1,0.7,0.6,1.7c-1.9,3.9-3.7,6.5-6.2,9.7c-0.4,0.5-1.4,0.9-2.2,0.9H357c-0.3,0-0.6,0.3-0.6,0.6
		c0,0.3,0.3,0.6,0.6,0.6h2.7c1.3,0,0,0.8-0.2,1.1c-4.6,6.2-7.9,9-11.2,11.7c-0.4,0.3-2.4,0.2-3.6,0.2H342c-0.3,0-0.6,0.3-0.6,0.6
		c0,0.3,0.3,0.6,0.6,0.6h2.6c2,0,0.5,1.2,0.2,1.4c-7.3,6-18,8-22.9,7.4c-16.1-2-19.3-14.2-20.5-19c-0.3-1-1-3.1-1.3-4.4
		c-0.5-2.6,6.7-3.2,8.8-2c3.1,2.1,10,4.1,15.7,4.1c5.1,0,15.7-3.7,18.7-12.5c3.2-9.1-4.7-19-8.2-22.6c-4.4-4.4-8.6-11.4-6.8-16.6
		c1.3-3.8,3.5-5.6,8.3-5.6c6.1,0,10.6,3.9,10.6,9.6c0,0.5-0.3,1.1-0.7,1.1h-2.2c-0.3,0-0.6,0.3-0.6,0.6s0.3,0.6,0.6,0.6h2.1
		c0.6,0,0.9,0.4,0.8,1.2c-0.4,1.9-0.5,3.2-1,5c-0.2,1.1,1.4,1.9,1.9,1.1l9.7-17.2c0.7-1.3-0.9-1.7-2-1.3c-2.7,0.9-6.9,1.6-8.5,0.5
		c-3.6-2.6-6.9-4.2-11.9-4.2c-8.6,0-14.6,2.1-18.4,9.2c-0.3,0.6-1.2,0.5-1.9,0.5h-1.7c-0.3,0-0.6,0.3-0.6,0.6s0.3,0.6,0.6,0.6h1.4
		c0.6,0,1,0.2,0.7,0.9c-0.3,0.6-0.5,1.3-0.7,2c-1,3.1-0.7,7.3,0.9,11.1c0.1,0.3-0.2,0.4-0.8,0.4h-2.7c-0.3,0-0.6,0.3-0.6,0.6
		s0.3,0.6,0.6,0.6h2.7c1.2,0,1.5,0.1,2,0.8c1.4,1.9,2.8,3.3,4.4,5.5c0.6,0.7-1.8,0.9-3.1,0.9h-10.3c-0.3,0-0.6,0.3-0.6,0.6
		s0.3,0.6,0.6,0.6h10.5c1.7,0,4.6,0,4.9,0.3c2.6,3,5.6,7.5,6.1,11.2c0.1,1.1-0.3,1.6-1.6,1.6h-1.4c-0.3,0-0.6,0.3-0.6,0.6
		c0,0.3,0.3,0.6,0.6,0.6h1.3c1.1,0,1.7,0.2,1.4,1c-1.4,4.3-3.4,7.5-11.7,7.5c-8.8,0-10.5-8.6-8-17.5c0.5-1.8,0-2.6-0.8-1.2l-6.1,9.6
		c-0.2,0.2-0.7,0.8-1.7,0.8h-0.9c-0.3,0-0.6,0.3-0.6,0.6c0,0.3,0.3,0.6,0.6,0.6c0.8,0,1.1,0.4,0.8,0.8l-2.3,3.4
		c-3.6-8.4-9.8-18.7-13.1-22.5l0.1-0.2c8.1-0.5,20-8.1,22-14.9c3.3-11.7-8.1-16.1-14.3-16.1h-27.4c-3.6,0-3.9,2.8-0.4,2.8
		c1.9,0,3.5,1.7,2.7,3.3l-6.1,10.9c-0.5,0.9-2.4,0.9-4.8,0.9h-2.7c-0.3,0-0.6,0.3-0.6,0.6s0.3,0.6,0.6,0.6h2.6
		c1.8,0,3.6,0.1,3.1,1.4l-7.2,12.9c-0.4,0.6-1.3,0.7-3.7,0.7h-2.7c-0.3,0-0.6,0.3-0.6,0.6s0.3,0.6,0.6,0.6h2.6c2,0,2.7,0.3,2.1,1.3
		l-9.6,17.3c-1.2,1.3-2.5,1.5-4.8,1.5c-3.4,0-3.4,2.8,0.2,2.8h23.4c3.6,0,2.8-2.9,0.6-2.9c-1.3,0-2.6-2.4-1.8-3.7l11.9-22.7h1.2
		c5.3,0,6.6,8.8,7.6,18.2c0.1,0.7-1.2,0.7-3.8,0.7h-6.7c-0.3,0-0.6,0.3-0.6,0.6c0,0.3,0.3,0.6,0.6,0.6h6.6c1.8,0,4.1,0,4.2,0.6
		c0.5,4.1,0.8,7.9,1.6,11.2c0.3,1.1-1.6,0.9-3.6,0.9h-8.6c-0.3,0-0.6,0.3-0.6,0.6c0,0.3,0.3,0.6,0.6,0.6h8.5c2.7,0,4,0,4.1,0.5
		c3.6,13.4,19.3,23.9,34.5,23.3c13-0.5,24-7.6,29.6-12.1c7.5-6,18.5-18.6,23-27.8C370.1,137.7,371.5,135.5,371.2,134 M283.4,116.2
		c-1.9,1.5-4.7,3.2-5.2,2.7c-0.8-0.8-3.2-2.5-4.5-3.1L284.5,96c0.5-0.7,1-1.1,2.2-1.1c4.2,0,5.6,4.6,3.6,10.3
		C288.9,109.2,286.7,113.6,283.4,116.2"/>
	<path fill="#542C81" d="M151.6,75c-2.2,2.9-5.1,3.5-8.4,3.5h-0.9l5.8-11.4c0.3-0.5,0.9-0.9,1.7-0.9c0.7,0,0.6-1.5-0.3-1.5h-9.1
		c-0.8,0-1.1,1.5-0.3,1.5s0.9,0.9,0.6,1.6l-5.1,10.1c-0.4,0.6-0.9,0.7-1.6,0.9c-0.8,0.2-1.3,1.6-0.4,1.6h14.5c1.1,0,1.4-0.4,1.7-0.8
		l3-4.5C152.8,74.6,152,74.5,151.6,75"/>
	<path fill="#542C81" d="M295.8,69.2l1.3-2.4c0.6-1-0.4-2.2-1.8-2.2h-16.9c-1.2,0-0.9,1.3-0.4,1.3c1.1,0,1.4,1.3,0.8,2.5l-5.1,9.4
		c-0.8,0.9-1.3,1.3-2.4,1.3c-0.9,0-1.2,1.3,0,1.3h17.1c0.7,0,1-0.3,1.3-0.6l2.4-3.1c0.6-0.8-0.7-0.8-1-0.4c-3,3-6.1,2.9-8.5,2.9h-2
		L283,74h0.5c1.5,0,3.2,0,3.7,1.2c0.1,0.3,0.9,0.5,1.2,0l2-4c0.3-0.6-0.6-0.7-0.8-0.3c-0.8,1.4-4.2,1-5.2,1h-0.5l3-5.8h3.2
		c2.1,0,3.7,1.5,4.3,3C294.6,69.4,295.6,69.7,295.8,69.2"/>
	<path fill="#542C81" d="M359.2,65.2c-0.4,0.2-1.5,0.4-2,0c-1.2-1-3.4-1.7-4.6-1.7c-3.4,0-5.9,0.7-7.4,3.9c-1.3,2.8,0,5,3.1,6.5
		c1.3,0.6,3.1,1.4,2.4,3c-0.5,1.2-1.9,1.3-3.1,1.3c-1.6,0-4-1.2-4.4-3.5c-0.1-0.8-1-0.6-1.3-0.2l-2.1,4.1c-0.3,0.6,0.5,1.2,0.9,0.8
		c0.7-0.8,2.3-0.9,3-0.4c1,0.7,3.6,1.9,5.2,1.9c3.4,0,5.7-0.9,7.7-3.8c1.8-2.8,0.7-5.4-2.5-6.9c-1.7-0.8-3.1-2.2-2.4-3.7
		c0.5-1,2-0.8,2.8-0.7c1.4,0.2,3.2,1.6,3.4,2.8c0.1,0.5,0.7,0.6,1,0.1l1.1-2.6C360.2,65.4,359.4,65,359.2,65.2"/>
	<path fill="#542C81" d="M313.8,75c-2.2,2.9-5.1,3.5-8.4,3.5h-0.9l5.8-11.4c0.3-0.5,0.9-0.9,1.7-0.9c0.7,0,0.6-1.5-0.3-1.5h-9.1
		c-0.8,0-1.1,1.5-0.3,1.5c0.8,0,0.9,0.9,0.6,1.6l-5.1,10.1c-0.4,0.6-0.9,0.7-1.6,0.9c-0.8,0.2-1.3,1.6-0.4,1.6h14.5
		c1.1,0,1.4-0.4,1.7-0.8l3-4.5C315,74.6,314.2,74.5,313.8,75"/>
	<path fill="#542C81" d="M335.6,66.1c2.1,0,3.7,1.5,4.3,3c0.1,0.4,1.2,0.7,1.5,0.2l1.3-2.4c0.6-1-0.4-2.2-1.8-2.2H324
		c-1.2,0-0.9,1.3-0.4,1.3c1.1,0,1.4,1.3,0.8,2.5l-5.1,9.4c-0.8,0.9-1.3,1.3-2.4,1.3c-0.9,0-1.2,1.3,0,1.3H334c0.7,0,1-0.3,1.3-0.6
		l2.4-3.1c0.6-0.8-0.7-0.8-1-0.4c-3,3-6.1,2.9-8.5,2.9h-2l2.4-5.2h0.5c1.5,0,3.2,0,3.7,1.1c0.1,0.3,0.9,0.5,1.2,0l2-4
		c0.3-0.6-0.6-0.7-0.8-0.3c-0.8,1.4-4.2,1-5.2,1h-0.5l3-5.8h3.2l0,0H335.6z"/>
	<path fill="#542C81" d="M252.5,64.7h-6c-1.2,0-0.9,1.3-0.4,1.3c1.3,0,2.5,1.5,1.8,2.9l-2.5,4.5l-5.5-8.1c-0.4-0.5-1.3-0.8-2-0.8
		H232c-1.2,0-1,1.3-0.4,1.3c1.3,0,0.9,1,0.6,1.6l-4.7,9.1c-0.3,0.7-1.6,0.8-2-0.1l-3.6-11.9c-0.2-0.5-2.3-0.5-2.9,0l-9.2,7.6h-4.7
		c-1,0-1.3,0.4-1.3,0.9s0.4,1,1.4,1h2.5l-2.5,2.1c-1.4,1-2.8,2.5-3.7,2.5h-0.6c-0.9,0-1.4,0.1-1.4,0.9c0,0.7,0.4,1,1.2,1h7.4
		c1.4,0,1.1-1.8,0.4-1.8c-0.8,0-2.1-1-0.9-2.4l2.3-2.2h4.4c2.7,0,4.4,3.1,3,4l-1.2,0.7c-0.6,0.3-0.8,1.7,0,1.7h14.5
		c1.1,0,0.9-1.4,0.4-1.4c-1.5,0-0.8-2.2-0.5-2.7l3.8-7.2l5.3,10.3c0.4,0.7,0.7,1,1.3,1h2.1c0.7,0,0.9-0.4,1.2-0.9l6.1-10.9
		c1-2,1.8-2.6,3-2.6C253.4,66.1,253.8,64.7,252.5,64.7 M212.1,72.2l5.6-4.6v4.6H212.1z"/>
	<path fill="#542C81" d="M167,64.1c-5.1,0-10.3,2.5-11.3,7.9c-0.9,4.6,2.3,9.5,8,9.5c5.4,0,10.3-3.5,11.4-8.7
		C176,67.6,172.1,64.1,167,64.1 M168.4,73.9c-1.6,3.2-4.3,5.1-6,4.2c-1.7-0.9-1.8-4.1-0.2-7.4c1.6-3.2,4.3-5.1,6-4.2
		C170,67.4,170.1,70.6,168.4,73.9"/>
	<path fill="#542C81" d="M195.2,65.2c-0.4,0.2-1.5,0.4-2,0c-1.2-1-3.4-1.7-4.6-1.7c-3.4,0-5.9,0.7-7.4,3.9c-1.3,2.8,0,5,3.1,6.5
		c1.3,0.6,3.1,1.4,2.4,3c-0.5,1.2-1.9,1.3-3.1,1.3c-1.6,0-4-1.2-4.4-3.5c-0.1-0.8-1-0.6-1.3-0.2l-2.1,4.1c-0.3,0.6,0.5,1.2,0.9,0.8
		c0.7-0.8,2.2-0.9,3-0.4c1,0.7,3.6,1.9,5.2,1.9c3.4,0,5.7-0.9,7.7-3.8c1.8-2.8,0.7-5.4-2.5-6.9c-1.7-0.8-3.1-2.2-2.4-3.7
		c0.5-1,2-0.8,2.8-0.7c1.4,0.2,3.2,1.6,3.4,2.8c0.1,0.5,0.7,0.6,1,0.1l1.1-2.6C196.3,65.4,195.5,65,195.2,65.2"/>
	<path fill="#542C81" d="M269.7,71.8h-6.5c-1.2,0-0.9,1.3-0.4,1.3s1,0.3,1,1.1c0,2.7-1.1,3.6-3.3,3.6c-2.5,0-3.3-3.1-1.7-6.7
		c1.1-2.4,3.9-4.5,7.3-4.5c2.1,0,3.7,0.5,4,2.4c0.1,0.5,0.8,0.5,1,0l1.6-2.8c0.2-0.3-0.1-0.7-0.6-0.7c-0.4,0-1.3,0.5-1.9,0.1
		c-1.3-1-4.1-1.9-6.3-1.9c-3.5,0-8.4,0.8-11.7,6.5c-3,5.2,1.4,10.6,5.4,10.6c2.3,0,4.8-1.7,6.3-2.3l1.7,1.1c0.3,0.3,0.8,0.7,1.3,0.7
		h0.6c0.6,0,0.8-0.8,1-1.3l2.6-6.2C271.3,72.3,271.1,71.8,269.7,71.8"/>
</g>
</svg>
