<?xml version="1.0" encoding="utf-8"?>
<!-- Generator: Adobe Illustrator 26.0.1, SVG Export Plug-In . SVG Version: 6.00 Build 0)  -->
<svg version="1.1" id="Layer_1" xmlns="http://www.w3.org/2000/svg" xmlns:xlink="http://www.w3.org/1999/xlink" x="0px" y="0px"
	 viewBox="0 0 239.801 225.817" enable-background="new 0 0 239.801 225.817" xml:space="preserve">
<g>
	<path fill="#707271" d="M222.1,51.817c2.9-5.5,4.3-11,4.3-16.3c0-12-6.7-22.7-16.1-29.1c-13.1-8.9-32.7-10.1-46.6,6.5
		c-20.3-2.8-37.3,2.8-43.8,5.5c-6.5-2.7-23.5-8.2-43.8-5.5c-13.9-16.6-33.6-15.4-46.6-6.5c-9.4,6.4-16.1,17.1-16.1,29.1
		c0,5.3,1.4,10.8,4.3,16.3C7.2,66.917,0,84.917,0,103.217c0,22,9.4,33.3,12.9,38.2c0,0,1.5-1.5,2.8-2.8c10,25.3,27,39,47.6,51.4
		c0,0,0.5-2.5,0.9-4.7c22.2,19.2,32.7,14.5,55.7,40.5c22.9-25.9,33.8-21.5,55.7-40.5c0.4,2.2,0.9,4.7,0.9,4.7
		c9.2-5.5,35-19.4,47.6-51.4c1.3,1.3,2.8,2.8,2.8,2.8c2.2-3,12.9-15,12.9-38.2C239.9,84.917,232.6,67.017,222.1,51.817"/>
	<path fill="#12173F" d="M215.8,52.217c21.1-32.4-26.8-66.2-50-33.5c-23.5-4.2-43.2,4.4-45.9,5.6c-2.6-1.2-22.4-9.8-45.9-5.6
		c-23.2-32.7-71.1,1.1-50,33.5c-24.1,33.1-21.6,65.7-10.5,81l4.6-4.6c0,0,6.6,31.9,41.2,52.8l1.2-6.9c21.3,22.8,40.8,22.3,59.3,43.1
		c18.4-20.8,37.9-20.3,59.3-43.1l1.2,6.9c34.7-20.9,41.2-52.8,41.2-52.8l4.6,4.6C237.5,117.817,239.9,85.217,215.8,52.217"/>
	<path fill="#5D76A9" d="M120.1,173.417c0,0-16.7,0.3-19.1,1.8c0,0-2.9,5,19.1,4.9c20.9-0.1,17.8-3.9,18-4.5
		C138.1,175.617,131,173.417,120.1,173.417"/>
	<path fill="#5D76A9" d="M105.7,154.117c0,0,2.6-7.5,5.4-5.1c3.8,3.3,8.9,10,8.9,10.7v9l-6.1,0.3c-3.5,0.1-14.7,2.8-14.7,2.8
		c-15.5-38.3-6.9-67.4-2.8-77.7c-15.3,3.3-17.8-15.1-17.8-15.1c1.6-0.3,3.9,0.4,6.6,1.6c4.1,2,8.9,5.3,12.8,8.3l0,0
		c1.1,0.9,2.2,1.7,3.1,2.5c10.4,8.8,18.9,7,18.9,7v37.5C119.9,135.917,89.5,133.517,105.7,154.117"/>
	<path fill="#5D76A9" d="M134.2,154.117c19.4-19.7-12.2-18.5-14.2-18.2C123.3,136.117,147.8,136.217,134.2,154.117"/>
	<path fill="#5D76A9" d="M147.1,94.617c17.4,47-4.7,77.2-4.8,77.4c13.7-35.9,4.9-65.8-1.1-76.9c-3.1,0.3-6.8,0.1-6.8,0.1
		s4.6-2.9,7.6-5.6c0.2-0.2,0.4-0.4,0.7-0.6c2.5-2.2,7.3-6.1,13-8.4l0,0c2.1-0.8,4.4-1.4,6.7-1.7
		C162.5,78.917,160.8,94.417,147.1,94.617"/>
	<path fill="#5D76A9" d="M174.7,33.817c0,0,7.1-17.8,28.9-13.5c0,0-20-13.2-33.9,10.6c0,0-20-9.4-49.8,3.5c0,0-28-9.8-49.3-4.3
		c0,0-12.4-21.5-29.9-12.7c-17.5,8.9-8.4,29.4-5.3,34.7c0,0-29,29.5-18.1,66l5.8-7.3c0,0,8.3,39.7,29.8,52.3l1.3-9.8
		c0,0,22.4,27,48.8,38.5c2.5,1.2,16.5,8.1,16.9,11.5v-18.9c0,0-18.3,1.5-23.1-6.9c-3.3-5.7-24.3-43.2-13.9-82.5
		c0,0-10.1-1.5-12-18.6c0,0-7.5-3.7-16.9-2.9c0,0,16.8-5.3,32.5,0.8s19.9,21.6,30.6,14.7l2.9-43.6l3.2,43.6
		c10.6,6.8,14.9-8.6,30.6-14.7s32.5-0.8,32.5-0.8s-6.7-4.7-17.5-6.9c-9-1.8-22.2,4-22.2,4s1.8-12.4,7.8-19
		C159.5,46.217,171.1,44.917,174.7,33.817z M39.2,48.917c-0.6-5.9,6.9-11.8,6.9-11.8c-3.1-3.2-8.5-0.4-8.5-0.4
		c4.9-9.6,15.9-4.9,15.9-4.9c-4.2-5.1-13-4.8-13-4.8c10.9-10.8,24.1,5.7,24.1,5.7C52.8,35.317,39.2,48.917,39.2,48.917z"/>
	<path fill="#FFBB22" d="M97.9,88.817c-1.7-0.5-4.5,1.2-6,4.2c-5.2-1.5-7-7.1-6.8-12.5l0,0C89.2,82.517,94.1,85.817,97.9,88.817"/>
	<path fill="#FFBB22" d="M149.1,93.117c-1.6-3.2-4.6-4.9-6.3-4.1c2.5-2.2,7.3-6.1,13-8.4l0,0
		C156.1,86.017,154.2,91.617,149.1,93.117"/>
</g>
</svg>
