<?xml version="1.0" encoding="utf-8"?>
<!-- Generator: Adobe Illustrator 26.0.1, SVG Export Plug-In . SVG Version: 6.00 Build 0)  -->
<svg version="1.1" id="Layer_1" xmlns="http://www.w3.org/2000/svg" xmlns:xlink="http://www.w3.org/1999/xlink" x="0px" y="0px"
	 viewBox="0 0 349.3 260.776" enable-background="new 0 0 349.3 260.776" xml:space="preserve">
<g>
	<path fill="#B4975A" d="M347.3,99.8l1.1,0.4V80.5c0-3.1-0.5-6.2-1.6-9.2s-2.6-5.9-4.6-8.5c-1.8-2.3-3.9-4.5-6.2-6.3
		c-2.1-1.6-4.3-3-6.7-4.1c-1.5-1-4.5-2.4-12.6-5.7c-6.9-2.7-18-6.9-32.4-11.1c-13.1-3.9-30-8.2-48.7-11.4l0,0
		c-0.1-0.2-12.7-15.9-31.6-7.8c-0.6,0.3-1.3,0.6-1.9,0.9c-2.8,1.4-5.3,2.6-10.1,1.3c-2.8-0.8-6.4-2.5-5-8.8c0.3-1.4,1.4-3.3,3.2-4.3
		c1.2-0.7,2.5-0.9,3.9-0.5c2.5,0.7,3.6,2.1,3.2,4.2c-0.1,0.8-0.7,1.6-1.5,1.9c-0.8,0.3-1.6,0.1-2.6-0.5c-0.9-0.6-2.1-0.4-2.8,0.5
		c-0.6,0.9-0.4,2.2,0.5,2.8c2.1,1.4,4.4,1.8,6.4,0.9c2-0.8,3.5-2.7,3.8-4.9c0.3-1.6,0.7-6.8-6-8.7c-2.4-0.7-4.9-0.4-7,0.8
		c-2.4,1.4-4.4,4.1-5,6.9c0,0.1,0,0.2,0,0.2c-0.8-1.1-1.6-2-2-2.4L174.6,0l-6.5,6.7c-0.4,0.4-1.2,1.3-2,2.4c0-0.1,0-0.2,0-0.2
		c-0.6-2.7-2.6-5.4-5-6.9c-2.2-1.3-4.6-1.5-7-0.8c-6.7,2-6.3,7.2-6,8.7c0.4,2.1,1.9,4,3.8,4.9c2,0.9,4.3,0.5,6.4-0.9
		c0.9-0.6,1.1-1.9,0.5-2.8s-1.9-1.1-2.8-0.5c-1,0.7-1.8,0.8-2.6,0.5c-0.7-0.3-1.3-1.1-1.5-1.9c-0.4-2.1,0.7-3.5,3.2-4.2
		c1.4-0.4,2.7-0.2,3.9,0.5c1.7,1,2.8,2.9,3.2,4.3c1.5,6.3-2.1,8.1-5,8.8c-4.8,1.3-7.3,0.1-10.1-1.3c-0.6-0.3-1.3-0.6-1.9-0.9
		c-18.9-8.1-31.5,7.6-31.7,7.8c0,0,0,0.1-0.1,0.1c-18,3.1-34.3,7.2-47,10.9C42,42.4,22.3,51.3,21.5,51.7l-2.6,1.2v0.4
		c-1.1,0.2-2.3,0.5-3.4,1.1c-4.2,1.9-8.3,4-12.4,6L0,62v10.7c0,2.6,0.5,4.7,1.5,6.5c0.2,0.4,0.4,0.7,0.7,1v11.9
		c-1.4,2.6-2.1,5.3-2.1,7.9c0,2.6,0.7,4.9,2.1,6.7v24.8l0.3,0.7c0.2,0.6,4.1,11.1,15.9,15.4l-0.3,0.2c0,0,6.2,10,15.8,12.1l-1.8,0.8
		c0,0,6.8,11,19.9,13.3l-1.9,0.9c0,0,8.5,9.1,21.7,10.8c14,43.5,54.8,75.1,102.9,75.1s88.9-31.6,102.9-75.1
		c13.2-1.7,21.7-10.8,21.7-10.8l-1.9-0.9c13.1-2.3,19.9-13.3,19.9-13.3l-1.8-0.8c9.6-2.1,15.8-12.1,15.8-12.1l0.6-0.8
		c11-4.7,17.4-15.4,17.4-25.5v-12.6C349,105.8,348.3,102.7,347.3,99.8z M228.8,23.2c-7.8-1.2-15.8-2.1-24-2.7
		c0.2-0.1,0.5-0.2,0.7-0.3C216.2,15.6,224.4,19.8,228.8,23.2z M143.5,20.2c0.3,0.1,0.5,0.2,0.7,0.4c-8.2,0.6-16.3,1.6-24.1,2.8
		C124.6,19.9,132.9,15.6,143.5,20.2z"/>
	<g>
		<path fill="#0A2240" d="M338.2,91.4l5.8,2.3V80.5c0-2.6-0.5-5.2-1.3-7.7c-0.9-2.6-2.3-5.1-3.9-7.3c-1.6-2.1-3.4-3.9-5.4-5.5
			c-1.9-1.5-3.9-2.7-6.1-3.7c-1.1-0.8-4.1-2.3-12.1-5.4c-6.8-2.7-17.8-6.8-32-11c-23.3-7-58.4-15.2-95-15.7
			c-0.9-2.5-2.9-4.4-5.7-5.1c-0.3-4.8-3.8-8.5-4.5-9.3l-3.4-3.5l-3.4,3.5c-0.7,0.7-4.2,4.5-4.5,9.3c-2.7,0.6-4.8,2.5-5.7,5
			c-36,0.6-70.4,8.6-93.3,15.4c-24.4,7.2-44.3,16.3-44.3,16.3v2.7c0,0-0.3-0.2-0.5-0.3c-0.7-0.3-1.4-0.5-2.2-0.5
			c-1,0-2.1,0.3-3.3,0.8c-4.1,1.9-8.2,3.9-12.2,5.9l-0.7,0.3v8.1c0,1.8,0.3,3.2,1,4.3c0.3,0.6,0.8,1.1,1.3,1.5v14.7
			c-1.3,2.2-2.1,4.6-2.1,6.8s0.7,3.9,2.1,5v25.7c0,0,3.9,10.7,16.1,13.5c0.3,0.1,0.6,0.1,0.9,0.2c0,0,0,0,0.1,0
			c1.9,0.4,4,0.6,6.3,0.5l0,0c-2.2,1.1-4.3,2.1-6.5,3.3c0,0.1,6.5,10.7,21.9,9.2c-2.6,1.2-5.1,2.5-7.7,3.7c0,0.1,7.4,10.5,23.8,10.3
			c-3.8,1.9-6,3.1-6,3.1c0,0.1,7.4,7.2,19.7,8c12.8,42.7,52.4,73.9,99.3,73.9s86.5-31.1,99.3-73.9c12.4-0.9,19.7-8,19.7-8
			s-2.3-1.2-6-3.1c16.3,0.3,23.7-10.1,23.8-10.3c-2.6-1.3-5.1-2.5-7.7-3.7c15.5,1.5,21.9-9,21.9-9.2c-2.2-1.1-4.3-2.2-6.5-3.3
			c5.3,0.4,9.6-1.1,12.9-3c8.3-4.5,12.7-13.1,12.7-20.5v-12.6C344.6,100.8,338.2,91.4,338.2,91.4z"/>
		<g>
			<path fill="#CE0E2D" d="M243.5,191.4c1.9,1.5,3.9,3,5.8,4.5c0-0.2-23,6.3-39.5-0.9c-0.6-0.3-1.2-0.6-1.8-0.9
				c-4.1,14.7-17.6,25.6-33.6,25.6c-16,0-29.5-10.9-33.6-25.6c-0.6,0.3-1.1,0.6-1.8,0.9c-16.4,7.2-39.5,0.7-39.5,0.9
				c1.9-1.5,3.9-3,5.8-4.5c-8,1.2-15.4-0.3-20.5-1.9c14.5,35.2,49.1,60,89.5,60s75-24.8,89.5-60
				C258.9,191.2,251.5,192.6,243.5,191.4z"/>
		</g>
		<g>
			<path fill="#FFFFFF" d="M164.9,34.2c-1.8-0.9-3.1-2.4-3.8-4.2c-58,1.5-115.9,22.3-115.7,23.1c-2.5,0.9-3.9,3.1-3.9,4.6v2.1
				c40-15.5,81.7-23.7,123.5-24.7L164.9,34.2z"/>
			<path fill="#FFFFFF" d="M307.3,54.6c0.1-0.8-60.6-23.1-119.4-24.6c-0.7,1.8-2.1,3.3-3.8,4.2V35c43,1.2,86,10,127.1,26.2v-2.1
				C311.2,57.7,309.8,55.5,307.3,54.6z"/>
		</g>
		<path fill="#CE0E2D" d="M180.9,23.7c-3.8-0.5-4.4,4.9-4.5,6.7h-1.2c0-5.1,2.5-7.2,2.5-10.6s-3.1-6.6-3.1-6.6s-3.1,3.2-3.1,6.6
			s2.4,5.5,2.4,10.6h-1.2c-0.1-1.8-0.7-7.2-4.5-6.7c-4.1,0.5-3.6,6.1,0,6.6c0,0-0.7-2.5,1.3-2.5c1.5,0,1.9,1.7,2,2.6h-1.7h-0.1v2
			h0.1h3.9c-0.5,1.9-1.8,2.5-1.8,2.5s0.5,1.1,1.7,1.2c0,0,0,1.3,1,2.4c1-1,1-2.4,1-2.4c1.2-0.1,1.7-1.2,1.7-1.2s-1.3-0.6-1.8-2.5
			h3.9l0,0v-2l0,0h-1.7c0.1-0.9,0.5-2.6,2-2.6c2,0,1.3,2.5,1.3,2.5C184.5,29.8,184.9,24.2,180.9,23.7"/>
		<g>
			<path fill="#FFFFFF" d="M162.3,62.8V50.3c0-1.7-0.3-3.3-1-4.5c-0.6-1.3-1.5-2.3-2.6-3.1c-1.1-0.8-2.4-1.4-3.9-1.7
				c-1.5-0.3-3.1-0.4-4.9-0.3c-1.7,0.1-3.4,0.4-4.9,1c-1.5,0.5-2.8,1.3-4,2.2c-1.1,0.9-2,2.1-2.6,3.5s-1,2.9-1,4.7v12.6
				c-1.3,0.3-2.3,1.6-2.3,2.9c0,1.4,1,2.3,2.3,2.4v14.1c0,1.7,0.3,3.2,1,4.5c0.6,1.2,1.5,2.3,2.6,3c1.1,0.8,2.4,1.3,4,1.6
				c1.5,0.3,3.1,0.4,4.9,0.3c1.7-0.1,3.4-0.4,4.9-0.9s2.8-1.2,3.9-2.1c1.1-0.9,2-2,2.6-3.4c0.6-1.3,1-2.9,1-4.6V68.4
				c1.4-0.2,2.5-1.4,2.5-2.7C164.8,64,163.7,62.9,162.3,62.8z M155.4,82.2c0,0.9-0.2,1.7-0.5,2.3c-0.3,0.6-0.8,1.2-1.3,1.6
				c-0.5,0.4-1.1,0.7-1.7,1c-0.6,0.2-1.3,0.4-1.9,0.4c-0.7,0-1.3,0-2-0.1c-0.7-0.1-1.2-0.4-1.8-0.7c-0.5-0.3-0.9-0.8-1.3-1.4
				c-0.3-0.6-0.5-1.3-0.5-2.3V51.6c0-0.9,0.2-1.7,0.5-2.3c0.3-0.6,0.8-1.2,1.3-1.6s1.1-0.8,1.8-1c0.7-0.2,1.3-0.4,2-0.4
				c0.7,0,1.3,0,1.9,0.2c0.6,0.1,1.2,0.4,1.7,0.8s0.9,0.8,1.3,1.4c0.3,0.6,0.5,1.4,0.5,2.3V82.2z"/>
			<path fill="#FFFFFF" d="M29.3,96.6c0,0.1,0,0.2-0.1,0.1c-0.1-0.1-0.1-0.1-0.2-0.2c-0.2-0.6-8.4-28-8.9-29.2
				c-0.4-1.3-0.7-1.9-0.7-2c-0.1-0.4-0.3-0.7-0.6-0.8s-0.7-0.1-1.2,0.2c-2.5,1.2-4.9,2.3-7.4,3.5v2.3c0,0.8,0.1,1.4,0.3,1.7
				c0.2,0.4,0.5,0.6,0.8,0.8s0.7,0.2,1.1,0.2v20.9c-1.2,0.8-2.1,2.3-2.1,3.7c0,1.3,0.9,2,2.1,1.6v29.5c1.9-0.9,3.8-1.8,5.8-2.7v-37
				c0-0.3,0-0.4,0.1-0.4l0.1,0.1c0,0,0.2,0.7,0.7,1.9c0.4,1.2,8.5,28.2,8.6,28.4c0.2,0.7,0.5,1.2,0.7,1.6c0.2,0.4,0.7,0.5,1.2,0.2
				c1.3-0.5,2.6-1.1,3.9-1.6c0.5-0.2,0.9-0.6,1.2-1c0.3-0.5,0.4-0.9,0.4-1.4V89.3c1.1-0.8,1.9-2.1,1.9-3.3s-0.8-1.9-1.9-1.8V63.7
				c0-0.4,0.1-0.8,0.2-1c0.1-0.2,0.3-0.5,0.4-0.7c0.4-0.4,0.7-1,1.1-1.6c0.4-0.6,0.5-1.4,0.5-2.1v-2c-2.7,1.1-5.4,2.2-8.1,3.4v36.9
				H29.3z"/>
			<path fill="#FFFFFF" d="M303.2,97.1c0,0.1,0,0.1-0.1,0s-0.1-0.2-0.2-0.3c-0.2-0.7-0.5-2-1.1-4c-0.5-2-1.2-4.3-1.9-6.9
				c-0.7-2.6-1.4-5.4-2.2-8.2c-0.8-2.9-1.5-5.5-2.2-7.9s-1.3-4.4-1.7-6.1c-0.5-1.6-0.7-2.5-0.7-2.6c-0.1-0.5-0.3-0.9-0.6-1.3
				c-0.3-0.3-0.7-0.6-1.2-0.8c-2.6-0.8-5.1-1.7-7.7-2.5v2.3c0,0.8,0.1,1.4,0.3,2c0.2,0.6,0.5,1,0.8,1.4s0.7,0.8,1.2,1.1v16.3
				c-1.2-0.2-2.2,0.7-2.2,2s0.9,2.7,2.2,3.3v23.9c2,0.6,4,1.3,6,1.9V78c0-0.3,0-0.4,0.1-0.3c0,0.1,0.1,0.1,0.1,0.3
				c0,0.1,0.2,0.9,0.7,2.5s1,3.6,1.7,6s1.4,5,2.2,7.8c0.8,2.8,1.5,5.4,2.2,7.9s1.3,4.6,1.8,6.3c0.5,1.8,0.8,2.8,0.9,3
				c0.2,0.9,0.5,1.6,0.7,2.2c0.3,0.6,0.7,1,1.2,1.2c1.3,0.5,2.6,1,3.9,1.5c0.5,0.2,0.9,0.2,1.2-0.1c0.3-0.3,0.4-0.6,0.4-1.1V93
				c1.1,0.1,1.9-0.6,1.9-1.8s-0.8-2.6-1.9-3.3V72c0-0.4,0.1-0.7,0.2-0.8s0.3-0.3,0.4-0.4c0.4-0.1,0.7-0.4,1.1-0.7
				c0.4-0.4,0.5-0.9,0.5-1.7v-2c-2.7-1.1-5.5-2.1-8.2-3.1v33.8H303.2z"/>
			<path fill="#FFFFFF" d="M337.4,102.3c-0.8-1.8-1.9-3.6-3.1-5.3c-1-1.4-2.1-2.8-3.3-4.2c0.1-0.2,0.1-0.4,0.1-0.6
				c0-1.5-1.2-3.2-2.6-3.9c-0.6-0.3-1.2-0.3-1.6-0.1c-0.2-0.2-0.4-0.5-0.6-0.7c-1.2-1.4-2.3-2.7-3.1-3.9c-0.8-1.2-1.3-2.2-1.3-3.2
				V69.5c0-0.5,0.2-0.9,0.5-1.1c0.3-0.3,0.7-0.4,1.2-0.5s1,0,1.5,0c0.5,0.1,1,0.3,1.5,0.5c0.4,0.2,0.9,0.5,1.5,0.8
				c0.5,0.4,1.1,0.8,1.5,1.2c0.5,0.5,0.8,1,1.1,1.5c0.3,0.6,0.5,1.1,0.5,1.7v2.6c0,1.1,0.4,2.2,1.1,3.3s1.7,1.9,2.8,2.4
				c1,0.5,2,0.9,2.9,1.4v-5.1c0-1.7-0.3-3.4-0.8-5c-0.6-1.6-1.4-3-2.4-4.4c-1-1.3-2.2-2.6-3.6-3.6c-1.4-1.1-2.9-2-4.5-2.7
				s-3.1-1.2-4.5-1.4s-2.6-0.1-3.6,0.3c-1,0.4-1.8,1.2-2.4,2.2c-0.6,1.1-0.9,2.5-0.9,4.4v9c0,1.9,0.4,3.7,1.2,5.4
				c0.8,1.7,1.9,3.3,3.1,4.8s2.5,3,3.9,4.4c-0.1,0.3-0.2,0.6-0.2,1c0,1.5,1.2,3.2,2.6,3.8c0.8,0.4,1.5,0.3,2-0.1
				c1.1,1.3,2.1,2.7,2.8,4c0.8,1.5,1.2,2.9,1.2,4.5v12.9c0,0.6-0.2,1.1-0.5,1.4c-0.3,0.3-0.8,0.5-1.3,0.7c-0.5,0.1-1.1,0.1-1.7,0
				s-1.2-0.2-1.8-0.5c-0.6-0.3-1.2-0.6-1.8-1.1c-0.6-0.5-1.2-1-1.7-1.5s-0.9-1.1-1.3-1.7c-0.3-0.6-0.5-1.2-0.5-1.8v-3
				c0-1.1-0.3-2-0.9-2.8s-1.5-1.5-2.7-2c-1.1-0.4-2.1-0.9-3.2-1.3v5.2c0,1.7,0.3,3.4,1,5c0.6,1.6,1.5,3,2.6,4.3s2.4,2.5,3.8,3.5
				c1.5,1,3,1.9,4.6,2.7c1.6,0.7,3.2,1.2,4.6,1.5c1.5,0.3,2.7,0.2,3.8-0.1c1.1-0.3,2-1,2.6-2c0.7-1,1-2.4,1-4.1v-12.4
				C338.6,105.9,338.2,104.1,337.4,102.3z"/>
			<path fill="#FFFFFF" d="M105,72.5c-0.3,2.4-0.6,4.8-0.8,7.2c-0.3,2.4-0.5,4.4-0.8,6.3c-0.2,1.8-0.4,3.3-0.6,4.4
				c-0.1,1.1-0.2,1.7-0.3,1.7c-0.6-3.2-1.1-6.1-1.5-8.7c-0.4-2.6-0.9-5.4-1.5-8.6c-0.5-3.2-1.1-6.3-1.6-9.4
				c-0.6-3.1-1.1-5.9-1.6-8.6c-0.5-2.6-0.9-4.7-1.3-6.2c-0.1-0.5-0.5-0.8-1.3-1s-1.5-0.1-2.3,0c-0.7,0.2-1.4,0.5-2.2,0.9
				c-0.8,0.4-1.2,1-1.3,1.6c-0.4,1.6-0.8,3.8-1.3,6.7c-0.5,2.8-1,5.9-1.6,9.3c-0.5,3.3-1.1,6.7-1.6,10.1c-0.5,3.4-1,6.6-1.5,9.4
				c-0.4,2.8-0.9,6-1.5,9.5c0,0-0.1-0.5-0.3-1.6c-0.2-1.1-0.3-2.5-0.6-4.2c-0.2-1.7-0.4-3.7-0.7-5.9c-0.3-2.2-0.6-4.5-0.8-6.8
				c-0.6-5.4-2.9-25-2.9-25c-2.8,0.8-5.6,1.6-8.4,2.4v2.1c0,0.8,0.2,1.4,0.5,1.8c0.3,0.4,0.7,0.7,1,0.8c0.2,0.1,0.4,0.3,0.6,0.4
				c0.2,0.2,0.3,0.4,0.4,0.8c0.7,5.5,1.3,10.6,1.8,15.4c-1,0.7-1.7,1.8-1.7,3c0,1.3,1,2.2,2.3,2c0,0.1,0,0.2,0,0.3
				c0.3,2.6,0.6,5.2,0.9,7.7s0.6,4.7,0.8,6.7c0.3,2,0.5,3.6,0.6,4.8c0.2,1.2,0.2,1.9,0.2,2c0,0.4,0.2,0.7,0.4,0.9
				c0.3,0.3,0.6,0.4,1.1,0.2c2.6-0.7,5.2-1.4,7.8-2.1c0.5-0.1,0.9-0.4,1.2-0.7c0.3-0.3,0.5-0.8,0.8-1.5c2-11.7,3.9-23.3,5.9-34.9
				c1.9,10.7,3.8,21.5,5.8,32.3c0.2,0.5,0.5,0.9,0.8,1.1c0.3,0.2,0.7,0.3,1.2,0.2c2.6-0.5,5.2-1,7.8-1.5c0.5-0.1,0.8-0.3,1.1-0.7
				s0.4-0.8,0.5-1.1c0-0.1,0.1-0.8,0.3-2.1s0.4-3,0.6-5.1c0.3-2.1,0.5-4.4,0.8-7.1c0.3-2.6,0.6-5.3,0.9-8.1c0-0.1,0-0.2,0-0.3
				c1.3-0.4,2.3-1.7,2.3-3c0-1.1-0.7-2-1.7-2.2c0.6-5,1.2-10.4,1.9-16.2c0.1-0.4,0.2-0.7,0.4-1s0.4-0.5,0.6-0.7
				c0.4-0.3,0.7-0.7,1-1.3c0.3-0.6,0.5-1.2,0.5-2v-2.1c-2.9,0.5-5.7,0.9-8.5,1.5C108,46.3,105.7,66.8,105,72.5z"/>
			<path fill="#FFFFFF" d="M277.4,79.8c0-1.3-1-2.7-2.3-3.3c-0.3-1.9-0.6-3.8-1-5.7c-0.4-2.6-0.8-4.9-1.2-7
				c-0.3-2.1-0.6-3.8-0.9-5.2c-0.2-1.3-0.4-2.1-0.4-2.3c-0.1-0.9-0.5-1.7-1.1-2.5s-1.5-1.3-2.6-1.6c-3.1-0.8-6.2-1.6-9.3-2.3v1.6
				c0,2,0.6,3.3,1.7,4.1c0.2,0.1,0.3,0.4,0.3,0.7c0,0.3,0,0.6-0.1,1c0,0-0.1,0.6-0.3,1.6c-0.2,1-0.5,2.4-0.8,4.1
				c-0.3,1.7-0.7,3.6-1.1,5.8c-0.2,1.1-0.4,2.1-0.6,3.2c-1.5-0.3-2.7,0.6-2.7,2.1c0,1.1,0.7,2.2,1.7,2.9c-1.3,6.7-4.5,23-4.5,23
				c2.2,0.5,4.4,1,6.6,1.5c0,0,1.9-11.2,2-11.4c0.1-0.9,0.5-1.3,1.2-1.1c2.6,0.6,5.3,1.3,7.9,2c0.4,0.1,0.8,0.3,1,0.5
				c0.3,0.3,0.5,0.7,0.5,1.3c0,0.2,1.5,12.3,1.5,12.3c2.3,0.7,4.6,1.3,6.9,2c0,0-2.8-17-4.3-25.4C276.8,81.5,277.4,80.8,277.4,79.8z
				 M270.4,85c-0.2,0.2-0.4,0.2-0.8,0.1c-2.2-0.6-4.3-1.1-6.5-1.7c-0.3-0.1-0.5-0.2-0.7-0.5c-0.2-0.2-0.3-0.5-0.2-0.8
				c0,0,0.1-0.4,0.2-1.1c0.1-0.7,0.3-1.6,0.4-2.7c0.2-1.1,0.4-2.3,0.6-3.7s0.5-2.8,0.8-4.2c0.7-3.8,1.4-7.6,2.1-11.5
				c0.1,0,0.1,0,0.1,0c0.7,4.2,1.4,8.3,2.1,12.5c0.3,1.6,0.5,3.1,0.8,4.6c0.2,1.5,0.4,2.9,0.6,4c0.2,1.2,0.3,2.2,0.5,3
				c0.1,0.8,0.2,1.2,0.2,1.2C270.7,84.6,270.6,84.9,270.4,85z"/>
			<path fill="#FFFFFF" d="M193.2,86.9c-0.2-0.2-0.4-0.3-0.6-0.4c-0.2-0.1-0.2-0.4-0.2-0.9V73.8c0-1.7-0.3-3.3-0.8-4.7
				s-1.3-2.5-2.4-3.3c-0.5-0.5-0.6-1-0.1-1.4c1-0.7,1.8-1.7,2.4-2.9c0.6-1.2,0.9-2.5,0.9-4v-5.4c0-1.7-0.2-3.3-0.6-4.7
				c-0.4-1.4-1.1-2.7-2-3.7s-2.1-1.9-3.5-2.5s-3.1-1-5.2-1c-4.9-0.1-9.7-0.1-14.6,0v2c0,1,0.2,1.7,0.5,2.2c0.4,0.5,0.7,0.9,1.1,1.1
				c0.2,0.1,0.4,0.2,0.5,0.4c0.1,0.2,0.2,0.5,0.2,0.9v15.7c-1.3,0.3-2.2,1.4-2.2,2.7s0.9,2.4,2.2,2.6v23.9c2.3,0,4.6,0,6.9,0V69
				c0-0.6,0.3-1,0.9-1c1.5,0,2.9,0,4.4,0.1c1.5,0,2.6,0.5,3.3,1.4c0.7,0.9,1,2.2,1,3.8v15.1c0,1,0.3,1.8,0.9,2.5
				c0.6,0.6,1.5,1,2.7,1c2,0.1,3.9,0.2,5.9,0.3v-2.7c0-0.8-0.2-1.4-0.5-1.8C194,87.5,193.6,87.2,193.2,86.9z M185.4,57.4
				c0,1.6-0.3,2.9-1,3.8c-0.7,0.9-1.8,1.4-3.3,1.4s-3,0-4.5-0.1c-0.2,0-0.4-0.1-0.6-0.2c-0.2-0.1-0.3-0.3-0.3-0.5V47
				c0-0.6,0.4-1,1.1-1c1.4,0,2.8,0,4.2,0.1c1.5,0,2.6,0.5,3.3,1.5c0.7,1,1,2.2,1,3.8v6H185.4z"/>
			<path fill="#FFFFFF" d="M215.3,73.8c-0.7,0.2-1.1,0.9-1.1,1.9c0,0.3,0.1,11.9-0.1,12.2c-0.2,0.2-0.4,0.3-0.7,0.3
				c-2.1-0.2-4.1-0.4-6.2-0.6c-0.3,0-0.6-0.2-0.7-0.5c-0.1-0.3-0.2-0.6-0.2-1c0-12.6,0-25.2-0.1-37.9c0-0.5,0.1-0.8,0.2-1
				s0.3-0.3,0.5-0.4c0.4-0.2,0.7-0.6,1.1-1.1c0.4-0.5,0.6-1.1,0.6-1.9v-2.1c-3.9-0.4-7.9-0.7-11.8-0.9v2.1c0,0.8,0.2,1.4,0.6,2
				c0.4,0.5,0.8,0.9,1.1,1.2c0.2,0.2,0.4,0.3,0.6,0.5c0.1,0.2,0.2,0.5,0.2,1v15.7c-1.3,0.2-2.2,1.2-2.2,2.5s1,2.5,2.2,2.8v23.9
				c6.2,0.4,12.4,1,18.6,1.7c0.5,0.1,0.9,0.1,1.4,0.2c0.4,0,0.7-0.1,1.1-0.3c0.4-0.3,0.6-0.7,0.6-1.2V74c-1-0.1-2-0.2-3-0.4
				C217,73.5,216,73.6,215.3,73.8z"/>
			<path fill="#FFFFFF" d="M62,57.7c-0.1,0-0.2,0-0.3,0.1h-0.1l0,0c-7.2,2.3-14.4,4.8-21.5,7.6v2c0,0.9,0.1,1.6,0.4,2
				c0.2,0.4,0.6,0.6,1,0.7c0.2,0.1,0.4,0.2,0.6,0.3c0.2,0.2,0.3,0.4,0.3,0.9v15.6c-1.2,0.7-2.1,2.1-2.1,3.5c0,1.3,0.9,2.1,2.1,1.8
				V116c0.6-0.2,1.2-0.4,1.7-0.7c3.1-1.2,6.2-2.3,9.2-3.3c1.3-0.5,2.6-0.9,4-1.3c1-0.3,2-0.7,3-1c0.4-0.1,0.8-0.3,1.2-0.4h0.1
				c0.2-0.1,0.3-0.1,0.5-0.3s0.4-0.3,0.6-0.6c0.3-0.4,0.5-0.9,0.5-1.4v-7l0,0c0-2.5,0-5,0-7.5c-1,0.3-1.9,0.6-2.9,0.9
				c-1,0.3-2,0.8-2.7,1.4c-0.7,0.5-1,1.3-1,2.4c0,0.3,0.1,7.5-0.1,7.8s-0.4,0.5-0.7,0.6c-0.9,0.3-1.7,0.6-2.6,0.9
				c-1.2,0.4-2.4,0.8-3.6,1.2c-0.5,0.2-0.8,0-0.8-0.7V91c0-0.6,0.3-1.1,1-1.3c2.7-1,5.4-1.9,8.1-2.8c0.7-0.2,1-0.7,1-1.3v-3.9
				c0-0.4-0.1-0.6-0.4-0.7c-0.2-0.1-0.5-0.1-0.7,0c-2.7,0.9-5.4,1.8-8.1,2.8c-0.7,0.2-1,0-1-0.6V68.8c0-0.3,0.1-0.6,0.3-0.8
				c0.2-0.3,0.4-0.5,0.6-0.5c2.2-0.8,4.3-1.5,6.5-2.2c0.1,0,0.2,0.1,0.3,0.2c0.2,0.2,0.1,7.5,0.1,7.8c0,1.1,0.3,1.6,1,1.7
				c0.7,0.1,1.7-0.1,2.7-0.4c1-0.3,1.9-0.6,2.9-0.9v-7.5l0,0v-7.3c0-0.4-0.2-0.7-0.5-0.9C62.6,57.8,62.3,57.7,62,57.7z"/>
			<path fill="#FFFFFF" d="M246.6,47.4c-0.1-0.1-0.2-0.1-0.3-0.1h-0.1l0,0c-7.4-1.4-14.8-2.7-22.2-3.7v2c0,0.9,0.1,1.6,0.4,2.2
				c0.3,0.5,0.6,1,1.1,1.2c0.2,0.2,0.4,0.4,0.6,0.6s0.3,0.6,0.3,1v15.6c-1.3,0.1-2.2,1-2.2,2.3s1,2.5,2.2,2.9v23.8
				c0.6,0.1,1.2,0.2,1.8,0.3c3.2,0.5,6.4,1,9.6,1.5c1.4,0.2,2.7,0.5,4.1,0.7c1,0.2,2,0.4,3.1,0.6c0.4,0.1,0.8,0.2,1.3,0.2h0.1
				c0.2,0,0.3,0,0.5,0s0.5-0.1,0.7-0.3c0.3-0.2,0.5-0.6,0.5-1.1V90v-7.5c-1-0.2-2-0.4-2.9-0.6c-1-0.2-2-0.2-2.7,0s-1,0.8-1,1.9
				c0,0.3,0.1,7.6-0.1,7.8s-0.4,0.3-0.7,0.2c-0.9-0.2-1.8-0.3-2.7-0.5c-1.2-0.2-2.5-0.4-3.7-0.6c-0.6-0.1-0.8-0.5-0.8-1.1v-16
				c0-0.6,0.4-0.9,1.1-0.8c2.8,0.5,5.6,0.9,8.4,1.5c0.7,0.1,1-0.1,1-0.8v-3.8c0-0.4-0.1-0.7-0.4-0.9s-0.5-0.3-0.7-0.4
				c-2.8-0.5-5.5-1-8.3-1.5c-0.7-0.1-1.1-0.5-1.1-1.1V51.4c0-0.3,0.1-0.5,0.3-0.7c0.2-0.2,0.4-0.2,0.7-0.2c2.2,0.4,4.5,0.7,6.7,1.2
				c0.1,0.1,0.2,0.2,0.3,0.3c0.2,0.3,0.1,7.5,0.1,7.8c0,1.1,0.4,1.8,1,2.3c0.7,0.5,1.7,0.8,2.7,1s2,0.4,2.9,0.6v-7.5v-7.3
				c0-0.4-0.2-0.7-0.5-1.1C247.3,47.7,247,47.5,246.6,47.4z"/>
		</g>
		<g>
			<path fill="#FFFFFF" d="M118.1,204.2l4.9,4.7c0.8,0.8,1.9,1.9,1.7,3.4c-0.1,0.7-0.5,1.4-1.1,2c-0.7,0.8-1.5,1-2.1,1.1
				c-1.4,0.2-2.4-0.7-3.4-1.7l-2.8-2.7l-2.9,3l-2-1.9L118.1,204.2z M116.6,209.6l2.5,2.4c0.6,0.6,1.5,1.5,2.5,0.4
				c0.4-0.4,0.5-0.8,0.5-1.2c0-0.5-0.3-0.8-1.2-1.6l-2.2-2.2L116.6,209.6z"/>
			<path fill="#FFFFFF" d="M131.2,215.6l8.8,5.3l-1,1.7l-6.4-3.9l-1.3,2.1l6.2,3.7l-1,1.7l-6.2-3.7l-1.4,2.3l6.7,4l-1,1.7l-9.1-5.4
				L131.2,215.6z"/>
			<path fill="#FFFFFF" d="M146.5,223.8l2.6,0.9l-2.8,8.5l5.8,1.9l-0.6,1.9l-8.4-2.8L146.5,223.8z"/>
			<path fill="#FFFFFF" d="M161.6,227.9l2.7,0.4l-1.7,10.9l-2.7-0.4L161.6,227.9z"/>
			<path fill="#FFFFFF" d="M185,235.9c-0.2,0.7-0.4,1.5-1.3,2.4c-0.9,0.8-2.3,1.8-5.1,1.9c-3.9,0.2-6.7-1.8-6.9-5.6
				c-0.2-4.1,3.1-6,6.5-6.1c1.3-0.1,4.9,0.1,6.5,3.2l-3,0.5c-0.3-0.5-1.2-1.7-3.4-1.6c-2.5,0.1-3.8,1.9-3.8,4c0.1,2.4,2,3.8,4.1,3.7
				c2.4-0.1,3.1-1.5,3.4-2.2L185,235.9z"/>
			<path fill="#FFFFFF" d="M194.8,226.3l2.9-0.8l8.2,9.1l-3,0.9l-1.5-1.7l-5.4,1.6l-0.3,2.3l-2.9,0.9L194.8,226.3z M197.4,229
				c-0.1-0.1-0.2-0.2-0.3-0.4c-0.1-0.1-0.2-0.2-0.2-0.4c0,0.1,0,0.3,0,0.4c0,0.2,0,0.3,0,0.5l-0.6,4l3.7-1.1L197.4,229z"/>
			<path fill="#FFFFFF" d="M208.3,221.4l2.4-1.4l7.8,2.5c1,0.3,1.1,0.4,2.2,0.8c-0.6-0.9-0.8-1.1-1.3-1.9l-2.9-4.8l2.3-1.4l5.7,9.5
				L222,226l-7.9-2.5c-0.8-0.3-1.2-0.4-2.1-0.8c0.5,0.7,0.6,0.8,1,1.6l3.1,5.2l-2.3,1.3L208.3,221.4z"/>
			<path fill="#FFFFFF" d="M231,214.7c1.4,0.5,2.8-0.3,3.9-1.3c0.5-0.5,1.9-2,1-3c-0.6-0.6-1.2-0.2-1.7,0.2
				c-0.4,0.2-2.3,1.6-2.7,1.9c-0.9,0.6-3,2-4.8,0.2c-0.4-0.4-0.7-0.9-0.8-1.4c-0.4-1.7,0.8-3.4,2.1-4.6c1.2-1.1,2.2-1.8,3.5-2.2
				c1.2-0.3,2.1-0.1,2.5,0l-1.4,2.3c-0.2-0.1-0.6-0.2-1.3,0c-0.8,0.3-1.5,0.9-1.9,1.2c-0.9,0.8-1.6,1.9-0.9,2.6
				c0.5,0.5,1.1,0.2,1.8-0.2c0.4-0.2,2.3-1.5,2.7-1.8c1.1-0.7,3-1.9,4.7-0.2c2.5,2.5-0.5,5.6-1.5,6.5c-1.3,1.3-3.5,3-6.5,2
				L231,214.7z"/>
		</g>
		<path fill="#FFFFFF" d="M161.8,161.9c0,0-39.5-13.2-22.3-55.3c0,0-41.8,1.7-99,24.8c0,0-4,1.7-6.4,2.5c-2.3,0.8-6.1,2.3-11.5-0.3
			c0,0,52.3-27.4,119.6-33.7c8.9-0.8,10,0.5,7.7,3.8C148,106.6,124,137.1,161.8,161.9z"/>
		<path fill="#B4975A" d="M126.7,118.5c-33.8,4.4-66.9,16.2-66.9,16.2c5.6,10,20.9,5.8,20.9,5.8c28.7-8.1,41.5-10.9,45.6-11.7
			C126.1,125.7,126.2,122.2,126.7,118.5z"/>
		<path fill="#B4975A" d="M126.9,135c-5.6,1.1-29.3,6-53.2,14.9c0,0,7.5,8.6,22.5,4.3c12.6-3.6,28.7-8.7,33.5-10.3
			C128.5,141.3,127.6,138.3,126.9,135z"/>
		<path fill="#B4975A" d="M132.2,148.7c-5.1,1.6-30.6,9.9-41.4,14.1c0,0,6.2,8.3,24,1.3c12.4-4.9,19.3-7.8,22.3-9
			C135.3,153.2,133.7,151.1,132.2,148.7z"/>
		<path fill="#B4975A" d="M141.1,158.6c-4.5,1.9-21,9.2-30.6,13.8c0,0,12.1,5.9,27.2-3.4l9.4-6.2C145.1,161.6,143,160.2,141.1,158.6
			z"/>
		<path fill="#B4975A" d="M151.7,165.2c-3,1.9-15.6,9.8-21.7,14.3c0,0,10.4,4.3,21.1-5.8c3.5-3.3,5.4-5.1,6.4-6.2
			C155.6,166.9,153.7,166.1,151.7,165.2z"/>
		<g>
			<path fill="#FFFFFF" d="M187.2,161.9c0,0,39.5-13.2,22.3-55.3c0,0,41.8,1.7,99,24.8c0,0,4,1.7,6.4,2.5c2.3,0.8,6.1,2.3,11.5-0.3
				c0,0-52.3-27.4-119.6-33.7c-8.9-0.8-10,0.5-7.7,3.8C201,106.6,225,137.1,187.2,161.9z"/>
			<path fill="#B4975A" d="M222.3,118.5c33.8,4.4,66.9,16.2,66.9,16.2c-5.6,10-20.9,5.8-20.9,5.8c-28.7-8.1-41.5-10.9-45.6-11.7
				C222.9,125.7,222.8,122.2,222.3,118.5z"/>
			<path fill="#B4975A" d="M222.1,135c5.6,1.1,29.3,6,53.2,14.9c0,0-7.5,8.6-22.5,4.3c-12.6-3.6-28.7-8.7-33.5-10.3
				C220.5,141.3,221.4,138.3,222.1,135z"/>
			<path fill="#B4975A" d="M216.8,148.7c5.1,1.6,30.6,9.9,41.4,14.1c0,0-6.2,8.3-24,1.3c-12.4-4.9-19.3-7.8-22.3-9
				C213.7,153.2,215.3,151.1,216.8,148.7z"/>
			<path fill="#B4975A" d="M207.9,158.6c4.5,1.9,21,9.2,30.6,13.8c0,0-12.1,5.9-27.2-3.4l-9.4-6.2
				C203.9,161.6,206,160.2,207.9,158.6z"/>
			<path fill="#B4975A" d="M197.3,165.2c3,1.9,15.6,9.8,21.7,14.3c0,0-10.4,4.3-21.1-5.8c-3.5-3.3-5.4-5.1-6.4-6.2
				C193.3,166.9,195.3,166.1,197.3,165.2z"/>
		</g>
		<g>
			<g>
				<g>
					<path fill="#FFFFFF" d="M206.8,184.8c0,17.9-14.5,32.3-32.3,32.3c-17.9,0-32.3-14.5-32.3-32.3c0-17.9,14.5-32.3,32.3-32.3
						C192.4,152.5,206.8,167,206.8,184.8z"/>
				</g>
				<g>
					<path fill="#B4975A" d="M200.1,191.5c0,14.2-11.5,25.7-25.6,25.7c-14.2,0-25.6-11.5-25.6-25.7s11.5-25.6,25.6-25.6
						C188.7,165.9,200.1,177.4,200.1,191.5z"/>
				</g>
				<path fill="#0A2240" d="M174.5,150c-19.2,0-34.9,15.6-34.9,34.9c0,19.2,15.6,34.9,34.9,34.9c19.2,0,34.9-15.6,34.9-34.9
					S193.7,150,174.5,150z M203.8,179.2c-2.2,8.6-8.1,15.7-15.7,19.6c0.6-4.3,2.5-8.5,4.4-12.9c2.8-6.4,5.9-13.3,4.5-20.7
					C200.4,169.2,202.8,174,203.8,179.2z M159.2,159.3c3.9-2.3,8.4-3.8,13.1-4.2V202c-2.4-0.2-4.7-0.6-6.9-1.3
					c-0.2-5.8-2.6-11.2-5-16.5C156.6,175.4,153.3,167.8,159.2,159.3z M165.2,205.1c2.3,0.6,4.7,1,7.2,1.2v8.3c-3.9-0.3-7.6-1.3-11-3
					C163,210.1,164.7,207.9,165.2,205.1z M176.7,206.3c2.5-0.1,4.9-0.5,7.2-1.2c0.5,2.8,2.2,5,3.8,6.5c-3.4,1.6-7.1,2.7-11,3V206.3z
					 M183.6,200.7c-2.2,0.7-4.5,1.2-6.9,1.3v-46.9c4.8,0.3,9.2,1.8,13.1,4.2c5.9,8.5,2.6,16.2-1.3,24.9
					C186.2,189.5,183.8,194.9,183.6,200.7z M152,165.3c-1.3,7.4,1.7,14.3,4.5,20.7c1.9,4.4,3.8,8.7,4.4,13
					c-7.7-3.8-13.5-10.9-15.7-19.7C146.2,173.9,148.6,169.2,152,165.3z M145.1,190.1c3.8,6.1,9.3,10.9,15.9,13.6
					c0,0.2,0,0.4-0.1,0.6c-0.3,2.2-2.2,4-3.5,5C151.1,204.9,146.5,198,145.1,190.1z M191.5,209.3c-1.3-1-3.1-2.8-3.5-5
					c0-0.2,0-0.4-0.1-0.6c6.6-2.8,12.1-7.5,15.9-13.6C202.4,198,197.9,204.9,191.5,209.3z"/>
			</g>
			<g>
				<path fill="#0A2240" d="M184.9,104.7c0,0-0.3,1.1-0.9,1.1c-0.7,0-4.9-2-6.9-3.1c-0.9-0.5-2.1-1.2-2.5-1.4c0,0-1.8,0.9-2.6,1.4
					c-2,1.1-6.2,3.1-6.9,3.1c-0.7,0-0.9-1.1-0.9-1.1s-11,6.6-11,24.9c0,13.6,7.1,19.8,7.1,19.8l1,3.9h12.1h2.4h12.1l1-3.9
					c0,0,7.1-6.2,7.1-19.8C195.8,111.4,184.9,104.7,184.9,104.7z"/>
				<path fill="#FFFFFF" d="M190.1,125.1c0-5.7-2.3-10.3-4.8-13c0,0-0.1,1.6-2.8-0.2c-2.3-1.6-5.1-2.5-8-2.5c-3,0-5.7,0.9-8.1,2.5
					c-2.6,1.8-2.7,0.2-2.7,0.2c-2.5,2.7-4.8,7.4-4.8,13c0,4.7,1.2,7,1.6,7.7c2.3,6,7.7,10.2,14,10.2c6.2,0,11.6-4.1,13.9-10
					C188.6,132.7,190.1,130.5,190.1,125.1z"/>
				<path fill="#0A2240" d="M180.4,137.8C180.3,137.8,180.3,137.8,180.4,137.8c-0.1-0.1-1.6-3,0.9-5c0,0,5.8,1.2,5.9-6.4
					c0,0-0.1-0.8,0.7-2.4c0,0-1.5-1.3-4.7,1.1c-3.2,2.4-4.9,9.2-6.7,7.6c-1.7-1.6-1.1-10.5-2-10.8l0,0c-0.9,0.3-0.3,9.2-2,10.8
					c-1.7,1.6-3.5-5.2-6.7-7.6c-3.2-2.4-4.7-1.1-4.7-1.1c0.8,1.6,0.7,2.4,0.7,2.4c0.1,7.6,5.9,6.4,5.9,6.4c2.5,2,1,4.9,1,4.9
					s0,0.1-0.1,0.1c-6.9-7.4-10.9-6.4-8.9,1.9c1.9,8.1,9.4,42.9,10.5,51c-0.2,7.3-1,9.9-1.2,10.4l-0.7,1.5l0.8,1.7
					c1.3,1.9,2.2,4,2.5,4.8l2.8,7.2l2.8-7.2c0.3-0.8,1.2-3,2.5-4.9l0.9-1.6l-0.8-1.6c-0.2-0.5-1-3-1.2-10c1-7.2,8.6-43.1,10.5-51.4
					C191.2,131.5,187.2,130.5,180.4,137.8z"/>
				<g>
					<path fill="#CE0E2D" d="M169.8,174.1c-2.5-13-4.4-22.5-6-29.5c-1.2-5.3,2-3.2,3.7,0.1L169.8,174.1z"/>
					<path fill="#CE0E2D" d="M179.2,174.1c2.5-13,4.4-22.5,6-29.5c1.2-5.3-2-3.2-3.7,0.1L179.2,174.1z"/>
				</g>
				<g>
					<path fill="#CE0E2D" d="M166,130.3c-0.5-0.1-0.8-0.6-0.6-1.1c0.1-0.2,0.2-0.3,0.3-0.5c-0.3-0.4-0.7-0.7-1.2-1.1
						c0,0-0.8,3.7,2.5,3.3c0,0-0.1-0.3-0.4-0.8C166.5,130.3,166.2,130.3,166,130.3z"/>
					<path fill="#CE0E2D" d="M184.5,127.6c-0.5,0.3-0.8,0.7-1.2,1.1c0.1,0.1,0.3,0.3,0.3,0.5c0.1,0.5-0.2,1-0.6,1.1
						c-0.2,0.1-0.5,0-0.7-0.1c-0.3,0.5-0.4,0.8-0.4,0.8C185.3,131.4,184.5,127.6,184.5,127.6z"/>
				</g>
				<path fill="#CE0E2D" d="M176.1,178.9c1.1-20,2.7-34.2,2.7-36c0-0.6-0.1-1.4-0.3-2.3l-1.2,3.8l-0.4-6.7c-0.6-0.8-1.4-1.5-2.4-2.2
					h-0.1c-1,0.7-1.7,1.5-2.3,2.2l-0.4,6.7l-1.2-3.8c-0.3,0.9-0.3,1.7-0.3,2.3c0,1.8,1.6,15.9,2.7,36c1.1,20-1.4,23.7-1.4,23.7
					c1.4,2.1,3,5.8,3,5.8s1.6-3.7,3-5.8C177.5,202.7,175,199,176.1,178.9z"/>
			</g>
		</g>
	</g>
</g>
</svg>
