<?xml version="1.0" encoding="utf-8"?>
<!-- Generator: Adobe Illustrator 26.0.1, SVG Export Plug-In . SVG Version: 6.00 Build 0)  -->
<svg version="1.1" id="Layer_2_1_" xmlns="http://www.w3.org/2000/svg" xmlns:xlink="http://www.w3.org/1999/xlink" x="0px" y="0px"
	 viewBox="0 0 370.2 299.7" enable-background="new 0 0 370.2 299.7" xml:space="preserve">
<g id="Layer_2_2_">
	<path fill="#FFFFFF" d="M184.4,299.7l-24.6-31.9c-31.3-10.3-52.9-38.5-54.9-71.3l-15.2-19.8c-14.5,6.3-29,16.1-29,16.1L15,147
		l19.2-42.1L0,60.3h54.6l10.7-23.1l27.1-11l3-8.1l21.9,10l5.2-18.2l3.6-1.2c17.4-5.8,37.3-8.9,57.8-9c0.6,0,7.1,0.1,7.3,0.1
		c0.8,0,3.9,0.2,3.9,0.2c17.4,0.9,33.6,3.7,48.5,8.6l3.6,1.2l4.9,17.4l7.9-6.3l44.4,15.8l10.7,23.4h55.1L335.4,105l18.9,41.5
		l-46.4,47.8c0,0-17-12.4-28.6-17l-14,18.1c-1.5,33.6-24.5,63.1-56.6,73L184.4,299.7z"/>
	<polygon fill="#BDBEC0" points="184.4,277.7 342.5,73.7 27.4,73.7 	"/>
	<path fill="#006CB4" d="M14.4,67.3L184.5,288L355.7,67.3C355.7,67.3,14.4,67.3,14.4,67.3z M342.5,73.7L184.4,277.6L27.4,73.7H342.5
		z"/>
	<path fill="#006CB4" d="M319.7,87.8L319.7,87.8l-0.2-0.2l-10.1-6.8l3.8-7.2l0.1-0.2l-0.1-0.2l-13.9-30.5l-0.1-0.3l-0.2-0.1
		l-37.4-13.1l-0.3-0.1l-0.2,0.2L251,36.7l-0.1,0.1l-0.1,0.1l-1.7,4.2c0,0-15.5-3.8-38.5-6.3c-2.3-0.2-8.6-0.8-18.4-1.5l-0.9-0.1
		l-0.9-0.1H190l-0.2,0.2l-7.4,7.4v-7.5c0,0-21.1,1.2-34.9,3.1s-27.4,5.2-27.4,5.2l-2.6-5.3l-0.1-0.2l-0.2-0.1l-17.6-8.1l-0.5-0.2
		l-0.2,0.5l-2.1,5.7l-0.5-1.2l-0.2-0.5l-0.5,0.2L70.4,42.7l-0.2,0.1L70,43.1L23.3,145.8l38.4,38.5l1.7-0.9c1.2-0.7,2.8-1.6,4.6-2.7
		c4.6-2.7,11-6.5,14-8l0.6-0.3c3.9-2,5.9-2.8,24.6-10.9l1.5-0.6c0,0,2.1-0.8,5.9-2.1c10.3-3.4,36.9-11.4,62.7-11.4h0.3
		c1,0,2.1,0,3.1,0c17.5,0.5,38,4.2,52.2,7.3c13.6,2.9,23.8,5.7,26.7,6.5l2,0.6c12.9,5,28.5,13.1,43.1,22.4l1.9,1.2l38.8-40
		L319.7,87.8z"/>
	<path fill="#F38223" d="M315.5,91.4l-37.3-24.9l-6.5-18.2l11.6,4.1l4.6,11.4l17.6,5.7l-10.3-22.7l-33.2-12l-6.1,4.8L267,75.4
		l35.5,25.2l9.2,22.7l-14.7-6.7l-5.1-14.1l-18.2-5.3l9.7,32c3,1,5.9,2.2,8.9,3.4c8.1,3.2,15.9,6.8,23.6,10.9
		c5.3,2.7,10.5,5.7,15.8,8.7l7.8-8L315.5,91.4z"/>
	<path fill="#F38223" d="M63.6,108.3L76,97.2l3,3.5l-12.3,35.4c6.7-3,13.6-5.7,20.5-8.1l8.9-29.1l-7.7-12.8l15.9-15.2l9.3-31
		l-11.5-5.1L91.8,64L75.3,78.1l15.1-37.9l-16.1,6.4l-44.5,97.6l7,7c4.2-2.4,8.3-4.8,12.5-6.8L63.6,108.3z"/>
	<path fill="#F38223" d="M176.4,38.9l-13.6,0.7l-6.4,73.1c5.8-0.6,11.6-0.9,17.5-1.2L176.4,38.9z"/>
	<path fill="#F38223" d="M216.9,97.4l-15.8-0.9l-2.6-44.9l13.4,0.7L210.4,40l-18.1-1.3l-8.1,8.1v56l8.5,8.7c8.7,0.3,17.4,0.9,26,2
		L216.9,97.4z"/>
	<path fill="#F38223" d="M127,67.6l5.7,27.7l-3.7,21.1c5.6-1,11-2,16.7-2.7l0,0l8.8-73.4l-12.6,1.9l-4.2,24l-4.6-22.6l-14.8,3.7
		l-20.6,77c5.9-1.9,12.1-3.5,18.2-5.1L127,67.6z"/>
	<path fill="#F38223" d="M237.2,93.4l4.5-6l6.5,5.3l6,27.2c6.3,1.5,12.5,3.4,18.7,5.3l-11.1-40l-11.6-9.4l6.6-8.7l-5.4-20.3l-14-3.1
		l5.4,20.5l-8.7,11.6l-6.4-33.6l-13-1.6c0,0,6.5,49.3,9.5,73.7c5.8,0.8,11.6,1.9,17.4,3L237.2,93.4z"/>
	<path fill="#BDBEC0" d="M158.3,126.6c0,0,5.3-3.1,16.1-4.4l-0.3-8.5c-5.9,0.2-11.7,0.6-17.6,1C157.1,118.3,157.9,123,158.3,126.6"
		/>
	<path fill="#BDBEC0" d="M192.4,121.8c4.4,0.5,9,2,13.1,3.1c3.7,0.9,7.7,2.6,11,3.9l1.9-13c-8.7-1-16.8-1.7-25.6-2
		C192.5,116.3,192.5,119.9,192.4,121.8"/>
	<path fill="#BDBEC0" d="M136,142.3c5-3.7,8-7.5,13.3-10.8c-0.9-4.8-2.3-10.9-3.2-15.5c-5.7,0.8-11.4,1.6-17,2.8
		C131,125.9,133.8,135.2,136,142.3"/>
	<path fill="#BDBEC0" d="M220.8,131.4c4.9,2.8,8.7,6,13,10.3l0.9,0.7l6.8-22.7c-5.9-1.3-11.6-2.3-17.6-3.1L220.8,131.4z"/>
	<path fill="#BDBEC0" d="M242.6,151.1l16.5,3.8l13.8-27.1c-6.3-2.1-12.4-3.8-19-5.4L242.6,151.1z"/>
	<path fill="#BDBEC0" d="M110.9,154.9c4.3-1.5,10.2-3.7,15.8-5.2l-10.5-28.1c-6.4,1.5-12.1,3.2-18.2,5.1
		C101.8,136.1,106.2,145.9,110.9,154.9"/>
	<path fill="#BDBEC0" d="M86.2,165c0.9-0.8,10.2-4.9,16.6-7.4c-4.9-8.7-10.7-18.3-15.5-27.2c-6.8,2.4-13.2,5.1-19.9,8.1L86.2,165z"
		/>
	<path fill="#BDBEC0" d="M63.1,177.4c2.9-1.7,6.1-3.6,9.5-5.7l-21.7-25.6c-4.2,2.1-8.1,4.4-12.3,6.7L63.1,177.4z"/>
	<path fill="#BDBEC0" d="M267.5,158.3c13,5.1,31.3,15.2,38.5,20.1c3.2-3.2,21.4-22.3,24-24.8c-15.1-8.8-30.8-16.5-47.4-22.4
		L267.5,158.3z"/>
	<polygon fill="#BDBEC0" points="189.9,121.2 183.6,121.1 183.6,105.9 190.1,112.7 	"/>
	<path fill="#006CB4" d="M185.1,118.3c-40.5,0-73.1,32.8-73.1,73.1c0,40.5,32.8,73.1,73.1,73.1c40.5,0,73.1-32.8,73.1-73.1
		S225.6,118.3,185.1,118.3"/>
	<path fill="#F38223" d="M189.5,123.7c-5.7,2-11,4.9-16.5,7.3c-3.7-2.2-5.7-2.7-8.2-4.4C172.7,124,181,123.5,189.5,123.7"/>
	<path fill="#F38223" d="M242,154.8c-17.3-17.4-43.1-16.1-65.1-22.4c0,0,12.9-6.1,19.6-7.9C214.6,127.8,232,138.6,242,154.8"/>
	<path fill="#F38223" d="M145.1,157.5c-16.6,25.4-18.8,56.8-5.7,84.3c-17-14.4-27.1-42.1-19.6-69C126.2,164,134.2,156.2,145.1,157.5
		"/>
	<path fill="#F38223" d="M162.8,175.6c8.9,26.5,10.9,56,34.1,82.7c-18.1,3.7-35.9-1.7-50.2-10.8c-17.6-25.7-16-64.2,1.6-89.1
		C157,160.8,161.6,172.1,162.8,175.6"/>
	<path fill="#F38223" d="M150.5,155.6c2.7-3.8,5.7-7.4,9.2-10.7c37.4,10.5,73.3,49.5,79.4,87.8c-1.7,2.9-6.1,6.8-8.9,9.9
		c-9.3,8.3-19.6,12.8-29.4,15.1c-17.5-18.2-23.3-41.7-29.6-65C166.3,174.6,163.1,161.2,150.5,155.6L150.5,155.6z"/>
	<path fill="#F38223" d="M238.1,155.4c-18.2-16-43.4-14-64.6-21.3c-4.1,2.6-8.1,5.4-11.6,8.6c37.4,11.7,71.5,48.5,79.8,86.4
		c5.9-8.6,9.4-18.3,10.9-28.9C253.4,184,253.4,169.4,238.1,155.4"/>
	<path fill="#F38223" d="M156.5,143.8c-3.6,3.5-6.3,6.8-9.2,10.9h-0.1c-9.9-2.2-17.7,2.9-24.1,9.3c3-7.5,9.3-16.6,15.9-22.4
		C145.2,141.7,149.7,141.6,156.5,143.8"/>
	<path fill="#F38223" d="M159,141.5c3.6-3.2,7-5.9,11.2-8.5l-9.6-4.8c-6.4,2.7-13.3,6-18,10.3C150.1,139.3,153.1,139.7,159,141.5"/>
	<path fill="#006CB4" d="M174.7,28.6l-3,2.9l-5.1,0.3l-1.9-1.6l-2.4,2.1l-5.6,0.5l-2.4-2.3l3.2-21.7l4.2-0.6l-2.2,19.1l3-0.3
		l2.3-19.1l4.2-0.3l-1.7,19l2.9-0.3l1.5-18.9c1.7-0.2,2.7-0.2,4.2-0.3L174.7,28.6z"/>
	<path fill="#006CB4" d="M188.4,6.7v13.6h2.7l-0.2-13.4c0,0,2.8,0.1,4.1,0.2l0.6,15.2l-2.7,2.6H192l0.1,6.5l-4.5-0.1l-0.1-6.5
		l-0.9-0.1l-2.7-2.8l0.2-15.2C185.6,6.7,188.4,6.7,188.4,6.7"/>
	<path fill="#006CB4" d="M154.6,9.1l-0.7,4.5l-5.1,0.9l-0.9,5.2c1.9-0.3,3-0.5,5.2-0.8c-0.3,2-0.3,2.7-0.8,4.5l-5.1,0.7l-0.9,5.1
		l5.2-0.8c0,0-0.5,3.4-0.8,4.9c-3.7,0.5-7.3,0.9-10.8,1.5c0,0,3.8-18.2,4.9-23.8L154.6,9.1z"/>
	<path fill="#006CB4" d="M135.5,35.8l-5.2,1l2.4-9.9l-1.6-3.6l-4.2,14.3l-5.1,1.2c2.1-7.7,4.4-15.4,6.5-23.1
		c1.7-0.6,3.1-0.9,4.6-1.5c0.6,1.3,2,3.8,2,3.8l1.3-4.9c0,0,3.2-0.9,5-1.3L135.5,35.8z"/>
	<path fill="#006CB4" d="M209.7,10.8c0.5,6.3,1.5,12.2,2.1,18l-2.3,3.5l-7.4-0.5l-2.7-2.9c-0.5-6.3-0.8-12.8-1.2-19
		c0.7-0.9,1.7-1.6,2.6-2.6l6.3,0.6L209.7,10.8z M202.7,11.9l1.4,14.7l2.7,0.2l-1.4-14.6L202.7,11.9z"/>
	<path fill="#006CB4" d="M233.8,13c0.9,3.6,2.7,10.9,2.7,10.9l1.7,0.3l0.9-1.2l-2.2-9.2c0,0,2.2,0.6,4.5,1.4l2.3,8.8l-1,1.5l2.1,2.2
		l3.1,10.8l-5.1-1.2l-2.1-7.5l-3.2-0.7l1.7,7.4l-5.1-1c-1.9-8.1-5.1-24-5.1-24S231.7,12.5,233.8,13"/>
	<path fill="#006CB4" d="M225.8,13.8l1.7,8.8l-0.9,1.4l1.7,2.1l1.5,8.7l-5-0.9l-1.4-7.3l-3-0.3l1,7.2l-5-0.6l-3.2-24.2l9.5,1.6
		L225.8,13.8z M218.6,14.3l0.9,6.1l2.8,0.3l-1.2-6L218.6,14.3z"/>
</g>
</svg>
