<?xml version="1.0" encoding="utf-8"?>
<!-- Generator: Adobe Illustrator 26.0.1, SVG Export Plug-In . SVG Version: 6.00 Build 0)  -->
<svg version="1.1" id="Layer_1" xmlns="http://www.w3.org/2000/svg" xmlns:xlink="http://www.w3.org/1999/xlink" x="0px" y="0px"
	 viewBox="0 0 230.2 188.6" enable-background="new 0 0 230.2 188.6" xml:space="preserve">
<g>
	<path fill="none" d="M155,145.5"/>
	<g>
		<polygon fill="#F9A01B" points="0,188.6 110.8,127.9 35.7,188.6 126.9,136.2 125.4,146.7 140.6,138.3 175,170.8 193.3,115.8 
			219.7,114.1 206.2,80.8 230.2,62 199.2,50 207.1,16.6 180.7,28.7 167.1,0 146,21.1 108,4.1 102.8,38 68.9,45.3 88.9,57.4 
			68.8,67.5 85.9,69 15.4,123.8 86.3,86.2 10.3,144.1 91.2,101.9 4.8,166.9 100.1,116.1 		"/>
		<g>
			<path fill="#E56020" d="M202.9,81.3c-1.3,30.5-27,54.1-57.4,52.9c-30.5-1.3-54.1-27-52.9-57.4c1.3-30.5,27-54.1,57.4-52.9
				C180.4,25.1,204.1,50.8,202.9,81.3z"/>
			<path fill="#B95915" d="M154.5,126.6c-30.5-1.3-54.1-27-52.9-57.4c0.6-14.1,6.4-26.7,15.5-36.1c-14.2,9.5-23.8,25.3-24.5,43.7
				c-1.3,30.5,22.4,56.2,52.9,57.4c16.4,0.7,31.4-5.9,41.9-16.8C178,123.6,166.6,127.1,154.5,126.6z"/>
			<path d="M202.9,79.6c0-2-0.1-3.9-0.2-5.9c-3.2-2.2-7-3.9-11.5-4.5c-0.9-0.1-1.7-0.2-2.5-0.2c-0.5-3.6-1.4-7.2-2.5-10.7
				c0.6,0,1.1,0.1,1.7,0.1c3.9,0.3,7.7,0.7,11.5,1.3c-0.5-1.4-1.1-2.8-1.7-4.1c-4.2-0.6-8.6-1.1-12.9-1.5l0,0
				c-1.4-3.6-3.1-7-5.1-10.2c2.8-0.6,5.3-1.7,7.4-3.7c-1-1.1-2.1-2.1-3.3-3c-1.8,1.6-4.1,2.5-6.7,2.8c-0.4-0.6-0.8-1.1-1.2-1.7
				c-3.8-4.9-8.1-9-12.8-12.4c-4.2-1.2-8.5-1.9-13-2.1c-0.2,0-0.5,0-0.7,0c8.4,3.3,15.9,8.8,21.9,16.3c-5.7-0.6-12.4-2.5-18.9-4.4
				c-1.9-0.6-3.8-1.1-5.7-1.6c-11.2-3.1-19.7-3.6-26.2-3c-4.8,2.7-9.1,6.2-12.9,10.1c6.9-2.9,21-7.9,38-3.1c1.8,0.5,3.7,1,5.6,1.6
				c7.5,2.2,16,4.7,23.2,4.8c2,3,3.8,6.2,5.2,9.5c-1.4-0.1-2.9-0.1-4.3-0.1c-35.4-0.6-65.8,10-82.7,26.9c0.1,3.4,0.5,6.6,1.1,9.8
				c4.8-6.8,11.8-13,20.9-18.1c17.2-9.6,39.9-14.7,64.1-14.3c0.8,0,1.7,0,2.5,0.1c1.2,3.5,2.1,7.1,2.7,10.8
				c-15.6,0.7-25.7,10.4-37.3,20.7c-10.4,9.3-23.1,18.6-41.7,24.2c1.8,2.2,3.7,4.2,5.7,6c17.5-7.1,29.1-18,39-26.8
				c11.2-10,20.7-19.6,34.8-20c0.4,3.9,0.4,7.9,0,11.9c-1.9,21.6-14.4,40-31.5,49c4.4-0.4,8.6-1.3,12.6-2.7c1.4-1.1,2.7-2.3,4-3.6
				c11.2-11,18.1-26.1,19.6-42.3c0.4-4.1,0.4-8.1,0-12.1c0.7,0.1,1.4,0.1,2.1,0.3C196.1,74.3,199.9,76.7,202.9,79.6z"/>
		</g>
	</g>
</g>
</svg>
