<?xml version="1.0" encoding="utf-8"?>
<!-- Generator: Adobe Illustrator 26.0.1, SVG Export Plug-In . SVG Version: 6.00 Build 0)  -->
<svg version="1.1" id="Layer_1" xmlns="http://www.w3.org/2000/svg" xmlns:xlink="http://www.w3.org/1999/xlink" x="0px" y="0px"
	 viewBox="0 0 212.947 212.947" enable-background="new 0 0 212.947 212.947" xml:space="preserve">
<g>
	<circle fill="#FFFFFF" cx="106.474" cy="106.474" r="106.474"/>
	<g>
		<path fill="#8B8D8D" d="M194.974,58.574c-6.2-11.4-14.5-21.5-24.4-29.6c-1.9-1.5-3.8-3-5.7-4.4c-16.4-11.7-36.5-18.6-58.1-18.7
			h-0.2c-53.7,0-97.7,42.2-100.5,95.2c-0.1,1.7-0.1,3.5-0.2,5.2v0.2c0,13.9,2.8,27.1,7.9,39.1c0.7,1.5,1.3,3,2,4.5
			c5.6,11.7,13.5,22.2,23,30.8c2.3,2.2,4.9,4.2,7.4,6.2c16.8,12.6,37.6,20,60.1,20.1h0.1h0.1l0,0c12.2,0,23.8-2.2,34.6-6.1
			c38.5-14.1,66-51,66-94.4v-0.1l0,0v-0.1c0-13.9-2.8-27.1-7.9-39.1C197.874,64.374,196.474,61.374,194.974,58.574"/>
		<path fill="#FFFFFF" d="M196.674,68.374c-1.2-2.9-2.6-5.8-4.1-8.5c-6-11.1-14.2-20.9-23.8-28.9c-1.8-1.5-3.7-2.9-5.6-4.3
			c-15.9-11.3-35.4-18.1-56.5-18.2h-0.2c-52.3,0-95.1,41.1-97.8,92.7c-0.1,1.7-0.1,3.4-0.1,5.1v0.2c0,13.5,2.7,26.3,7.7,38.1
			c0.7,1.5,1.3,2.9,2,4.3c5.5,11.4,13.1,21.6,22.4,30c2.3,2.2,4.7,4.1,7.2,6c16.3,12.2,36.6,19.5,58.5,19.5h0.1h0.1l0,0
			c11.8,0,23.2-2.1,33.7-5.9c37.5-13.7,64.2-49.7,64.2-91.9v-0.1l0,0v-0.1C204.374,92.974,201.674,80.174,196.674,68.374z"/>
		<path fill="#0D2240" d="M88.174,61.574l2.3-8.3l0.6-2l-10.4-5.8c0,0-6.1-4.2-19.7,3.7c-15.9,9.4-28.9,21.6-35.5,34.4
			c-3.8,7.1-6.7,15.4-8.2,24.7c0.5,17.6,6.1,34,15.4,47.7c-2.6-25.5,21.9-53.3,41.3-72.4C83.874,73.474,88.174,61.574,88.174,61.574
			"/>
		<path fill="#0D2240" d="M152.174,49.274c-13.6-7.9-19.7-3.7-19.7-3.7l-10.4,5.8l0.6,2l2.2,8.3c0,0,4.3,11.9,14.4,22
			c19.2,19,43.7,46.8,41.3,72.2c9.4-13.9,14.9-30.5,15.2-48.3c-1.6-9-4.4-17-8.1-23.9C180.974,70.774,168.074,58.674,152.174,49.274
			"/>
		<path fill="#CF0A2C" d="M119.474,33.974c35.7,4,59.2,24.3,71.3,42.3c-9.1-26-29.9-46.4-56-55.1
			C128.974,22.874,122.574,26.374,119.474,33.974"/>
		<path fill="#CF0A2C" d="M93.674,33.974c-3.2-7.6-9.7-11.2-15.4-12.8c-26.3,8.7-47.2,29.4-56.2,55.6
			C33.974,58.574,57.674,38.074,93.674,33.974"/>
		<path fill="#CF0A2C" d="M99.474,32.974l7.1-10.4l7.1,10.4c2.8-7.8,7.3-12.1,11.8-14.4c-6.1-1.3-12.4-2.1-18.9-2.1
			s-12.8,0.8-19,2.1C92.074,20.874,96.574,25.174,99.474,32.974"/>
		<path fill="#0D2240" d="M106.574,63.274c-1,0.8-34,24.5-48.6,48c-19.6,31.7-17.1,50-12,60.5c12.7,11.6,28.6,19.6,46.3,22.4
			l7.6-108.4l6.4-6.4l0.1-0.1l0,0l0,0l0.1,0.1l6.4,6.4l7.7,108.3l-0.1,0.1c17.9-2.8,33.9-10.9,46.7-22.7c5-10.5,7.4-28.7-12.1-60.2
			C140.474,87.774,107.574,63.974,106.574,63.274"/>
		<polygon fill="#8B8D8D" points="112.974,85.874 106.574,79.474 106.574,201.974 120.574,194.174 120.574,194.174 120.674,194.074 
					"/>
		<path fill="#8B8D8D" d="M125.574,40.274c-3.8-0.7-7.8-1.2-11.7-1.4l-2.8-0.2l-0.1-0.1l-0.1-0.1l-1.1-2.3l-0.1-0.2l0,0l-3.2-6.5
			l-1,2.2l-2.1,4.2l0,0l-0.1,0.2l-0.1,0.2l-1.1,2.3l-0.1,0.2l0,0l-2.8,0.2c-3.9,0.3-7.9,0.8-11.7,1.4c-1.7,0.3-3.5,0.6-5.2,0.9l0,0
			l0,0l5.4,2.9l5.4,3l1.7,0.9l1.7,0.9l-1,3.8l-0.1,0.2l-0.5,1.7l-3.1,11.1l0,0l0,0l6.9-5.2l4.7-3.5l1.4-1l1.4-1l0,0v-0.1l0,0l0,0
			v0.1l0,0l1.4,1l1.4,1l11.9,8.6l-3.1-11.1l-0.3-0.9l-0.3-0.9l-1-3.8l1.1-0.6l2.2-1.2l7.4-4l3.6-1.9l0,0l0,0
			C129.074,40.874,127.274,40.674,125.574,40.274"/>
	</g>
</g>
</svg>
