<?xml version="1.0" encoding="utf-8"?>
<!-- Generator: Adobe Illustrator 26.0.1, SVG Export Plug-In . SVG Version: 6.00 Build 0)  -->
<svg version="1.1" id="Layer_1" xmlns="http://www.w3.org/2000/svg" xmlns:xlink="http://www.w3.org/1999/xlink" x="0px" y="0px"
	 viewBox="0 0 265.302 234.423" enable-background="new 0 0 265.302 234.423" xml:space="preserve">
<g>
	<path fill-rule="evenodd" clip-rule="evenodd" fill="#221F1F" d="M102.842,229.64c-12.563-12.573-12.773-35.89-12.773-35.89
		c3.53-2.15,4.866-6.083,4.866-6.083s-5.405-9.149-14.772-27.198c-9.366-18.051-17.773-41.844-17.773-41.844
		c-35.271,15.252-49.578-9.432-49.578-9.432c4.901-6.072,43.8-12.165,43.8-12.165C32.089,97.027,0,85.913,0,54.866
		S15.853,0,15.853,0s-3.771,40.497,11.059,53.052c16.899,14.306,62.024,3.217,105.74,3.217c43.717,0,88.841,11.089,105.74-3.217
		C253.221,40.497,249.45,0,249.45,0s15.853,23.818,15.853,54.866s-32.089,42.161-56.611,42.161c0,0,38.899,6.093,43.8,12.165
		c0,0-14.306,24.684-49.578,9.432c0,0-8.408,23.793-17.773,41.844c-9.367,18.05-14.772,27.198-14.772,27.198
		s1.337,3.933,4.867,6.083c0,0-0.211,23.318-12.773,35.89c-2.593,2.594-19.305,4.86-29.81,4.86
		C122.146,234.5,105.434,232.234,102.842,229.64z"/>
	<path fill="none" d="M67.557,98.012c0.312-0.028,0.618-0.051,0.916-0.073l-0.89-0.239C67.574,97.803,67.565,97.909,67.557,98.012z"
		/>
	<path fill="none" d="M134.073,99.656c0-2.836,0-5.829,0-8.48c-0.475,0.004-0.945,0.016-1.421,0.016
		c-0.476,0-0.946-0.013-1.42-0.016c0,2.65,0,5.644,0,8.48c0.474,0.004,0.944,0.016,1.42,0.016
		C133.128,99.672,133.597,99.659,134.073,99.656z"/>
	<path fill="none" d="M134.073,88.765c0-3.018,0-5.219,0-5.536c0-1.08,0.279-3.4-1.422-3.4c-1.702,0-1.419,2.319-1.419,3.4
		c0,0.317,0,2.518,0,5.536c0.474,0.004,0.944,0.016,1.42,0.016C133.128,88.781,133.597,88.769,134.073,88.765z"/>
	<path fill="none" d="M134.073,109.155c0-1.524,0-4.111,0-7.089c-0.475,0.004-0.945,0.016-1.421,0.016
		c-0.476,0-0.946-0.013-1.42-0.016c0,2.978,0,5.565,0,7.089c0.474,0.004,0.944,0.016,1.42,0.016
		C133.128,109.172,133.597,109.159,134.073,109.155z"/>
	<g>
		<path fill-rule="evenodd" clip-rule="evenodd" fill="#EA2127" d="M132.659,181.139c-10.722,0.093-21.403,2.377-30.416,6.884
			c-1.522,0.608-2.739,1.52-3.955,2.128c2.433-7.907,3.955-16.427,3.955-25.246c0.303-10.036-1.824-20.075-4.564-28.895
			c3.042,1.216,6.389,2.737,10.038,3.345c9.124,2.432,19.466,0,24.942-8.516l0,0l0,0c5.476,8.516,15.819,10.948,24.943,8.516
			c3.649-0.608,6.994-2.129,10.036-3.345c-2.737,8.82-4.866,18.859-4.562,28.895c0,8.82,1.52,17.339,3.954,25.246
			c-1.216-0.608-2.433-1.52-3.954-2.128C154.062,183.516,143.381,181.233,132.659,181.139z M160.002,142.703
			c-1.85,16.448-13.394,29.172-27.351,29.172s-25.5-12.724-27.352-29.172h-2.24c1.889,17.681,14.424,31.394,29.592,31.394
			c15.168,0,27.702-13.713,29.59-31.394H160.002z"/>
		<path fill-rule="evenodd" clip-rule="evenodd" fill="#EA2127" d="M172.921,194.905c-0.254,4.775-1.874,22.934-12.065,33.132
			c-1.885,1.727-16.792,4.194-28.204,4.194c-11.411,0-26.32-2.467-28.21-4.199c-10.208-10.216-11.813-28.355-12.061-33.127
			l10.877-4.854c8.506-4.251,18.679-6.549,29.382-6.643c10.741,0.093,20.915,2.391,29.423,6.643L172.921,194.905z M121.992,207.001
			c0.066,1.061-0.085,2.445-0.754,4.16c0,0-0.659,1.108,0.362,1.634c1.021,0.525,3.126-3.769,3.126-8.091
			c0-4.32-4.673-9.935-12.087-9.935c-7.414,0-10.393,4.532-10.393,8.665c0,4.133,4.292,8.517,10.393,8.517
			C117.4,211.95,120.729,208.514,121.992,207.001 M142.642,207.001c1.263,1.513,4.592,4.95,9.354,4.95
			c6.1,0,10.39-4.385,10.39-8.517c0-4.133-2.978-8.665-10.39-8.665c-7.415,0-12.091,5.615-12.091,9.935
			c0,4.322,2.109,8.616,3.129,8.091c1.022-0.525,0.363-1.634,0.363-1.634C142.727,209.446,142.575,208.062,142.642,207.001
			 M132.651,219.667c12.609,0,22.636,2.425,27.907,5.484l1.043-2.236c-6.008-3.456-16.498-5.658-28.95-5.658
			c-12.452,0-22.941,2.202-28.949,5.658l1.043,2.236C110.015,222.092,120.041,219.667,132.651,219.667z"/>
		<path fill="#EA2127" d="M197.635,96.675c-1.234-12.992-4.953-26.334-7.643-34.71c-0.004,0-0.007,0-0.011,0
			c-0.402-0.027-22.629-1.752-26.061-2.012c-10.293-0.779-20.781-1.416-31.269-1.416c-10.486,0-20.975,0.637-31.268,1.416
			c-3.432,0.26-25.661,1.985-26.061,2.012c-0.004,0-0.007,0-0.013,0c-2.688,8.376-6.407,21.718-7.641,34.71
			c0,0-0.465,7.21-0.394,10.042c0.977-0.477,2.183-0.781,3.711-0.781c14.674,0,24.87,23.636,41.553,23.636
			c1.662,0,3.199-0.254,4.618-0.703c8.8-2.789,13.048-13.102,13.904-17.303c-11.258-0.093-22.022-1.139-31.211-3.063
			c-0.651-0.136-1.069-0.775-0.932-1.425c0.137-0.651,0.779-1.071,1.427-0.932c9.077,1.899,19.732,2.929,30.889,3.01
			c0-1.524,0-4.111,0-7.089c-11.321-0.082-22.148-1.132-31.383-3.065c-0.651-0.136-1.069-0.775-0.932-1.425
			c0.137-0.649,0.779-1.07,1.427-0.932c9.077,1.899,19.732,2.929,30.889,3.011c0-2.836,0-5.829,0-8.48
			c-11.321-0.082-22.148-1.132-31.383-3.065c-0.651-0.136-1.069-0.775-0.932-1.425c0.137-0.651,0.779-1.073,1.427-0.932
			c9.077,1.899,19.732,2.929,30.889,3.011c0-3.018,0-5.219,0-5.536c0-1.08-0.282-3.4,1.419-3.4c1.701,0,1.422,2.319,1.422,3.4
			c0,0.317,0,2.518,0,5.536c11.157-0.082,21.81-1.112,30.889-3.011c0.646-0.148,1.288,0.281,1.427,0.932
			c0.135,0.65-0.282,1.289-0.935,1.425c-9.234,1.933-20.06,2.983-31.381,3.065c0,2.65,0,5.644,0,8.48
			c11.157-0.082,21.81-1.112,30.889-3.011c0.646-0.145,1.288,0.281,1.427,0.932c0.135,0.65-0.282,1.289-0.935,1.425
			c-9.234,1.933-20.06,2.983-31.381,3.065c0,2.978,0,5.565,0,7.089c11.157-0.081,21.81-1.111,30.889-3.01
			c0.646-0.147,1.288,0.281,1.427,0.932c0.135,0.65-0.282,1.289-0.935,1.425c-9.188,1.924-19.95,2.97-31.209,3.063
			c0.856,4.201,5.102,14.515,13.901,17.303c1.419,0.45,2.958,0.703,4.619,0.703c16.683,0,26.879-23.636,41.553-23.636
			c1.528,0,2.733,0.304,3.71,0.781C198.098,103.886,197.635,96.675,197.635,96.675z"/>
		<path fill="#EA2127" d="M9.329,32.736l-5.65,6.159c2.12-12.288,6.23-22.567,9.468-29.257c-0.085,7.964,0.435,19.397,3.272,29.255
			L9.329,32.736z M255.969,32.736l5.651,6.159c-2.121-12.288-6.231-22.567-9.467-29.257c0.083,7.964-0.435,19.397-3.274,29.255
			L255.969,32.736z"/>
		<path fill="#EA2127" d="M186.229,142.28c1.699,0,3.454-0.277,5.257-0.806c-0.76,1.781-1.549,3.591-2.361,5.414
			c-3.884,1.326-7.064,1.358-9.421,0.045c-3.367-1.88-4.746-6.187-5.286-10.047c1.774,1.936,4.417,4.03,8.052,4.937
			C183.692,142.127,184.945,142.28,186.229,142.28z M85.594,146.933c3.367-1.88,4.747-6.187,5.286-10.047
			c-1.774,1.936-4.415,4.03-8.052,4.937c-1.218,0.304-2.471,0.457-3.756,0.457c-1.698,0-3.454-0.277-5.259-0.806
			c0.76,1.781,1.55,3.591,2.362,5.414C80.06,148.214,83.237,148.246,85.594,146.933z M86.771,149.034
			c-1.535,0.858-3.284,1.285-5.248,1.285c-1.256,0-2.609-0.192-4.037-0.545c1.513,3.294,3.09,6.562,4.691,9.649
			c9.223,17.772,14.659,26.999,14.712,27.089l0.53,0.898c4.786-15.531-1.604-38.102-4.694-47.403
			C91.836,143.602,90.109,147.17,86.771,149.034z M172.577,140.006c-3.093,9.302-9.483,31.873-4.696,47.403l0.532-0.898
			c0.051-0.09,5.488-9.316,14.71-27.089c1.6-3.087,3.179-6.355,4.692-9.649c-1.429,0.353-2.781,0.545-4.036,0.545
			c-1.967,0-3.715-0.426-5.25-1.285C175.19,147.17,173.464,143.602,172.577,140.006z M65.097,98.249
			c-4.05,0.425-8.134,1.019-8.134,1.019c-14.385,2.254-35.235,6.733-41.111,10.322c2.704,3.496,10.604,11.74,24.978,11.74
			c6.361,0,13.311-1.612,20.659-4.788l2.231-0.965l0.811,2.29c0.05,0.148,3.327,9.383,8.014,20.606
			c3.49,1.393,6.739,1.749,9.701,1.013c2.815-0.702,4.95-2.276,6.459-3.816c-21.151-1.277-19.728-18.61-19.728-18.61
			c-3.804,0-5.873-4.915-4.027-8.21C64.752,105.418,64.826,101.85,65.097,98.249z M200.349,108.85c1.847,3.295-0.22,8.21-4.026,8.21
			c0,0,1.422,17.333-19.728,18.61c1.51,1.54,3.642,3.114,6.459,3.816c2.962,0.736,6.209,0.38,9.699-1.013
			c4.689-11.223,7.966-20.459,8.016-20.606l0.811-2.29l2.23,0.965c7.346,3.176,14.297,4.788,20.658,4.788
			c14.374,0,22.274-8.244,24.978-11.74c-5.876-3.589-26.727-8.069-41.111-10.322c0,0-4.084-0.594-8.135-1.019
			C200.473,101.85,200.549,105.418,200.349,108.85z"/>
	</g>
	<path fill-rule="evenodd" clip-rule="evenodd" fill="#FFFFFF" d="M87.635,132.309c-0.913,0-1.217,0.304-2.737,0
		c-6.693,0-13.688-5.473-13.383-14.599c0.912-0.304,1.824-0.304,2.433,0c0,5.171,2.129,12.47,13.382,12.47
		C87.939,131.397,87.33,131.397,87.635,132.309L87.635,132.309z M177.665,132.309c0.912,0,1.216,0.304,2.738,0
		c6.692,0,13.687-5.473,13.383-14.599c-0.912-0.304-1.824-0.304-2.433,0c0,5.171-2.129,12.47-13.381,12.47
		C177.361,131.397,177.971,131.397,177.665,132.309L177.665,132.309z M72.695,62.126c-0.652,0.039-13.42,0.509-14.672,0.509
		c-16.115,0-26.162-2.421-32.578-7.851c-3.295-2.791-5.719-6.8-7.512-11.385L9.52,36.091l-6.478,7.062
		c-0.481,3.76-0.771,7.671-0.771,11.713c0,31.49,34.156,39.893,54.341,39.893l8.822-0.172
		C66.779,82.382,70.114,70.224,72.695,62.126z M199.865,94.586l8.823,0.172c20.184,0,54.341-8.403,54.341-39.893
		c0-4.042-0.29-7.952-0.772-11.713l-6.477-7.062l-8.414,7.308c-1.796,4.585-4.218,8.595-7.513,11.385
		c-6.416,5.43-16.463,7.851-32.578,7.851c-1.252,0-14.018-0.471-14.67-0.509C195.187,70.224,198.522,82.382,199.865,94.586z"/>
</g>
</svg>
