<?xml version="1.0" encoding="utf-8"?>
<!-- Generator: Adobe Illustrator 26.0.1, SVG Export Plug-In . SVG Version: 6.00 Build 0)  -->
<svg version="1.1" id="Layer_1" xmlns="http://www.w3.org/2000/svg" xmlns:xlink="http://www.w3.org/1999/xlink" x="0px" y="0px"
	 viewBox="0 0 227.634 295.901" enable-background="new 0 0 227.634 295.901" xml:space="preserve">
<g>
	<path fill="#EEE1C6" d="M226.229,58.719c-7.609-38.05-38.377-49.578-39.683-50.05c-2.107-0.762-4.447,0.14-5.501,2.114
		c-0.485,0.91-0.629,1.92-0.465,2.875C170.485,5.17,160.906,1.488,156.875,0.211c-2.179-0.689-4.521,0.358-5.46,2.436
		c-0.939,2.078-0.176,4.53,1.776,5.708c9.204,5.55,17.21,13.058,23.253,21.695c-9.103-2.113-14.473-1.857-14.775-1.842
		c-2.224,0.122-4.02,1.854-4.229,4.071c-0.209,2.217,1.239,4.255,3.4,4.792c0.124,0.031,12.189,3.1,25.466,12.622
		c2.529,7.765,3.811,15.768,3.811,23.809c0,15.353-4.949,31.174-13.572,43.399c-1.981,2.797-3.954,5.266-6.044,7.537
		c0.72-15.901-3.98-40.51-32.409-51.913c-2.141-0.859-4.584,0.04-5.657,2.081s-0.432,4.563,1.487,5.841l0.368,0.244
		c4.357,2.791,8.026,6.397,10.84,10.589c-2.788-0.825-5.231-1.135-7.026-1.363l-0.481-0.062c-0.231-0.036-0.467-0.054-0.705-0.054
		c-2.371,0-4.335,1.84-4.49,4.206c-0.116,1.773,0.813,3.386,2.276,4.213c0.144,0.088,0.291,0.168,0.442,0.24
		c8.966,5.231,13.955,11.305,14.833,18.055c0.96,7.387-3.084,14.36-6.039,18.344c-7.588-8.906-12.626-24.026-14.058-29.75
		c-0.551-2.201-2.651-3.653-4.905-3.375c-2.252,0.272-3.949,2.178-3.96,4.447c-0.088,19.234,5.386,32.132,10.051,39.616
		c-8.594,4.331-16.981,4.109-17.071,4.109c-0.11-0.006-0.234-0.005-0.345-0.001c-0.091,0.004-8.491,0.222-17.086-4.107
		c4.666-7.484,10.14-20.382,10.051-39.617c-0.01-2.269-1.708-4.174-3.96-4.447c-2.254-0.27-4.354,1.175-4.905,3.376
		c-1.431,5.722-6.468,20.842-14.057,29.749c-2.957-3.986-6.999-10.958-6.039-18.344c0.877-6.75,5.868-12.824,14.834-18.056
		c0.149-0.07,0.295-0.149,0.437-0.236c1.465-0.826,2.397-2.44,2.281-4.215c-0.155-2.366-2.119-4.206-4.49-4.206
		c-0.241,0-0.479,0.019-0.713,0.055l-0.325,0.042c-1.812,0.234-4.282,0.553-7.104,1.391c2.829-4.206,6.495-7.83,10.838-10.643
		l0.3-0.2c1.919-1.278,2.562-3.801,1.487-5.841s-3.518-2.938-5.657-2.081c-28.429,11.402-33.128,36.01-32.41,51.912
		c-2.09-2.272-4.064-4.743-6.047-7.543c-8.623-12.128-13.568-27.944-13.568-43.393c0-8.133,1.279-16.133,3.803-23.804
		c13.28-9.525,25.349-12.595,25.465-12.625c2.167-0.529,3.618-2.566,3.413-4.787c-0.206-2.22-2.007-3.956-4.234-4.078
		c-0.299-0.016-5.646-0.271-14.707,1.826c6.079-8.635,14.065-16.138,23.197-21.687c1.946-1.183,2.702-3.633,1.76-5.707
		c-0.942-2.073-3.281-3.116-5.457-2.429c-4.04,1.28-13.622,4.959-23.698,13.409c0.153-0.947,0.006-1.946-0.477-2.845
		c-1.055-1.969-3.393-2.863-5.496-2.105c-1.306,0.472-32.073,12-39.683,50.05c-6.89,34.388,12.698,58.831,34.428,78.513
		c-0.966,0.158-1.888,0.563-2.689,1.206c-1.824,1.463-2.689,3.905-2.281,6.41l0.581,4.933c0.34,3.171,2.539,19.269,12.467,24.742
		c2.128,1.197,5.573,2.51,15.018,3.169l9.859,0.637l-0.981,3.285c-0.371,1.239-0.189,2.578,0.497,3.675l7.249,11.588
		c-0.153,0.284-0.276,0.588-0.365,0.906l-15.9,56.5c-0.483,1.718,0.094,3.559,1.471,4.692l43.6,35.9
		c0.826,0.68,1.841,1.026,2.861,1.026c0.811,0,1.625-0.219,2.35-0.662c1.637-1.003,2.458-2.933,2.044-4.807l-9.563-43.385
		l8.392,10.211c0.855,1.04,2.13,1.643,3.477,1.643c0.003,0,0.007,0,0.011,0c1.351-0.003,2.628-0.612,3.479-1.66l8.135-9.995
		l-9.52,43.187c-0.413,1.874,0.408,3.805,2.045,4.807c1.637,1.001,3.729,0.855,5.21-0.364l43.6-35.9
		c1.378-1.134,1.955-2.975,1.472-4.692l-15.899-56.5c-0.09-0.318-0.213-0.622-0.365-0.907l7.248-11.587
		c0.686-1.097,0.866-2.436,0.496-3.675l-0.981-3.285l9.888-0.638c9.139-0.646,12.556-1.878,14.955-3.149
		c9.964-5.492,12.162-21.59,12.496-24.715l0.586-4.979c0.408-2.504-0.456-4.946-2.28-6.409c-0.802-0.644-1.725-1.049-2.686-1.21
		C213.535,117.545,233.123,93.106,226.229,58.719z"/>
	<path fill="#00471B" d="M5.816,59.601c7.2-36,36.8-46.7,36.8-46.7c-10.8,8-21.9,23.1-26.5,44.2c4.5-5.5,8.6-9.7,13.4-13
		c12-25.9,32.5-36.4,42.6-39.6c-13,7.9-23.9,19.6-30.6,33.1c15.1-5.4,24.2-4.9,24.2-4.9s-13.5,3.3-28.2,14.2
		c-2.9,8.3-4.5,17.3-4.5,26.6c0,16.4,5.3,33.2,14.4,46c5.1,7.2,10.1,12.2,16.2,16.8c-2-5.1-9.8-44.6,27.6-59.6l-0.3,0.2
		c-8.8,5.7-15.3,14.6-18,25.1c6.8-6.5,14-7.2,17.8-7.7c-0.1,0-0.1,0.1-0.2,0.1c-34.7,20-7.1,47.1-7.1,47.1
		c10.9-9.2,17.3-29.7,18.7-35.3c0.1,21.7-7.1,34.7-12,41c11.2,7.7,23.7,7.2,23.7,7.2l0,0l0,0c0,0,12.5,0.5,23.7-7.2
		c-4.9-6.3-12.1-19.3-12-41c1.4,5.6,7.8,26.1,18.7,35.3c0,0,27.6-27.1-7.1-47.1c-0.1,0-0.1-0.1-0.2-0.1c3.8,0.5,11,1.1,17.8,7.7
		c-2.6-10.5-9.1-19.4-18-25.1l-0.3-0.2c37.4,15,29.6,54.5,27.6,59.6c6.1-4.6,11.1-9.6,16.2-16.8c9.1-12.9,14.4-29.7,14.4-46
		c0-9.3-1.6-18.2-4.5-26.6c-14.7-10.9-28.2-14.2-28.2-14.2s9.1-0.5,24.2,4.9c-6.6-13.5-17.5-25.2-30.6-33.1
		c10.1,3.2,30.5,13.7,42.6,39.6c4.9,3.3,9,7.5,13.4,13c-4.6-21.2-15.6-36.2-26.5-44.2c0,0,29.6,10.7,36.8,46.7
		c8.4,41.9-25.1,68.1-52.2,90.6l20.6-8.4c1.4-0.6,2.4,0.8,2.1,2.4l-0.6,5.1c-0.3,2.8-2.4,17-10.2,21.3c-1.7,0.9-4.6,2-13.1,2.6
		l-15.5,1l2.6,8.7l-15.2,24.3l7.8-8.2l15.9,56.5l-43.6,35.9l13.6-61.7l-20.1,24.7l-20.3-24.7l13.6,61.7l-43.6-35.9l15.9-56.5
		l7.8,8.2l-15.2-24.3l2.6-8.7l-15.5-1c-8.6-0.6-11.5-1.7-13.1-2.6c-7.8-4.3-9.9-18.5-10.2-21.3l-0.6-5.1c-0.3-1.6,0.7-3,2.1-2.4
		l20.6,8.4C30.916,127.701-2.584,101.501,5.816,59.601z M201.216,104.701c0,0,17.1-27,5.4-42.1c-1.2-1.5-2.5-3-3.8-4.3
		C207.716,75.501,201.216,104.701,201.216,104.701z M26.616,104.701c0,0-6.4-29.2-1.7-46.4c-1.3,1.4-2.6,2.8-3.8,4.3
		C9.516,77.701,26.616,104.701,26.616,104.701z"/>
	<g>
		<path fill="#FFFFFF" d="M99.716,173.201c-2.2-1-6.4-2.9-10.5-4.8c-0.8-0.4-1.8,0.1-1.9,1c-0.3,1.8-0.3,4.6,2.2,6.5
			c4.6,3.6,8.6,1.6,10.7-0.5C100.816,174.701,100.616,173.601,99.716,173.201z"/>
		<path fill="#FFFFFF" d="M42.616,149.101c0,0,1.5,12.7,6.8,15.6c3.6,2,12.3,1.8,20,2.4
			C60.916,163.801,48.416,154.801,42.616,149.101L42.616,149.101z"/>
		<polygon fill="#FFFFFF" points="105.116,224.801 109.316,230.501 118.516,230.501 122.716,224.801 		"/>
		<path fill="#FFFFFF" d="M185.216,149.101c-5.9,5.7-18.3,14.7-26.8,18c7.6-0.6,16.4-0.4,20-2.4
			C183.716,161.801,185.216,149.101,185.216,149.101L185.216,149.101z"/>
		<path fill="#FFFFFF" d="M122.716,191.401l-4.1-13.4l-4.7,2.3l-4.7-2.3l-4.1,13.4c0,0-1.4,5.3-7.2,9l-2.5,11l6.1,8.3h6.5l-6-8.9
			l1-5.5c2.7,2.9,6.6,4.8,10.9,4.8c4.3,0,8.2-1.8,10.9-4.8l1,5.5l-6,8.9h6.5l6.1-8.3l-2.5-11
			C124.116,196.701,122.716,191.401,122.716,191.401z"/>
		<path fill="#FFFFFF" d="M138.616,168.301c-4.2,1.9-8.3,3.8-10.5,4.8c-0.9,0.4-1.1,1.6-0.4,2.2c2.1,2.1,6,4.1,10.7,0.5
			c2.5-1.9,2.5-4.7,2.2-6.5C140.416,168.501,139.416,167.901,138.616,168.301z"/>
	</g>
</g>
</svg>
