<?xml version="1.0" encoding="utf-8"?>
<!-- Generator: Adobe Illustrator 26.0.1, SVG Export Plug-In . SVG Version: 6.00 Build 0)  -->
<svg version="1.1" id="Layer_4" xmlns="http://www.w3.org/2000/svg" xmlns:xlink="http://www.w3.org/1999/xlink" x="0px" y="0px"
	 viewBox="0 0 366.843 231.546" enable-background="new 0 0 366.843 231.546" xml:space="preserve">
<g>
	<path fill="#8E9090" d="M147.934,150.621c19.709-3.021,39.385-2.134,56.604,5.139l2.101-4.618
		c-27.869-8.969-62.892-8.509-88.981,5.775l7.434-17.27c-32.793,8.865-54.856,27.355-77.041,46.406
		c16.173-38.2,51.333-69.607,91.097-81.007l-2.021,6.34c34.822-11.363,73.042-13.517,103.985-8.405l-7.248-9.429l17.755,4.523
		l11.414-17.054l4.515,21.089l17.46,5.662c0,0-12.72,5.318-12.106,5.576c66.113,27.232,44.947,117.716-17.917,118.196
		c-31.8,0.266-56.469-28.47-55.395-58.527C183.424,162.378,167.203,157.256,147.934,150.621"/>
	<path fill="#8E9090" d="M107.724,28.823c-0.017-7.09,2.056-13.527,6.346-18.256c4.278-4.742,10.473-7.438,17.505-8.067
		c13.451-1.25,27.123-2.016,40.646-2.282v0.003L182.205,0v114.798l-0.156,9.887l-9.957-0.175
		c-1.748-0.004-15.016,0.466-17.475,0.637c-0.146,0.008-0.189,0.013-0.293,0.022l-10.758,0.963v-0.199l-6.723,0.306
		c-0.912,0.031-16.922,1.654-17.708,1.804l-11.383,1.798L107.724,28.823z M135.51,29.939l0.021-0.249
		c0.129-2.023,1.226-4.612,3.251-6.099c1.986-1.498,4.078-1.896,6.077-2.045c0.004,0,1.797-0.112,3.708-0.234l5.686-0.362v35.908
		v4.984l-4.978,0.343c-2.977,0.204-4.812,0.34-8.092,0.543l-5.674,0.355L135.51,29.939L135.51,29.939z"/>
	<path fill="#8E9090" d="M354.16,151.406c-0.015-0.011-13.346-4.076-15.355-4.713c-0.125-0.039-0.138-0.039-0.237-0.072
		c-0.013-0.002-0.022-0.007-0.03-0.009c-6.015-1.721-11.428-3.222-15.401-4.296l-7.173-1.776c-6.78-1.644-12.508-4.914-16.415-9.837
		c-3.923-4.912-5.791-11.22-5.779-18.128V37.954c-0.042-7.332,2.188-14.004,7.474-18.137c3.386-2.695,7.672-3.947,12.062-3.925
		c2.355,0,4.765,0.333,7.156,0.915c0.894,0.211,3.508,0.95,7.637,2.104c4.044,1.138,9.256,2.61,14.407,4.07
		c10.302,2.918,20.37,5.787,20.37,5.787l3.882,1.102v50.708l-32.507-10.006l-0.521-3.298c-0.005-0.01-0.926-5.893-1.785-11.354
		l0.008,56.486v0.127l-0.008,0.135c0.008,0.021,0.008,0.044,0.013,0.071c0.021,0.12,0.071,0.268,0.135,0.388
		c0.049,0.008-0.147,0.082,0.89,0.415c0,0,2.115,0.55,3.512,0.933c0.869-3.845,1.764-7.781,1.764-7.785l1.273-5.573l27.215,8.169
		l0.096,45.932L354.16,151.406z"/>
	<path fill="#8E9090" d="M0,44.513c0-5.758,2.675-10.464,5.796-13.7c3.175-3.277,6.768-5.36,10.067-6.442
		c14.931-4.773,36.041-8.068,37.091-8.245l5.703-0.89c2.374-1.352,4.986-2.362,7.774-2.943c7.352-1.539,29.572-5.725,30.583-5.911
		v0.003l11.581-2.158l-0.028,116.738l-0.188,8.69l-8.621,1.008c-0.722,0.045-16.899,2.791-17.646,2.995l-12.037,2.709v-18.856
		l-33.569,7.949v11.519l-0.112,7.612l-7.348,1.812c-0.139,0.028-2.562,0.744-5.167,1.544c-2.667,0.817-5.771,1.772-7.985,2.471
		c-1.423,0.446-2.621,0.841-2.671,0.865L0,156.134C0,156.134,0,44.513,0,44.513z"/>
	<path fill="#8E9090" d="M282.322,133.297c0,0-0.041-0.009-0.195-0.042c-0.153-0.027-0.374-0.066-0.641-0.119
		c-0.524-0.097-1.228-0.222-2.038-0.359c-1.63-0.286-3.695-0.635-5.768-0.975c-4.062-0.677-8.456-1.372-8.749-1.397l-4.033-0.441
		l-4.766-0.52V5.448l10.62,0.837c1.104,0.114,3.466,0.504,6.793,1.039c3.227,0.526,6.979,1.153,9.67,1.622
		c1.861,0.326,2.956,0.513,3.806,0.707l7.395,1.881l-0.002,112.284l-0.143,12.128L282.322,133.297z"/>
	<path fill="#8E9090" d="M244.662,127.779c-1.062-0.221-7.758-0.857-14.717-1.399c-6.665-0.527-13.982-1.04-18.63-1.328
		l-5.145-0.191c-7.15-0.267-13.498-2.54-17.933-7.121c-4.453-4.572-6.508-10.99-6.486-18.091V21.993
		c-0.027-6.19,1.832-11.942,5.997-15.942h0.005c5.312-5.036,11.826-5.499,15.829-5.528c1.104,0,2.054,0.046,2.686,0.076l0.653,0.023
		c0.258-0.006,0.507-0.008,0.76-0.008c1.37,0.001,3.13,0.076,5.652,0.236l2.857,0.1l-0.049,0.085
		c2.798,0.196,6.334,0.462,10.88,0.809c15.187,1.176,19.185,1.587,21.503,2.063c0.761,0.136,1.772,0.53,2.105,0.707l5.664,2.739
		l-0.047,6.223v2.066v32.14l-32.155-4.152l-0.803-3.668c0-0.007-0.909-4.129-1.703-7.737c-0.402-0.028-0.901-0.06-1.38-0.09
		l0.104,14.808l-0.004,3.184l1.968-0.073c0.043-0.002,0.083-0.004,0.12-0.004h0.017c0.042-0.003,0.081-0.006,0.117-0.008h0.145
		c0.941,0.012,2.125,0.11,4.095,0.258c1.905,0.152,4.312,0.36,6.825,0.584c5.035,0.45,10.439,0.973,13.113,1.282
		c0.83,0.107,1.18,0.128,1.943,0.282l7.685,1.7l-0.092,75.791L244.662,127.779z"/>
	<path fill="#2E2A25" d="M110.933,28.824c-0.174-13.079,7.97-22.106,20.939-23.13c13.369-1.245,26.971-2.004,40.408-2.269
		l6.715-0.149v111.469l-0.106,6.681l-6.71-0.135l0,0c-1.737-0.007-16.978,0.541-18.141,0.668l-7.258,0.667V79.098
		c-1.339,0.089-2.502,0.17-3.792,0.26l-0.004,37.147l-0.087,6.249l-6.252,0.282c-1.212,0.049-16.836,1.635-18.01,1.835l-7.672,1.21
		L110.933,28.824z M142.988,55.119c1.348-0.087,2.5-0.168,3.792-0.256v-25.95c-0.867,0.057-1.461,0.091-1.453,0.091
		c-1.176,0.076-1.783,0.342-1.982,0.506c-0.175,0.162-0.271,0.23-0.358,0.819L142.988,55.119L142.988,55.119z"/>
	<path fill="#2E2A25" d="M355.102,148.336c-0.003-0.007-11.789-3.61-14.846-4.555c-0.315-0.1-0.454-0.14-0.591-0.184l-0.07-0.021
		c-6.62-1.899-12.523-3.528-16.611-4.625l-0.008,0.012l-6.246-1.54c-12.602-2.949-19.88-12.067-19.741-24.847V37.95
		c-0.012-6.789,1.977-12.287,6.259-15.627c2.764-2.179,6.238-3.23,10.068-3.222c2.043,0,4.202,0.289,6.439,0.834
		c2.095,0.487,42.203,11.905,42.251,11.919l1.55,0.439v43.925l-26.445-8.132l-0.207-1.311c0,0-2.023-12.869-2.863-18.238
		c-1.581-0.469-2.805-0.824-3.633-1.063l-0.058,0.021l-0.671-0.187l-0.939-0.267c-0.005-0.002-0.007-0.002-0.008-0.002l0.01,65.412
		l-0.009,0.293c0.011,0.243,0.096,1.079,0.481,1.813c0.49,0.947,1.283,1.621,2.92,2.083c0,0,3.554,0.92,6.745,1.844
		c1.002-4.448,2.504-11.084,2.504-11.084l0.509-2.227l21.647,6.504l0.085,39.219L355.102,148.336z"/>
	<path fill="#2E2A25" d="M3.211,44.511c0.15-9.574,8.33-15.336,13.631-17.085c14.543-4.655,35.655-7.974,36.602-8.127l6.312-0.986
		c2.222-1.339,4.686-2.333,7.332-2.88c7.262-1.515,29.545-5.716,30.515-5.893v0.002l7.785-1.449l-0.038,112.854l-0.114,5.85
		l-5.802,0.663c-1.19,0.124-16.855,2.778-18.02,3.064l-8.12,1.831V41.043c-0.068,0.012-0.131,0.021-0.179,0.03
		c-2.283,0.713-2.698,1.151-3.21,3.725v0.093c0,6.096-0.007,67.674-0.007,67.674v1.685l-31.832,7.538V49.015
		c-0.232,0.054-0.416,0.103-0.537,0.139c-1.144,0.336-2.342,0.875-3.104,1.526c-0.77,0.68-1.107,1.238-1.127,2.212v84.04
		l-0.083,5.135l-4.952,1.22c-1.086,0.267-15.132,4.583-16.144,4.98l-8.908,3.269C3.211,151.536,3.211,44.511,3.211,44.511z"/>
	<path fill="#2E2A25" d="M283.08,130.166c-1.091-0.278-16.614-2.833-17.798-2.952l-4.038-0.442l-1.901-0.207V8.921l7.123,0.563
		c1.773,0.168,18.046,2.884,19.766,3.283l4.976,1.266l-0.005,109.749l-0.092,8.171L283.08,130.166z"/>
	<path fill="#2E2A25" d="M245.267,124.629c-3.108-0.606-24.154-2.199-33.731-2.783l-5.238-0.19
		c-6.587-0.258-12.019-2.301-15.75-6.152c-3.738-3.855-5.595-9.326-5.584-15.869V21.997c-0.012-5.622,1.621-10.371,5.028-13.639
		c4.297-4.113,9.889-4.616,13.61-4.627c1.011,0,1.894,0.041,2.577,0.076l0.73,0.029c0.254-0.011,0.52-0.013,0.812-0.013
		c2.821,0.002,7.941,0.373,19.057,1.219c15.115,1.161,19.241,1.614,21.07,2.004c0.604,0.117,1.131,0.332,1.374,0.454l3.843,1.849
		l-0.019,4.229v2.064V44.13l-26.281-3.395l-0.325-1.461c0,0-1.378-6.227-2.229-10.083c-0.503-0.039-0.962-0.075-1.397-0.107
		c-0.201-0.019-4.227-0.271-4.253-0.271c-0.2-0.015-0.392-0.019-0.578-0.019c-0.417-0.008-0.749,0.035-0.962,0.077
		c-0.006,0.053-0.006,0.108-0.006,0.159c0,0-0.024,0.701-0.031,0.888c0,0,0.007,0.691,0.007,0.695l0.114,16.327l-0.005,6.519
		l5.378-0.199c0.108-0.01,0.16-0.01,0.185-0.005h0.024c1.313,0.005,6.982,0.494,12.816,1.024c5.858,0.547,11.279,1.067,12.453,1.304
		l5.169,1.145l-0.078,69.342L245.267,124.629z M217.09,95.887c-0.019,0.065,0.055,0.944,0.312,1.348
		c0.167,0.266,0.467,0.607,2.03,0.745c0,0,0.677,0.047,1.63,0.112V76.03c-1.359-0.1-2.882-0.216-2.902-0.216l-1.065-0.083
		L217.09,95.887z M212.747,28.946h-0.002C212.747,28.939,212.747,28.939,212.747,28.946"/>
	<path fill="#FFFFFF" d="M172.367,8.086L172.367,8.086l-0.021-1.065c-13.352,0.275-26.853,1.039-40.151,2.256
		c-11.326,0.948-17.767,8.066-17.658,19.552l0.027,93.083l3.507-0.623c0.961-0.156,17.432-1.828,18.413-1.856l1.856-0.049
		l1.04-0.031v-2.877V75.997c2.728-0.195,8.067-0.558,11.014-0.758v43.498l3.312-0.367c0.899-0.126,16.131-0.693,18.374-0.691h0.119
		h0.005l0.042,0.008l2.011,0.082l1.101,0.048l0.022-3.095V6.962l-3.03,0.062L172.367,8.086z M150.394,25.079v33.154
		c-2.751,0.187-8.056,0.544-11.014,0.732V30.006c0.291-1.988,1.007-4.179,5.708-4.61C145.084,25.397,147.997,25.22,150.394,25.079"
		/>
	<path fill="#FFFFFF" d="M359.928,114.359l-15.387-4.625l-0.243,1.117c-0.006,0.009-1.887,8.382-2.746,12.181
		c-6.169-1.825-8.873-2.616-10.345-2.877v-0.021c-3.156-0.874-4.532-2.625-5.227-3.955c-0.786-1.546-0.87-3.087-0.87-3.507v-0.296
		V46.434c-0.012-0.339,0.11-1.745,0.651-2.462c0.343-0.447,0.825-0.71,1.842-0.729c0.549,0,1.235,0.1,2.038,0.323l0.146,0.039h0.107
		l0.057,0.011c0.238,0.042,2.809,0.771,7.309,2.115c0.599,3.811,2.947,18.886,2.949,18.904l0.101,0.656l19.619,6.047V35.06
		l-0.768-0.22c-0.032-0.006-38.27-10.93-40.21-11.375c-2.005-0.501-3.895-0.755-5.649-0.755c-3.062-0.004-5.733,0.797-7.826,2.447
		c-3.331,2.604-4.889,7.031-4.885,12.807v74.612c-0.083,11.181,5.854,18.645,16.88,21.299l0.21,0.103l0.425,0.007
		c1.279,0.21,11.835,3.069,22.461,6.133l15.582,4.759l3.859,1.173L359.928,114.359z"/>
	<path fill="#FFFFFF" d="M67.836,18.97c-4.061,0.845-7.619,2.867-10.394,5.735v-2.382l-3.441,0.545
		c-0.911,0.14-21.84,3.435-36.066,8.002c-4.618,1.525-11.042,6.499-11.123,13.638v101.936l4.055-1.581
		c0.842-0.31,15.619-4.857,16.549-5.084l1.436-0.338l0.826-0.191V52.903c-0.046-4.377,4.082-6.36,6.836-7.208
		c0.916-0.277,3.129-0.693,5.147-1.039v72.558l24.629-5.809v-2.36c0-6.231,0.017-57.934,0.017-64.216v-0.355
		c0.555-3.97,2.303-5.969,6.003-6.93c0.044-0.001,0.007-0.001,0.122-0.017c0.576-0.093,2.61-0.416,4.475-0.709v2.171v88.942
		l3.703-0.942c0.945-0.242,17.453-3.026,18.456-3.134l1.676-0.137l0.961-0.084l0.048-2.713l0.021-108.479l-3.506,0.643
		C98.266,13.086,75.034,17.442,67.836,18.97"/>
	<path fill="#FFFFFF" d="M266.17,13.086l-2.064-0.153l-1.144-0.089v110.543l0.97,0.088l1.743,0.154
		c0.928,0.06,17.329,2.778,18.229,3.013l3.674,0.908l0.018-3.794V16.832l-2.248-0.562C283.934,15.926,267.625,13.222,266.17,13.086"
		/>
	<path fill="#FFFFFF" d="M222.77,56.86h-0.032c-0.018-0.002-0.055-0.002-0.144,0.011l-1.78,0.055l-1.031,0.036v15.347l0.987,0.073
		c0.005,0,2.273,0.169,3.884,0.296v29.275c-2.384-0.154-5.467-0.361-5.471-0.361c-2.529-0.194-4.023-1.054-4.901-2.534
		c-0.72-1.233-0.808-2.642-0.804-3.168l0.005-48.953l-0.104-16.299c0-0.026-0.013-0.667-0.013-0.667v-0.183l0.044-0.784
		c-0.004-0.864,0.16-1.885,0.804-2.604c0.639-0.73,1.824-1.223,3.788-1.223c0.258,0,0.523,0.004,0.799,0.028l0.025,0.002
		l0.062,0.008l0.285-0.01c0.497-0.004,3.288,0.2,7.983,0.598c0.673,3.062,2.413,10.938,2.413,10.941l0.161,0.729l19.704,2.551
		V15.631v-2.073l0.013-1.212l0.009-0.648l-1.699-0.913c-0.83-0.309-1.583-0.636-21.267-2.135c-11.88-0.91-16.749-1.223-18.998-1.223
		c-0.23,0-0.435,0.004-0.624,0.01l-0.854-0.039c-0.698-0.033-1.554-0.076-2.501-0.076c-3.262,0.006-7.722,0.464-11.013,3.635V10.95
		c-2.663,2.557-3.93,6.351-3.926,11.031v77.653c-0.127,11.332,6.442,18.087,17.857,18.407h0.148h0.058l0.258-0.029
		c-0.017,0,0.005,0,0.053,0c2.952-0.01,34.525,2.218,38.967,3.056l3.52,0.654l0.072-62.105l-2.344-0.526
		C245.568,58.773,224.955,56.879,222.77,56.86"/>
	<path fill="#0055B8" d="M222.765,69.56c0.967,0.062,4.873,0.341,4.873,0.341v35.245c-2.888-0.222-5.784-0.414-8.646-0.603
		c-4.223-0.272-6.287-2.32-7.273-3.995c-1.1-1.895-1.211-3.896-1.211-4.661c0-0.779,0.018-29.663,0.018-48.949
		c0-9.365-0.129-16.407-0.129-16.88c-0.018-0.138,0.022-0.535,0.022-1.11c0-1.169,0.263-3.019,1.558-4.507
		c1.461-1.654,3.828-2.384,7.016-2.195c0-0.079,4.929,0.301,10.593,0.778l2.601,11.768l14.273,1.866V15.632v-2.155
		c-1.196-0.551-39.87-3.467-39.899-3.067l-0.665-0.049c-3.063-0.138-8.168-0.321-11.337,2.734c-2.003,1.913-3.01,4.913-3.01,8.899
		v77.64c0,9.992,5.05,15.039,15.012,15.451c0.017-0.32,34.869,2.136,39.899,3.066c0-1.217,0.077-54.927,0.077-56.151
		c-1.169-0.243-22.572-2.222-23.771-2.181v9.741H222.765z M136.413,29.895c0.168-2.045,1.33-6.936,8.477-7.464
		c2.821-0.186,5.635-0.369,8.469-0.517v39.107c-5.635,0.285-11.299,0.667-16.945,1.125V29.895H136.413z M117.513,28.826
		c0,0,0.04,88.289,0.04,89.542c1.156-0.217,17.698-1.863,18.859-1.894V73.228c5.646-0.481,11.31-0.865,16.945-1.17V115.4
		c1.172-0.132,17.901-0.748,19.062-0.684V9.99c-13.331,0.281-26.653,1.025-39.942,2.241
		C122.537,13.156,117.513,18.861,117.513,28.826 M265.922,120.664c1.159,0.1,17.564,2.812,18.712,3.092V19.164
		c-1.147-0.303-17.553-3.015-18.712-3.109V120.664z M54.457,36.841V25.799c0,0-21.488,3.376-35.601,7.903
		c-3.72,1.191-9.07,5.441-9.07,10.812v97.591c1.096-0.425,15.807-4.943,16.934-5.205V52.905c0-5.88,4.818-8.81,8.925-10.044
		c2.264-0.688,8.998-1.705,8.998-1.705v72.306l18.663-4.416c0,0,0.017-64.556,0.017-64.812c0.612-5.066,3.314-8.39,8.346-9.584
		c4.741-0.806,8.195-1.332,8.195-1.332l0.017,5.651v85.153c1.145-0.291,17.741-3.117,18.892-3.217
		c0-20.945,0.042-104.892,0.042-104.892s-23.136,4.348-30.382,5.856C61.487,23.344,55.974,28.933,54.457,36.841 M356.975,116.566
		l-10.227-3.055l-2.985,13.289c-6.641-1.973-13.313-3.888-13.33-3.803c-4.124-1.123-6.125-3.586-7.084-5.467
		c-1.096-2.113-1.218-4.129-1.208-4.897c0-0.066,0-0.166,0.024-0.253h-0.024c0-0.661-0.01-65.845-0.01-65.937
		c0-0.767,0.122-2.708,1.232-4.204c0.959-1.302,2.973-2.663,7.049-1.551c0.037-0.073,4.359,1.192,9.494,2.734l3.06,19.572
		l14.009,4.311V37.409c0,0-36.911-10.643-38.684-11.054c-9.745-2.398-14.727,1.636-14.727,11.609v74.615
		c0,9.995,4.981,16.071,14.727,18.445c0.037-0.218,12.366,3.166,23.108,6.236l15.62,4.769L356.975,116.566z"/>
	<path fill="#0055B8" d="M222.765,69.554c0.967,0.067,4.873,0.347,4.873,0.347v35.243c-2.888-0.22-5.784-0.412-8.65-0.599
		c-4.221-0.274-6.283-2.322-7.282-4.008c-1.086-1.884-1.198-3.885-1.198-4.653c0-0.777,0.018-29.662,0.018-48.948
		c0-9.362-0.129-16.404-0.129-16.878c-0.018-0.14,0.041-0.535,0.041-1.11c0-1.179,0.244-3.019,1.539-4.51
		c1.461-1.653,3.828-2.401,7.012-2.192c0-0.079,4.931,0.3,10.597,0.777l2.601,11.768l14.273,1.864V15.63v-2.152
		c-1.199-0.552-39.87-3.47-39.907-3.067l-0.666-0.052c-3.058-0.138-8.162-0.318-11.326,2.735c-2.005,1.912-3.02,4.913-3.02,8.888
		v77.651c0,9.988,5.055,15.034,15.012,15.449c0.024-0.318,34.879,2.14,39.907,3.068c0-1.215,0.077-54.926,0.077-56.151
		c-1.177-0.247-22.57-2.222-23.771-2.179v9.734H222.765z M265.925,120.664c1.156,0.1,17.566,2.805,18.697,3.093V19.147
		c-1.131-0.286-17.541-2.998-18.697-3.092V120.664z M54.456,36.842V25.798c0,0-21.482,3.375-35.598,7.906
		c-3.722,1.178-9.072,5.44-9.072,10.81v97.591c1.094-0.425,15.804-4.958,16.934-5.207V52.895c0-5.869,4.82-8.8,8.925-10.046
		c2.259-0.675,9-1.694,9-1.694v72.305l18.663-4.414c0,0,0.017-64.557,0.017-64.831c0.61-5.047,3.314-8.371,8.347-9.567
		c4.741-0.806,8.19-1.33,8.19-1.33l0.021,5.652v85.152c1.136-0.291,17.727-3.117,18.89-3.217c0-20.943,0.05-104.892,0.05-104.892
		s-23.151,4.346-30.39,5.856C61.487,23.341,55.972,28.933,54.456,36.842"/>
	<polygon fill="#FFFFFF" points="141.633,136.388 145.342,134.552 148.421,137.307 147.822,133.221 151.388,131.14 147.315,130.439 
		146.435,126.414 144.519,130.063 140.408,129.657 143.299,132.606 	"/>
	<path fill="#2E2A25" d="M266.358,113.373c3.636-1.586,10.426-4.551,10.426-4.551l0.51-0.222l-0.527-0.172
		c0,0-10.925-3.593-13.271-4.358c-0.354-2.471-2.08-14.348-2.08-14.348l-0.084-0.575l-3.973,6.461c0,0-2.276,3.669-3.506,5.667
		c-2.588-0.658-13.878-3.534-13.878-3.534l-0.593-0.149l0.374,0.487c0.012,0.008,4.596,5.911,7.379,9.507
		c-11.363-2.47-24.474-3.85-39.502-3.85c-4.93,0-10.068,0.151-15.415,0.459c-20.489,1.169-40.64,4.984-59.975,11.97l2.209-6.578
		l-0.393,0.125c-30.261,9.456-63.356,37.821-77.985,65.873l0.328,0.25c20.684-19.403,48.679-34.893,73.774-40.532l-6.591,15.363
		l0.509-0.248c11.679-5.635,27.011-8.127,42.476-8.127c15.831,0,31.802,2.607,44.142,7.106l-4.73,10.316
		c-11.255-5.165-27.536-8.64-41.042-8.64c-2.406,0-4.722,0.109-6.907,0.341l-0.035,0.414c15.951,4.504,32.466,9.591,45.554,20.082
		c-0.079,1.115-0.119,2.227-0.119,3.335c0.007,27.617,23.844,52.61,51.822,52.614c0.189,0,0.377,0,0.563-0.004
		c30.832-0.361,53.681-28.634,53.683-58.103C309.505,148.046,297.079,125.673,266.358,113.373"/>
	<path fill="#8E9090" d="M249.54,163.954c-11.383,0-22.775-4.175-34.214-8.378c-3.021,6.375-4.552,13.06-4.552,19.86
		c0,3.615,0.435,7.269,1.312,10.922c0.944,0.021,1.894,0.033,2.844,0.033c22.089,0,45.528-6.137,64.464-17.365
		c-2.185-4.062-4.891-7.854-7.697-11.507C264.323,162.188,256.933,163.957,249.54,163.954"/>
	<path fill="#8E9090" d="M214.134,190.678c-0.247,0-0.498,0-0.744-0.002c6.907,17.864,22.746,29.704,42.067,29.971
		c6.181-15.23,13.043-31.877,28.729-39.654c-0.821-2.746-1.825-5.415-2.934-8.052C261.059,184.746,237.478,190.678,214.134,190.678"
		/>
	<path fill="#8E9090" d="M261.877,134.615c-6.869-2.623-11.243-3.438-11.654-3.512c-1.92,0.264-4.525,0.521-6.635,0.94
		c11.674,4.648,20.295,10.29,28.953,19.942c4.452-3.516,8.359-7.5,11.073-12.396c-7.94-7.721-22.897-17.188-60.197-20.121
		c15.75,3.75,30.229,8.799,38.655,14.775L261.877,134.615z"/>
	<path fill="#8E9090" d="M157.301,129.439c2.312-0.052,4.81-0.083,7.449-0.083c26.5,0.012,67.398,3.126,83.258,21.955l-0.266,0.323
		c-5.488-3.057-16.465-8.123-23.31-8.115c-0.22,0-0.436,0.003-0.648,0.017c-2.353,2.598-4.432,5.471-6.296,8.45
		c10.601,3.909,21.333,7.785,31.968,7.785c6.679,0,13.319-1.523,19.893-5.536c-18.378-20.028-49.487-28.766-78.834-28.764
		C178.857,125.471,167.482,126.85,157.301,129.439"/>
	<path fill="#8E9090" d="M282.697,166.929c5.124-3.489,9.553-7.134,13.576-11.816c-2.527-4.807-6.906-10.214-10.044-12.99
		c-2.916,5.149-6.657,9.401-11.205,13.14C277.699,158.835,280.529,162.997,282.697,166.929"/>
	<path fill="#8E9090" d="M259.951,220.464c9.311-1.136,17.869-4.315,25.067-10.425c1.103-4.117,1.58-8.382,1.58-12.659
		c0-4.081-0.433-8.176-1.166-12.161C271.392,191.969,265.559,206.783,259.951,220.464"/>
	<path fill="#8E9090" d="M290.746,200.126c0,1.406-0.035,2.817-0.104,4.231c5.46-7.39,8.386-13.808,10.013-23.25
		c-3.986,0.354-7.939,1.02-11.698,2.268C290.185,188.937,290.746,194.513,290.746,200.126"/>
	<path fill="#8E9090" d="M284.632,170.839c1.23,2.816,2.326,5.676,3.275,8.604c4.382-1.428,8.607-2.16,13.173-2.437
		c0.003-0.326,0.005-0.646,0.005-0.967c-0.002-6.044-0.891-10.693-2.858-16.478C294.04,163.85,289.616,167.5,284.632,170.839"/>
	<path fill="#8E9090" d="M301.079,177.007c-4.561,0.274-8.791,1.009-13.171,2.437c-0.949-2.929-2.045-5.788-3.278-8.604
		c4.986-3.339,9.41-6.99,13.595-11.276c1.973,5.784,2.863,10.434,2.863,16.478C301.087,176.36,301.087,176.68,301.079,177.007"/>
	<path fill="#8E9090" d="M301.079,177.007c-4.561,0.274-8.791,1.009-13.171,2.437c-0.949-2.929-2.045-5.788-3.278-8.604
		c4.986-3.339,9.41-6.99,13.595-11.276c1.973,5.784,2.863,10.434,2.863,16.478C301.087,176.36,301.087,176.68,301.079,177.007"/>
	<path fill="#8E9090" d="M286.229,142.123c3.138,2.776,7.517,8.184,10.044,12.99c-4.023,4.681-8.452,8.326-13.576,11.818
		c-2.168-3.935-4.998-8.097-7.673-11.669C279.572,151.527,283.31,147.272,286.229,142.123"/>
	<path fill="#8E9090" d="M286.229,142.123c3.138,2.776,7.517,8.184,10.044,12.99c-4.023,4.681-8.452,8.326-13.576,11.818
		c-2.168-3.935-4.998-8.097-7.673-11.669C279.572,151.527,283.31,147.272,286.229,142.123"/>
	<path fill="#8E9090" d="M223.415,119.469c37.304,2.933,52.259,12.398,60.199,20.121c-2.714,4.894-6.624,8.88-11.072,12.398
		c-8.659-9.658-17.28-15.297-28.954-19.947c2.107-0.414,4.715-0.676,6.635-0.938c0.411,0.075,4.785,0.887,11.654,3.509l0.197-0.367
		C253.646,128.269,239.167,123.219,223.415,119.469"/>
	<path fill="#8E9090" d="M223.415,119.469c37.304,2.933,52.259,12.398,60.199,20.121c-2.714,4.894-6.624,8.88-11.072,12.398
		c-8.659-9.658-17.28-15.297-28.954-19.947c2.107-0.414,4.715-0.676,6.635-0.938c0.411,0.075,4.785,0.887,11.654,3.509l0.197-0.367
		C253.646,128.269,239.167,123.219,223.415,119.469"/>
	<path fill="#8E9090" d="M214.926,186.391c-0.947,0-1.896-0.013-2.844-0.033c-0.876-3.655-1.309-7.307-1.309-10.924
		c0-6.798,1.531-13.483,4.548-19.861c11.442,4.206,22.835,8.379,34.216,8.379c7.396,0.005,14.787-1.764,22.156-6.43
		c2.811,3.65,5.515,7.443,7.699,11.504C260.458,180.253,237.021,186.391,214.926,186.391"/>
	<path fill="#8E9090" d="M214.926,186.391c-0.947,0-1.896-0.013-2.844-0.033c-0.876-3.655-1.309-7.307-1.309-10.924
		c0-6.798,1.531-13.483,4.548-19.861c11.442,4.206,22.835,8.379,34.216,8.379c7.396,0.005,14.787-1.764,22.156-6.43
		c2.811,3.65,5.515,7.443,7.699,11.504C260.458,180.253,237.021,186.391,214.926,186.391"/>
	<path fill="#8E9090" d="M255.457,220.649c-19.322-0.269-35.159-12.106-42.069-29.973c0.249,0.005,0.497,0.005,0.747,0.005
		c23.346,0,46.922-5.938,67.118-17.738c1.107,2.632,2.114,5.306,2.936,8.052C268.501,188.773,261.638,205.419,255.457,220.649"/>
	<path fill="#8E9090" d="M255.457,220.649c-19.322-0.269-35.159-12.106-42.069-29.973c0.249,0.005,0.497,0.005,0.747,0.005
		c23.346,0,46.922-5.938,67.118-17.738c1.107,2.632,2.114,5.306,2.936,8.052C268.501,188.773,261.638,205.419,255.457,220.649"/>
	<path fill="#8E9090" d="M290.642,204.357c0.068-1.413,0.104-2.823,0.104-4.231c0-5.612-0.561-11.188-1.789-16.751
		c3.764-1.248,7.715-1.914,11.698-2.27C299.028,190.552,296.102,196.968,290.642,204.357"/>
	<path fill="#8E9090" d="M290.642,204.357c0.068-1.413,0.104-2.823,0.104-4.231c0-5.612-0.561-11.188-1.789-16.751
		c3.764-1.248,7.715-1.914,11.698-2.27C299.028,190.552,296.102,196.968,290.642,204.357"/>
	<path fill="#8E9090" d="M269.349,154.238c-6.573,4.007-13.214,5.533-19.895,5.533c-10.633,0.002-21.368-3.878-31.966-7.787
		c1.864-2.978,3.941-5.851,6.296-8.448c0.213-0.014,0.429-0.017,0.648-0.017c6.845-0.008,17.821,5.059,23.31,8.115l0.264-0.323
		c-15.858-18.83-56.755-21.943-83.256-21.955c-2.64,0-5.138,0.033-7.452,0.083c10.183-2.591,21.561-3.966,33.217-3.966
		C219.862,125.469,250.971,134.207,269.349,154.238"/>
	<path fill="#8E9090" d="M269.349,154.238c-6.573,4.007-13.214,5.533-19.895,5.533c-10.633,0.002-21.368-3.878-31.966-7.787
		c1.864-2.978,3.941-5.851,6.296-8.448c0.213-0.014,0.429-0.017,0.648-0.017c6.845-0.008,17.821,5.059,23.31,8.115l0.264-0.323
		c-15.858-18.83-56.755-21.943-83.256-21.955c-2.64,0-5.138,0.033-7.452,0.083c10.183-2.591,21.561-3.966,33.217-3.966
		C219.862,125.469,250.971,134.207,269.349,154.238"/>
	<path fill="#8E9090" d="M285.018,210.039c-7.198,6.109-15.757,9.291-25.067,10.425c5.606-13.681,11.439-28.497,25.481-35.245
		c0.734,3.985,1.168,8.08,1.168,12.161C286.6,201.657,286.124,205.92,285.018,210.039"/>
	<path fill="#8E9090" d="M285.018,210.039c-7.198,6.109-15.757,9.291-25.067,10.425c5.606-13.681,11.439-28.497,25.481-35.245
		c0.734,3.985,1.168,8.08,1.168,12.161C286.6,201.657,286.124,205.92,285.018,210.039"/>
	<polygon fill="#8E9090" points="248.17,117.361 256.276,114.523 262.438,121.51 261.718,112.388 269.572,108.969 261.025,106.16 
		259.7,97.061 255.136,104.45 246.482,102.24 252.219,109.617 	"/>
	<polygon fill="#FFFFFF" points="204.953,123.927 210.589,121.151 215.282,125.324 214.365,119.116 219.793,115.963 
		213.597,114.903 212.264,108.784 209.357,114.344 203.106,113.708 207.493,118.194 	"/>
	<polygon fill="#FFFFFF" points="141.614,136.388 145.325,134.557 148.401,137.307 147.805,133.225 151.367,131.142 
		147.295,130.442 146.416,126.414 144.502,130.064 140.391,129.657 143.281,132.609 	"/>
	<path fill="#0055B8" d="M281.852,192.408l-0.006-0.755l-5.229,8.76l1.5-7.714l-0.37-0.174c-7.66,9.29-10.587,15.971-12.971,24.202
		l-0.112,0.393l0.384-0.135c8.602-2.981,13.043-6.429,14.861-7.876l0.038-0.029l0.021-0.046c1.279-2.779,1.887-8.401,1.892-15.291
		C281.861,193.302,281.856,192.856,281.852,192.408"/>
	<path fill="#0055B8" d="M264.369,172.128c-8.369,1.702-18.133,2.697-27.082,2.697c-1.342,0-2.667-0.021-3.966-0.067l19.198-5.679
		l-0.05-0.412c-12.675-0.595-22.46-0.835-34.844-6.641l-0.182-0.088l-0.095,0.175c-1.844,3.308-2.888,7.94-2.888,12.632
		c0,2.667,0.336,5.354,1.064,7.824l0.046,0.145l0.149,0.008c0.005,0,0.445,0.012,1.261,0.012c5.534-0.001,28.28-0.608,47.524-10.21
		L264.369,172.128z"/>
	<path fill="#0055B8" d="M268.6,187.696c-9.678,7.193-16.963,13.011-31.239,15.694c13.22-6.868,22.086-11.594,30.419-20.033
		l-0.257-0.328c-14.777,8.604-34.026,12.289-47.608,12.801l-0.363,0.014l0.193,0.309c11.18,17.694,25.326,19.277,29.929,19.277
		h0.025c0.952,0,1.488-0.063,1.496-0.063l0.102-0.013l0.053-0.085c5.994-9.488,9.812-18.619,17.536-27.264L268.6,187.696z"/>
	<path fill-rule="evenodd" clip-rule="evenodd" fill="#FFFFFF" d="M293.586,153.935c-1.273,1.367-2.496,2.575-3.749,3.708
		c-1.386-2.982-3-5.84-4.876-8.537c0.978-1.181,1.922-2.396,2.802-3.67C290.157,148.084,292.227,151.175,293.586,153.935
		 M298.68,172.707c-1.489,0.199-2.869,0.411-4.238,0.707c-0.303-2.21-0.746-4.402-1.306-6.553c1.479-1.244,2.897-2.51,4.34-3.866
		C298.299,166.177,298.649,169.158,298.68,172.707 M293.91,192.757l-0.041-0.742c0.62-3.072,0.965-6.164,1.073-9.209
		c0.808-0.217,1.633-0.381,2.468-0.539C296.523,186.053,295.417,189.491,293.91,192.757 M258.693,128.749
		c-0.706-0.369-1.419-0.718-2.159-1.049c11.43,3.386,19.136,7.802,23.444,11.154c-0.664,0.984-1.4,1.932-2.162,2.854
		C272.526,136.22,266.067,131.752,258.693,128.749"/>
</g>
</svg>
