<?xml version="1.0" encoding="utf-8"?>
<!-- Generator: Adobe Illustrator 26.0.1, SVG Export Plug-In . SVG Version: 6.00 Build 0)  -->
<svg version="1.1" id="Layer_1" xmlns="http://www.w3.org/2000/svg" xmlns:xlink="http://www.w3.org/1999/xlink" x="0px" y="0px"
	 viewBox="0 0 216.6 216.6" enable-background="new 0 0 216.6 216.6" xml:space="preserve">
<g>
	<path fill="#FFFFFF" d="M216.6,108.3c0,59.8-48.5,108.3-108.3,108.3S0,168.1,0,108.3S48.5,0,108.3,0
		C168.1-0.1,216.6,48.4,216.6,108.3"/>
	<path fill="#006BB5" d="M6.4,129.6c5.7,27.3,21.7,50.6,44.9,65.8s51,20.5,78.3,14.8c27.2-5.7,50.9-21.5,65.8-44.9
		c14.9-23.3,20.2-51.1,14.8-78.3c-5.4-27.3-21.6-50.5-44.9-65.8S114.2,0.7,87.1,6.4c-27.2,5.7-50.6,21.7-65.9,44.9
		C6,74.6,0.7,102.4,6.4,129.6"/>
	<g>
		<path fill="#FFFFFF" d="M143.7,27.2c0.4,4-1.6,8-5.6,11.8C118.6,24.6,100,17.6,81.8,17.6c-3.9,0-7.8,0.3-11.4,0.9
			c5.8-2.4,11.8-4.3,18-5.6c16.3-3.4,32.8-2.6,48.3,2.2C140,18.1,143.3,22.4,143.7,27.2"/>
		<path fill="#FFFFFF" d="M123.4,195.3c20.5-18.8,30-59.2,35.7-83.3l0.9-3.8c2.9-12.3,8.1-21.4,13.6-27c20.6,32,17.8,65,12.6,85.7
			c-14.3,18.9-34.6,31.9-58,36.8c-6.7,1.4-13.4,2.1-20,2.1C113.1,203.5,118.2,200.1,123.4,195.3"/>
		<path fill="#FFFFFF" d="M160.6,58.3c8.3-7,15-12.3,19.8-15.7c10.2,11.3,17.7,24.7,22,39.6c-3.8-5.1-8.8-10.1-14.1-11.2
			c-4.6-0.9-9.3,0.4-13.7,3.5C170.6,69.1,166,63.6,160.6,58.3"/>
		<path fill="#FFFFFF" d="M12.6,103.9C22.1,78.5,56.8,68,69.9,64.2l0.5-0.2c4.3-1.3,10.4-2.3,17.6-3.6c16.8-2.8,37.6-6.4,50.1-15.7
			c5.1,3.8,10.3,8.3,15.6,13.4c-28.4,24.1-72.3,64.6-119.1,114.4c-10.9-12.4-18.5-27.6-22-44.3c-1.4-6.6-2.1-13.3-2.1-19.9
			C11.8,105.8,12.6,103.9,12.6,103.9"/>
		<path fill="#FFFFFF" d="M157.3,55.1c-5.3-4.9-10.5-9.4-15.6-13.4c4.8-4.7,7-9.6,6.5-14.9c-0.3-3.2-1.6-6.2-3.2-8.9
			c5.8,2.4,11.3,5.3,16.7,8.8c5.7,3.8,10.9,8,15.5,12.5C172.3,42.9,165.6,48.2,157.3,55.1"/>
		<path fill="#FFFFFF" d="M134.5,41.9C122.7,50,103.2,53.3,87.4,56c-7.3,1.3-13.5,2.3-18.1,3.7l-0.5,0.2
			c-12.5,3.8-44.1,13.2-57.1,35.9c1.8-14.5,7-28.4,15.2-40.9c7-10.5,16.1-20.3,26.2-27.3C75.9,17.8,101.8,18.4,134.5,41.9"/>
		<path fill="#FFFFFF" d="M187.3,75.4c6.8,1.4,14.2,12.8,17.7,19.5c3,21.4-1.1,42.9-11.9,61.6c0.5-3.3,0.9-6.8,1.2-10.4
			c1.4-18.3-1.1-43.2-17.2-67.8C180.6,75.8,184.2,74.8,187.3,75.4"/>
	</g>
	<path fill="#FFFFFF" d="M157.2,61.2c5.4,5.3,10,10.7,13.8,16.2c-6.7,6.4-12.3,16.8-15.4,29.7l-0.9,3.8c-5.6,23.6-14.9,63.2-34.4,81
		c-8,7.4-15.9,11.2-23,13.3c-15-1.6-29.5-6.9-42.4-15.4c-6.3-4.1-12-8.9-17-14.1C85.2,125.5,129.2,85,157.2,61.2"/>
	<path fill="#FFFFFF" d="M135.2,137.2l2.7-0.7c1.6-0.5,2.7-1,2.7-3.3c0-1.9-0.5-5.4-2.8-5.4c-2.5,0-2.5,4.1-2.5,6.4L135.2,137.2
		L135.2,137.2z"/>
	<path fill="#FFFFFF" d="M103.5,135.8c0-8.3-0.3-15.5-5.9-15.5c-4.6,0-5.4,7.2-5.4,15.5s-0.3,15.5,5.4,15.5
		C102.4,151.3,103.5,144.1,103.5,135.8"/>
	<path fill="#FFFFFF" d="M135.2,137.2l2.7-0.7c1.6-0.5,2.7-1,2.7-3.3c0-1.9-0.5-5.4-2.8-5.4c-2.5,0-2.5,4.1-2.5,6.4L135.2,137.2
		L135.2,137.2z"/>
	<path fill="#FFFFFF" d="M91.5,116.7L91.5,116.7L91.5,116.7c2.8-4.2,8-6.2,13-6.2c11.4,0,18.5,9.9,18.5,23.1
		c0,15.7-10.7,25.1-23.9,25.1c-20.3,0-27.6-16.4-27.6-35.3c0-21.9,9.5-39.9,33.1-39.9c9.2,0,16.7,5.9,16.7,15c0,5.9-4.6,8.8-8.9,8.8
		c-6.4,0-8.4-5.3-9.3-10c-0.4-2,0.4-6.4-2.9-6.4c-6.9,0-8,13.4-8.2,18.4L91.5,116.7z"/>
	<path fill="#FFFFFF" d="M103.5,135.8c0-8.3-0.3-15.5-5.9-15.5c-4.6,0-5.4,7.2-5.4,15.5s-0.3,15.5,5.4,15.5
		C102.4,151.3,103.5,144.1,103.5,135.8"/>
	<g>
		<g>
			<path fill="#FFFFFF" d="M169.1,121c-2.3,0-3.9,1-5.2,2.4c-0.1-0.3-0.3-0.6-0.5-0.9l-1.1-2.1l-15.5,4.6v8.5h2.8c0.3,0,0.5,0,0.5,0
				c0.1,0.3,0.4,1,0.4,3.7v9.9l-2.8,0.4v9.3h21.6v-9.3l-2.8-0.4v-2.9c0-1.6,0.4-4.8,0.8-6.7c0.8,0.3,1.7,0.5,2.8,0.5
				c3.8,0,6.6-3.5,6.6-8.4C176.7,124.3,173.7,121,169.1,121z"/>
			<path fill="#FFFFFF" d="M196.2,130.9c-0.2-0.7-0.3-1-0.3-1.4c0-2.6-1-8.5-10.4-8.5c-5.2,0-15.5,4-15.5,13.4c0,3.5,1,5.9,2.5,7.9
				c-2,1.2-3.3,3.6-3.3,6.4c0,3.4,1.6,9,13,9c9.7,0,15.2-5,15.2-13.7C197.4,135.5,196.7,132.8,196.2,130.9z"/>
			<path fill="#FFFFFF" d="M82.2,80.8c-0.5-0.6-1.5-1.1-2.4-1.1c-1.5,0-2.6,0.9-3.9,2.4c-4.6,4.8-10.8,7.4-18,7.4
				c-9.4,0-19.3-4.3-27.2-11.9c-0.6-0.6-1.5-0.9-2.3-0.9c-3.8,0-4.8,6.1-4.8,6.2v30.9l2.5,0.4c9.3,1.4,17.4,1.1,24.7-0.9
				c-7.9,7-25.7,26.3-25.4,44.7c0,3.4,2.1,3.8,3,3.8c1.1,0,1.8-0.6,2.4-1c0.1-0.1,0.3-0.3,0.5-0.4c2.6-1.9,6.7-2.9,11.3-2.9
				c3.8,0,7.7,0.7,10.5,2.1c0.5,0.3,1.2,0.5,1.9,0.5c0.9,0,1.7-0.4,2.3-1c1-1.1,0.9-2.5,0.8-3.4c-1.3-13.4,1.6-27.9,7.3-36.3
				l0.8-1.3c4.8-7.1,14.9-22,16.7-34.3C83.1,82.6,83,81.5,82.2,80.8z"/>
			<path fill="#FFFFFF" d="M153.9,139.8l-0.2-2.4c-0.1-1.6-0.4-3-0.6-4.4l-0.1-2.7l-0.5,0.7c-2.3-6.3-7.6-10.2-14.3-10.2
				c-10,0-17,7.9-17,19.2c0,8.7,5.1,17.5,16.5,17.5c6.5,0,12.4-3.3,15.5-8.5l0.5-0.7l-0.4-8.4L153.9,139.8z M141.9,145.2
				c-1.1,0-1.8-0.7-2.3-1.6l5.6-1.5C143.5,144.1,142.3,145.1,141.9,145.2z"/>
			<path fill="#FFFFFF" d="M116.8,112.4c-0.5-0.8-1.2-1.7-1.7-2.5c4.9-1,9.2-4.8,9.2-11.3c0-10.2-8.4-17.9-19.7-17.9
				c-22.5,0-35.9,16-35.9,42.7c0,24.2,11.2,38.1,30.5,38.1c15.7,0,26.7-11.5,26.7-28C125.9,125.4,120.4,117.7,116.8,112.4z"/>
		</g>
		<g>
			<path fill="#006BB5" d="M141.9,148.1c-3.5,0-5.6-3.2-5.9-6.4l15-4c-0.5-7.3-4.7-13.8-12.6-13.8c-8.5,0-14.1,6.6-14.1,16.4
				c0,7.6,4.4,14.5,13.5,14.5c5.2,0,10.3-2.5,13.1-7.1l-2.9-3.6C146.4,146.4,144.8,148.1,141.9,148.1z M135.3,134.3
				c0-2.3,0-6.4,2.5-6.4c2.3,0,2.8,3.5,2.8,5.4c0,2.3-1.1,2.8-2.7,3.3l-2.7,0.7L135.3,134.3L135.3,134.3z"/>
			<path fill="#006BB5" d="M166.6,153.9h-15.8v-4l2.8-0.4v-12.4c0-4.4-0.5-6.6-3.8-6.6V127l11.3-3.3c1.3,2.5,1.6,5.4,1.8,8.2h0.1
				c1.1-3.4,2.6-8.1,6.2-8.1c3.2,0,4.7,2.5,4.7,5.5c0,3.1-1.4,5.6-3.7,5.6c-1.6,0-3-0.6-3.8-0.9c-2-0.7-2.7,8.2-2.7,10.1v5.4
				l2.8,0.4v4H166.6z"/>
			<path fill="#006BB5" d="M193.1,129.6c0,2.5-2.1,3.7-4.4,3.7c-2.7,0-4.7-2.2-5.1-4.8c-1.2,0-2,0.6-2,2.6c0,4.6,13,1.3,13,12.9
				c0,8.7-6.3,10.9-12.3,10.9c-3.7,0-10.2-0.5-10.2-6.1c0-2.6,1.4-4.5,3.9-4.5c3.9,0,4.6,3.6,5.3,6.1c0.2,0.6,0.7,0.8,1.3,0.8
				c2.1,0,3.6-0.8,3.6-2.2c0-5.2-13.3-3.2-13.3-14.5c0-7.2,8.5-10.4,12.6-10.4C190.2,124,193.1,125.5,193.1,129.6"/>
			<path fill="#006BB5" d="M104.6,110.4c-5,0-10.2,2-12.9,6.2h-0.1h-0.1h0.1l0.5-7.3c0.3-4.9,1.4-18.4,8.2-18.4
				c3.3,0,2.6,4.4,2.9,6.4c0.9,4.7,2.9,10,9.3,10c4.3,0,8.9-2.8,8.9-8.8c0-9.1-7.6-15-16.7-15c-23.6,0-33.1,18-33.1,39.9
				c0,18.9,7.3,35.3,27.6,35.3c13.2,0,23.9-9.3,23.9-25.1C123.1,120.3,116.1,110.4,104.6,110.4z M97.6,151.3
				c-5.7,0-5.4-7.2-5.4-15.5s0.8-15.5,5.4-15.5c5.7,0,5.9,7.2,5.9,15.5S102.4,151.3,97.6,151.3z"/>
			<path fill="#EC174C" d="M26.6,83.3v28.1c15.7,2.3,34.6,0.8,47.8-18.7c0.5-0.8,0.9-0.3,0.5,0.5c-3.8,7.6-12.5,14.5-20.1,20.5
				c-7.3,5.8-26.9,26.3-26.6,44.3c0,1.4,0.1,1,1.3,0.1c5.9-4.4,17.6-4.6,24.7-1.1c1,0.5,1.1,0.4,0.9-1c-1.4-14,1.7-29.3,7.8-38.1
				c4.1-6.1,15.3-22,17.2-34.4c0.2-1.3-0.5-1.1-2.1,0.6c-12.6,13.4-35.4,13-50.1-1.1C27.1,82,26.7,82.4,26.6,83.3"/>
		</g>
	</g>
	<g>
		<ellipse fill="#FFFFFF" cx="53.9" cy="66.3" rx="27" ry="27"/>
		<g>
			<polygon fill="#006BB5" points="53.9,40.4 54.8,43.2 57.9,43.2 55.3,45 56.3,47.8 53.9,46.1 51.5,47.8 52.4,45 49.9,43.2 
				53,43.2 			"/>
			<polygon fill="#006BB5" points="71.9,50.8 72.8,53.6 75.8,53.6 73.4,55.5 74.3,58.3 71.9,56.6 69.4,58.3 70.4,55.5 67.9,53.6 
				71,53.6 			"/>
			<polygon fill="#006BB5" points="64.1,42.8 65,45.6 68.1,45.6 65.7,47.4 66.6,50.3 64.1,48.5 61.7,50.3 62.7,47.4 60.2,45.6 
				63.2,45.6 			"/>
			<polygon fill="#006BB5" points="74.8,60.7 75.7,63.5 78.8,63.5 76.3,65.3 77.2,68.2 74.8,66.4 72.4,68.2 73.4,65.3 70.8,63.5 
				73.8,63.5 			"/>
			<polygon fill="#006BB5" points="73.5,71.1 74.5,74 77.5,74 75,75.9 75.9,78.6 73.5,76.9 71.2,78.6 72,75.8 69.5,74 72.6,74 			
				"/>
			<polygon fill="#006BB5" points="67.8,79.5 68.6,82.4 71.7,82.4 69.2,84.2 70.2,86.9 67.8,85.2 65.3,86.9 66.2,84.2 63.8,82.4 
				66.9,82.4 			"/>
			<polygon fill="#006BB5" points="58.6,84.2 59.6,87 62.7,87 60.2,88.9 61.1,91.7 58.6,89.9 56.3,91.7 57.2,88.9 54.7,87 57.7,87 
							"/>
			<polygon fill="#006BB5" points="35.6,49.9 34.7,52.7 31.7,52.7 34.1,54.6 33.2,57.4 35.6,55.6 38.1,57.4 37.1,54.6 39.6,52.7 
				36.5,52.7 			"/>
			<polygon fill="#006BB5" points="43.2,42.8 42.3,45.6 39.2,45.6 41.6,47.4 40.7,50.3 43.2,48.5 45.6,50.3 44.6,47.4 47.1,45.6 
				44.1,45.6 			"/>
			<polygon fill="#006BB5" points="32.1,59.4 31.2,62.2 28.2,62.2 30.6,64.1 29.7,66.9 32.1,65.2 34.5,66.9 33.7,64.1 36.1,62.2 
				33,62.2 			"/>
			<polygon fill="#006BB5" points="33,69.8 32.1,72.8 29.1,72.8 31.6,74.5 30.6,77.3 33,75.6 35.5,77.3 34.6,74.5 37.1,72.8 
				33.9,72.8 			"/>
			<polygon fill="#006BB5" points="38.8,78.4 38,81.3 34.9,81.3 37.3,83.1 36.4,85.8 38.8,84.1 41.3,85.8 40.3,83.1 42.8,81.3 
				39.8,81.3 			"/>
			<polygon fill="#006BB5" points="47.9,83.8 47,86.7 43.9,86.7 46.4,88.5 45.6,91.3 47.8,89.6 50.3,91.3 49.4,88.5 51.9,86.7 
				48.8,86.7 			"/>
		</g>
	</g>
</g>
</svg>
