<?xml version="1.0" encoding="utf-8"?>
<!-- Generator: Adobe Illustrator 26.0.1, SVG Export Plug-In . SVG Version: 6.00 Build 0)  -->
<svg version="1.1" id="Layer_1" xmlns="http://www.w3.org/2000/svg" xmlns:xlink="http://www.w3.org/1999/xlink" x="0px" y="0px"
	 viewBox="0 0 111.4 135.6" enable-background="new 0 0 111.4 135.6" xml:space="preserve">
<g>
	<path fill="#FFFFFF" d="M18.8,101.9L5.6,121.5l21.7-7.1l8.8,21.2l6.6-22.8l24.4,6.3l-15.8-18.3l19-15.7l-17,1l11.2-12.6h21.9
		l25-44.3V0H93.7l-8.5,15.1l-1.6,11.4L70.8,49.2H59.1l11.5-20.3V0.1H52.2l-8.2,15l-1.5,11.5l-20,35.7l3.1,7.9L21.7,66l1.6,21.6
		L0,88.6L18.8,101.9z M28.7,73.7H37L34.5,80L28.7,73.7z"/>
	<g>
		<path d="M45.2,27.6l-19.7,35l3.3,8.2H41l-5.6,14.1L25,73.6l1.2,16.6L8.1,91l14.4,10.1l-10.2,15.3l16.5-5.4l6.8,16.4l5.2-17.9
			l18.4,4.7l-11.9-13.7l14.6-12.1l-15.1,0.9l16.4-18.5h21.5l23.8-42.2V2.9H95.1l-7.7,13.7l-1.3,11L72.3,52.2H54.2l13.5-23.8V3h-14
			l-7.4,13.6L45.2,27.6z"/>
		<polygon fill="#C4CED4" points="103.5,6.7 97.2,6.7 92.4,15.2 98.9,15.2 		"/>
		<polygon fill="#C4CED4" points="62.8,6.7 56.1,6.7 51.3,15.2 58.4,15.2 		"/>
		<path fill="#C4CED4" d="M50.1,60.8l-14,32L29.8,86l0.6,8.6L21,95l7.5,5.3l-5.3,7.9l8.6-2.8l3.5,8.5l2.7-9.3l9.6,2.5l-6.2-7.2
			l7.6-6.3l-10.7,0.7h-0.7l22.1-33.4h19.2l17-30.4h-6.6L75,55.6H40.7L55,30.5h-6.7L31,60.9h19.1V60.8z"/>
		<polygon fill="#C4CED4" points="56.6,18.7 50.4,18.7 49.6,26 56,26 		"/>
		<polygon fill="#C4CED4" points="97.5,18.7 91.4,18.7 90.6,26 96.9,26 		"/>
		<path d="M33.1,102.3c1.6,0,2.8-1.2,2.8-2.8s-1.3-2.8-2.8-2.8c-1.6,0-2.8,1.3-2.8,2.8S31.5,102.3,33.1,102.3"/>
	</g>
</g>
</svg>
